<?xml version="1.0" encoding="UTF-8"?>
<svg id="Calque_1" data-name="Calque 1" xmlns="http://www.w3.org/2000/svg" viewBox="0 0 908.09 908.09">
  <defs>
    <style>
      .cls-1 {
        fill: #ec681d;
        stroke: #ec681d;
      }

      .cls-1, .cls-2, .cls-3, .cls-4, .cls-5, .cls-6, .cls-7, .cls-8 {
        stroke-miterlimit: 10;
      }

      .cls-2 {
        fill: #c6e6f0;
        stroke: #c6e6f0;
      }

      .cls-3 {
        fill: #3c509e;
        stroke: #3c509e;
      }

      .cls-4 {
        fill: #5768af;
        stroke: #5768af;
      }

      .cls-5 {
        fill: #f9e927;
        stroke: #f9e927;
      }

      .cls-6 {
        fill: #8dd1e3;
        stroke: #8dd1e3;
      }

      .cls-7 {
        fill: #e52521;
        stroke: #e52521;
      }

      .cls-8 {
        fill: #838fc7;
        stroke: #838fc7;
      }
    </style>
  </defs>
  <rect class="cls-2" x="715.17" y="165.42" width="27.49" height="27.49"/>
  <rect class="cls-2" x="715.17" y="192.91" width="27.49" height="27.49"/>
  <rect class="cls-2" x="687.69" y="220.4" width="27.49" height="27.49"/>
  <rect class="cls-2" x="577.74" y="302.86" width="27.49" height="27.49"/>
  <rect class="cls-2" x="577.74" y="330.35" width="27.49" height="27.49"/>
  <rect class="cls-2" x="550.25" y="357.84" width="27.49" height="27.49"/>
  <rect class="cls-2" x="440.3" y="440.3" width="27.49" height="27.49"/>
  <rect class="cls-2" x="440.3" y="467.79" width="27.49" height="27.49"/>
  <rect class="cls-2" x="412.81" y="495.27" width="27.49" height="27.49"/>
  <rect class="cls-2" x="302.86" y="577.74" width="27.49" height="27.49"/>
  <rect class="cls-2" x="302.86" y="605.22" width="27.49" height="27.49"/>
  <rect class="cls-2" x="275.37" y="632.71" width="27.49" height="27.49"/>
  <g>
    <polygon class="cls-6" points="715.17 165.42 687.69 165.42 660.2 165.42 660.2 192.91 660.2 220.4 660.2 247.89 687.69 247.89 687.69 220.4 715.17 220.4 715.17 192.91 715.17 165.42"/>
    <rect class="cls-6" x="715.17" y="220.4" width="27.49" height="27.49"/>
    <polygon class="cls-6" points="577.74 302.86 550.25 302.86 522.76 302.86 522.76 330.35 522.76 357.84 522.76 385.32 550.25 385.32 550.25 357.84 577.74 357.84 577.74 330.35 577.74 302.86"/>
    <rect class="cls-6" x="577.74" y="357.84" width="27.49" height="27.49"/>
    <polygon class="cls-6" points="440.3 440.3 412.81 440.3 385.32 440.3 385.32 467.79 385.32 495.27 385.32 522.76 412.81 522.76 412.81 495.27 440.3 495.27 440.3 467.79 440.3 440.3"/>
    <rect class="cls-6" x="440.3" y="495.27" width="27.49" height="27.49"/>
    <polygon class="cls-6" points="302.86 577.74 275.37 577.74 247.89 577.74 247.89 605.22 247.89 632.71 247.89 660.2 275.37 660.2 275.37 632.71 302.86 632.71 302.86 605.22 302.86 577.74"/>
    <rect class="cls-6" x="302.86" y="632.71" width="27.49" height="27.49"/>
  </g>
  <path class="cls-4" d="M825.12,192.91v27.49h-27.49v-27.49h27.49v-54.97h-27.49v-27.49h-27.49v-27.49h-54.97v27.49h-27.49v-27.49h27.49v-27.49h-54.97v27.49h-27.49v27.49h-27.49v27.49h-27.49v27.49h-27.49v27.49h-27.49v27.49h-27.49v27.49h-27.49v27.49h-27.49v27.49h-27.49v27.49h-27.49v27.49h-27.49v27.49h-27.49v27.49h-27.49v27.49h-27.49v27.49h-27.49v27.49h-27.49v27.49h-27.49v54.97h-27.49v27.49h27.49v54.97h-27.49v27.49h27.49v27.49h27.49v27.49h54.97v-27.49h27.49v27.49h27.49v-27.49h54.97v-27.49h27.49v-27.49h27.49v-27.49h27.49v-27.49h27.49v-27.49h27.49v-27.49h27.49v-27.49h27.49v-27.49h27.49v-27.49h27.49v-27.49h27.49v-27.49h27.49v-27.49h27.49v-27.49h27.49v-27.49h27.49v-27.49h27.49v-27.49h27.49v-27.49h27.49v-54.97h-27.49ZM550.25,220.4h27.49v-27.49h27.49v54.97h-54.97v-27.49ZM412.81,357.84h27.49v-27.49h27.49v54.97h-54.97v-27.49ZM275.37,495.27h27.49v-27.49h27.49v54.97h-54.97v-27.49ZM357.84,605.22v54.97h-27.49v27.49h-82.46v-27.49h-27.49v-82.46h27.49v-27.49h82.46v27.49h27.49v27.49ZM440.3,605.22h-27.49v27.49h-27.49v-54.97h54.97v27.49ZM495.27,467.79v54.97h-27.49v27.49h-82.46v-27.49h-27.49v-82.46h27.49v-27.49h82.46v27.49h27.49v27.49ZM577.74,467.79h-27.49v27.49h-27.49v-54.97h54.97v27.49ZM632.71,330.35v54.97h-27.49v27.49h-82.46v-27.49h-27.49v-82.46h27.49v-27.49h82.46v27.49h27.49v27.49ZM715.17,330.35h-27.49v27.49h-27.49v-54.97h54.97v27.49ZM770.15,192.91v54.97h-27.49v27.49h-82.46v-27.49h-27.49v-82.46h27.49v-27.49h82.46v27.49h27.49v27.49Z"/>
  <g>
    <polygon class="cls-8" points="357.84 632.71 357.84 605.22 357.84 577.74 330.35 577.74 330.35 605.22 330.35 632.71 330.35 660.2 357.84 660.2 357.84 632.71"/>
    <polygon class="cls-8" points="742.66 55.47 715.17 55.47 715.17 82.96 742.66 82.96 770.15 82.96 770.15 55.47 742.66 55.47"/>
    <rect class="cls-8" x="770.15" y="82.96" width="27.49" height="27.49"/>
    <rect class="cls-8" x="797.64" y="110.45" width="27.49" height="27.49"/>
    <polygon class="cls-8" points="852.61 165.42 852.61 137.94 825.12 137.94 825.12 165.42 825.12 192.91 852.61 192.91 852.61 220.4 852.61 247.89 880.1 247.89 880.1 220.4 880.1 192.91 880.1 165.42 852.61 165.42"/>
    <rect class="cls-8" x="797.64" y="192.91" width="27.49" height="27.49"/>
    <rect class="cls-8" x="577.74" y="220.4" width="27.49" height="27.49"/>
    <polygon class="cls-8" points="770.15 220.4 770.15 192.91 770.15 165.42 742.66 165.42 742.66 192.91 742.66 220.4 742.66 247.89 770.15 247.89 770.15 220.4"/>
    <polygon class="cls-8" points="715.17 275.37 742.66 275.37 742.66 247.89 715.17 247.89 687.69 247.89 660.2 247.89 660.2 275.37 687.69 275.37 715.17 275.37"/>
    <rect class="cls-8" x="825.12" y="247.89" width="27.49" height="27.49"/>
    <rect class="cls-8" x="797.64" y="275.37" width="27.49" height="27.49"/>
    <rect class="cls-8" x="687.69" y="302.86" width="27.49" height="27.49"/>
    <rect class="cls-8" x="770.15" y="302.86" width="27.49" height="27.49"/>
    <rect class="cls-8" x="660.2" y="330.35" width="27.49" height="27.49"/>
    <rect class="cls-8" x="742.66" y="330.35" width="27.49" height="27.49"/>
    <rect class="cls-8" x="440.3" y="357.84" width="27.49" height="27.49"/>
    <polygon class="cls-8" points="632.71 357.84 632.71 330.35 632.71 302.86 605.22 302.86 605.22 330.35 605.22 357.84 605.22 385.32 632.71 385.32 632.71 357.84"/>
    <rect class="cls-8" x="715.17" y="357.84" width="27.49" height="27.49"/>
    <polygon class="cls-8" points="577.74 412.81 605.22 412.81 605.22 385.32 577.74 385.32 550.25 385.32 522.76 385.32 522.76 412.81 550.25 412.81 577.74 412.81"/>
    <rect class="cls-8" x="687.69" y="385.32" width="27.49" height="27.49"/>
    <rect class="cls-8" x="660.2" y="412.81" width="27.49" height="27.49"/>
    <rect class="cls-8" x="550.25" y="440.3" width="27.49" height="27.49"/>
    <rect class="cls-8" x="632.71" y="440.3" width="27.49" height="27.49"/>
    <rect class="cls-8" x="522.76" y="467.79" width="27.49" height="27.49"/>
    <rect class="cls-8" x="605.22" y="467.79" width="27.49" height="27.49"/>
    <rect class="cls-8" x="302.86" y="495.27" width="27.49" height="27.49"/>
    <polygon class="cls-8" points="495.27 495.27 495.27 467.79 495.27 440.3 467.79 440.3 467.79 467.79 467.79 495.27 467.79 522.76 495.27 522.76 495.27 495.27"/>
    <rect class="cls-8" x="577.74" y="495.27" width="27.49" height="27.49"/>
    <polygon class="cls-8" points="440.3 550.25 467.79 550.25 467.79 522.76 440.3 522.76 412.81 522.76 385.32 522.76 385.32 550.25 412.81 550.25 440.3 550.25"/>
    <rect class="cls-8" x="550.25" y="522.76" width="27.49" height="27.49"/>
    <rect class="cls-8" x="522.76" y="550.25" width="27.49" height="27.49"/>
    <rect class="cls-8" x="412.81" y="577.74" width="27.49" height="27.49"/>
    <rect class="cls-8" x="495.27" y="577.74" width="27.49" height="27.49"/>
    <rect class="cls-8" x="385.32" y="605.22" width="27.49" height="27.49"/>
    <rect class="cls-8" x="467.79" y="605.22" width="27.49" height="27.49"/>
    <rect class="cls-8" x="165.42" y="632.71" width="27.49" height="27.49"/>
    <rect class="cls-8" x="440.3" y="632.71" width="27.49" height="27.49"/>
    <rect class="cls-8" x="137.94" y="660.2" width="27.49" height="27.49"/>
    <polygon class="cls-8" points="302.86 687.69 330.35 687.69 330.35 660.2 302.86 660.2 275.37 660.2 247.89 660.2 247.89 687.69 275.37 687.69 302.86 687.69"/>
    <rect class="cls-8" x="412.81" y="660.2" width="27.49" height="27.49"/>
    <rect class="cls-8" x="165.42" y="687.69" width="27.49" height="27.49"/>
    <rect class="cls-8" x="385.32" y="687.69" width="27.49" height="27.49"/>
    <rect class="cls-8" x="192.91" y="715.17" width="27.49" height="27.49"/>
    <polygon class="cls-8" points="330.35 715.17 330.35 742.66 302.86 742.66 302.86 715.17 275.37 715.17 275.37 742.66 247.89 742.66 220.4 742.66 220.4 770.15 247.89 770.15 247.89 797.64 275.37 797.64 275.37 770.15 302.86 770.15 330.35 770.15 357.84 770.15 357.84 742.66 385.32 742.66 385.32 715.17 357.84 715.17 330.35 715.17"/>
  </g>
  <g>
    <polygon class="cls-3" points="742.66 27.99 715.17 27.99 687.69 27.99 660.2 27.99 660.2 55.47 687.69 55.47 715.17 55.47 742.66 55.47 770.15 55.47 770.15 27.99 742.66 27.99"/>
    <rect class="cls-3" x="632.71" y="55.47" width="27.49" height="27.49"/>
    <rect class="cls-3" x="770.15" y="55.47" width="27.49" height="27.49"/>
    <rect class="cls-3" x="605.22" y="82.96" width="27.49" height="27.49"/>
    <rect class="cls-3" x="687.69" y="82.96" width="27.49" height="27.49"/>
    <rect class="cls-3" x="797.64" y="82.96" width="27.49" height="27.49"/>
    <rect class="cls-3" x="577.74" y="110.45" width="27.49" height="27.49"/>
    <rect class="cls-3" x="825.12" y="110.45" width="27.49" height="27.49"/>
    <rect class="cls-3" x="550.25" y="137.94" width="27.49" height="27.49"/>
    <polygon class="cls-3" points="687.69 137.94 660.2 137.94 660.2 165.42 687.69 165.42 715.17 165.42 742.66 165.42 742.66 137.94 715.17 137.94 687.69 137.94"/>
    <rect class="cls-3" x="852.61" y="137.94" width="27.49" height="27.49"/>
    <rect class="cls-3" x="522.76" y="165.42" width="27.49" height="27.49"/>
    <polygon class="cls-3" points="632.71 192.91 632.71 220.4 632.71 247.89 660.2 247.89 660.2 220.4 660.2 192.91 660.2 165.42 632.71 165.42 632.71 192.91"/>
    <rect class="cls-3" x="495.27" y="192.91" width="27.49" height="27.49"/>
    <rect class="cls-3" x="577.74" y="192.91" width="27.49" height="27.49"/>
    <rect class="cls-3" x="467.79" y="220.4" width="27.49" height="27.49"/>
    <rect class="cls-3" x="550.25" y="220.4" width="27.49" height="27.49"/>
    <rect class="cls-3" x="440.3" y="247.89" width="27.49" height="27.49"/>
    <rect class="cls-3" x="412.81" y="275.37" width="27.49" height="27.49"/>
    <polygon class="cls-3" points="550.25 275.37 522.76 275.37 522.76 302.86 550.25 302.86 577.74 302.86 605.22 302.86 605.22 275.37 577.74 275.37 550.25 275.37"/>
    <rect class="cls-3" x="385.32" y="302.86" width="27.49" height="27.49"/>
    <polygon class="cls-3" points="495.27 330.35 495.27 357.84 495.27 385.32 522.76 385.32 522.76 357.84 522.76 330.35 522.76 302.86 495.27 302.86 495.27 330.35"/>
    <rect class="cls-3" x="660.2" y="302.86" width="27.49" height="27.49"/>
    <rect class="cls-3" x="357.84" y="330.35" width="27.49" height="27.49"/>
    <rect class="cls-3" x="440.3" y="330.35" width="27.49" height="27.49"/>
    <rect class="cls-3" x="330.35" y="357.84" width="27.49" height="27.49"/>
    <rect class="cls-3" x="412.81" y="357.84" width="27.49" height="27.49"/>
    <rect class="cls-3" x="302.86" y="385.32" width="27.49" height="27.49"/>
    <rect class="cls-3" x="275.37" y="412.81" width="27.49" height="27.49"/>
    <polygon class="cls-3" points="412.81 412.81 385.32 412.81 385.32 440.3 412.81 440.3 440.3 440.3 467.79 440.3 467.79 412.81 440.3 412.81 412.81 412.81"/>
    <rect class="cls-3" x="247.89" y="440.3" width="27.49" height="27.49"/>
    <polygon class="cls-3" points="357.84 467.79 357.84 495.27 357.84 522.76 385.32 522.76 385.32 495.27 385.32 467.79 385.32 440.3 357.84 440.3 357.84 467.79"/>
    <rect class="cls-3" x="522.76" y="440.3" width="27.49" height="27.49"/>
    <rect class="cls-3" x="220.4" y="467.79" width="27.49" height="27.49"/>
    <rect class="cls-3" x="302.86" y="467.79" width="27.49" height="27.49"/>
    <rect class="cls-3" x="192.91" y="495.27" width="27.49" height="27.49"/>
    <rect class="cls-3" x="275.37" y="495.27" width="27.49" height="27.49"/>
    <polygon class="cls-3" points="165.42 550.25 137.94 550.25 137.94 577.74 137.94 605.22 137.94 632.71 110.45 632.71 110.45 660.2 82.96 660.2 82.96 687.69 82.96 715.17 110.45 715.17 137.94 715.17 137.94 742.66 165.42 742.66 165.42 770.15 192.91 770.15 192.91 797.64 192.91 825.12 220.4 825.12 247.89 825.12 247.89 797.64 247.89 770.15 220.4 770.15 220.4 742.66 192.91 742.66 192.91 715.17 165.42 715.17 165.42 687.69 137.94 687.69 137.94 660.2 165.42 660.2 165.42 632.71 192.91 632.71 192.91 605.22 165.42 605.22 165.42 577.74 192.91 577.74 192.91 550.25 192.91 522.76 165.42 522.76 165.42 550.25"/>
    <polygon class="cls-3" points="275.37 550.25 247.89 550.25 247.89 577.74 275.37 577.74 302.86 577.74 330.35 577.74 330.35 550.25 302.86 550.25 275.37 550.25"/>
    <polygon class="cls-3" points="220.4 605.22 220.4 632.71 220.4 660.2 247.89 660.2 247.89 632.71 247.89 605.22 247.89 577.74 220.4 577.74 220.4 605.22"/>
    <rect class="cls-3" x="385.32" y="577.74" width="27.49" height="27.49"/>
  </g>
  <g>
    <polygon class="cls-7" points="110.45 715.17 82.96 715.17 82.96 742.66 82.96 770.15 82.96 797.64 110.45 797.64 110.45 770.15 110.45 742.66 137.94 742.66 137.94 715.17 110.45 715.17"/>
    <rect class="cls-7" x="137.94" y="742.66" width="27.49" height="27.49"/>
    <polygon class="cls-7" points="165.42 770.15 165.42 797.64 137.94 797.64 137.94 825.12 165.42 825.12 165.42 852.61 192.91 852.61 192.91 825.12 192.91 797.64 192.91 770.15 165.42 770.15"/>
  </g>
  <g>
    <rect class="cls-1" x="82.96" y="797.64" width="27.49" height="27.49"/>
    <rect class="cls-1" x="55.47" y="742.66" width="27.49" height="27.49"/>
    <rect class="cls-1" x="110.45" y="742.66" width="27.49" height="27.49"/>
    <polygon class="cls-1" points="55.47 770.15 27.99 770.15 27.99 797.64 27.99 825.12 55.47 825.12 55.47 797.64 55.47 770.15"/>
    <rect class="cls-1" x="137.94" y="770.15" width="27.49" height="27.49"/>
    <rect class="cls-1" x="55.47" y="825.12" width="27.49" height="27.49"/>
    <rect class="cls-1" x="110.45" y="825.12" width="27.49" height="27.49"/>
    <rect class="cls-1" x="137.94" y="852.61" width="27.49" height="27.49"/>
  </g>
  <g>
    <rect class="cls-5" x="55.47" y="770.15" width="27.49" height="27.49"/>
    <polygon class="cls-5" points="110.45 770.15 110.45 797.64 110.45 825.12 137.94 825.12 137.94 797.64 137.94 770.15 110.45 770.15"/>
    <rect class="cls-5" x=".5" y="797.64" width="27.49" height="27.49"/>
    <rect class="cls-5" x="27.99" y="825.12" width="27.49" height="27.49"/>
    <polygon class="cls-5" points="82.96 852.61 82.96 880.1 110.45 880.1 110.45 852.61 110.45 825.12 82.96 825.12 82.96 852.61"/>
    <rect class="cls-5" x=".5" y="852.61" width="27.49" height="27.49"/>
    <rect class="cls-5" x="55.47" y="880.1" width="27.49" height="27.49"/>
    <rect class="cls-5" x="110.45" y="880.1" width="27.49" height="27.49"/>
  </g>
</svg>