<?xml version="1.0" encoding="UTF-8"?>
<svg id="circle" data-name="Calque 1" xmlns="http://www.w3.org/2000/svg" viewBox="0 0 909 908.09">
  <defs>
    <style>
      .cls-1 {
        fill: #d4e8d4;
        stroke: #d4e8d3;
      }

      .cls-1, .cls-2, .cls-3, .cls-4, .cls-5, .cls-6, .cls-7, .cls-8, .cls-9, .cls-10, .cls-11, .cls-12, .cls-13, .cls-14, .cls-15, .cls-16, .cls-17 {
        stroke-miterlimit: 10;
      }

      .cls-2 {
        fill: #a0ce95;
        stroke: #9fcd94;
      }

      .cls-3 {
        fill: #ec671d;
        stroke: #ec681d;
      }

      .cls-4 {
        fill: #f4f4ca;
        stroke: #f4f4ca;
      }

      .cls-5 {
        fill: #f8e92a;
        stroke: #f9e927;
      }

      .cls-6 {
        fill: #4a4999;
        stroke: #494999;
      }

      .cls-7 {
        fill: #ffed88;
        stroke: #ffec87;
      }

      .cls-18 {
        fill: #ffec87;
      }

      .cls-18, .cls-19 {
        stroke-width: 0px;
      }

      .cls-8 {
        fill: #f07e33;
        stroke: #f07e32;
      }

      .cls-19 {
        fill: #f07e32;
      }

      .cls-9 {
        fill: #6d5fa7;
        stroke: #6c5fa7;
      }

      .cls-10 {
        fill: #129d39;
        stroke: #129d39;
      }

      .cls-11 {
        fill: #0e8437;
        stroke: #0b8336;
      }

      .cls-12 {
        fill: #61b345;
        stroke: #60b345;
      }

      .cls-13 {
        fill: #7abb53;
        stroke: #7abb53;
      }

      .cls-14 {
        fill: #4dae43;
        stroke: #4bae43;
      }

      .cls-15 {
        fill: #2da737;
        stroke: #29a737;
      }

      .cls-16 {
        fill: #f5a065;
        stroke: #f5a065;
      }

      .cls-17 {
        fill: #554d9b;
        stroke: #554d9b;
      }
    </style>
  </defs>
  <rect class="cls-5" x="440.3" y="82.96" width="27.49" height="27.49"/>
  <rect class="cls-5" x="192.91" y="165.42" width="27.49" height="27.49"/>
  <rect class="cls-18" x="357.84" y="165.42" width="27.49" height="27.49"/>
  <rect class="cls-5" x="687.69" y="165.42" width="27.49" height="27.49"/>
  <rect class="cls-19" x="687.69" y="247.89" width="27.49" height="27.49"/>
  <g>
    <polygon class="cls-1" points="357.84 330.35 330.35 330.35 330.35 357.84 330.35 385.32 357.84 385.32 385.32 385.32 385.32 357.84 385.32 330.35 357.84 330.35"/>
    <rect class="cls-1" x="302.86" y="412.81" width="27.49" height="27.49"/>
  </g>
  <rect class="cls-5" x="82.96" y="440.3" width="27.49" height="27.49"/>
  <rect class="cls-5" x="797.64" y="440.3" width="27.49" height="27.49"/>
  <g>
    <polygon class="cls-13" points="385.32 302.86 385.32 275.37 357.84 275.37 330.35 275.37 330.35 302.86 357.84 302.86 385.32 302.86"/>
    <polygon class="cls-13" points="302.86 495.27 302.86 467.79 302.86 440.3 302.86 412.81 302.86 385.32 330.35 385.32 330.35 357.84 330.35 330.35 330.35 302.86 302.86 302.86 302.86 330.35 302.86 357.84 275.37 357.84 275.37 385.32 275.37 412.81 275.37 440.3 275.37 467.79 275.37 495.27 275.37 522.76 275.37 550.25 275.37 577.74 302.86 577.74 302.86 605.22 330.35 605.22 330.35 577.74 330.35 550.25 302.86 550.25 302.86 522.76 302.86 495.27"/>
    <polygon class="cls-13" points="357.84 632.71 385.32 632.71 385.32 605.22 357.84 605.22 330.35 605.22 330.35 632.71 357.84 632.71"/>
  </g>
  <polygon class="cls-10" points="605.22 330.35 605.22 302.86 577.74 302.86 577.74 275.37 550.25 275.37 550.25 302.86 550.25 330.35 550.25 357.84 550.25 385.32 522.76 385.32 522.76 412.81 522.76 440.3 522.76 467.79 522.76 495.27 522.76 522.76 550.25 522.76 550.25 550.25 550.25 577.74 550.25 605.22 550.25 632.71 577.74 632.71 577.74 605.22 605.22 605.22 605.22 577.74 632.71 577.74 632.71 550.25 632.71 522.76 632.71 495.27 632.71 467.79 632.71 440.3 632.71 412.81 632.71 385.32 632.71 357.84 632.71 330.35 605.22 330.35"/>
  <g>
    <rect class="cls-11" x="577.74" y="275.37" width="27.49" height="27.49"/>
    <rect class="cls-11" x="605.22" y="302.86" width="27.49" height="27.49"/>
    <polygon class="cls-11" points="632.71 357.84 632.71 385.32 632.71 412.81 632.71 440.3 632.71 467.79 632.71 495.27 632.71 522.76 632.71 550.25 660.2 550.25 660.2 522.76 660.2 495.27 660.2 467.79 660.2 440.3 660.2 412.81 660.2 385.32 660.2 357.84 632.71 357.84"/>
    <rect class="cls-11" x="605.22" y="577.74" width="27.49" height="27.49"/>
    <rect class="cls-11" x="577.74" y="605.22" width="27.49" height="27.49"/>
  </g>
  <g>
    <rect class="cls-2" x="357.84" y="247.89" width="27.49" height="27.49"/>
    <rect class="cls-2" x="302.86" y="275.37" width="27.49" height="27.49"/>
    <rect class="cls-2" x="275.37" y="330.35" width="27.49" height="27.49"/>
    <polygon class="cls-2" points="275.37 522.76 275.37 495.27 275.37 467.79 275.37 440.3 275.37 412.81 275.37 385.32 275.37 357.84 247.89 357.84 247.89 385.32 247.89 412.81 247.89 440.3 247.89 467.79 247.89 495.27 247.89 522.76 247.89 550.25 275.37 550.25 275.37 522.76"/>
    <rect class="cls-2" x="275.37" y="577.74" width="27.49" height="27.49"/>
    <rect class="cls-2" x="302.86" y="605.22" width="27.49" height="27.49"/>
    <rect class="cls-2" x="357.84" y="632.71" width="27.49" height="27.49"/>
  </g>
  <g>
    <polygon class="cls-12" points="412.81 247.89 385.32 247.89 385.32 275.37 385.32 302.86 357.84 302.86 330.35 302.86 330.35 330.35 357.84 330.35 385.32 330.35 412.81 330.35 412.81 302.86 440.3 302.86 440.3 275.37 440.3 247.89 412.81 247.89"/>
    <polygon class="cls-12" points="412.81 577.74 385.32 577.74 385.32 550.25 357.84 550.25 357.84 522.76 357.84 495.27 357.84 467.79 357.84 440.3 357.84 412.81 357.84 385.32 330.35 385.32 302.86 385.32 302.86 412.81 330.35 412.81 330.35 440.3 302.86 440.3 302.86 467.79 302.86 495.27 302.86 522.76 302.86 550.25 330.35 550.25 330.35 577.74 330.35 605.22 357.84 605.22 385.32 605.22 385.32 632.71 385.32 660.2 412.81 660.2 440.3 660.2 440.3 632.71 440.3 605.22 412.81 605.22 412.81 577.74"/>
  </g>
  <polygon class="cls-14" points="467.79 247.89 440.3 247.89 440.3 275.37 440.3 302.86 412.81 302.86 412.81 330.35 385.32 330.35 385.32 357.84 385.32 385.32 357.84 385.32 357.84 412.81 357.84 440.3 357.84 467.79 357.84 495.27 357.84 522.76 357.84 550.25 385.32 550.25 385.32 577.74 412.81 577.74 412.81 605.22 440.3 605.22 440.3 632.71 440.3 660.2 467.79 660.2 495.27 660.2 495.27 632.71 495.27 605.22 495.27 577.74 467.79 577.74 467.79 550.25 467.79 522.76 440.3 522.76 440.3 495.27 440.3 467.79 440.3 440.3 440.3 412.81 440.3 385.32 467.79 385.32 467.79 357.84 467.79 330.35 495.27 330.35 495.27 302.86 495.27 275.37 495.27 247.89 467.79 247.89"/>
  <polygon class="cls-15" points="522.76 247.89 495.27 247.89 495.27 275.37 495.27 302.86 495.27 330.35 467.79 330.35 467.79 357.84 467.79 385.32 440.3 385.32 440.3 412.81 440.3 440.3 440.3 467.79 440.3 495.27 440.3 522.76 467.79 522.76 467.79 550.25 467.79 577.74 495.27 577.74 495.27 605.22 495.27 632.71 495.27 660.2 522.76 660.2 550.25 660.2 550.25 632.71 550.25 605.22 550.25 577.74 550.25 550.25 550.25 522.76 522.76 522.76 522.76 495.27 522.76 467.79 522.76 440.3 522.76 412.81 522.76 385.32 550.25 385.32 550.25 357.84 550.25 330.35 550.25 302.86 550.25 275.37 550.25 247.89 522.76 247.89"/>
  <g>
    <polygon class="cls-6" points="522.76 220.4 495.27 220.4 467.79 220.4 440.3 220.4 440.3 247.89 467.79 247.89 495.27 247.89 522.76 247.89 550.25 247.89 550.25 220.4 522.76 220.4"/>
    <polygon class="cls-6" points="577.74 247.89 550.25 247.89 550.25 275.37 577.74 275.37 605.22 275.37 605.22 247.89 577.74 247.89"/>
    <rect class="cls-6" x="605.22" y="275.37" width="27.49" height="27.49"/>
    <polygon class="cls-6" points="660.2 302.86 632.71 302.86 632.71 330.35 632.71 357.84 660.2 357.84 660.2 330.35 660.2 302.86"/>
    <polygon class="cls-6" points="660.2 357.84 660.2 385.32 660.2 412.81 660.2 440.3 660.2 467.79 660.2 495.27 660.2 522.76 660.2 550.25 687.69 550.25 687.69 522.76 687.69 495.27 687.69 467.79 687.69 440.3 687.69 412.81 687.69 385.32 687.69 357.84 660.2 357.84"/>
    <polygon class="cls-6" points="632.71 577.74 632.71 605.22 660.2 605.22 660.2 577.74 660.2 550.25 632.71 550.25 632.71 577.74"/>
    <rect class="cls-6" x="605.22" y="605.22" width="27.49" height="27.49"/>
    <polygon class="cls-6" points="550.25 632.71 550.25 660.2 577.74 660.2 605.22 660.2 605.22 632.71 577.74 632.71 550.25 632.71"/>
    <polygon class="cls-6" points="495.27 660.2 467.79 660.2 440.3 660.2 440.3 687.69 467.79 687.69 495.27 687.69 522.76 687.69 550.25 687.69 550.25 660.2 522.76 660.2 495.27 660.2"/>
  </g>
  <rect class="cls-5" x="192.91" y="715.17" width="27.49" height="27.49"/>
  <rect class="cls-5" x="687.69" y="715.17" width="27.49" height="27.49"/>
  <rect class="cls-5" x="440.3" y="797.64" width="27.49" height="27.49"/>
  <g>
    <rect class="cls-4" x="275.37" y="82.96" width="27.49" height="27.49"/>
    <rect class="cls-4" x="605.22" y="82.96" width="27.49" height="27.49"/>
    <rect class="cls-4" x="302.86" y="110.45" width="27.49" height="27.49"/>
    <rect class="cls-4" x="577.74" y="110.45" width="27.49" height="27.49"/>
    <rect class="cls-4" x="330.35" y="137.94" width="27.49" height="27.49"/>
    <rect class="cls-4" x="550.25" y="137.94" width="27.49" height="27.49"/>
    <polygon class="cls-4" points="165.42 275.37 137.94 275.37 137.94 247.89 110.45 247.89 110.45 275.37 82.96 275.37 82.96 302.86 110.45 302.86 110.45 330.35 137.94 330.35 137.94 357.84 165.42 357.84 165.42 330.35 192.91 330.35 192.91 302.86 165.42 302.86 165.42 275.37"/>
    <polygon class="cls-4" points="797.64 275.37 797.64 247.89 770.15 247.89 770.15 275.37 742.66 275.37 742.66 302.86 715.17 302.86 715.17 330.35 742.66 330.35 742.66 357.84 770.15 357.84 770.15 330.35 797.64 330.35 797.64 302.86 825.12 302.86 825.12 275.37 797.64 275.37"/>
    <polygon class="cls-4" points="165.42 550.25 137.94 550.25 137.94 577.74 110.45 577.74 110.45 605.22 82.96 605.22 82.96 632.71 110.45 632.71 110.45 660.2 137.94 660.2 137.94 632.71 165.42 632.71 165.42 605.22 192.91 605.22 192.91 577.74 165.42 577.74 165.42 550.25"/>
    <polygon class="cls-4" points="797.64 577.74 770.15 577.74 770.15 550.25 742.66 550.25 742.66 577.74 715.17 577.74 715.17 605.22 742.66 605.22 742.66 632.71 770.15 632.71 770.15 660.2 797.64 660.2 797.64 632.71 825.12 632.71 825.12 605.22 797.64 605.22 797.64 577.74"/>
    <rect class="cls-4" x="330.35" y="742.66" width="27.49" height="27.49"/>
    <rect class="cls-4" x="550.25" y="742.66" width="27.49" height="27.49"/>
    <rect class="cls-4" x="302.86" y="770.15" width="27.49" height="27.49"/>
    <rect class="cls-4" x="577.74" y="770.15" width="27.49" height="27.49"/>
    <rect class="cls-4" x="275.37" y="797.64" width="27.49" height="27.49"/>
    <rect class="cls-4" x="605.22" y="797.64" width="27.49" height="27.49"/>
  </g>
  <g>
    <path class="cls-3" d="M495.27,55.47h-27.49v-27.49h-27.49v27.49h-27.49v27.49h-27.49v27.49h27.49v27.49h27.49v27.49h27.49v-27.49h27.49v-27.49h27.49v-27.49h-27.49v-27.49ZM467.79,110.45h-27.49v-27.49h27.49v27.49Z"/>
    <polygon class="cls-3" points="220.4 137.94 220.4 110.45 192.91 110.45 192.91 137.94 192.91 165.42 220.4 165.42 220.4 137.94"/>
    <polygon class="cls-3" points="715.17 137.94 715.17 110.45 687.69 110.45 687.69 137.94 687.69 165.42 715.17 165.42 715.17 137.94"/>
    <polygon class="cls-3" points="165.42 165.42 137.94 165.42 137.94 192.91 165.42 192.91 192.91 192.91 192.91 165.42 165.42 165.42"/>
    <polygon class="cls-3" points="220.4 165.42 220.4 192.91 247.89 192.91 275.37 192.91 275.37 165.42 247.89 165.42 220.4 165.42"/>
    <polygon class="cls-3" points="687.69 192.91 687.69 165.42 660.2 165.42 632.71 165.42 632.71 192.91 660.2 192.91 687.69 192.91"/>
    <polygon class="cls-3" points="742.66 192.91 770.15 192.91 770.15 165.42 742.66 165.42 715.17 165.42 715.17 192.91 742.66 192.91"/>
    <polygon class="cls-3" points="192.91 220.4 192.91 247.89 220.4 247.89 220.4 220.4 220.4 192.91 192.91 192.91 192.91 220.4"/>
    <polygon class="cls-3" points="687.69 220.4 687.69 247.89 715.17 247.89 715.17 220.4 715.17 192.91 687.69 192.91 687.69 220.4"/>
    <path class="cls-3" d="M852.61,440.3v-27.49h-27.49v-27.49h-27.49v27.49h-27.49v27.49h-27.49v27.49h27.49v27.49h27.49v27.49h27.49v-27.49h27.49v-27.49h27.49v-27.49h-27.49ZM797.64,467.79v-27.49h27.49v27.49h-27.49Z"/>
    <path class="cls-3" d="M137.94,467.79h27.49v-27.49h-27.49v-27.49h-27.49v-27.49h-27.49v27.49h-27.49v27.49h-27.49v27.49h27.49v27.49h27.49v27.49h27.49v-27.49h27.49v-27.49ZM82.96,467.79v-27.49h27.49v27.49h-27.49Z"/>
    <polygon class="cls-3" points="220.4 687.69 220.4 660.2 192.91 660.2 192.91 687.69 192.91 715.17 220.4 715.17 220.4 687.69"/>
    <polygon class="cls-3" points="715.17 687.69 715.17 660.2 687.69 660.2 687.69 687.69 687.69 715.17 715.17 715.17 715.17 687.69"/>
    <polygon class="cls-3" points="165.42 715.17 137.94 715.17 137.94 742.66 165.42 742.66 192.91 742.66 192.91 715.17 165.42 715.17"/>
    <polygon class="cls-3" points="220.4 715.17 220.4 742.66 247.89 742.66 275.37 742.66 275.37 715.17 247.89 715.17 220.4 715.17"/>
    <polygon class="cls-3" points="660.2 715.17 632.71 715.17 632.71 742.66 660.2 742.66 687.69 742.66 687.69 715.17 660.2 715.17"/>
    <polygon class="cls-3" points="715.17 715.17 715.17 742.66 742.66 742.66 770.15 742.66 770.15 715.17 742.66 715.17 715.17 715.17"/>
    <polygon class="cls-3" points="192.91 770.15 192.91 797.64 220.4 797.64 220.4 770.15 220.4 742.66 192.91 742.66 192.91 770.15"/>
    <polygon class="cls-3" points="687.69 770.15 687.69 797.64 715.17 797.64 715.17 770.15 715.17 742.66 687.69 742.66 687.69 770.15"/>
    <path class="cls-3" d="M495.27,770.15h-27.49v-27.49h-27.49v27.49h-27.49v27.49h-27.49v27.49h27.49v27.49h27.49v27.49h27.49v-27.49h27.49v-27.49h27.49v-27.49h-27.49v-27.49ZM467.79,825.12h-27.49v-27.49h27.49v27.49Z"/>
  </g>
  <g>
    <rect class="cls-8" x="412.81" y="27.99" width="27.49" height="27.49"/>
    <rect class="cls-8" x="467.79" y="27.99" width="27.49" height="27.49"/>
    <rect class="cls-8" x="385.32" y="55.47" width="27.49" height="27.49"/>
    <rect class="cls-8" x="495.27" y="55.47" width="27.49" height="27.49"/>
    <rect class="cls-8" x="357.84" y="82.96" width="27.49" height="27.49"/>
    <rect class="cls-8" x="522.76" y="82.96" width="27.49" height="27.49"/>
    <rect class="cls-8" x="385.32" y="110.45" width="27.49" height="27.49"/>
    <rect class="cls-8" x="495.27" y="110.45" width="27.49" height="27.49"/>
    <polygon class="cls-8" points="192.91 165.42 192.91 137.94 165.42 137.94 137.94 137.94 137.94 165.42 165.42 165.42 192.91 165.42"/>
    <polygon class="cls-8" points="275.37 137.94 247.89 137.94 247.89 110.45 220.4 110.45 220.4 137.94 220.4 165.42 247.89 165.42 275.37 165.42 275.37 192.91 302.86 192.91 302.86 165.42 275.37 165.42 275.37 137.94"/>
    <rect class="cls-8" x="412.81" y="137.94" width="27.49" height="27.49"/>
    <rect class="cls-8" x="467.79" y="137.94" width="27.49" height="27.49"/>
    <polygon class="cls-8" points="687.69 165.42 687.69 137.94 687.69 110.45 660.2 110.45 660.2 137.94 632.71 137.94 632.71 165.42 660.2 165.42 687.69 165.42"/>
    <polygon class="cls-8" points="770.15 165.42 770.15 137.94 742.66 137.94 715.17 137.94 715.17 165.42 742.66 165.42 770.15 165.42"/>
    <rect class="cls-8" x="440.3" y="165.42" width="27.49" height="27.49"/>
    <rect class="cls-8" x="605.22" y="165.42" width="27.49" height="27.49"/>
    <polygon class="cls-8" points="192.91 192.91 165.42 192.91 137.94 192.91 137.94 220.4 165.42 220.4 165.42 247.89 192.91 247.89 192.91 220.4 192.91 192.91"/>
    <polygon class="cls-8" points="220.4 192.91 220.4 220.4 220.4 247.89 247.89 247.89 247.89 220.4 275.37 220.4 275.37 192.91 247.89 192.91 220.4 192.91"/>
    <polygon class="cls-8" points="660.2 220.4 660.2 247.89 687.69 247.89 687.69 220.4 687.69 192.91 660.2 192.91 632.71 192.91 632.71 220.4 660.2 220.4"/>
    <polygon class="cls-8" points="742.66 220.4 770.15 220.4 770.15 192.91 742.66 192.91 715.17 192.91 715.17 220.4 715.17 247.89 742.66 247.89 742.66 220.4"/>
    <rect class="cls-8" x="192.91" y="247.89" width="27.49" height="27.49"/>
    <rect class="cls-8" x="82.96" y="357.84" width="27.49" height="27.49"/>
    <rect class="cls-8" x="797.64" y="357.84" width="27.49" height="27.49"/>
    <rect class="cls-8" x="55.47" y="385.32" width="27.49" height="27.49"/>
    <rect class="cls-8" x="110.45" y="385.32" width="27.49" height="27.49"/>
    <rect class="cls-8" x="770.15" y="385.32" width="27.49" height="27.49"/>
    <rect class="cls-8" x="825.12" y="385.32" width="27.49" height="27.49"/>
    <rect class="cls-8" x="27.99" y="412.81" width="27.49" height="27.49"/>
    <rect class="cls-8" x="137.94" y="412.81" width="27.49" height="27.49"/>
    <rect class="cls-8" x="742.66" y="412.81" width="27.49" height="27.49"/>
    <rect class="cls-8" x="852.61" y="412.81" width="27.49" height="27.49"/>
    <rect class="cls-8" x="165.42" y="440.3" width="27.49" height="27.49"/>
    <rect class="cls-8" x="715.17" y="440.3" width="27.49" height="27.49"/>
    <rect class="cls-8" x="27.99" y="467.79" width="27.49" height="27.49"/>
    <rect class="cls-8" x="137.94" y="467.79" width="27.49" height="27.49"/>
    <rect class="cls-8" x="742.66" y="467.79" width="27.49" height="27.49"/>
    <rect class="cls-8" x="852.61" y="467.79" width="27.49" height="27.49"/>
    <rect class="cls-8" x="55.47" y="495.27" width="27.49" height="27.49"/>
    <rect class="cls-8" x="110.45" y="495.27" width="27.49" height="27.49"/>
    <rect class="cls-8" x="770.15" y="495.27" width="27.49" height="27.49"/>
    <rect class="cls-8" x="825.12" y="495.27" width="27.49" height="27.49"/>
    <rect class="cls-8" x="82.96" y="522.76" width="27.49" height="27.49"/>
    <rect class="cls-8" x="797.64" y="522.76" width="27.49" height="27.49"/>
    <rect class="cls-8" x="192.91" y="632.71" width="27.49" height="27.49"/>
    <rect class="cls-8" x="687.69" y="632.71" width="27.49" height="27.49"/>
    <polygon class="cls-8" points="165.42 687.69 137.94 687.69 137.94 715.17 165.42 715.17 192.91 715.17 192.91 687.69 192.91 660.2 165.42 660.2 165.42 687.69"/>
    <polygon class="cls-8" points="660.2 687.69 632.71 687.69 632.71 715.17 660.2 715.17 687.69 715.17 687.69 687.69 687.69 660.2 660.2 660.2 660.2 687.69"/>
    <polygon class="cls-8" points="742.66 660.2 715.17 660.2 715.17 687.69 715.17 715.17 742.66 715.17 770.15 715.17 770.15 687.69 742.66 687.69 742.66 660.2"/>
    <polygon class="cls-8" points="247.89 687.69 247.89 660.2 220.4 660.2 220.4 687.69 220.4 715.17 247.89 715.17 275.37 715.17 275.37 687.69 247.89 687.69"/>
    <rect class="cls-8" x="275.37" y="715.17" width="27.49" height="27.49"/>
    <polygon class="cls-8" points="440.3 715.17 440.3 742.66 412.81 742.66 412.81 770.15 440.3 770.15 440.3 742.66 467.79 742.66 467.79 715.17 440.3 715.17"/>
    <rect class="cls-8" x="605.22" y="715.17" width="27.49" height="27.49"/>
    <polygon class="cls-8" points="137.94 742.66 137.94 770.15 165.42 770.15 192.91 770.15 192.91 742.66 165.42 742.66 137.94 742.66"/>
    <polygon class="cls-8" points="220.4 742.66 220.4 770.15 220.4 797.64 247.89 797.64 247.89 770.15 275.37 770.15 275.37 742.66 247.89 742.66 220.4 742.66"/>
    <rect class="cls-8" x="467.79" y="742.66" width="27.49" height="27.49"/>
    <polygon class="cls-8" points="660.2 770.15 660.2 797.64 687.69 797.64 687.69 770.15 687.69 742.66 660.2 742.66 632.71 742.66 632.71 770.15 660.2 770.15"/>
    <polygon class="cls-8" points="715.17 742.66 715.17 770.15 742.66 770.15 770.15 770.15 770.15 742.66 742.66 742.66 715.17 742.66"/>
    <rect class="cls-8" x="385.32" y="770.15" width="27.49" height="27.49"/>
    <rect class="cls-8" x="495.27" y="770.15" width="27.49" height="27.49"/>
    <rect class="cls-8" x="357.84" y="797.64" width="27.49" height="27.49"/>
    <rect class="cls-8" x="522.76" y="797.64" width="27.49" height="27.49"/>
    <rect class="cls-8" x="385.32" y="825.12" width="27.49" height="27.49"/>
    <rect class="cls-8" x="495.27" y="825.12" width="27.49" height="27.49"/>
    <rect class="cls-8" x="412.81" y="852.61" width="27.49" height="27.49"/>
    <rect class="cls-8" x="467.79" y="852.61" width="27.49" height="27.49"/>
  </g>
  <g>
    <rect class="cls-16" x="385.32" y="27.99" width="27.49" height="27.49"/>
    <rect class="cls-16" x="495.27" y="27.99" width="27.49" height="27.49"/>
    <rect class="cls-16" x="357.84" y="55.47" width="27.49" height="27.49"/>
    <rect class="cls-16" x="522.76" y="55.47" width="27.49" height="27.49"/>
    <rect class="cls-16" x="220.4" y="82.96" width="27.49" height="27.49"/>
    <rect class="cls-16" x="330.35" y="82.96" width="27.49" height="27.49"/>
    <rect class="cls-16" x="550.25" y="82.96" width="27.49" height="27.49"/>
    <rect class="cls-16" x="660.2" y="82.96" width="27.49" height="27.49"/>
    <rect class="cls-16" x="247.89" y="110.45" width="27.49" height="27.49"/>
    <rect class="cls-16" x="357.84" y="110.45" width="27.49" height="27.49"/>
    <rect class="cls-16" x="522.76" y="110.45" width="27.49" height="27.49"/>
    <rect class="cls-16" x="632.71" y="110.45" width="27.49" height="27.49"/>
    <rect class="cls-16" x="275.37" y="137.94" width="27.49" height="27.49"/>
    <rect class="cls-16" x="385.32" y="137.94" width="27.49" height="27.49"/>
    <rect class="cls-16" x="495.27" y="137.94" width="27.49" height="27.49"/>
    <rect class="cls-16" x="605.22" y="137.94" width="27.49" height="27.49"/>
    <rect class="cls-16" x="302.86" y="165.42" width="27.49" height="27.49"/>
    <rect class="cls-16" x="412.81" y="165.42" width="27.49" height="27.49"/>
    <rect class="cls-16" x="467.79" y="165.42" width="27.49" height="27.49"/>
    <rect class="cls-16" x="577.74" y="165.42" width="27.49" height="27.49"/>
    <rect class="cls-16" x="110.45" y="192.91" width="27.49" height="27.49"/>
    <rect class="cls-16" x="275.37" y="192.91" width="27.49" height="27.49"/>
    <rect class="cls-16" x="605.22" y="192.91" width="27.49" height="27.49"/>
    <rect class="cls-16" x="770.15" y="192.91" width="27.49" height="27.49"/>
    <rect class="cls-16" x="137.94" y="220.4" width="27.49" height="27.49"/>
    <rect class="cls-16" x="247.89" y="220.4" width="27.49" height="27.49"/>
    <rect class="cls-16" x="632.71" y="220.4" width="27.49" height="27.49"/>
    <rect class="cls-16" x="742.66" y="220.4" width="27.49" height="27.49"/>
    <rect class="cls-16" x="165.42" y="247.89" width="27.49" height="27.49"/>
    <rect class="cls-16" x="220.4" y="247.89" width="27.49" height="27.49"/>
    <rect class="cls-16" x="660.2" y="247.89" width="27.49" height="27.49"/>
    <rect class="cls-16" x="715.17" y="247.89" width="27.49" height="27.49"/>
    <rect class="cls-16" x="192.91" y="275.37" width="27.49" height="27.49"/>
    <rect class="cls-16" x="687.69" y="275.37" width="27.49" height="27.49"/>
    <rect class="cls-16" x="82.96" y="330.35" width="27.49" height="27.49"/>
    <rect class="cls-16" x="797.64" y="330.35" width="27.49" height="27.49"/>
    <rect class="cls-16" x="55.47" y="357.84" width="27.49" height="27.49"/>
    <rect class="cls-16" x="110.45" y="357.84" width="27.49" height="27.49"/>
    <rect class="cls-16" x="770.15" y="357.84" width="27.49" height="27.49"/>
    <rect class="cls-16" x="825.12" y="357.84" width="27.49" height="27.49"/>
    <rect class="cls-16" x="27.99" y="385.32" width="27.49" height="27.49"/>
    <rect class="cls-16" x="137.94" y="385.32" width="27.49" height="27.49"/>
    <rect class="cls-16" x="742.66" y="385.32" width="27.49" height="27.49"/>
    <rect class="cls-16" x="852.61" y="385.32" width="27.49" height="27.49"/>
    <rect class="cls-16" x="165.42" y="412.81" width="27.49" height="27.49"/>
    <rect class="cls-16" x="715.17" y="412.81" width="27.49" height="27.49"/>
    <rect class="cls-16" x="165.42" y="467.79" width="27.49" height="27.49"/>
    <rect class="cls-16" x="715.17" y="467.79" width="27.49" height="27.49"/>
    <rect class="cls-16" x="27.99" y="495.27" width="27.49" height="27.49"/>
    <rect class="cls-16" x="137.94" y="495.27" width="27.49" height="27.49"/>
    <rect class="cls-16" x="742.66" y="495.27" width="27.49" height="27.49"/>
    <rect class="cls-16" x="852.61" y="495.27" width="27.49" height="27.49"/>
    <rect class="cls-16" x="55.47" y="522.76" width="27.49" height="27.49"/>
    <rect class="cls-16" x="110.45" y="522.76" width="27.49" height="27.49"/>
    <rect class="cls-16" x="770.15" y="522.76" width="27.49" height="27.49"/>
    <rect class="cls-16" x="825.12" y="522.76" width="27.49" height="27.49"/>
    <rect class="cls-16" x="82.96" y="550.25" width="27.49" height="27.49"/>
    <rect class="cls-16" x="797.64" y="550.25" width="27.49" height="27.49"/>
    <rect class="cls-16" x="192.91" y="605.22" width="27.49" height="27.49"/>
    <rect class="cls-16" x="687.69" y="605.22" width="27.49" height="27.49"/>
    <rect class="cls-16" x="165.42" y="632.71" width="27.49" height="27.49"/>
    <rect class="cls-16" x="220.4" y="632.71" width="27.49" height="27.49"/>
    <rect class="cls-16" x="660.2" y="632.71" width="27.49" height="27.49"/>
    <rect class="cls-16" x="715.17" y="632.71" width="27.49" height="27.49"/>
    <rect class="cls-16" x="137.94" y="660.2" width="27.49" height="27.49"/>
    <rect class="cls-16" x="247.89" y="660.2" width="27.49" height="27.49"/>
    <rect class="cls-16" x="632.71" y="660.2" width="27.49" height="27.49"/>
    <rect class="cls-16" x="742.66" y="660.2" width="27.49" height="27.49"/>
    <rect class="cls-16" x="110.45" y="687.69" width="27.49" height="27.49"/>
    <rect class="cls-16" x="275.37" y="687.69" width="27.49" height="27.49"/>
    <rect class="cls-16" x="605.22" y="687.69" width="27.49" height="27.49"/>
    <rect class="cls-16" x="770.15" y="687.69" width="27.49" height="27.49"/>
    <rect class="cls-16" x="302.86" y="715.17" width="27.49" height="27.49"/>
    <rect class="cls-16" x="412.81" y="715.17" width="27.49" height="27.49"/>
    <rect class="cls-16" x="467.79" y="715.17" width="27.49" height="27.49"/>
    <rect class="cls-16" x="577.74" y="715.17" width="27.49" height="27.49"/>
    <rect class="cls-16" x="275.37" y="742.66" width="27.49" height="27.49"/>
    <rect class="cls-16" x="385.32" y="742.66" width="27.49" height="27.49"/>
    <rect class="cls-16" x="495.27" y="742.66" width="27.49" height="27.49"/>
    <rect class="cls-16" x="605.22" y="742.66" width="27.49" height="27.49"/>
    <rect class="cls-16" x="247.89" y="770.15" width="27.49" height="27.49"/>
    <rect class="cls-16" x="357.84" y="770.15" width="27.49" height="27.49"/>
    <rect class="cls-16" x="522.76" y="770.15" width="27.49" height="27.49"/>
    <rect class="cls-16" x="632.71" y="770.15" width="27.49" height="27.49"/>
    <rect class="cls-16" x="220.4" y="797.64" width="27.49" height="27.49"/>
    <rect class="cls-16" x="330.35" y="797.64" width="27.49" height="27.49"/>
    <rect class="cls-16" x="550.25" y="797.64" width="27.49" height="27.49"/>
    <rect class="cls-16" x="660.2" y="797.64" width="27.49" height="27.49"/>
    <rect class="cls-16" x="357.84" y="825.12" width="27.49" height="27.49"/>
    <rect class="cls-16" x="522.76" y="825.12" width="27.49" height="27.49"/>
    <rect class="cls-16" x="385.32" y="852.61" width="27.49" height="27.49"/>
    <rect class="cls-16" x="495.27" y="852.61" width="27.49" height="27.49"/>
  </g>
  <g>
    <rect class="cls-7" x="357.84" y="27.99" width="27.49" height="27.49"/>
    <rect class="cls-7" x="522.76" y="27.99" width="27.49" height="27.49"/>
    <rect class="cls-7" x="247.89" y="82.96" width="27.49" height="27.49"/>
    <polygon class="cls-7" points="302.86 110.45 330.35 110.45 330.35 82.96 357.84 82.96 357.84 55.47 330.35 55.47 302.86 55.47 275.37 55.47 275.37 82.96 302.86 82.96 302.86 110.45"/>
    <polygon class="cls-7" points="605.22 82.96 632.71 82.96 632.71 55.47 605.22 55.47 577.74 55.47 550.25 55.47 550.25 82.96 577.74 82.96 577.74 110.45 605.22 110.45 605.22 82.96"/>
    <rect class="cls-7" x="632.71" y="82.96" width="27.49" height="27.49"/>
    <rect class="cls-7" x="275.37" y="110.45" width="27.49" height="27.49"/>
    <rect class="cls-7" x="330.35" y="110.45" width="27.49" height="27.49"/>
    <rect class="cls-7" x="550.25" y="110.45" width="27.49" height="27.49"/>
    <rect class="cls-7" x="605.22" y="110.45" width="27.49" height="27.49"/>
    <rect class="cls-7" x="302.86" y="137.94" width="27.49" height="27.49"/>
    <rect class="cls-7" x="357.84" y="137.94" width="27.49" height="27.49"/>
    <rect class="cls-7" x="577.74" y="137.94" width="27.49" height="27.49"/>
    <polygon class="cls-7" points="330.35 192.91 302.86 192.91 302.86 220.4 330.35 220.4 357.84 220.4 357.84 192.91 357.84 165.42 330.35 165.42 330.35 192.91"/>
    <rect class="cls-7" x="385.32" y="165.42" width="27.49" height="27.49"/>
    <polygon class="cls-7" points="577.74 192.91 577.74 165.42 550.25 165.42 550.25 137.94 522.76 137.94 522.76 165.42 495.27 165.42 495.27 192.91 522.76 192.91 550.25 192.91 550.25 220.4 577.74 220.4 605.22 220.4 605.22 192.91 577.74 192.91"/>
    <rect class="cls-7" x="275.37" y="220.4" width="27.49" height="27.49"/>
    <rect class="cls-7" x="605.22" y="220.4" width="27.49" height="27.49"/>
    <polygon class="cls-7" points="110.45 247.89 137.94 247.89 137.94 220.4 110.45 220.4 82.96 220.4 82.96 247.89 82.96 275.37 110.45 275.37 110.45 247.89"/>
    <rect class="cls-7" x="137.94" y="247.89" width="27.49" height="27.49"/>
    <rect class="cls-7" x="247.89" y="247.89" width="27.49" height="27.49"/>
    <rect class="cls-7" x="632.71" y="247.89" width="27.49" height="27.49"/>
    <rect class="cls-7" x="742.66" y="247.89" width="27.49" height="27.49"/>
    <polygon class="cls-7" points="797.64 275.37 825.12 275.37 825.12 247.89 825.12 220.4 797.64 220.4 770.15 220.4 770.15 247.89 797.64 247.89 797.64 275.37"/>
    <rect class="cls-7" x="165.42" y="275.37" width="27.49" height="27.49"/>
    <rect class="cls-7" x="220.4" y="275.37" width="27.49" height="27.49"/>
    <rect class="cls-7" x="660.2" y="275.37" width="27.49" height="27.49"/>
    <rect class="cls-7" x="715.17" y="275.37" width="27.49" height="27.49"/>
    <polygon class="cls-7" points="82.96 302.86 82.96 275.37 55.47 275.37 55.47 302.86 55.47 330.35 55.47 357.84 82.96 357.84 82.96 330.35 110.45 330.35 110.45 302.86 82.96 302.86"/>
    <polygon class="cls-7" points="192.91 330.35 165.42 330.35 165.42 357.84 137.94 357.84 137.94 385.32 165.42 385.32 165.42 412.81 192.91 412.81 192.91 385.32 192.91 357.84 220.4 357.84 220.4 330.35 220.4 302.86 192.91 302.86 192.91 330.35"/>
    <polygon class="cls-7" points="852.61 302.86 852.61 275.37 825.12 275.37 825.12 302.86 797.64 302.86 797.64 330.35 825.12 330.35 825.12 357.84 852.61 357.84 852.61 330.35 852.61 302.86"/>
    <rect class="cls-7" x="110.45" y="330.35" width="27.49" height="27.49"/>
    <polygon class="cls-7" points="742.66 330.35 715.17 330.35 715.17 302.86 687.69 302.86 687.69 330.35 687.69 357.84 715.17 357.84 715.17 385.32 715.17 412.81 742.66 412.81 742.66 385.32 770.15 385.32 770.15 357.84 742.66 357.84 742.66 330.35"/>
    <rect class="cls-7" x="770.15" y="330.35" width="27.49" height="27.49"/>
    <rect class="cls-7" x="27.99" y="357.84" width="27.49" height="27.49"/>
    <rect class="cls-7" x="852.61" y="357.84" width="27.49" height="27.49"/>
    <rect class="cls-7" x="27.99" y="522.76" width="27.49" height="27.49"/>
    <rect class="cls-7" x="852.61" y="522.76" width="27.49" height="27.49"/>
    <rect class="cls-7" x="110.45" y="550.25" width="27.49" height="27.49"/>
    <polygon class="cls-7" points="220.4 550.25 192.91 550.25 192.91 522.76 192.91 495.27 165.42 495.27 165.42 522.76 137.94 522.76 137.94 550.25 165.42 550.25 165.42 577.74 192.91 577.74 192.91 605.22 220.4 605.22 220.4 577.74 220.4 550.25"/>
    <polygon class="cls-7" points="742.66 577.74 742.66 550.25 770.15 550.25 770.15 522.76 742.66 522.76 742.66 495.27 715.17 495.27 715.17 522.76 715.17 550.25 687.69 550.25 687.69 577.74 687.69 605.22 715.17 605.22 715.17 577.74 742.66 577.74"/>
    <rect class="cls-7" x="770.15" y="550.25" width="27.49" height="27.49"/>
    <polygon class="cls-7" points="825.12 577.74 797.64 577.74 797.64 605.22 825.12 605.22 825.12 632.71 852.61 632.71 852.61 605.22 852.61 577.74 852.61 550.25 825.12 550.25 825.12 577.74"/>
    <polygon class="cls-7" points="110.45 605.22 110.45 577.74 82.96 577.74 82.96 550.25 55.47 550.25 55.47 577.74 55.47 605.22 55.47 632.71 82.96 632.71 82.96 605.22 110.45 605.22"/>
    <rect class="cls-7" x="165.42" y="605.22" width="27.49" height="27.49"/>
    <rect class="cls-7" x="220.4" y="605.22" width="27.49" height="27.49"/>
    <rect class="cls-7" x="660.2" y="605.22" width="27.49" height="27.49"/>
    <rect class="cls-7" x="715.17" y="605.22" width="27.49" height="27.49"/>
    <polygon class="cls-7" points="110.45 632.71 82.96 632.71 82.96 660.2 82.96 687.69 110.45 687.69 137.94 687.69 137.94 660.2 110.45 660.2 110.45 632.71"/>
    <rect class="cls-7" x="137.94" y="632.71" width="27.49" height="27.49"/>
    <rect class="cls-7" x="247.89" y="632.71" width="27.49" height="27.49"/>
    <rect class="cls-7" x="632.71" y="632.71" width="27.49" height="27.49"/>
    <rect class="cls-7" x="742.66" y="632.71" width="27.49" height="27.49"/>
    <polygon class="cls-7" points="797.64 660.2 770.15 660.2 770.15 687.69 797.64 687.69 825.12 687.69 825.12 660.2 825.12 632.71 797.64 632.71 797.64 660.2"/>
    <rect class="cls-7" x="275.37" y="660.2" width="27.49" height="27.49"/>
    <rect class="cls-7" x="605.22" y="660.2" width="27.49" height="27.49"/>
    <polygon class="cls-7" points="550.25 687.69 550.25 715.17 522.76 715.17 495.27 715.17 495.27 742.66 522.76 742.66 522.76 770.15 550.25 770.15 550.25 742.66 577.74 742.66 577.74 715.17 605.22 715.17 605.22 687.69 577.74 687.69 550.25 687.69"/>
    <polygon class="cls-7" points="357.84 715.17 357.84 687.69 330.35 687.69 302.86 687.69 302.86 715.17 330.35 715.17 330.35 742.66 357.84 742.66 357.84 770.15 385.32 770.15 385.32 742.66 412.81 742.66 412.81 715.17 385.32 715.17 357.84 715.17"/>
    <rect class="cls-7" x="302.86" y="742.66" width="27.49" height="27.49"/>
    <rect class="cls-7" x="577.74" y="742.66" width="27.49" height="27.49"/>
    <rect class="cls-7" x="275.37" y="770.15" width="27.49" height="27.49"/>
    <rect class="cls-7" x="330.35" y="770.15" width="27.49" height="27.49"/>
    <rect class="cls-7" x="550.25" y="770.15" width="27.49" height="27.49"/>
    <rect class="cls-7" x="605.22" y="770.15" width="27.49" height="27.49"/>
    <rect class="cls-7" x="247.89" y="797.64" width="27.49" height="27.49"/>
    <polygon class="cls-7" points="302.86 825.12 275.37 825.12 275.37 852.61 302.86 852.61 330.35 852.61 357.84 852.61 357.84 825.12 330.35 825.12 330.35 797.64 302.86 797.64 302.86 825.12"/>
    <polygon class="cls-7" points="605.22 797.64 577.74 797.64 577.74 825.12 550.25 825.12 550.25 852.61 577.74 852.61 605.22 852.61 632.71 852.61 632.71 825.12 605.22 825.12 605.22 797.64"/>
    <rect class="cls-7" x="632.71" y="797.64" width="27.49" height="27.49"/>
    <rect class="cls-7" x="357.84" y="852.61" width="27.49" height="27.49"/>
    <rect class="cls-7" x="522.76" y="852.61" width="27.49" height="27.49"/>
  </g>
  <g>
    <polygon class="cls-17" points="412.81 27.99 440.3 27.99 467.79 27.99 467.79 .5 440.3 .5 412.81 .5 385.32 .5 357.84 .5 357.84 27.99 385.32 27.99 412.81 27.99"/>
    <polygon class="cls-17" points="330.35 55.47 357.84 55.47 357.84 27.99 330.35 27.99 302.86 27.99 275.37 27.99 275.37 55.47 302.86 55.47 330.35 55.47"/>
    <polygon class="cls-17" points="275.37 82.96 275.37 55.47 247.89 55.47 220.4 55.47 220.4 82.96 247.89 82.96 275.37 82.96"/>
    <rect class="cls-17" x="192.91" y="82.96" width="27.49" height="27.49"/>
    <polygon class="cls-17" points="192.91 137.94 192.91 110.45 165.42 110.45 137.94 110.45 137.94 137.94 165.42 137.94 192.91 137.94"/>
    <polygon class="cls-17" points="137.94 165.42 137.94 137.94 110.45 137.94 110.45 165.42 110.45 192.91 137.94 192.91 137.94 165.42"/>
    <rect class="cls-17" x="82.96" y="192.91" width="27.49" height="27.49"/>
    <polygon class="cls-17" points="495.27 220.4 522.76 220.4 550.25 220.4 550.25 192.91 522.76 192.91 495.27 192.91 467.79 192.91 440.3 192.91 440.3 220.4 467.79 220.4 495.27 220.4"/>
    <polygon class="cls-17" points="412.81 247.89 440.3 247.89 440.3 220.4 412.81 220.4 385.32 220.4 357.84 220.4 357.84 247.89 385.32 247.89 412.81 247.89"/>
    <polygon class="cls-17" points="577.74 247.89 605.22 247.89 605.22 220.4 577.74 220.4 550.25 220.4 550.25 247.89 577.74 247.89"/>
    <polygon class="cls-17" points="82.96 247.89 82.96 220.4 55.47 220.4 55.47 247.89 55.47 275.37 82.96 275.37 82.96 247.89"/>
    <polygon class="cls-17" points="357.84 275.37 357.84 247.89 330.35 247.89 302.86 247.89 302.86 275.37 330.35 275.37 357.84 275.37"/>
    <rect class="cls-17" x="605.22" y="247.89" width="27.49" height="27.49"/>
    <rect class="cls-17" x="632.71" y="275.37" width="27.49" height="27.49"/>
    <polygon class="cls-17" points="55.47 330.35 55.47 302.86 55.47 275.37 27.99 275.37 27.99 302.86 27.99 330.35 27.99 357.84 55.47 357.84 55.47 330.35"/>
    <polygon class="cls-17" points="275.37 330.35 302.86 330.35 302.86 302.86 302.86 275.37 275.37 275.37 275.37 302.86 247.89 302.86 247.89 330.35 247.89 357.84 275.37 357.84 275.37 330.35"/>
    <polygon class="cls-17" points="660.2 357.84 687.69 357.84 687.69 330.35 687.69 302.86 660.2 302.86 660.2 330.35 660.2 357.84"/>
    <polygon class="cls-17" points="687.69 357.84 687.69 385.32 687.69 412.81 687.69 440.3 687.69 467.79 687.69 495.27 687.69 522.76 687.69 550.25 715.17 550.25 715.17 522.76 715.17 495.27 715.17 467.79 715.17 440.3 715.17 412.81 715.17 385.32 715.17 357.84 687.69 357.84"/>
    <polygon class="cls-17" points="27.99 495.27 27.99 467.79 27.99 440.3 27.99 412.81 27.99 385.32 27.99 357.84 .5 357.84 .5 385.32 .5 412.81 .5 440.3 .5 467.79 .5 495.27 .5 522.76 .5 550.25 27.99 550.25 27.99 522.76 27.99 495.27"/>
    <polygon class="cls-17" points="247.89 495.27 247.89 467.79 247.89 440.3 247.89 412.81 247.89 385.32 247.89 357.84 220.4 357.84 220.4 385.32 220.4 412.81 220.4 440.3 220.4 467.79 220.4 495.27 220.4 522.76 220.4 550.25 247.89 550.25 247.89 522.76 247.89 495.27"/>
    <polygon class="cls-17" points="275.37 550.25 247.89 550.25 247.89 577.74 247.89 605.22 275.37 605.22 275.37 577.74 275.37 550.25"/>
    <polygon class="cls-17" points="660.2 577.74 660.2 605.22 687.69 605.22 687.69 577.74 687.69 550.25 660.2 550.25 660.2 577.74"/>
    <polygon class="cls-17" points="55.47 577.74 55.47 550.25 27.99 550.25 27.99 577.74 27.99 605.22 27.99 632.71 55.47 632.71 55.47 605.22 55.47 577.74"/>
    <rect class="cls-17" x="275.37" y="605.22" width="27.49" height="27.49"/>
    <rect class="cls-17" x="632.71" y="605.22" width="27.49" height="27.49"/>
    <polygon class="cls-17" points="82.96 632.71 55.47 632.71 55.47 660.2 55.47 687.69 82.96 687.69 82.96 660.2 82.96 632.71"/>
    <polygon class="cls-17" points="330.35 632.71 302.86 632.71 302.86 660.2 330.35 660.2 357.84 660.2 357.84 632.71 330.35 632.71"/>
    <rect class="cls-17" x="605.22" y="632.71" width="27.49" height="27.49"/>
    <polygon class="cls-17" points="412.81 660.2 385.32 660.2 357.84 660.2 357.84 687.69 385.32 687.69 412.81 687.69 440.3 687.69 440.3 660.2 412.81 660.2"/>
    <polygon class="cls-17" points="550.25 660.2 550.25 687.69 577.74 687.69 605.22 687.69 605.22 660.2 577.74 660.2 550.25 660.2"/>
    <rect class="cls-17" x="82.96" y="687.69" width="27.49" height="27.49"/>
    <polygon class="cls-17" points="495.27 687.69 467.79 687.69 440.3 687.69 440.3 715.17 467.79 715.17 495.27 715.17 522.76 715.17 550.25 715.17 550.25 687.69 522.76 687.69 495.27 687.69"/>
    <polygon class="cls-17" points="137.94 715.17 110.45 715.17 110.45 742.66 110.45 770.15 137.94 770.15 137.94 742.66 137.94 715.17"/>
    <polygon class="cls-17" points="165.42 770.15 137.94 770.15 137.94 797.64 165.42 797.64 192.91 797.64 192.91 770.15 165.42 770.15"/>
    <rect class="cls-17" x="192.91" y="797.64" width="27.49" height="27.49"/>
    <polygon class="cls-17" points="247.89 825.12 220.4 825.12 220.4 852.61 247.89 852.61 275.37 852.61 275.37 825.12 247.89 825.12"/>
    <polygon class="cls-17" points="330.35 852.61 302.86 852.61 275.37 852.61 275.37 880.1 302.86 880.1 330.35 880.1 357.84 880.1 357.84 852.61 330.35 852.61"/>
    <polygon class="cls-17" points="412.81 880.1 385.32 880.1 357.84 880.1 357.84 907.59 385.32 907.59 412.81 907.59 440.3 907.59 467.79 907.59 467.79 880.1 440.3 880.1 412.81 880.1"/>
  </g>
  <g>
    <polygon class="cls-9" points="522.76 .5 495.27 .5 467.79 .5 467.79 27.99 495.27 27.99 522.76 27.99 550.25 27.99 550.25 .5 522.76 .5"/>
    <polygon class="cls-9" points="605.22 27.99 577.74 27.99 550.25 27.99 550.25 55.47 577.74 55.47 605.22 55.47 632.71 55.47 632.71 27.99 605.22 27.99"/>
    <polygon class="cls-9" points="660.2 55.47 632.71 55.47 632.71 82.96 660.2 82.96 687.69 82.96 687.69 55.47 660.2 55.47"/>
    <rect class="cls-9" x="687.69" y="82.96" width="27.49" height="27.49"/>
    <polygon class="cls-9" points="742.66 110.45 715.17 110.45 715.17 137.94 742.66 137.94 770.15 137.94 770.15 110.45 742.66 110.45"/>
    <polygon class="cls-9" points="797.64 137.94 770.15 137.94 770.15 165.42 770.15 192.91 797.64 192.91 797.64 165.42 797.64 137.94"/>
    <polygon class="cls-9" points="385.32 192.91 357.84 192.91 357.84 220.4 385.32 220.4 412.81 220.4 440.3 220.4 440.3 192.91 412.81 192.91 385.32 192.91"/>
    <rect class="cls-9" x="797.64" y="192.91" width="27.49" height="27.49"/>
    <polygon class="cls-9" points="302.86 220.4 302.86 247.89 330.35 247.89 357.84 247.89 357.84 220.4 330.35 220.4 302.86 220.4"/>
    <polygon class="cls-9" points="852.61 220.4 825.12 220.4 825.12 247.89 825.12 275.37 852.61 275.37 852.61 247.89 852.61 220.4"/>
    <rect class="cls-9" x="275.37" y="247.89" width="27.49" height="27.49"/>
    <rect class="cls-9" x="247.89" y="275.37" width="27.49" height="27.49"/>
    <polygon class="cls-9" points="220.4 330.35 220.4 357.84 247.89 357.84 247.89 330.35 247.89 302.86 220.4 302.86 220.4 330.35"/>
    <polygon class="cls-9" points="192.91 385.32 192.91 412.81 192.91 440.3 192.91 467.79 192.91 495.27 192.91 522.76 192.91 550.25 220.4 550.25 220.4 522.76 220.4 495.27 220.4 467.79 220.4 440.3 220.4 412.81 220.4 385.32 220.4 357.84 192.91 357.84 192.91 385.32"/>
    <polygon class="cls-9" points="880.1 357.84 880.1 330.35 880.1 302.86 880.1 275.37 852.61 275.37 852.61 302.86 852.61 330.35 852.61 357.84 879.19 357.84 879.19 387.15 879.19 416.46 879.19 445.78 880.1 445.78 880.1 467.79 880.1 495.27 880.1 522.76 880.1 550.25 907.59 550.25 907.59 522.76 907.59 495.27 907.59 467.79 907.59 445.78 908.5 445.78 908.5 416.46 908.5 387.15 908.5 357.84 880.1 357.84"/>
    <polygon class="cls-9" points="852.61 577.74 852.61 605.22 852.61 632.71 880.1 632.71 880.1 605.22 880.1 577.74 880.1 550.25 852.61 550.25 852.61 577.74"/>
    <polygon class="cls-9" points="220.4 605.22 247.89 605.22 247.89 577.74 247.89 550.25 220.4 550.25 220.4 577.74 220.4 605.22"/>
    <rect class="cls-9" x="247.89" y="605.22" width="27.49" height="27.49"/>
    <rect class="cls-9" x="275.37" y="632.71" width="27.49" height="27.49"/>
    <polygon class="cls-9" points="825.12 660.2 825.12 687.69 852.61 687.69 852.61 660.2 852.61 632.71 825.12 632.71 825.12 660.2"/>
    <polygon class="cls-9" points="330.35 687.69 357.84 687.69 357.84 660.2 330.35 660.2 302.86 660.2 302.86 687.69 330.35 687.69"/>
    <polygon class="cls-9" points="385.32 715.17 412.81 715.17 440.3 715.17 440.3 687.69 412.81 687.69 385.32 687.69 357.84 687.69 357.84 715.17 385.32 715.17"/>
    <rect class="cls-9" x="797.64" y="687.69" width="27.49" height="27.49"/>
    <polygon class="cls-9" points="770.15 742.66 770.15 770.15 797.64 770.15 797.64 742.66 797.64 715.17 770.15 715.17 770.15 742.66"/>
    <polygon class="cls-9" points="715.17 770.15 715.17 797.64 742.66 797.64 770.15 797.64 770.15 770.15 742.66 770.15 715.17 770.15"/>
    <rect class="cls-9" x="687.69" y="797.64" width="27.49" height="27.49"/>
    <polygon class="cls-9" points="632.71 825.12 632.71 852.61 660.2 852.61 687.69 852.61 687.69 825.12 660.2 825.12 632.71 825.12"/>
    <polygon class="cls-9" points="577.74 852.61 550.25 852.61 550.25 880.1 577.74 880.1 605.22 880.1 632.71 880.1 632.71 852.61 605.22 852.61 577.74 852.61"/>
    <polygon class="cls-9" points="495.27 880.1 467.79 880.1 467.79 907.59 495.27 907.59 522.76 907.59 550.25 907.59 550.25 880.1 522.76 880.1 495.27 880.1"/>
  </g>
</svg>