<?xml version="1.0" encoding="UTF-8"?>
<svg id="cone" data-name="Calque 1" xmlns="http://www.w3.org/2000/svg" viewBox="0 0 908.09 908.09">
  <defs>
    <style>
      .cls-1 {
        fill: #aa1a17;
        stroke: #a91916;
      }

      .cls-1, .cls-2, .cls-3, .cls-4, .cls-5, .cls-6, .cls-7, .cls-8, .cls-9, .cls-10, .cls-11, .cls-12, .cls-13, .cls-14, .cls-15, .cls-16, .cls-17, .cls-18, .cls-19, .cls-20, .cls-21, .cls-22, .cls-23, .cls-24 {
        stroke-miterlimit: 10;
      }

      .cls-2 {
        fill: #f6e826;
        stroke: #f7e822;
      }

      .cls-3 {
        fill: #f5aeb0;
        stroke: #f5aeaf;
      }

      .cls-4 {
        fill: #f9f195;
        stroke: #faf195;
      }

      .cls-5 {
        fill: #a6a5a5;
        stroke: #a6a6a6;
      }

      .cls-6 {
        fill: #7380be;
        stroke: #7480be;
      }

      .cls-7 {
        fill: #7c85c1;
        stroke: #7c86c1;
      }

      .cls-8 {
        fill: #5767ae;
        stroke: #5767ae;
      }

      .cls-25 {
        fill: #e41d19;
      }

      .cls-25, .cls-26 {
        stroke-width: 0px;
      }

      .cls-9 {
        fill: #b9b9b9;
        stroke: #b9b9b9;
      }

      .cls-10 {
        fill: #6e6e6d;
        stroke: #6d6d6d;
      }

      .cls-11 {
        fill: #454d81;
        stroke: #454d81;
      }

      .cls-12 {
        fill: #fdc40b;
        stroke: #fdc50a;
      }

      .cls-13 {
        fill: #fefbe0;
        stroke: #fefbe0;
      }

      .cls-14 {
        fill: #f08185;
        stroke: #f08185;
      }

      .cls-15 {
        fill: #f8ab17;
        stroke: #f8ab14;
      }

      .cls-26 {
        fill: #f7e822;
      }

      .cls-16 {
        fill: #9ca5d4;
        stroke: #9ca5d4;
      }

      .cls-17 {
        fill: #d51219;
        stroke: #d51116;
      }

      .cls-18 {
        fill: #ea5053;
        stroke: #ea5052;
      }

      .cls-19 {
        fill: #9da6d5;
        stroke: #9ea7d5;
      }

      .cls-20 {
        fill: #848484;
        stroke: #848484;
      }

      .cls-21 {
        fill: #e3e6f5;
        stroke: #e3e6f5;
      }

      .cls-22 {
        fill: #ffde0d;
        stroke: #ffde0d;
      }

      .cls-23 {
        fill: #616ba4;
        stroke: #626ba3;
      }

      .cls-24 {
        fill: #929292;
        stroke: #939393;
      }
    </style>
  </defs>
  <g>
    <polygon class="cls-21" points="495.2 303.11 467.76 303.11 440.32 303.11 440.32 330.55 440.32 357.99 467.76 357.99 495.2 357.99 495.2 330.55 495.2 303.11"/>
    <rect class="cls-21" x="495.2" y="357.99" width="27.44" height="27.44"/>
  </g>
  <g>
    <rect class="cls-10" x="358.01" y="303.11" width="27.44" height="27.44"/>
    <polygon class="cls-10" points="358.01 357.99 358.01 330.55 330.57 330.55 330.57 357.99 330.57 385.42 330.57 412.86 358.01 412.86 358.01 385.42 358.01 357.99"/>
    <rect class="cls-10" x="358.01" y="412.86" width="27.44" height="27.44"/>
  </g>
  <polygon class="cls-19" points="522.64 330.55 522.64 303.11 495.2 303.11 495.2 330.55 495.2 357.99 522.64 357.99 522.64 385.42 495.2 385.42 495.2 357.99 467.76 357.99 440.32 357.99 440.32 330.55 440.32 303.11 467.76 303.11 495.2 303.11 495.2 275.67 467.76 275.67 440.32 275.67 412.89 275.67 412.89 303.11 385.45 303.11 385.45 330.55 385.45 357.99 412.89 357.99 412.89 385.42 440.32 385.42 440.32 412.86 467.76 412.86 467.76 440.3 495.2 440.3 522.64 440.3 522.64 412.86 550.08 412.86 550.08 385.42 550.08 357.99 550.08 330.55 522.64 330.55"/>
  <g>
    <rect class="cls-9" x="522.64" y="303.11" width="27.44" height="27.44"/>
    <polygon class="cls-9" points="550.08 330.55 550.08 357.99 550.08 385.42 550.08 412.86 577.51 412.86 577.51 385.42 577.51 357.99 577.51 330.55 550.08 330.55"/>
    <rect class="cls-9" x="522.64" y="412.86" width="27.44" height="27.44"/>
  </g>
  <g>
    <rect class="cls-20" x="385.45" y="275.67" width="27.44" height="27.44"/>
    <rect class="cls-20" x="385.45" y="440.3" width="27.44" height="27.44"/>
  </g>
  <g>
    <rect class="cls-8" x="358.01" y="385.42" width="27.44" height="27.44"/>
    <rect class="cls-8" x="385.45" y="412.86" width="27.44" height="27.44"/>
    <rect class="cls-8" x="412.89" y="440.3" width="27.44" height="27.44"/>
  </g>
  <polygon class="cls-6" points="467.76 440.3 467.76 412.86 440.32 412.86 440.32 385.42 412.89 385.42 412.89 357.99 385.45 357.99 385.45 330.55 358.01 330.55 358.01 357.99 358.01 385.42 385.45 385.42 385.45 412.86 412.89 412.86 412.89 440.3 440.32 440.3 440.32 467.74 467.76 467.74 495.2 467.74 495.2 440.3 467.76 440.3"/>
  <g>
    <rect class="cls-5" x="495.2" y="275.67" width="27.44" height="27.44"/>
    <rect class="cls-5" x="495.2" y="440.3" width="27.44" height="27.44"/>
  </g>
  <g>
    <polygon class="cls-24" points="467.76 248.23 440.32 248.23 412.89 248.23 412.89 275.67 440.32 275.67 467.76 275.67 495.2 275.67 495.2 248.23 467.76 248.23"/>
    <polygon class="cls-24" points="440.32 467.74 412.89 467.74 412.89 495.18 440.32 495.18 467.76 495.18 495.2 495.18 495.2 467.74 467.76 467.74 440.32 467.74"/>
  </g>
  <rect class="cls-26" x="550.08" y="714.68" width="27.44" height="27.44"/>
  <g>
    <polygon class="cls-17" points="330.57 303.11 358.01 303.11 358.01 275.67 385.45 275.67 385.45 248.23 412.89 248.23 440.32 248.23 467.76 248.23 467.76 220.8 440.32 220.8 440.32 193.36 440.32 165.92 440.32 138.48 440.32 111.05 412.89 111.05 412.89 138.48 412.89 165.92 385.45 165.92 385.45 193.36 358.01 193.36 358.01 220.8 358.01 248.23 330.57 248.23 330.57 275.67 303.14 275.67 303.14 303.11 303.14 330.55 330.57 330.55 330.57 303.11"/>
    <polygon class="cls-17" points="495.2 550.05 495.2 522.61 467.76 522.61 467.76 495.18 440.32 495.18 412.89 495.18 385.45 495.18 385.45 467.74 358.01 467.74 358.01 440.3 330.57 440.3 330.57 412.86 303.14 412.86 303.14 385.42 303.14 357.99 303.14 330.55 275.7 330.55 275.7 357.99 248.26 357.99 248.26 385.42 248.26 412.86 220.82 412.86 220.82 440.3 220.82 467.74 248.26 467.74 248.26 495.18 248.26 522.61 275.7 522.61 275.7 550.05 275.7 577.49 303.14 577.49 330.57 577.49 358.01 577.49 385.45 577.49 412.89 577.49 440.32 577.49 467.76 577.49 495.2 577.49 522.64 577.49 522.64 550.05 495.2 550.05"/>
    <polygon class="cls-17" points="165.95 604.93 138.51 604.93 111.07 604.93 111.07 632.36 138.51 632.36 165.95 632.36 193.38 632.36 220.82 632.36 220.82 604.93 193.38 604.93 165.95 604.93"/>
    <polygon class="cls-17" points="56.19 632.36 28.76 632.36 28.76 659.8 28.76 687.24 28.76 714.68 28.76 742.12 28.76 769.55 56.19 769.55 56.19 742.12 56.19 714.68 56.19 687.24 56.19 659.8 83.63 659.8 111.07 659.8 111.07 632.36 83.63 632.36 56.19 632.36"/>
  </g>
  <polygon class="cls-4" points="742.14 714.68 742.14 687.24 714.7 687.24 687.27 687.24 687.27 659.8 659.83 659.8 632.39 659.8 604.95 659.8 577.51 659.8 550.08 659.8 522.64 659.8 495.2 659.8 467.76 659.8 440.32 659.8 440.32 687.24 467.76 687.24 495.2 687.24 522.64 687.24 550.08 687.24 577.51 687.24 604.95 687.24 604.95 714.68 632.39 714.68 659.83 714.68 687.27 714.68 687.27 742.12 714.7 742.12 714.7 769.55 742.14 769.55 769.58 769.55 769.58 742.12 769.58 714.68 742.14 714.68"/>
  <g>
    <polygon class="cls-2" points="659.83 714.68 632.39 714.68 604.95 714.68 604.95 687.24 577.51 687.24 550.08 687.24 522.64 687.24 495.2 687.24 467.76 687.24 440.32 687.24 440.32 659.8 412.89 659.8 385.45 659.8 358.01 659.8 358.01 687.24 385.45 687.24 412.89 687.24 412.89 714.68 440.32 714.68 467.76 714.68 495.2 714.68 495.2 742.12 522.64 742.12 550.08 742.12 550.08 714.68 577.51 714.68 577.51 742.12 577.51 769.55 604.95 769.55 632.39 769.55 632.39 742.12 659.83 742.12 687.27 742.12 687.27 714.68 659.83 714.68"/>
    <polygon class="cls-2" points="714.7 769.55 714.7 742.12 687.27 742.12 687.27 769.55 687.27 796.99 714.7 796.99 742.14 796.99 742.14 769.55 714.7 769.55"/>
  </g>
  <g>
    <polygon class="cls-1" points="412.89 28.73 412.89 56.17 412.89 83.61 385.45 83.61 385.45 111.05 358.01 111.05 358.01 138.48 358.01 165.92 330.57 165.92 330.57 193.36 303.14 193.36 303.14 220.8 303.14 248.23 275.7 248.23 275.7 275.67 248.26 275.67 248.26 303.11 248.26 330.55 220.82 330.55 220.82 357.99 220.82 385.42 193.38 385.42 193.38 412.86 165.95 412.86 165.95 440.3 165.95 467.74 138.51 467.74 138.51 495.18 111.07 495.18 111.07 522.61 111.07 550.05 83.63 550.05 83.63 577.49 56.19 577.49 56.19 604.93 56.19 632.36 83.63 632.36 111.07 632.36 111.07 604.93 138.51 604.93 165.95 604.93 193.38 604.93 220.82 604.93 220.82 577.49 248.26 577.49 275.7 577.49 275.7 550.05 275.7 522.61 248.26 522.61 248.26 495.18 248.26 467.74 220.82 467.74 220.82 440.3 220.82 412.86 248.26 412.86 248.26 385.42 248.26 357.99 275.7 357.99 275.7 330.55 303.14 330.55 303.14 303.11 303.14 275.67 330.57 275.67 330.57 248.23 358.01 248.23 358.01 220.8 358.01 193.36 385.45 193.36 385.45 165.92 412.89 165.92 412.89 138.48 412.89 111.05 440.32 111.05 440.32 83.61 440.32 56.17 440.32 28.73 412.89 28.73"/>
    <rect class="cls-1" x="385.45" y="248.23" width="27.44" height="27.44"/>
    <rect class="cls-1" x="358.01" y="275.67" width="27.44" height="27.44"/>
    <rect class="cls-1" x="330.57" y="303.11" width="27.44" height="27.44"/>
    <polygon class="cls-1" points="303.14 385.42 303.14 412.86 330.57 412.86 330.57 385.42 330.57 357.99 330.57 330.55 303.14 330.55 303.14 357.99 303.14 385.42"/>
    <rect class="cls-1" x="330.57" y="412.86" width="27.44" height="27.44"/>
    <rect class="cls-1" x="358.01" y="440.3" width="27.44" height="27.44"/>
    <rect class="cls-1" x="385.45" y="467.74" width="27.44" height="27.44"/>
    <polygon class="cls-1" points="83.63 769.55 56.19 769.55 56.19 796.99 83.63 796.99 111.07 796.99 111.07 769.55 83.63 769.55"/>
    <polygon class="cls-1" points="138.51 796.99 111.07 796.99 111.07 824.43 138.51 824.43 165.95 824.43 193.38 824.43 193.38 796.99 165.95 796.99 138.51 796.99"/>
  </g>
  <polygon class="cls-22" points="687.27 796.99 659.83 796.99 632.39 796.99 632.39 769.55 604.95 769.55 577.51 769.55 577.51 742.12 550.08 742.12 522.64 742.12 495.2 742.12 495.2 714.68 467.76 714.68 440.32 714.68 412.89 714.68 412.89 687.24 385.45 687.24 358.01 687.24 358.01 659.8 330.57 659.8 303.14 659.8 275.7 659.8 248.26 659.8 220.82 659.8 220.82 687.24 248.26 687.24 275.7 687.24 275.7 714.68 303.14 714.68 330.57 714.68 358.01 714.68 358.01 742.12 385.45 742.12 412.89 742.12 412.89 769.55 440.32 769.55 467.76 769.55 495.2 769.55 495.2 796.99 522.64 796.99 550.08 796.99 577.51 796.99 577.51 824.43 604.95 824.43 632.39 824.43 632.39 851.87 659.83 851.87 659.83 824.43 687.27 824.43 714.7 824.43 714.7 796.99 687.27 796.99"/>
  <polygon class="cls-15" points="495.2 851.87 467.76 851.87 467.76 824.43 440.32 824.43 412.89 824.43 412.89 796.99 385.45 796.99 358.01 796.99 330.57 796.99 330.57 769.55 303.14 769.55 275.7 769.55 275.7 742.12 248.26 742.12 220.82 742.12 220.82 714.68 193.38 714.68 193.38 687.24 165.95 687.24 165.95 714.68 138.51 714.68 138.51 742.12 138.51 769.55 165.95 769.55 165.95 796.99 193.38 796.99 193.38 824.43 220.82 824.43 248.26 824.43 248.26 851.87 275.7 851.87 303.14 851.87 303.14 879.31 330.57 879.31 358.01 879.31 385.45 879.31 412.89 879.31 440.32 879.31 467.76 879.31 495.2 879.31 522.64 879.31 522.64 851.87 495.2 851.87"/>
  <g>
    <polygon class="cls-12" points="577.51 824.43 577.51 796.99 550.08 796.99 522.64 796.99 495.2 796.99 495.2 769.55 467.76 769.55 440.32 769.55 412.89 769.55 412.89 742.12 385.45 742.12 358.01 742.12 358.01 714.68 330.57 714.68 303.14 714.68 275.7 714.68 275.7 687.24 248.26 687.24 220.82 687.24 193.38 687.24 193.38 714.68 220.82 714.68 220.82 742.12 248.26 742.12 275.7 742.12 275.7 769.55 303.14 769.55 330.57 769.55 330.57 796.99 358.01 796.99 385.45 796.99 412.89 796.99 412.89 824.43 440.32 824.43 467.76 824.43 467.76 851.87 495.2 851.87 522.64 851.87 522.64 879.31 550.08 879.31 577.51 879.31 604.95 879.31 604.95 851.87 577.51 851.87 577.51 824.43"/>
    <rect class="cls-12" x="604.95" y="824.43" width="27.44" height="27.44"/>
  </g>
  <g>
    <rect class="cls-16" x="138.51" y="687.24" width="27.44" height="27.44"/>
    <rect class="cls-16" x="742.14" y="687.24" width="27.44" height="27.44"/>
    <polygon class="cls-16" points="111.07 742.12 111.07 769.55 138.51 769.55 138.51 742.12 138.51 714.68 111.07 714.68 111.07 742.12"/>
    <polygon class="cls-16" points="769.58 714.68 769.58 742.12 769.58 769.55 797.02 769.55 797.02 742.12 797.02 714.68 769.58 714.68"/>
    <rect class="cls-16" x="138.51" y="769.55" width="27.44" height="27.44"/>
    <rect class="cls-16" x="742.14" y="769.55" width="27.44" height="27.44"/>
  </g>
  <g>
    <polygon class="cls-7" points="248.26 632.36 220.82 632.36 220.82 659.8 248.26 659.8 275.7 659.8 303.14 659.8 303.14 632.36 275.7 632.36 248.26 632.36"/>
    <polygon class="cls-7" points="714.7 632.36 687.27 632.36 659.83 632.36 632.39 632.36 632.39 659.8 659.83 659.8 687.27 659.8 687.27 687.24 714.7 687.24 742.14 687.24 742.14 659.8 714.7 659.8 714.7 632.36"/>
    <polygon class="cls-7" points="165.95 659.8 165.95 687.24 193.38 687.24 220.82 687.24 220.82 659.8 193.38 659.8 165.95 659.8"/>
    <rect class="cls-7" x="111.07" y="687.24" width="27.44" height="27.44"/>
    <rect class="cls-7" x="769.58" y="687.24" width="27.44" height="27.44"/>
    <polygon class="cls-7" points="83.63 742.12 83.63 769.55 111.07 769.55 111.07 742.12 111.07 714.68 83.63 714.68 83.63 742.12"/>
    <polygon class="cls-7" points="797.02 714.68 797.02 742.12 797.02 769.55 824.45 769.55 824.45 742.12 824.45 714.68 797.02 714.68"/>
    <rect class="cls-7" x="111.07" y="769.55" width="27.44" height="27.44"/>
    <rect class="cls-7" x="769.58" y="769.55" width="27.44" height="27.44"/>
  </g>
  <g>
    <polygon class="cls-23" points="577.51 632.36 550.08 632.36 550.08 604.93 522.64 604.93 495.2 604.93 467.76 604.93 440.32 604.93 412.89 604.93 385.45 604.93 358.01 604.93 358.01 632.36 330.57 632.36 303.14 632.36 303.14 659.8 330.57 659.8 358.01 659.8 385.45 659.8 412.89 659.8 440.32 659.8 467.76 659.8 495.2 659.8 522.64 659.8 550.08 659.8 577.51 659.8 604.95 659.8 632.39 659.8 632.39 632.36 604.95 632.36 577.51 632.36"/>
    <polygon class="cls-23" points="111.07 659.8 111.07 687.24 138.51 687.24 165.95 687.24 165.95 659.8 138.51 659.8 111.07 659.8"/>
    <polygon class="cls-23" points="769.58 659.8 742.14 659.8 742.14 687.24 769.58 687.24 797.02 687.24 797.02 659.8 769.58 659.8"/>
    <polygon class="cls-23" points="56.19 687.24 56.19 714.68 56.19 742.12 56.19 769.55 83.63 769.55 83.63 742.12 83.63 714.68 111.07 714.68 111.07 687.24 83.63 687.24 56.19 687.24"/>
    <polygon class="cls-23" points="824.45 687.24 797.02 687.24 797.02 714.68 824.45 714.68 824.45 742.12 824.45 769.55 851.89 769.55 851.89 742.12 851.89 714.68 851.89 687.24 824.45 687.24"/>
  </g>
  <g>
    <polygon class="cls-11" points="303.14 604.93 275.7 604.93 248.26 604.93 220.82 604.93 220.82 632.36 248.26 632.36 275.7 632.36 303.14 632.36 330.57 632.36 358.01 632.36 358.01 604.93 330.57 604.93 303.14 604.93"/>
    <polygon class="cls-11" points="687.27 604.93 659.83 604.93 632.39 604.93 604.95 604.93 577.51 604.93 550.08 604.93 550.08 632.36 577.51 632.36 604.95 632.36 632.39 632.36 659.83 632.36 687.27 632.36 714.7 632.36 714.7 604.93 687.27 604.93"/>
    <polygon class="cls-11" points="165.95 632.36 138.51 632.36 111.07 632.36 111.07 659.8 138.51 659.8 165.95 659.8 193.38 659.8 220.82 659.8 220.82 632.36 193.38 632.36 165.95 632.36"/>
    <polygon class="cls-11" points="769.58 632.36 742.14 632.36 714.7 632.36 714.7 659.8 742.14 659.8 769.58 659.8 797.02 659.8 797.02 632.36 769.58 632.36"/>
    <polygon class="cls-11" points="56.19 659.8 56.19 687.24 83.63 687.24 111.07 687.24 111.07 659.8 83.63 659.8 56.19 659.8"/>
    <polygon class="cls-11" points="824.45 659.8 797.02 659.8 797.02 687.24 824.45 687.24 851.89 687.24 851.89 659.8 824.45 659.8"/>
  </g>
  <g>
    <polygon class="cls-13" points="659.83 742.12 632.39 742.12 632.39 769.55 632.39 796.99 659.83 796.99 687.27 796.99 687.27 769.55 687.27 742.12 659.83 742.12"/>
    <rect class="cls-13" x="577.51" y="824.43" width="27.44" height="27.44"/>
  </g>
  <g>
    <polygon class="cls-18" points="467.76 83.61 467.76 56.17 440.32 56.17 440.32 83.61 440.32 111.05 467.76 111.05 467.76 83.61"/>
    <rect class="cls-18" x="467.76" y="138.48" width="27.44" height="27.44"/>
    <polygon class="cls-18" points="522.64 165.92 495.2 165.92 495.2 193.36 495.2 220.8 522.64 220.8 522.64 193.36 522.64 165.92"/>
    <rect class="cls-18" x="522.64" y="220.8" width="27.44" height="27.44"/>
    <polygon class="cls-18" points="577.51 248.23 550.08 248.23 550.08 275.67 550.08 303.11 577.51 303.11 577.51 275.67 577.51 248.23"/>
    <rect class="cls-18" x="577.51" y="303.11" width="27.44" height="27.44"/>
    <polygon class="cls-18" points="632.39 330.55 604.95 330.55 604.95 357.99 604.95 385.42 632.39 385.42 632.39 357.99 632.39 330.55"/>
    <rect class="cls-18" x="632.39" y="385.42" width="27.44" height="27.44"/>
    <polygon class="cls-18" points="687.27 412.86 659.83 412.86 659.83 440.3 659.83 467.74 687.27 467.74 687.27 440.3 687.27 412.86"/>
    <rect class="cls-18" x="687.27" y="467.74" width="27.44" height="27.44"/>
    <polygon class="cls-18" points="742.14 495.18 714.7 495.18 714.7 522.61 714.7 550.05 742.14 550.05 742.14 522.61 742.14 495.18"/>
    <rect class="cls-18" x="742.14" y="550.05" width="27.44" height="27.44"/>
    <polygon class="cls-18" points="440.32 577.49 412.89 577.49 385.45 577.49 358.01 577.49 358.01 604.93 385.45 604.93 412.89 604.93 440.32 604.93 467.76 604.93 495.2 604.93 495.2 577.49 467.76 577.49 440.32 577.49"/>
    <rect class="cls-18" x="769.58" y="577.49" width="27.44" height="27.44"/>
    <rect class="cls-18" x="797.02" y="604.93" width="27.44" height="27.44"/>
    <polygon class="cls-18" points="742.14 796.99 714.7 796.99 714.7 824.43 742.14 824.43 769.58 824.43 797.02 824.43 797.02 796.99 769.58 796.99 742.14 796.99"/>
  </g>
  <g>
    <polygon class="cls-25" points="550.08 248.23 522.64 248.23 522.64 220.8 495.2 220.8 495.2 193.36 495.2 165.92 467.76 165.92 467.76 138.48 467.76 111.05 440.32 111.05 440.32 138.48 440.32 165.92 440.32 193.36 440.32 220.8 467.76 220.8 467.76 248.23 495.2 248.23 495.2 275.67 522.64 275.67 522.64 303.11 550.08 303.11 550.08 275.67 550.08 248.23"/>
    <rect class="cls-25" x="550.08" y="303.11" width="27.44" height="27.44"/>
    <polygon class="cls-25" points="303.14 577.49 275.7 577.49 248.26 577.49 220.82 577.49 220.82 604.93 248.26 604.93 275.7 604.93 303.14 604.93 330.57 604.93 358.01 604.93 358.01 577.49 330.57 577.49 303.14 577.49"/>
    <polygon class="cls-25" points="742.14 577.49 742.14 550.05 714.7 550.05 714.7 522.61 714.7 495.18 687.27 495.18 687.27 467.74 659.83 467.74 659.83 440.3 659.83 412.86 632.39 412.86 632.39 385.42 604.95 385.42 604.95 357.99 604.95 330.55 577.51 330.55 577.51 357.99 577.51 385.42 577.51 412.86 550.08 412.86 550.08 440.3 522.64 440.3 522.64 467.74 495.2 467.74 495.2 495.18 467.76 495.18 467.76 522.61 495.2 522.61 495.2 550.05 522.64 550.05 522.64 577.49 550.08 577.49 577.51 577.49 604.95 577.49 632.39 577.49 659.83 577.49 687.27 577.49 714.7 577.49 714.7 604.93 742.14 604.93 769.58 604.93 769.58 577.49 742.14 577.49"/>
  </g>
  <g>
    <rect class="cls-14" x="440.32" y="28.73" width="27.44" height="27.44"/>
    <polygon class="cls-14" points="797.02 577.49 797.02 604.93 824.45 604.93 824.45 577.49 824.45 550.05 797.02 550.05 797.02 522.61 769.58 522.61 769.58 495.18 769.58 467.74 742.14 467.74 742.14 440.3 714.7 440.3 714.7 412.86 714.7 385.42 687.27 385.42 687.27 357.99 659.83 357.99 659.83 330.55 659.83 303.11 632.39 303.11 632.39 275.67 604.95 275.67 604.95 248.23 604.95 220.8 577.51 220.8 577.51 193.36 550.08 193.36 550.08 165.92 550.08 138.48 522.64 138.48 522.64 111.05 495.2 111.05 495.2 83.61 495.2 56.17 467.76 56.17 467.76 83.61 467.76 111.05 467.76 138.48 495.2 138.48 495.2 165.92 522.64 165.92 522.64 193.36 522.64 220.8 550.08 220.8 550.08 248.23 577.51 248.23 577.51 275.67 577.51 303.11 604.95 303.11 604.95 330.55 632.39 330.55 632.39 357.99 632.39 385.42 659.83 385.42 659.83 412.86 687.27 412.86 687.27 440.3 687.27 467.74 714.7 467.74 714.7 495.18 742.14 495.18 742.14 522.61 742.14 550.05 769.58 550.05 769.58 577.49 797.02 577.49"/>
    <polygon class="cls-14" points="550.08 577.49 522.64 577.49 495.2 577.49 495.2 604.93 522.64 604.93 550.08 604.93 577.51 604.93 604.95 604.93 604.95 577.49 577.51 577.49 550.08 577.49"/>
    <rect class="cls-14" x="824.45" y="604.93" width="27.44" height="27.44"/>
    <polygon class="cls-14" points="851.89 714.68 851.89 742.12 851.89 769.55 879.33 769.55 879.33 742.12 879.33 714.68 851.89 714.68"/>
    <polygon class="cls-14" points="797.02 769.55 797.02 796.99 824.45 796.99 851.89 796.99 851.89 769.55 824.45 769.55 797.02 769.55"/>
  </g>
  <g>
    <rect class="cls-3" x="440.32" y="1.29" width="27.44" height="27.44"/>
    <rect class="cls-3" x="467.76" y="28.73" width="27.44" height="27.44"/>
    <rect class="cls-3" x="495.2" y="83.61" width="27.44" height="27.44"/>
    <rect class="cls-3" x="522.64" y="111.05" width="27.44" height="27.44"/>
    <rect class="cls-3" x="550.08" y="165.92" width="27.44" height="27.44"/>
    <rect class="cls-3" x="577.51" y="193.36" width="27.44" height="27.44"/>
    <rect class="cls-3" x="604.95" y="248.23" width="27.44" height="27.44"/>
    <rect class="cls-3" x="632.39" y="275.67" width="27.44" height="27.44"/>
    <rect class="cls-3" x="659.83" y="330.55" width="27.44" height="27.44"/>
    <rect class="cls-3" x="687.27" y="357.99" width="27.44" height="27.44"/>
    <rect class="cls-3" x="714.7" y="412.86" width="27.44" height="27.44"/>
    <rect class="cls-3" x="742.14" y="440.3" width="27.44" height="27.44"/>
    <rect class="cls-3" x="769.58" y="495.18" width="27.44" height="27.44"/>
    <rect class="cls-3" x="797.02" y="522.61" width="27.44" height="27.44"/>
    <polygon class="cls-3" points="687.27 577.49 659.83 577.49 632.39 577.49 604.95 577.49 604.95 604.93 632.39 604.93 659.83 604.93 687.27 604.93 714.7 604.93 714.7 577.49 687.27 577.49"/>
    <rect class="cls-3" x="824.45" y="577.49" width="27.44" height="27.44"/>
    <polygon class="cls-3" points="769.58 604.93 742.14 604.93 714.7 604.93 714.7 632.36 742.14 632.36 769.58 632.36 797.02 632.36 797.02 604.93 769.58 604.93"/>
    <polygon class="cls-3" points="851.89 632.36 824.45 632.36 797.02 632.36 797.02 659.8 824.45 659.8 851.89 659.8 851.89 687.24 851.89 714.68 879.33 714.68 879.33 687.24 879.33 659.8 879.33 632.36 851.89 632.36"/>
  </g>
</svg>