<?xml version="1.0" encoding="UTF-8"?>
<svg id="Calque_1" data-name="Calque 1" xmlns="http://www.w3.org/2000/svg" viewBox="0 0 908.09 908.09">
  <defs>
    <style>
      .cls-1 {
        fill: #f1ec87;
        stroke: #f2ec85;
      }

      .cls-1, .cls-2, .cls-3, .cls-4, .cls-5, .cls-6, .cls-7, .cls-8, .cls-9, .cls-10, .cls-11 {
        stroke-miterlimit: 10;
      }

      .cls-2 {
        fill: #8d6dad;
        stroke: #8d6cad;
      }

      .cls-3 {
        fill: #f6cee3;
        stroke: #f6cee3;
      }

      .cls-4 {
        fill: #c5559a;
        stroke: #c6549a;
      }

      .cls-5 {
        fill: #eeb4d3;
        stroke: #eeb3d2;
      }

      .cls-6 {
        fill: #bce3f2;
        stroke: #bce3f2;
      }

      .cls-7 {
        fill: #7ecde9;
        stroke: #7dcdea;
      }

      .cls-8 {
        fill: #df8ab9;
        stroke: #e08ab9;
      }

      .cls-9 {
        fill: #a2d8ee;
        stroke: #a2d9ee;
      }

      .cls-10 {
        fill: #51c0da;
        stroke: #51c0da;
      }

      .cls-11 {
        fill: #ac8ec2;
        stroke: #ac8dc1;
      }
    </style>
  </defs>
  <g>
    <rect class="cls-1" x="165.42" y="165.42" width="27.49" height="27.49"/>
    <rect class="cls-1" x="715.17" y="165.42" width="27.49" height="27.49"/>
    <rect class="cls-1" x="192.91" y="192.91" width="27.49" height="27.49"/>
    <rect class="cls-1" x="440.3" y="192.91" width="27.49" height="27.49"/>
    <rect class="cls-1" x="687.69" y="192.91" width="27.49" height="27.49"/>
    <rect class="cls-1" x="302.86" y="302.86" width="27.49" height="27.49"/>
    <rect class="cls-1" x="577.74" y="302.86" width="27.49" height="27.49"/>
    <rect class="cls-1" x="385.32" y="385.32" width="27.49" height="27.49"/>
    <rect class="cls-1" x="495.27" y="385.32" width="27.49" height="27.49"/>
    <rect class="cls-1" x="192.91" y="440.3" width="27.49" height="27.49"/>
    <rect class="cls-1" x="440.3" y="440.3" width="27.49" height="27.49"/>
    <rect class="cls-1" x="687.69" y="440.3" width="27.49" height="27.49"/>
    <rect class="cls-1" x="385.32" y="495.27" width="27.49" height="27.49"/>
    <rect class="cls-1" x="495.27" y="495.27" width="27.49" height="27.49"/>
    <rect class="cls-1" x="302.86" y="577.74" width="27.49" height="27.49"/>
    <rect class="cls-1" x="577.74" y="577.74" width="27.49" height="27.49"/>
    <rect class="cls-1" x="192.91" y="687.69" width="27.49" height="27.49"/>
    <rect class="cls-1" x="440.3" y="687.69" width="27.49" height="27.49"/>
    <rect class="cls-1" x="687.69" y="687.69" width="27.49" height="27.49"/>
    <rect class="cls-1" x="165.42" y="715.17" width="27.49" height="27.49"/>
    <rect class="cls-1" x="715.17" y="715.17" width="27.49" height="27.49"/>
  </g>
  <g>
    <rect class="cls-4" x="440.3" y="522.76" width="27.49" height="27.49"/>
    <polygon class="cls-4" points="770.15 715.17 770.15 742.66 742.66 742.66 742.66 770.15 715.17 770.15 687.69 770.15 687.69 797.64 715.17 797.64 742.66 797.64 770.15 797.64 770.15 770.15 797.64 770.15 797.64 742.66 797.64 715.17 797.64 687.69 770.15 687.69 770.15 715.17"/>
    <polygon class="cls-4" points="770.15 137.94 770.15 110.45 742.66 110.45 715.17 110.45 687.69 110.45 687.69 137.94 715.17 137.94 742.66 137.94 742.66 165.42 770.15 165.42 770.15 192.91 770.15 220.4 797.64 220.4 797.64 192.91 797.64 165.42 797.64 137.94 770.15 137.94"/>
    <polygon class="cls-4" points="137.94 192.91 137.94 165.42 165.42 165.42 165.42 137.94 192.91 137.94 220.4 137.94 220.4 110.45 192.91 110.45 165.42 110.45 137.94 110.45 137.94 137.94 110.45 137.94 110.45 165.42 110.45 192.91 110.45 220.4 137.94 220.4 137.94 192.91"/>
    <polygon class="cls-4" points="302.86 247.89 330.35 247.89 330.35 220.4 302.86 220.4 275.37 220.4 247.89 220.4 247.89 247.89 275.37 247.89 302.86 247.89"/>
    <polygon class="cls-4" points="632.71 247.89 660.2 247.89 660.2 220.4 632.71 220.4 605.22 220.4 577.74 220.4 577.74 247.89 605.22 247.89 632.71 247.89"/>
    <polygon class="cls-4" points="220.4 275.37 220.4 302.86 220.4 330.35 247.89 330.35 247.89 302.86 247.89 275.37 247.89 247.89 220.4 247.89 220.4 275.37"/>
    <polygon class="cls-4" points="660.2 302.86 660.2 330.35 687.69 330.35 687.69 302.86 687.69 275.37 687.69 247.89 660.2 247.89 660.2 275.37 660.2 302.86"/>
    <polygon class="cls-4" points="357.84 385.32 385.32 385.32 385.32 357.84 412.81 357.84 440.3 357.84 440.3 330.35 412.81 330.35 385.32 330.35 357.84 330.35 357.84 357.84 330.35 357.84 330.35 385.32 330.35 412.81 330.35 440.3 357.84 440.3 357.84 412.81 357.84 385.32"/>
    <rect class="cls-4" x="440.3" y="357.84" width="27.49" height="27.49"/>
    <polygon class="cls-4" points="522.76 357.84 522.76 385.32 550.25 385.32 550.25 412.81 550.25 440.3 577.74 440.3 577.74 412.81 577.74 385.32 577.74 357.84 550.25 357.84 550.25 330.35 522.76 330.35 495.27 330.35 467.79 330.35 467.79 357.84 495.27 357.84 522.76 357.84"/>
    <rect class="cls-4" x="357.84" y="440.3" width="27.49" height="27.49"/>
    <rect class="cls-4" x="522.76" y="440.3" width="27.49" height="27.49"/>
    <polygon class="cls-4" points="385.32 550.25 385.32 522.76 357.84 522.76 357.84 495.27 357.84 467.79 330.35 467.79 330.35 495.27 330.35 522.76 330.35 550.25 357.84 550.25 357.84 577.74 385.32 577.74 412.81 577.74 440.3 577.74 440.3 550.25 412.81 550.25 385.32 550.25"/>
    <polygon class="cls-4" points="577.74 522.76 577.74 495.27 577.74 467.79 550.25 467.79 550.25 495.27 550.25 522.76 522.76 522.76 522.76 550.25 495.27 550.25 467.79 550.25 467.79 577.74 495.27 577.74 522.76 577.74 550.25 577.74 550.25 550.25 577.74 550.25 577.74 522.76"/>
    <polygon class="cls-4" points="247.89 605.22 247.89 577.74 220.4 577.74 220.4 605.22 220.4 632.71 220.4 660.2 247.89 660.2 247.89 632.71 247.89 605.22"/>
    <polygon class="cls-4" points="687.69 632.71 687.69 605.22 687.69 577.74 660.2 577.74 660.2 605.22 660.2 632.71 660.2 660.2 687.69 660.2 687.69 632.71"/>
    <polygon class="cls-4" points="275.37 660.2 247.89 660.2 247.89 687.69 275.37 687.69 302.86 687.69 330.35 687.69 330.35 660.2 302.86 660.2 275.37 660.2"/>
    <polygon class="cls-4" points="605.22 660.2 577.74 660.2 577.74 687.69 605.22 687.69 632.71 687.69 660.2 687.69 660.2 660.2 632.71 660.2 605.22 660.2"/>
    <polygon class="cls-4" points="165.42 770.15 165.42 742.66 137.94 742.66 137.94 715.17 137.94 687.69 110.45 687.69 110.45 715.17 110.45 742.66 110.45 770.15 137.94 770.15 137.94 797.64 165.42 797.64 192.91 797.64 220.4 797.64 220.4 770.15 192.91 770.15 165.42 770.15"/>
  </g>
  <g>
    <rect class="cls-6" x="82.96" y="82.96" width="27.49" height="27.49"/>
    <rect class="cls-6" x="770.15" y="82.96" width="27.49" height="27.49"/>
    <rect class="cls-6" x="247.89" y="247.89" width="27.49" height="27.49"/>
    <rect class="cls-6" x="605.22" y="247.89" width="27.49" height="27.49"/>
    <rect class="cls-6" x="247.89" y="605.22" width="27.49" height="27.49"/>
    <rect class="cls-6" x="605.22" y="605.22" width="27.49" height="27.49"/>
    <rect class="cls-6" x="82.96" y="770.15" width="27.49" height="27.49"/>
    <rect class="cls-6" x="770.15" y="770.15" width="27.49" height="27.49"/>
  </g>
  <g>
    <rect class="cls-9" x="110.45" y="82.96" width="27.49" height="27.49"/>
    <rect class="cls-9" x="797.64" y="82.96" width="27.49" height="27.49"/>
    <rect class="cls-9" x="275.37" y="247.89" width="27.49" height="27.49"/>
    <rect class="cls-9" x="632.71" y="247.89" width="27.49" height="27.49"/>
    <rect class="cls-9" x="275.37" y="605.22" width="27.49" height="27.49"/>
    <rect class="cls-9" x="632.71" y="605.22" width="27.49" height="27.49"/>
    <rect class="cls-9" x="110.45" y="770.15" width="27.49" height="27.49"/>
    <rect class="cls-9" x="797.64" y="770.15" width="27.49" height="27.49"/>
  </g>
  <g>
    <polygon class="cls-8" points="192.91 110.45 192.91 82.96 165.42 82.96 137.94 82.96 137.94 110.45 165.42 110.45 192.91 110.45"/>
    <polygon class="cls-8" points="715.17 82.96 715.17 110.45 742.66 110.45 770.15 110.45 770.15 82.96 742.66 82.96 715.17 82.96"/>
    <polygon class="cls-8" points="82.96 165.42 82.96 192.91 110.45 192.91 110.45 165.42 110.45 137.94 82.96 137.94 82.96 165.42"/>
    <polygon class="cls-8" points="797.64 137.94 797.64 165.42 797.64 192.91 825.12 192.91 825.12 165.42 825.12 137.94 797.64 137.94"/>
    <polygon class="cls-8" points="275.37 220.4 302.86 220.4 302.86 192.91 275.37 192.91 247.89 192.91 220.4 192.91 220.4 220.4 247.89 220.4 275.37 220.4"/>
    <polygon class="cls-8" points="660.2 220.4 687.69 220.4 687.69 192.91 660.2 192.91 632.71 192.91 605.22 192.91 605.22 220.4 632.71 220.4 660.2 220.4"/>
    <polygon class="cls-8" points="192.91 247.89 192.91 275.37 192.91 302.86 220.4 302.86 220.4 275.37 220.4 247.89 220.4 220.4 192.91 220.4 192.91 247.89"/>
    <polygon class="cls-8" points="687.69 275.37 687.69 302.86 715.17 302.86 715.17 275.37 715.17 247.89 715.17 220.4 687.69 220.4 687.69 247.89 687.69 275.37"/>
    <rect class="cls-8" x="302.86" y="275.37" width="27.49" height="27.49"/>
    <rect class="cls-8" x="577.74" y="275.37" width="27.49" height="27.49"/>
    <rect class="cls-8" x="275.37" y="302.86" width="27.49" height="27.49"/>
    <polygon class="cls-8" points="550.25 330.35 550.25 357.84 577.74 357.84 577.74 385.32 577.74 412.81 605.22 412.81 605.22 385.32 605.22 357.84 605.22 330.35 577.74 330.35 577.74 302.86 550.25 302.86 522.76 302.86 495.27 302.86 495.27 330.35 522.76 330.35 550.25 330.35"/>
    <rect class="cls-8" x="605.22" y="302.86" width="27.49" height="27.49"/>
    <polygon class="cls-8" points="302.86 330.35 302.86 357.84 302.86 385.32 302.86 412.81 330.35 412.81 330.35 385.32 330.35 357.84 357.84 357.84 357.84 330.35 385.32 330.35 412.81 330.35 412.81 302.86 385.32 302.86 357.84 302.86 330.35 302.86 330.35 330.35 302.86 330.35"/>
    <rect class="cls-8" x="412.81" y="385.32" width="27.49" height="27.49"/>
    <rect class="cls-8" x="467.79" y="385.32" width="27.49" height="27.49"/>
    <rect class="cls-8" x="385.32" y="412.81" width="27.49" height="27.49"/>
    <rect class="cls-8" x="495.27" y="412.81" width="27.49" height="27.49"/>
    <rect class="cls-8" x="385.32" y="467.79" width="27.49" height="27.49"/>
    <rect class="cls-8" x="495.27" y="467.79" width="27.49" height="27.49"/>
    <rect class="cls-8" x="412.81" y="495.27" width="27.49" height="27.49"/>
    <rect class="cls-8" x="467.79" y="495.27" width="27.49" height="27.49"/>
    <polygon class="cls-8" points="605.22 577.74 605.22 550.25 605.22 522.76 605.22 495.27 577.74 495.27 577.74 522.76 577.74 550.25 550.25 550.25 550.25 577.74 522.76 577.74 495.27 577.74 495.27 605.22 522.76 605.22 550.25 605.22 577.74 605.22 577.74 577.74 605.22 577.74"/>
    <rect class="cls-8" x="275.37" y="577.74" width="27.49" height="27.49"/>
    <polygon class="cls-8" points="357.84 577.74 357.84 550.25 330.35 550.25 330.35 522.76 330.35 495.27 302.86 495.27 302.86 522.76 302.86 550.25 302.86 577.74 330.35 577.74 330.35 605.22 357.84 605.22 385.32 605.22 412.81 605.22 412.81 577.74 385.32 577.74 357.84 577.74"/>
    <rect class="cls-8" x="605.22" y="577.74" width="27.49" height="27.49"/>
    <rect class="cls-8" x="302.86" y="605.22" width="27.49" height="27.49"/>
    <rect class="cls-8" x="577.74" y="605.22" width="27.49" height="27.49"/>
    <polygon class="cls-8" points="220.4 632.71 220.4 605.22 192.91 605.22 192.91 632.71 192.91 660.2 192.91 687.69 220.4 687.69 220.4 660.2 220.4 632.71"/>
    <polygon class="cls-8" points="715.17 660.2 715.17 632.71 715.17 605.22 687.69 605.22 687.69 632.71 687.69 660.2 687.69 687.69 715.17 687.69 715.17 660.2"/>
    <polygon class="cls-8" points="247.89 687.69 220.4 687.69 220.4 715.17 247.89 715.17 275.37 715.17 302.86 715.17 302.86 687.69 275.37 687.69 247.89 687.69"/>
    <polygon class="cls-8" points="632.71 687.69 605.22 687.69 605.22 715.17 632.71 715.17 660.2 715.17 687.69 715.17 687.69 687.69 660.2 687.69 632.71 687.69"/>
    <polygon class="cls-8" points="82.96 742.66 82.96 770.15 110.45 770.15 110.45 742.66 110.45 715.17 82.96 715.17 82.96 742.66"/>
    <polygon class="cls-8" points="797.64 742.66 797.64 770.15 825.12 770.15 825.12 742.66 825.12 715.17 797.64 715.17 797.64 742.66"/>
    <polygon class="cls-8" points="137.94 797.64 137.94 825.12 165.42 825.12 192.91 825.12 192.91 797.64 165.42 797.64 137.94 797.64"/>
    <polygon class="cls-8" points="715.17 797.64 715.17 825.12 742.66 825.12 770.15 825.12 770.15 797.64 742.66 797.64 715.17 797.64"/>
  </g>
  <g>
    <rect class="cls-10" x="82.96" y="110.45" width="27.49" height="27.49"/>
    <rect class="cls-10" x="770.15" y="110.45" width="27.49" height="27.49"/>
    <rect class="cls-10" x="247.89" y="275.37" width="27.49" height="27.49"/>
    <rect class="cls-10" x="605.22" y="275.37" width="27.49" height="27.49"/>
    <rect class="cls-10" x="247.89" y="632.71" width="27.49" height="27.49"/>
    <rect class="cls-10" x="605.22" y="632.71" width="27.49" height="27.49"/>
    <rect class="cls-10" x="82.96" y="797.64" width="27.49" height="27.49"/>
    <rect class="cls-10" x="770.15" y="797.64" width="27.49" height="27.49"/>
  </g>
  <g>
    <rect class="cls-7" x="110.45" y="110.45" width="27.49" height="27.49"/>
    <rect class="cls-7" x="797.64" y="110.45" width="27.49" height="27.49"/>
    <rect class="cls-7" x="275.37" y="275.37" width="27.49" height="27.49"/>
    <rect class="cls-7" x="632.71" y="275.37" width="27.49" height="27.49"/>
    <rect class="cls-7" x="275.37" y="632.71" width="27.49" height="27.49"/>
    <rect class="cls-7" x="632.71" y="632.71" width="27.49" height="27.49"/>
    <rect class="cls-7" x="110.45" y="797.64" width="27.49" height="27.49"/>
    <rect class="cls-7" x="797.64" y="797.64" width="27.49" height="27.49"/>
  </g>
  <g>
    <rect class="cls-5" x="660.2" y="660.2" width="27.49" height="27.49"/>
    <rect class="cls-5" x="137.94" y="55.47" width="27.49" height="27.49"/>
    <rect class="cls-5" x="742.66" y="55.47" width="27.49" height="27.49"/>
    <rect class="cls-5" x="55.47" y="137.94" width="27.49" height="27.49"/>
    <rect class="cls-5" x="825.12" y="137.94" width="27.49" height="27.49"/>
    <polygon class="cls-5" points="247.89 192.91 275.37 192.91 275.37 165.42 247.89 165.42 220.4 165.42 192.91 165.42 192.91 192.91 220.4 192.91 247.89 192.91"/>
    <polygon class="cls-5" points="687.69 192.91 715.17 192.91 715.17 165.42 687.69 165.42 660.2 165.42 632.71 165.42 632.71 192.91 660.2 192.91 687.69 192.91"/>
    <polygon class="cls-5" points="165.42 220.4 165.42 247.89 165.42 275.37 192.91 275.37 192.91 247.89 192.91 220.4 192.91 192.91 165.42 192.91 165.42 220.4"/>
    <rect class="cls-5" x="220.4" y="220.4" width="27.49" height="27.49"/>
    <rect class="cls-5" x="660.2" y="220.4" width="27.49" height="27.49"/>
    <polygon class="cls-5" points="715.17 247.89 715.17 275.37 742.66 275.37 742.66 247.89 742.66 220.4 742.66 192.91 715.17 192.91 715.17 220.4 715.17 247.89"/>
    <rect class="cls-5" x="302.86" y="247.89" width="27.49" height="27.49"/>
    <rect class="cls-5" x="577.74" y="247.89" width="27.49" height="27.49"/>
    <polygon class="cls-5" points="357.84 302.86 385.32 302.86 385.32 275.37 357.84 275.37 330.35 275.37 330.35 302.86 357.84 302.86"/>
    <polygon class="cls-5" points="577.74 302.86 577.74 275.37 550.25 275.37 522.76 275.37 522.76 302.86 550.25 302.86 577.74 302.86"/>
    <rect class="cls-5" x="247.89" y="302.86" width="27.49" height="27.49"/>
    <rect class="cls-5" x="632.71" y="302.86" width="27.49" height="27.49"/>
    <polygon class="cls-5" points="605.22 357.84 605.22 385.32 632.71 385.32 632.71 357.84 632.71 330.35 605.22 330.35 605.22 357.84"/>
    <polygon class="cls-5" points="275.37 385.32 302.86 385.32 302.86 357.84 302.86 330.35 275.37 330.35 275.37 357.84 275.37 385.32"/>
    <rect class="cls-5" x="412.81" y="357.84" width="27.49" height="27.49"/>
    <rect class="cls-5" x="467.79" y="357.84" width="27.49" height="27.49"/>
    <rect class="cls-5" x="357.84" y="412.81" width="27.49" height="27.49"/>
    <rect class="cls-5" x="522.76" y="412.81" width="27.49" height="27.49"/>
    <path class="cls-5" d="M522.76,440.3h-27.49v-27.49h-27.49v-27.49h-27.49v27.49h-27.49v27.49h-27.49v27.49h27.49v27.49h27.49v27.49h27.49v-27.49h27.49v-27.49h27.49v-27.49ZM467.79,467.79h-27.49v-27.49h27.49v27.49Z"/>
    <rect class="cls-5" x="357.84" y="467.79" width="27.49" height="27.49"/>
    <rect class="cls-5" x="522.76" y="467.79" width="27.49" height="27.49"/>
    <rect class="cls-5" x="412.81" y="522.76" width="27.49" height="27.49"/>
    <rect class="cls-5" x="467.79" y="522.76" width="27.49" height="27.49"/>
    <polygon class="cls-5" points="302.86 550.25 302.86 522.76 275.37 522.76 275.37 550.25 275.37 577.74 302.86 577.74 302.86 550.25"/>
    <polygon class="cls-5" points="632.71 550.25 632.71 522.76 605.22 522.76 605.22 550.25 605.22 577.74 632.71 577.74 632.71 550.25"/>
    <rect class="cls-5" x="247.89" y="577.74" width="27.49" height="27.49"/>
    <rect class="cls-5" x="632.71" y="577.74" width="27.49" height="27.49"/>
    <polygon class="cls-5" points="330.35 605.22 330.35 632.71 357.84 632.71 385.32 632.71 385.32 605.22 357.84 605.22 330.35 605.22"/>
    <polygon class="cls-5" points="550.25 605.22 522.76 605.22 522.76 632.71 550.25 632.71 577.74 632.71 577.74 605.22 550.25 605.22"/>
    <rect class="cls-5" x="302.86" y="632.71" width="27.49" height="27.49"/>
    <rect class="cls-5" x="577.74" y="632.71" width="27.49" height="27.49"/>
    <polygon class="cls-5" points="192.91 660.2 192.91 632.71 165.42 632.71 165.42 660.2 165.42 687.69 165.42 715.17 192.91 715.17 192.91 687.69 192.91 660.2"/>
    <rect class="cls-5" x="220.4" y="660.2" width="27.49" height="27.49"/>
    <polygon class="cls-5" points="742.66 687.69 742.66 660.2 742.66 632.71 715.17 632.71 715.17 660.2 715.17 687.69 715.17 715.17 742.66 715.17 742.66 687.69"/>
    <polygon class="cls-5" points="220.4 715.17 192.91 715.17 192.91 742.66 220.4 742.66 247.89 742.66 275.37 742.66 275.37 715.17 247.89 715.17 220.4 715.17"/>
    <polygon class="cls-5" points="660.2 715.17 632.71 715.17 632.71 742.66 660.2 742.66 687.69 742.66 715.17 742.66 715.17 715.17 687.69 715.17 660.2 715.17"/>
    <rect class="cls-5" x="55.47" y="742.66" width="27.49" height="27.49"/>
    <rect class="cls-5" x="825.12" y="742.66" width="27.49" height="27.49"/>
    <rect class="cls-5" x="137.94" y="825.12" width="27.49" height="27.49"/>
    <rect class="cls-5" x="742.66" y="825.12" width="27.49" height="27.49"/>
  </g>
  <g>
    <rect class="cls-3" x="110.45" y="55.47" width="27.49" height="27.49"/>
    <rect class="cls-3" x="770.15" y="55.47" width="27.49" height="27.49"/>
    <rect class="cls-3" x="55.47" y="110.45" width="27.49" height="27.49"/>
    <rect class="cls-3" x="825.12" y="110.45" width="27.49" height="27.49"/>
    <polygon class="cls-3" points="220.4 165.42 247.89 165.42 247.89 137.94 220.4 137.94 192.91 137.94 165.42 137.94 165.42 165.42 192.91 165.42 220.4 165.42"/>
    <polygon class="cls-3" points="715.17 165.42 742.66 165.42 742.66 137.94 715.17 137.94 687.69 137.94 660.2 137.94 660.2 165.42 687.69 165.42 715.17 165.42"/>
    <polygon class="cls-3" points="137.94 192.91 137.94 220.4 137.94 247.89 165.42 247.89 165.42 220.4 165.42 192.91 165.42 165.42 137.94 165.42 137.94 192.91"/>
    <polygon class="cls-3" points="742.66 220.4 742.66 247.89 770.15 247.89 770.15 220.4 770.15 192.91 770.15 165.42 742.66 165.42 742.66 192.91 742.66 220.4"/>
    <rect class="cls-3" x="330.35" y="247.89" width="27.49" height="27.49"/>
    <rect class="cls-3" x="550.25" y="247.89" width="27.49" height="27.49"/>
    <rect class="cls-3" x="247.89" y="330.35" width="27.49" height="27.49"/>
    <rect class="cls-3" x="632.71" y="330.35" width="27.49" height="27.49"/>
    <rect class="cls-3" x="385.32" y="357.84" width="27.49" height="27.49"/>
    <rect class="cls-3" x="495.27" y="357.84" width="27.49" height="27.49"/>
    <rect class="cls-3" x="357.84" y="385.32" width="27.49" height="27.49"/>
    <rect class="cls-3" x="522.76" y="385.32" width="27.49" height="27.49"/>
    <rect class="cls-3" x="357.84" y="495.27" width="27.49" height="27.49"/>
    <rect class="cls-3" x="522.76" y="495.27" width="27.49" height="27.49"/>
    <rect class="cls-3" x="385.32" y="522.76" width="27.49" height="27.49"/>
    <rect class="cls-3" x="495.27" y="522.76" width="27.49" height="27.49"/>
    <rect class="cls-3" x="247.89" y="550.25" width="27.49" height="27.49"/>
    <rect class="cls-3" x="632.71" y="550.25" width="27.49" height="27.49"/>
    <rect class="cls-3" x="330.35" y="632.71" width="27.49" height="27.49"/>
    <rect class="cls-3" x="550.25" y="632.71" width="27.49" height="27.49"/>
    <polygon class="cls-3" points="165.42 687.69 165.42 660.2 137.94 660.2 137.94 687.69 137.94 715.17 137.94 742.66 165.42 742.66 165.42 715.17 165.42 687.69"/>
    <polygon class="cls-3" points="770.15 715.17 770.15 687.69 770.15 660.2 742.66 660.2 742.66 687.69 742.66 715.17 742.66 742.66 770.15 742.66 770.15 715.17"/>
    <polygon class="cls-3" points="192.91 742.66 165.42 742.66 165.42 770.15 192.91 770.15 220.4 770.15 247.89 770.15 247.89 742.66 220.4 742.66 192.91 742.66"/>
    <polygon class="cls-3" points="687.69 742.66 660.2 742.66 660.2 770.15 687.69 770.15 715.17 770.15 742.66 770.15 742.66 742.66 715.17 742.66 687.69 742.66"/>
    <rect class="cls-3" x="55.47" y="770.15" width="27.49" height="27.49"/>
    <rect class="cls-3" x="825.12" y="770.15" width="27.49" height="27.49"/>
    <rect class="cls-3" x="110.45" y="825.12" width="27.49" height="27.49"/>
    <rect class="cls-3" x="770.15" y="825.12" width="27.49" height="27.49"/>
  </g>
  <g>
    <polygon class="cls-11" points="165.42 55.47 165.42 27.99 137.94 27.99 110.45 27.99 110.45 55.47 137.94 55.47 165.42 55.47"/>
    <polygon class="cls-11" points="797.64 55.47 797.64 27.99 770.15 27.99 742.66 27.99 742.66 55.47 770.15 55.47 797.64 55.47"/>
    <rect class="cls-11" x="82.96" y="55.47" width="27.49" height="27.49"/>
    <rect class="cls-11" x="165.42" y="55.47" width="27.49" height="27.49"/>
    <rect class="cls-11" x="715.17" y="55.47" width="27.49" height="27.49"/>
    <rect class="cls-11" x="797.64" y="55.47" width="27.49" height="27.49"/>
    <rect class="cls-11" x="55.47" y="82.96" width="27.49" height="27.49"/>
    <rect class="cls-11" x="192.91" y="82.96" width="27.49" height="27.49"/>
    <rect class="cls-11" x="687.69" y="82.96" width="27.49" height="27.49"/>
    <rect class="cls-11" x="825.12" y="82.96" width="27.49" height="27.49"/>
    <polygon class="cls-11" points="55.47 110.45 27.99 110.45 27.99 137.94 27.99 165.42 55.47 165.42 55.47 137.94 55.47 110.45"/>
    <rect class="cls-11" x="220.4" y="110.45" width="27.49" height="27.49"/>
    <rect class="cls-11" x="660.2" y="110.45" width="27.49" height="27.49"/>
    <polygon class="cls-11" points="852.61 110.45 852.61 137.94 852.61 165.42 880.1 165.42 880.1 137.94 880.1 110.45 852.61 110.45"/>
    <rect class="cls-11" x="247.89" y="137.94" width="27.49" height="27.49"/>
    <rect class="cls-11" x="632.71" y="137.94" width="27.49" height="27.49"/>
    <rect class="cls-11" x="55.47" y="165.42" width="27.49" height="27.49"/>
    <rect class="cls-11" x="275.37" y="165.42" width="27.49" height="27.49"/>
    <rect class="cls-11" x="605.22" y="165.42" width="27.49" height="27.49"/>
    <rect class="cls-11" x="825.12" y="165.42" width="27.49" height="27.49"/>
    <rect class="cls-11" x="82.96" y="192.91" width="27.49" height="27.49"/>
    <rect class="cls-11" x="302.86" y="192.91" width="27.49" height="27.49"/>
    <rect class="cls-11" x="577.74" y="192.91" width="27.49" height="27.49"/>
    <rect class="cls-11" x="797.64" y="192.91" width="27.49" height="27.49"/>
    <rect class="cls-11" x="110.45" y="220.4" width="27.49" height="27.49"/>
    <rect class="cls-11" x="330.35" y="220.4" width="27.49" height="27.49"/>
    <rect class="cls-11" x="550.25" y="220.4" width="27.49" height="27.49"/>
    <rect class="cls-11" x="770.15" y="220.4" width="27.49" height="27.49"/>
    <rect class="cls-11" x="137.94" y="247.89" width="27.49" height="27.49"/>
    <rect class="cls-11" x="357.84" y="247.89" width="27.49" height="27.49"/>
    <rect class="cls-11" x="522.76" y="247.89" width="27.49" height="27.49"/>
    <rect class="cls-11" x="742.66" y="247.89" width="27.49" height="27.49"/>
    <rect class="cls-11" x="165.42" y="275.37" width="27.49" height="27.49"/>
    <rect class="cls-11" x="385.32" y="275.37" width="27.49" height="27.49"/>
    <rect class="cls-11" x="495.27" y="275.37" width="27.49" height="27.49"/>
    <rect class="cls-11" x="715.17" y="275.37" width="27.49" height="27.49"/>
    <rect class="cls-11" x="192.91" y="302.86" width="27.49" height="27.49"/>
    <rect class="cls-11" x="412.81" y="302.86" width="27.49" height="27.49"/>
    <rect class="cls-11" x="467.79" y="302.86" width="27.49" height="27.49"/>
    <rect class="cls-11" x="687.69" y="302.86" width="27.49" height="27.49"/>
    <rect class="cls-11" x="220.4" y="330.35" width="27.49" height="27.49"/>
    <rect class="cls-11" x="440.3" y="330.35" width="27.49" height="27.49"/>
    <rect class="cls-11" x="660.2" y="330.35" width="27.49" height="27.49"/>
    <rect class="cls-11" x="247.89" y="357.84" width="27.49" height="27.49"/>
    <rect class="cls-11" x="632.71" y="357.84" width="27.49" height="27.49"/>
    <rect class="cls-11" x="275.37" y="385.32" width="27.49" height="27.49"/>
    <rect class="cls-11" x="605.22" y="385.32" width="27.49" height="27.49"/>
    <rect class="cls-11" x="302.86" y="412.81" width="27.49" height="27.49"/>
    <rect class="cls-11" x="577.74" y="412.81" width="27.49" height="27.49"/>
    <rect class="cls-11" x="330.35" y="440.3" width="27.49" height="27.49"/>
    <rect class="cls-11" x="550.25" y="440.3" width="27.49" height="27.49"/>
    <rect class="cls-11" x="302.86" y="467.79" width="27.49" height="27.49"/>
    <rect class="cls-11" x="577.74" y="467.79" width="27.49" height="27.49"/>
    <rect class="cls-11" x="275.37" y="495.27" width="27.49" height="27.49"/>
    <rect class="cls-11" x="605.22" y="495.27" width="27.49" height="27.49"/>
    <rect class="cls-11" x="247.89" y="522.76" width="27.49" height="27.49"/>
    <rect class="cls-11" x="632.71" y="522.76" width="27.49" height="27.49"/>
    <rect class="cls-11" x="220.4" y="550.25" width="27.49" height="27.49"/>
    <rect class="cls-11" x="440.3" y="550.25" width="27.49" height="27.49"/>
    <rect class="cls-11" x="660.2" y="550.25" width="27.49" height="27.49"/>
    <rect class="cls-11" x="192.91" y="577.74" width="27.49" height="27.49"/>
    <rect class="cls-11" x="412.81" y="577.74" width="27.49" height="27.49"/>
    <rect class="cls-11" x="467.79" y="577.74" width="27.49" height="27.49"/>
    <rect class="cls-11" x="687.69" y="577.74" width="27.49" height="27.49"/>
    <rect class="cls-11" x="165.42" y="605.22" width="27.49" height="27.49"/>
    <rect class="cls-11" x="385.32" y="605.22" width="27.49" height="27.49"/>
    <rect class="cls-11" x="495.27" y="605.22" width="27.49" height="27.49"/>
    <rect class="cls-11" x="715.17" y="605.22" width="27.49" height="27.49"/>
    <rect class="cls-11" x="137.94" y="632.71" width="27.49" height="27.49"/>
    <rect class="cls-11" x="357.84" y="632.71" width="27.49" height="27.49"/>
    <rect class="cls-11" x="522.76" y="632.71" width="27.49" height="27.49"/>
    <rect class="cls-11" x="742.66" y="632.71" width="27.49" height="27.49"/>
    <rect class="cls-11" x="110.45" y="660.2" width="27.49" height="27.49"/>
    <rect class="cls-11" x="330.35" y="660.2" width="27.49" height="27.49"/>
    <rect class="cls-11" x="550.25" y="660.2" width="27.49" height="27.49"/>
    <rect class="cls-11" x="770.15" y="660.2" width="27.49" height="27.49"/>
    <rect class="cls-11" x="82.96" y="687.69" width="27.49" height="27.49"/>
    <rect class="cls-11" x="302.86" y="687.69" width="27.49" height="27.49"/>
    <rect class="cls-11" x="577.74" y="687.69" width="27.49" height="27.49"/>
    <rect class="cls-11" x="797.64" y="687.69" width="27.49" height="27.49"/>
    <rect class="cls-11" x="55.47" y="715.17" width="27.49" height="27.49"/>
    <rect class="cls-11" x="275.37" y="715.17" width="27.49" height="27.49"/>
    <rect class="cls-11" x="605.22" y="715.17" width="27.49" height="27.49"/>
    <rect class="cls-11" x="825.12" y="715.17" width="27.49" height="27.49"/>
    <polygon class="cls-11" points="55.47 742.66 27.99 742.66 27.99 770.15 27.99 797.64 55.47 797.64 55.47 770.15 55.47 742.66"/>
    <rect class="cls-11" x="247.89" y="742.66" width="27.49" height="27.49"/>
    <rect class="cls-11" x="632.71" y="742.66" width="27.49" height="27.49"/>
    <rect class="cls-11" x="220.4" y="770.15" width="27.49" height="27.49"/>
    <rect class="cls-11" x="660.2" y="770.15" width="27.49" height="27.49"/>
    <polygon class="cls-11" points="852.61 797.64 880.1 797.64 880.1 770.15 880.1 742.66 852.61 742.66 852.61 770.15 852.61 797.64"/>
    <rect class="cls-11" x="55.47" y="797.64" width="27.49" height="27.49"/>
    <rect class="cls-11" x="192.91" y="797.64" width="27.49" height="27.49"/>
    <rect class="cls-11" x="687.69" y="797.64" width="27.49" height="27.49"/>
    <rect class="cls-11" x="825.12" y="797.64" width="27.49" height="27.49"/>
    <rect class="cls-11" x="82.96" y="825.12" width="27.49" height="27.49"/>
    <rect class="cls-11" x="165.42" y="825.12" width="27.49" height="27.49"/>
    <rect class="cls-11" x="715.17" y="825.12" width="27.49" height="27.49"/>
    <rect class="cls-11" x="797.64" y="825.12" width="27.49" height="27.49"/>
    <polygon class="cls-11" points="110.45 852.61 110.45 880.1 137.94 880.1 165.42 880.1 165.42 852.61 137.94 852.61 110.45 852.61"/>
    <polygon class="cls-11" points="742.66 852.61 742.66 880.1 770.15 880.1 797.64 880.1 797.64 852.61 770.15 852.61 742.66 852.61"/>
  </g>
  <g>
    <polygon class="cls-2" points="27.99 742.66 .5 742.66 .5 770.15 .5 797.64 27.99 797.64 27.99 770.15 27.99 742.66"/>
    <polygon class="cls-2" points="165.42 27.99 165.42 .5 137.94 .5 110.45 .5 110.45 27.99 137.94 27.99 165.42 27.99"/>
    <polygon class="cls-2" points="797.64 27.99 797.64 .5 770.15 .5 742.66 .5 742.66 27.99 770.15 27.99 797.64 27.99"/>
    <rect class="cls-2" x="82.96" y="27.99" width="27.49" height="27.49"/>
    <rect class="cls-2" x="165.42" y="27.99" width="27.49" height="27.49"/>
    <rect class="cls-2" x="715.17" y="27.99" width="27.49" height="27.49"/>
    <rect class="cls-2" x="797.64" y="27.99" width="27.49" height="27.49"/>
    <rect class="cls-2" x="55.47" y="55.47" width="27.49" height="27.49"/>
    <rect class="cls-2" x="192.91" y="55.47" width="27.49" height="27.49"/>
    <rect class="cls-2" x="687.69" y="55.47" width="27.49" height="27.49"/>
    <rect class="cls-2" x="825.12" y="55.47" width="27.49" height="27.49"/>
    <rect class="cls-2" x="27.99" y="82.96" width="27.49" height="27.49"/>
    <rect class="cls-2" x="220.4" y="82.96" width="27.49" height="27.49"/>
    <rect class="cls-2" x="660.2" y="82.96" width="27.49" height="27.49"/>
    <rect class="cls-2" x="852.61" y="82.96" width="27.49" height="27.49"/>
    <polygon class="cls-2" points="27.99 110.45 .5 110.45 .5 137.94 .5 165.42 27.99 165.42 27.99 137.94 27.99 110.45"/>
    <rect class="cls-2" x="247.89" y="110.45" width="27.49" height="27.49"/>
    <rect class="cls-2" x="632.71" y="110.45" width="27.49" height="27.49"/>
    <polygon class="cls-2" points="880.1 110.45 880.1 137.94 880.1 165.42 907.59 165.42 907.59 137.94 907.59 110.45 880.1 110.45"/>
    <rect class="cls-2" x="275.37" y="137.94" width="27.49" height="27.49"/>
    <rect class="cls-2" x="605.22" y="137.94" width="27.49" height="27.49"/>
    <rect class="cls-2" x="27.99" y="165.42" width="27.49" height="27.49"/>
    <rect class="cls-2" x="302.86" y="165.42" width="27.49" height="27.49"/>
    <rect class="cls-2" x="440.3" y="165.42" width="27.49" height="27.49"/>
    <rect class="cls-2" x="577.74" y="165.42" width="27.49" height="27.49"/>
    <rect class="cls-2" x="852.61" y="165.42" width="27.49" height="27.49"/>
    <rect class="cls-2" x="55.47" y="192.91" width="27.49" height="27.49"/>
    <rect class="cls-2" x="330.35" y="192.91" width="27.49" height="27.49"/>
    <rect class="cls-2" x="550.25" y="192.91" width="27.49" height="27.49"/>
    <rect class="cls-2" x="825.12" y="192.91" width="27.49" height="27.49"/>
    <rect class="cls-2" x="82.96" y="220.4" width="27.49" height="27.49"/>
    <polygon class="cls-2" points="385.32 247.89 385.32 275.37 412.81 275.37 412.81 247.89 440.3 247.89 467.79 247.89 495.27 247.89 495.27 275.37 522.76 275.37 522.76 247.89 550.25 247.89 550.25 220.4 522.76 220.4 495.27 220.4 495.27 192.91 467.79 192.91 467.79 220.4 440.3 220.4 440.3 192.91 412.81 192.91 412.81 220.4 385.32 220.4 357.84 220.4 357.84 247.89 385.32 247.89"/>
    <rect class="cls-2" x="797.64" y="220.4" width="27.49" height="27.49"/>
    <rect class="cls-2" x="110.45" y="247.89" width="27.49" height="27.49"/>
    <rect class="cls-2" x="770.15" y="247.89" width="27.49" height="27.49"/>
    <rect class="cls-2" x="137.94" y="275.37" width="27.49" height="27.49"/>
    <rect class="cls-2" x="412.81" y="275.37" width="27.49" height="27.49"/>
    <rect class="cls-2" x="467.79" y="275.37" width="27.49" height="27.49"/>
    <rect class="cls-2" x="742.66" y="275.37" width="27.49" height="27.49"/>
    <rect class="cls-2" x="165.42" y="302.86" width="27.49" height="27.49"/>
    <rect class="cls-2" x="440.3" y="302.86" width="27.49" height="27.49"/>
    <rect class="cls-2" x="715.17" y="302.86" width="27.49" height="27.49"/>
    <rect class="cls-2" x="192.91" y="330.35" width="27.49" height="27.49"/>
    <rect class="cls-2" x="687.69" y="330.35" width="27.49" height="27.49"/>
    <polygon class="cls-2" points="660.2 385.32 632.71 385.32 632.71 412.81 660.2 412.81 660.2 440.3 660.2 467.79 660.2 495.27 632.71 495.27 632.71 522.76 660.2 522.76 660.2 550.25 687.69 550.25 687.69 522.76 687.69 495.27 715.17 495.27 715.17 467.79 687.69 467.79 687.69 440.3 715.17 440.3 715.17 412.81 687.69 412.81 687.69 385.32 687.69 357.84 660.2 357.84 660.2 385.32"/>
    <polygon class="cls-2" points="247.89 522.76 275.37 522.76 275.37 495.27 247.89 495.27 247.89 467.79 247.89 440.3 247.89 412.81 275.37 412.81 275.37 385.32 247.89 385.32 247.89 357.84 220.4 357.84 220.4 385.32 220.4 412.81 192.91 412.81 192.91 440.3 220.4 440.3 220.4 467.79 192.91 467.79 192.91 495.27 220.4 495.27 220.4 522.76 220.4 550.25 247.89 550.25 247.89 522.76"/>
    <rect class="cls-2" x="275.37" y="412.81" width="27.49" height="27.49"/>
    <rect class="cls-2" x="605.22" y="412.81" width="27.49" height="27.49"/>
    <rect class="cls-2" x="165.42" y="440.3" width="27.49" height="27.49"/>
    <rect class="cls-2" x="302.86" y="440.3" width="27.49" height="27.49"/>
    <rect class="cls-2" x="577.74" y="440.3" width="27.49" height="27.49"/>
    <rect class="cls-2" x="715.17" y="440.3" width="27.49" height="27.49"/>
    <rect class="cls-2" x="275.37" y="467.79" width="27.49" height="27.49"/>
    <rect class="cls-2" x="605.22" y="467.79" width="27.49" height="27.49"/>
    <rect class="cls-2" x="192.91" y="550.25" width="27.49" height="27.49"/>
    <rect class="cls-2" x="687.69" y="550.25" width="27.49" height="27.49"/>
    <rect class="cls-2" x="165.42" y="577.74" width="27.49" height="27.49"/>
    <rect class="cls-2" x="440.3" y="577.74" width="27.49" height="27.49"/>
    <rect class="cls-2" x="715.17" y="577.74" width="27.49" height="27.49"/>
    <rect class="cls-2" x="137.94" y="605.22" width="27.49" height="27.49"/>
    <rect class="cls-2" x="412.81" y="605.22" width="27.49" height="27.49"/>
    <rect class="cls-2" x="467.79" y="605.22" width="27.49" height="27.49"/>
    <rect class="cls-2" x="742.66" y="605.22" width="27.49" height="27.49"/>
    <rect class="cls-2" x="110.45" y="632.71" width="27.49" height="27.49"/>
    <rect class="cls-2" x="770.15" y="632.71" width="27.49" height="27.49"/>
    <rect class="cls-2" x="82.96" y="660.2" width="27.49" height="27.49"/>
    <polygon class="cls-2" points="522.76 660.2 522.76 632.71 495.27 632.71 495.27 660.2 467.79 660.2 440.3 660.2 412.81 660.2 412.81 632.71 385.32 632.71 385.32 660.2 357.84 660.2 357.84 687.69 385.32 687.69 412.81 687.69 412.81 715.17 440.3 715.17 440.3 687.69 467.79 687.69 467.79 715.17 495.27 715.17 495.27 687.69 522.76 687.69 550.25 687.69 550.25 660.2 522.76 660.2"/>
    <rect class="cls-2" x="797.64" y="660.2" width="27.49" height="27.49"/>
    <rect class="cls-2" x="55.47" y="687.69" width="27.49" height="27.49"/>
    <rect class="cls-2" x="330.35" y="687.69" width="27.49" height="27.49"/>
    <rect class="cls-2" x="550.25" y="687.69" width="27.49" height="27.49"/>
    <rect class="cls-2" x="825.12" y="687.69" width="27.49" height="27.49"/>
    <rect class="cls-2" x="27.99" y="715.17" width="27.49" height="27.49"/>
    <rect class="cls-2" x="302.86" y="715.17" width="27.49" height="27.49"/>
    <rect class="cls-2" x="440.3" y="715.17" width="27.49" height="27.49"/>
    <rect class="cls-2" x="577.74" y="715.17" width="27.49" height="27.49"/>
    <rect class="cls-2" x="852.61" y="715.17" width="27.49" height="27.49"/>
    <rect class="cls-2" x="275.37" y="742.66" width="27.49" height="27.49"/>
    <rect class="cls-2" x="605.22" y="742.66" width="27.49" height="27.49"/>
    <rect class="cls-2" x="247.89" y="770.15" width="27.49" height="27.49"/>
    <rect class="cls-2" x="632.71" y="770.15" width="27.49" height="27.49"/>
    <polygon class="cls-2" points="880.1 797.64 907.59 797.64 907.59 770.15 907.59 742.66 880.1 742.66 880.1 770.15 880.1 797.64"/>
    <rect class="cls-2" x="27.99" y="797.64" width="27.49" height="27.49"/>
    <rect class="cls-2" x="220.4" y="797.64" width="27.49" height="27.49"/>
    <rect class="cls-2" x="660.2" y="797.64" width="27.49" height="27.49"/>
    <rect class="cls-2" x="852.61" y="797.64" width="27.49" height="27.49"/>
    <rect class="cls-2" x="55.47" y="825.12" width="27.49" height="27.49"/>
    <rect class="cls-2" x="192.91" y="825.12" width="27.49" height="27.49"/>
    <rect class="cls-2" x="687.69" y="825.12" width="27.49" height="27.49"/>
    <rect class="cls-2" x="825.12" y="825.12" width="27.49" height="27.49"/>
    <rect class="cls-2" x="82.96" y="852.61" width="27.49" height="27.49"/>
    <rect class="cls-2" x="165.42" y="852.61" width="27.49" height="27.49"/>
    <rect class="cls-2" x="715.17" y="852.61" width="27.49" height="27.49"/>
    <rect class="cls-2" x="797.64" y="852.61" width="27.49" height="27.49"/>
    <polygon class="cls-2" points="110.45 880.1 110.45 907.59 137.94 907.59 165.42 907.59 165.42 880.1 137.94 880.1 110.45 880.1"/>
    <polygon class="cls-2" points="742.66 880.1 742.66 907.59 770.15 907.59 797.64 907.59 797.64 880.1 770.15 880.1 742.66 880.1"/>
  </g>
</svg>