<?xml version="1.0" encoding="UTF-8"?>
<svg id="cube" data-name="Calque 1" xmlns="http://www.w3.org/2000/svg" viewBox="0 0 908.09 908.09">
  <defs>
    <style>
      .cls-1 {
        fill: #898a8a;
        stroke: #8a8a8a;
      }

      .cls-1, .cls-2, .cls-3, .cls-4, .cls-5, .cls-6, .cls-7, .cls-8, .cls-9, .cls-10, .cls-11, .cls-12, .cls-13, .cls-14, .cls-15, .cls-16, .cls-17, .cls-18, .cls-19, .cls-20, .cls-21, .cls-22, .cls-23, .cls-24, .cls-25, .cls-26, .cls-27 {
        stroke-miterlimit: 10;
      }

      .cls-2 {
        fill: #6dc5cf;
        stroke: #6cc5cf;
      }

      .cls-3 {
        fill: #d8d9d8;
        stroke: #d8d9d8;
      }

      .cls-4 {
        fill: #84cfea;
        stroke: #83ceea;
      }

      .cls-5 {
        fill: #f9e92a;
        stroke: #faea27;
      }

      .cls-6 {
        fill: #b4cbeb;
        stroke: #b4cbeb;
      }

      .cls-7 {
        fill: #059e95;
        stroke: #089e96;
      }

      .cls-8 {
        fill: #8baedc;
        stroke: #8caedc;
      }

      .cls-9 {
        fill: #537bbd;
        stroke: #537bbd;
      }

      .cls-10 {
        fill: #f6a01a;
        stroke: #f6a019;
      }

      .cls-11 {
        fill: #a1d8ee;
        stroke: #a1d8ef;
      }

      .cls-12 {
        fill: #3bb7b2;
        stroke: #3bb7b2;
      }

      .cls-13 {
        fill: #6e93cc;
        stroke: #6e94cd;
      }

      .cls-14 {
        fill: #b3dee4;
        stroke: #b2dde4;
      }

      .cls-15 {
        fill: #ea541e;
        stroke: #ea541e;
      }

      .cls-16 {
        fill: #a4a4a3;
        stroke: #a5a4a4;
      }

      .cls-17 {
        fill: #079089;
        stroke: #058f89;
      }

      .cls-18 {
        fill: #fbbb15;
        stroke: #fbbb10;
      }

      .cls-19 {
        fill: #2eb4d2;
        stroke: #2eb4d2;
      }

      .cls-20 {
        fill: #426ab2;
        stroke: #416ab2;
      }

      .cls-21 {
        fill: #46b9b7;
        stroke: #46b9b7;
      }

      .cls-22 {
        fill: #5c83c3;
        stroke: #5d84c3;
      }

      .cls-23 {
        fill: #62c5e5;
        stroke: #61c5e5;
      }

      .cls-24 {
        fill: #c7e7f4;
        stroke: #c7e7f5;
      }

      .cls-25 {
        fill: #bebdbd;
        stroke: #bebdbe;
      }

      .cls-26 {
        fill: #62c1c6;
        stroke: #61c1c7;
      }

      .cls-27 {
        fill: #57bec0;
        stroke: #56bec0;
      }
    </style>
  </defs>
  <g>
    <rect class="cls-15" x="550.25" y="220.4" width="27.49" height="27.49"/>
    <polygon class="cls-15" points="605.22 247.89 577.74 247.89 577.74 275.37 605.22 275.37 632.71 275.37 632.71 247.89 605.22 247.89"/>
    <polygon class="cls-15" points="660.2 275.37 632.71 275.37 632.71 302.86 660.2 302.86 687.69 302.86 687.69 275.37 660.2 275.37"/>
    <rect class="cls-15" x="550.25" y="302.86" width="27.49" height="27.49"/>
    <polygon class="cls-15" points="715.17 302.86 687.69 302.86 687.69 330.35 715.17 330.35 742.66 330.35 742.66 302.86 715.17 302.86"/>
    <polygon class="cls-15" points="330.35 357.84 330.35 385.32 357.84 385.32 357.84 357.84 357.84 330.35 330.35 330.35 330.35 357.84"/>
    <rect class="cls-15" x="577.74" y="330.35" width="27.49" height="27.49"/>
    <polygon class="cls-15" points="275.37 385.32 275.37 412.81 302.86 412.81 302.86 385.32 302.86 357.84 275.37 357.84 275.37 385.32"/>
    <rect class="cls-15" x="632.71" y="357.84" width="27.49" height="27.49"/>
    <polygon class="cls-15" points="220.4 412.81 220.4 440.3 247.89 440.3 247.89 412.81 247.89 385.32 220.4 385.32 220.4 412.81"/>
    <rect class="cls-15" x="550.25" y="385.32" width="27.49" height="27.49"/>
    <polygon class="cls-15" points="687.69 385.32 687.69 412.81 715.17 412.81 742.66 412.81 742.66 385.32 715.17 385.32 687.69 385.32"/>
    <polygon class="cls-15" points="165.42 440.3 165.42 467.79 192.91 467.79 192.91 440.3 192.91 412.81 165.42 412.81 165.42 440.3"/>
    <rect class="cls-15" x="577.74" y="412.81" width="27.49" height="27.49"/>
    <rect class="cls-15" x="632.71" y="440.3" width="27.49" height="27.49"/>
    <polygon class="cls-15" points="687.69 467.79 687.69 495.27 715.17 495.27 742.66 495.27 742.66 467.79 715.17 467.79 687.69 467.79"/>
    <polygon class="cls-15" points="577.74 495.27 550.25 495.27 550.25 522.76 577.74 522.76 605.22 522.76 605.22 495.27 577.74 495.27"/>
    <polygon class="cls-15" points="632.71 522.76 605.22 522.76 605.22 550.25 632.71 550.25 660.2 550.25 660.2 522.76 632.71 522.76"/>
    <polygon class="cls-15" points="687.69 550.25 660.2 550.25 660.2 577.74 687.69 577.74 715.17 577.74 715.17 550.25 687.69 550.25"/>
    <rect class="cls-15" x="715.17" y="577.74" width="27.49" height="27.49"/>
    <polygon class="cls-15" points="440.3 687.69 412.81 687.69 412.81 715.17 440.3 715.17 467.79 715.17 495.27 715.17 495.27 687.69 467.79 687.69 440.3 687.69"/>
  </g>
  <g>
    <rect class="cls-10" x="550.25" y="192.91" width="27.49" height="27.49"/>
    <rect class="cls-10" x="577.74" y="220.4" width="27.49" height="27.49"/>
    <rect class="cls-10" x="632.71" y="247.89" width="27.49" height="27.49"/>
    <polygon class="cls-10" points="330.35 302.86 330.35 330.35 357.84 330.35 357.84 302.86 357.84 275.37 330.35 275.37 330.35 302.86"/>
    <rect class="cls-10" x="687.69" y="275.37" width="27.49" height="27.49"/>
    <polygon class="cls-10" points="275.37 330.35 275.37 357.84 302.86 357.84 302.86 330.35 302.86 302.86 275.37 302.86 275.37 330.35"/>
    <polygon class="cls-10" points="220.4 357.84 220.4 385.32 247.89 385.32 247.89 357.84 247.89 330.35 220.4 330.35 220.4 357.84"/>
    <rect class="cls-10" x="605.22" y="330.35" width="27.49" height="27.49"/>
    <polygon class="cls-10" points="165.42 385.32 165.42 412.81 192.91 412.81 192.91 385.32 192.91 357.84 165.42 357.84 165.42 385.32"/>
    <rect class="cls-10" x="660.2" y="357.84" width="27.49" height="27.49"/>
    <polygon class="cls-10" points="330.35 412.81 330.35 440.3 357.84 440.3 357.84 412.81 357.84 385.32 330.35 385.32 330.35 412.81"/>
    <polygon class="cls-10" points="275.37 440.3 275.37 467.79 302.86 467.79 302.86 440.3 302.86 412.81 275.37 412.81 275.37 440.3"/>
    <rect class="cls-10" x="605.22" y="412.81" width="27.49" height="27.49"/>
    <polygon class="cls-10" points="220.4 467.79 220.4 495.27 247.89 495.27 247.89 467.79 247.89 440.3 220.4 440.3 220.4 467.79"/>
    <rect class="cls-10" x="660.2" y="440.3" width="27.49" height="27.49"/>
    <polygon class="cls-10" points="165.42 495.27 165.42 522.76 192.91 522.76 192.91 495.27 192.91 467.79 165.42 467.79 165.42 495.27"/>
    <rect class="cls-10" x="550.25" y="467.79" width="27.49" height="27.49"/>
    <rect class="cls-10" x="605.22" y="495.27" width="27.49" height="27.49"/>
    <rect class="cls-10" x="660.2" y="522.76" width="27.49" height="27.49"/>
    <rect class="cls-10" x="715.17" y="550.25" width="27.49" height="27.49"/>
    <polygon class="cls-10" points="467.79 715.17 440.3 715.17 412.81 715.17 385.32 715.17 385.32 742.66 412.81 742.66 440.3 742.66 467.79 742.66 495.27 742.66 522.76 742.66 522.76 715.17 495.27 715.17 467.79 715.17"/>
  </g>
  <g>
    <rect class="cls-18" x="605.22" y="220.4" width="27.49" height="27.49"/>
    <polygon class="cls-18" points="275.37 275.37 275.37 302.86 302.86 302.86 302.86 275.37 302.86 247.89 275.37 247.89 275.37 275.37"/>
    <polygon class="cls-18" points="357.84 247.89 357.84 220.4 330.35 220.4 330.35 247.89 330.35 275.37 357.84 275.37 357.84 247.89"/>
    <rect class="cls-18" x="660.2" y="247.89" width="27.49" height="27.49"/>
    <polygon class="cls-18" points="220.4 302.86 220.4 330.35 247.89 330.35 247.89 302.86 247.89 275.37 220.4 275.37 220.4 302.86"/>
    <rect class="cls-18" x="715.17" y="275.37" width="27.49" height="27.49"/>
    <polygon class="cls-18" points="165.42 330.35 165.42 357.84 192.91 357.84 192.91 330.35 192.91 302.86 165.42 302.86 165.42 330.35"/>
    <rect class="cls-18" x="577.74" y="302.86" width="27.49" height="27.49"/>
    <rect class="cls-18" x="632.71" y="330.35" width="27.49" height="27.49"/>
    <rect class="cls-18" x="687.69" y="357.84" width="27.49" height="27.49"/>
    <rect class="cls-18" x="577.74" y="385.32" width="27.49" height="27.49"/>
    <rect class="cls-18" x="632.71" y="412.81" width="27.49" height="27.49"/>
    <rect class="cls-18" x="687.69" y="440.3" width="27.49" height="27.49"/>
    <polygon class="cls-18" points="275.37 495.27 275.37 522.76 302.86 522.76 302.86 495.27 302.86 467.79 275.37 467.79 275.37 495.27"/>
    <polygon class="cls-18" points="357.84 467.79 357.84 440.3 330.35 440.3 330.35 467.79 330.35 495.27 357.84 495.27 357.84 467.79"/>
    <rect class="cls-18" x="577.74" y="467.79" width="27.49" height="27.49"/>
    <polygon class="cls-18" points="220.4 522.76 220.4 550.25 247.89 550.25 247.89 522.76 247.89 495.27 220.4 495.27 220.4 522.76"/>
    <rect class="cls-18" x="632.71" y="495.27" width="27.49" height="27.49"/>
    <polygon class="cls-18" points="165.42 550.25 165.42 577.74 192.91 577.74 192.91 550.25 192.91 522.76 165.42 522.76 165.42 550.25"/>
    <rect class="cls-18" x="687.69" y="522.76" width="27.49" height="27.49"/>
    <rect class="cls-18" x="357.84" y="715.17" width="27.49" height="27.49"/>
    <rect class="cls-18" x="522.76" y="715.17" width="27.49" height="27.49"/>
  </g>
  <g>
    <polygon class="cls-5" points="330.35 192.91 330.35 220.4 357.84 220.4 357.84 192.91 357.84 165.42 330.35 165.42 330.35 192.91"/>
    <polygon class="cls-5" points="275.37 220.4 275.37 247.89 302.86 247.89 302.86 220.4 302.86 192.91 275.37 192.91 275.37 220.4"/>
    <rect class="cls-5" x="577.74" y="192.91" width="27.49" height="27.49"/>
    <polygon class="cls-5" points="220.4 247.89 220.4 275.37 247.89 275.37 247.89 247.89 247.89 220.4 220.4 220.4 220.4 247.89"/>
    <rect class="cls-5" x="632.71" y="220.4" width="27.49" height="27.49"/>
    <polygon class="cls-5" points="165.42 275.37 165.42 302.86 192.91 302.86 192.91 275.37 192.91 247.89 165.42 247.89 165.42 275.37"/>
    <rect class="cls-5" x="687.69" y="247.89" width="27.49" height="27.49"/>
    <rect class="cls-5" x="550.25" y="275.37" width="27.49" height="27.49"/>
    <rect class="cls-5" x="605.22" y="302.86" width="27.49" height="27.49"/>
    <rect class="cls-5" x="660.2" y="330.35" width="27.49" height="27.49"/>
    <rect class="cls-5" x="550.25" y="357.84" width="27.49" height="27.49"/>
    <rect class="cls-5" x="715.17" y="357.84" width="27.49" height="27.49"/>
    <rect class="cls-5" x="605.22" y="385.32" width="27.49" height="27.49"/>
    <rect class="cls-5" x="660.2" y="412.81" width="27.49" height="27.49"/>
    <rect class="cls-5" x="550.25" y="440.3" width="27.49" height="27.49"/>
    <rect class="cls-5" x="715.17" y="440.3" width="27.49" height="27.49"/>
    <rect class="cls-5" x="605.22" y="467.79" width="27.49" height="27.49"/>
    <polygon class="cls-5" points="330.35 522.76 330.35 550.25 357.84 550.25 357.84 522.76 357.84 495.27 330.35 495.27 330.35 522.76"/>
    <rect class="cls-5" x="660.2" y="495.27" width="27.49" height="27.49"/>
    <polygon class="cls-5" points="275.37 550.25 275.37 577.74 302.86 577.74 302.86 550.25 302.86 522.76 275.37 522.76 275.37 550.25"/>
    <rect class="cls-5" x="715.17" y="522.76" width="27.49" height="27.49"/>
    <polygon class="cls-5" points="220.4 577.74 220.4 605.22 247.89 605.22 247.89 577.74 247.89 550.25 220.4 550.25 220.4 577.74"/>
    <polygon class="cls-5" points="165.42 605.22 165.42 632.71 192.91 632.71 192.91 605.22 192.91 577.74 165.42 577.74 165.42 605.22"/>
    <rect class="cls-5" x="330.35" y="715.17" width="27.49" height="27.49"/>
    <rect class="cls-5" x="550.25" y="715.17" width="27.49" height="27.49"/>
    <polygon class="cls-5" points="440.3 742.66 412.81 742.66 412.81 770.15 440.3 770.15 467.79 770.15 495.27 770.15 495.27 742.66 467.79 742.66 440.3 742.66"/>
  </g>
  <g>
    <polygon class="cls-25" points="357.84 220.4 357.84 247.89 357.84 275.37 385.32 275.37 385.32 247.89 385.32 220.4 385.32 192.91 357.84 192.91 357.84 220.4"/>
    <rect class="cls-25" x="632.71" y="192.91" width="27.49" height="27.49"/>
    <polygon class="cls-25" points="302.86 247.89 302.86 275.37 302.86 302.86 330.35 302.86 330.35 275.37 330.35 247.89 330.35 220.4 302.86 220.4 302.86 247.89"/>
    <rect class="cls-25" x="687.69" y="220.4" width="27.49" height="27.49"/>
    <polygon class="cls-25" points="247.89 275.37 247.89 302.86 247.89 330.35 275.37 330.35 275.37 302.86 275.37 275.37 275.37 247.89 247.89 247.89 247.89 275.37"/>
    <polygon class="cls-25" points="192.91 302.86 192.91 330.35 192.91 357.84 220.4 357.84 220.4 330.35 220.4 302.86 220.4 275.37 192.91 275.37 192.91 302.86"/>
    <rect class="cls-25" x="605.22" y="275.37" width="27.49" height="27.49"/>
    <polygon class="cls-25" points="137.94 330.35 137.94 357.84 137.94 385.32 165.42 385.32 165.42 357.84 165.42 330.35 165.42 302.86 137.94 302.86 137.94 330.35"/>
    <rect class="cls-25" x="660.2" y="302.86" width="27.49" height="27.49"/>
    <rect class="cls-25" x="605.22" y="357.84" width="27.49" height="27.49"/>
    <polygon class="cls-25" points="357.84 412.81 357.84 440.3 357.84 467.79 385.32 467.79 385.32 440.3 385.32 412.81 385.32 385.32 357.84 385.32 357.84 412.81"/>
    <rect class="cls-25" x="660.2" y="385.32" width="27.49" height="27.49"/>
    <polygon class="cls-25" points="302.86 440.3 302.86 467.79 302.86 495.27 330.35 495.27 330.35 467.79 330.35 440.3 330.35 412.81 302.86 412.81 302.86 440.3"/>
    <polygon class="cls-25" points="247.89 467.79 247.89 495.27 247.89 522.76 275.37 522.76 275.37 495.27 275.37 467.79 275.37 440.3 247.89 440.3 247.89 467.79"/>
    <polygon class="cls-25" points="192.91 495.27 192.91 522.76 192.91 550.25 220.4 550.25 220.4 522.76 220.4 495.27 220.4 467.79 192.91 467.79 192.91 495.27"/>
    <rect class="cls-25" x="660.2" y="467.79" width="27.49" height="27.49"/>
    <polygon class="cls-25" points="137.94 522.76 137.94 550.25 137.94 577.74 165.42 577.74 165.42 550.25 165.42 522.76 165.42 495.27 137.94 495.27 137.94 522.76"/>
    <rect class="cls-25" x="632.71" y="550.25" width="27.49" height="27.49"/>
    <rect class="cls-25" x="687.69" y="577.74" width="27.49" height="27.49"/>
  </g>
  <g>
    <polygon class="cls-16" points="522.76 165.42 522.76 192.91 522.76 220.4 522.76 247.89 522.76 275.37 522.76 302.86 522.76 330.35 522.76 357.84 522.76 385.32 522.76 412.81 522.76 440.3 522.76 467.79 522.76 495.27 522.76 522.76 550.25 522.76 550.25 495.27 550.25 467.79 550.25 440.3 550.25 412.81 550.25 385.32 550.25 357.84 550.25 330.35 550.25 302.86 550.25 275.37 550.25 247.89 550.25 220.4 550.25 192.91 550.25 165.42 550.25 137.94 522.76 137.94 522.76 165.42"/>
    <rect class="cls-16" x="577.74" y="165.42" width="27.49" height="27.49"/>
    <rect class="cls-16" x="605.22" y="192.91" width="27.49" height="27.49"/>
    <rect class="cls-16" x="660.2" y="220.4" width="27.49" height="27.49"/>
    <polygon class="cls-16" points="357.84 302.86 357.84 330.35 357.84 357.84 357.84 385.32 385.32 385.32 385.32 357.84 385.32 330.35 385.32 302.86 385.32 275.37 357.84 275.37 357.84 302.86"/>
    <rect class="cls-16" x="577.74" y="275.37" width="27.49" height="27.49"/>
    <polygon class="cls-16" points="302.86 330.35 302.86 357.84 302.86 385.32 302.86 412.81 330.35 412.81 330.35 385.32 330.35 357.84 330.35 330.35 330.35 302.86 302.86 302.86 302.86 330.35"/>
    <rect class="cls-16" x="632.71" y="302.86" width="27.49" height="27.49"/>
    <polygon class="cls-16" points="275.37 412.81 275.37 385.32 275.37 357.84 275.37 330.35 247.89 330.35 247.89 357.84 247.89 385.32 247.89 412.81 247.89 440.3 275.37 440.3 275.37 412.81"/>
    <polygon class="cls-16" points="192.91 385.32 192.91 412.81 192.91 440.3 192.91 467.79 220.4 467.79 220.4 440.3 220.4 412.81 220.4 385.32 220.4 357.84 192.91 357.84 192.91 385.32"/>
    <rect class="cls-16" x="577.74" y="357.84" width="27.49" height="27.49"/>
    <polygon class="cls-16" points="137.94 412.81 137.94 440.3 137.94 467.79 137.94 495.27 165.42 495.27 165.42 467.79 165.42 440.3 165.42 412.81 165.42 385.32 137.94 385.32 137.94 412.81"/>
    <rect class="cls-16" x="632.71" y="385.32" width="27.49" height="27.49"/>
    <polygon class="cls-16" points="605.22 440.3 577.74 440.3 577.74 467.79 605.22 467.79 632.71 467.79 632.71 440.3 605.22 440.3"/>
    <rect class="cls-16" x="632.71" y="467.79" width="27.49" height="27.49"/>
    <rect class="cls-16" x="577.74" y="522.76" width="27.49" height="27.49"/>
    <rect class="cls-16" x="605.22" y="550.25" width="27.49" height="27.49"/>
    <rect class="cls-16" x="660.2" y="577.74" width="27.49" height="27.49"/>
    <polygon class="cls-16" points="275.37 715.17 275.37 742.66 302.86 742.66 330.35 742.66 330.35 715.17 302.86 715.17 275.37 715.17"/>
    <polygon class="cls-16" points="577.74 715.17 577.74 742.66 605.22 742.66 632.71 742.66 632.71 715.17 605.22 715.17 577.74 715.17"/>
  </g>
  <g>
    <rect class="cls-25" x="715.17" y="330.35" width="27.49" height="27.49"/>
    <rect class="cls-25" x="715.17" y="412.81" width="27.49" height="27.49"/>
    <rect class="cls-25" x="715.17" y="495.27" width="27.49" height="27.49"/>
    <rect class="cls-25" x="715.17" y="605.22" width="27.49" height="27.49"/>
    <polygon class="cls-25" points="357.84 687.69 330.35 687.69 330.35 715.17 357.84 715.17 385.32 715.17 412.81 715.17 412.81 687.69 385.32 687.69 357.84 687.69"/>
    <polygon class="cls-25" points="522.76 687.69 495.27 687.69 495.27 715.17 522.76 715.17 550.25 715.17 577.74 715.17 577.74 687.69 550.25 687.69 522.76 687.69"/>
  </g>
  <g>
    <polygon class="cls-3" points="357.84 165.42 357.84 192.91 385.32 192.91 385.32 165.42 385.32 137.94 357.84 137.94 357.84 165.42"/>
    <polygon class="cls-3" points="302.86 192.91 302.86 220.4 330.35 220.4 330.35 192.91 330.35 165.42 302.86 165.42 302.86 192.91"/>
    <polygon class="cls-3" points="247.89 220.4 247.89 247.89 275.37 247.89 275.37 220.4 275.37 192.91 247.89 192.91 247.89 220.4"/>
    <polygon class="cls-3" points="192.91 247.89 192.91 275.37 220.4 275.37 220.4 247.89 220.4 220.4 192.91 220.4 192.91 247.89"/>
    <polygon class="cls-3" points="137.94 275.37 137.94 302.86 165.42 302.86 165.42 275.37 165.42 247.89 137.94 247.89 137.94 275.37"/>
    <rect class="cls-3" x="715.17" y="247.89" width="27.49" height="27.49"/>
    <polygon class="cls-3" points="742.66 275.37 742.66 302.86 742.66 330.35 742.66 357.84 742.66 385.32 742.66 412.81 742.66 440.3 742.66 467.79 742.66 495.27 742.66 522.76 742.66 550.25 742.66 577.74 742.66 605.22 742.66 632.71 742.66 660.2 770.15 660.2 770.15 632.71 770.15 605.22 770.15 577.74 770.15 550.25 770.15 522.76 770.15 495.27 770.15 467.79 770.15 440.3 770.15 412.81 770.15 385.32 770.15 357.84 770.15 330.35 770.15 302.86 770.15 275.37 742.66 275.37"/>
    <rect class="cls-3" x="687.69" y="330.35" width="27.49" height="27.49"/>
    <rect class="cls-3" x="687.69" y="412.81" width="27.49" height="27.49"/>
    <polygon class="cls-3" points="357.84 495.27 357.84 522.76 385.32 522.76 385.32 495.27 385.32 467.79 357.84 467.79 357.84 495.27"/>
    <polygon class="cls-3" points="302.86 522.76 302.86 550.25 330.35 550.25 330.35 522.76 330.35 495.27 302.86 495.27 302.86 522.76"/>
    <rect class="cls-3" x="687.69" y="495.27" width="27.49" height="27.49"/>
    <polygon class="cls-3" points="247.89 550.25 247.89 577.74 275.37 577.74 275.37 550.25 275.37 522.76 247.89 522.76 247.89 550.25"/>
    <polygon class="cls-3" points="192.91 577.74 192.91 605.22 220.4 605.22 220.4 577.74 220.4 550.25 192.91 550.25 192.91 577.74"/>
    <polygon class="cls-3" points="137.94 605.22 137.94 632.71 165.42 632.71 165.42 605.22 165.42 577.74 137.94 577.74 137.94 605.22"/>
    <polygon class="cls-3" points="440.3 660.2 412.81 660.2 412.81 687.69 440.3 687.69 467.79 687.69 495.27 687.69 495.27 660.2 467.79 660.2 440.3 660.2"/>
  </g>
  <g>
    <rect class="cls-22" x="357.84" y="110.45" width="27.49" height="27.49"/>
    <polygon class="cls-22" points="302.86 137.94 302.86 165.42 330.35 165.42 357.84 165.42 357.84 137.94 330.35 137.94 302.86 137.94"/>
    <polygon class="cls-22" points="247.89 165.42 247.89 192.91 275.37 192.91 302.86 192.91 302.86 165.42 275.37 165.42 247.89 165.42"/>
    <rect class="cls-22" x="110.45" y="192.91" width="27.49" height="27.49"/>
    <polygon class="cls-22" points="192.91 192.91 192.91 220.4 220.4 220.4 247.89 220.4 247.89 192.91 220.4 192.91 192.91 192.91"/>
    <polygon class="cls-22" points="137.94 220.4 137.94 247.89 165.42 247.89 192.91 247.89 192.91 220.4 165.42 220.4 137.94 220.4"/>
    <rect class="cls-22" x="357.84" y="522.76" width="27.49" height="27.49"/>
    <polygon class="cls-22" points="302.86 550.25 302.86 577.74 330.35 577.74 357.84 577.74 357.84 550.25 330.35 550.25 302.86 550.25"/>
    <polygon class="cls-22" points="247.89 577.74 247.89 605.22 275.37 605.22 302.86 605.22 302.86 577.74 275.37 577.74 247.89 577.74"/>
    <polygon class="cls-22" points="192.91 605.22 192.91 632.71 220.4 632.71 247.89 632.71 247.89 605.22 220.4 605.22 192.91 605.22"/>
    <polygon class="cls-22" points="137.94 632.71 137.94 660.2 137.94 687.69 165.42 687.69 192.91 687.69 192.91 660.2 192.91 632.71 165.42 632.71 137.94 632.71"/>
  </g>
  <g>
    <rect class="cls-7" x="412.81" y="577.74" width="27.49" height="27.49"/>
    <rect class="cls-7" x="385.32" y="605.22" width="27.49" height="27.49"/>
    <rect class="cls-7" x="495.27" y="605.22" width="27.49" height="27.49"/>
    <rect class="cls-7" x="330.35" y="632.71" width="27.49" height="27.49"/>
    <rect class="cls-7" x="550.25" y="632.71" width="27.49" height="27.49"/>
    <rect class="cls-7" x="275.37" y="660.2" width="27.49" height="27.49"/>
    <rect class="cls-7" x="605.22" y="660.2" width="27.49" height="27.49"/>
    <rect class="cls-7" x="220.4" y="687.69" width="27.49" height="27.49"/>
    <rect class="cls-7" x="660.2" y="687.69" width="27.49" height="27.49"/>
    <rect class="cls-7" x="165.42" y="715.17" width="27.49" height="27.49"/>
    <rect class="cls-7" x="715.17" y="715.17" width="27.49" height="27.49"/>
  </g>
  <g>
    <polygon class="cls-17" points="440.83 577.21 440.83 604.69 468.32 604.69 495.81 604.69 495.81 577.21 468.32 577.21 440.83 577.21"/>
    <rect class="cls-17" x="357.84" y="605.22" width="27.49" height="27.49"/>
    <rect class="cls-17" x="523.29" y="604.69" width="27.49" height="27.49"/>
    <rect class="cls-17" x="302.86" y="632.71" width="27.49" height="27.49"/>
    <rect class="cls-17" x="578.27" y="632.18" width="27.49" height="27.49"/>
    <rect class="cls-17" x="247.89" y="660.2" width="27.49" height="27.49"/>
    <rect class="cls-17" x="633.24" y="659.67" width="27.49" height="27.49"/>
    <rect class="cls-17" x="192.91" y="687.69" width="27.49" height="27.49"/>
    <rect class="cls-17" x="688.22" y="687.15" width="27.49" height="27.49"/>
    <polygon class="cls-17" points="137.94 742.66 137.94 770.15 165.42 770.15 165.42 742.66 165.42 715.17 137.94 715.17 137.94 742.66"/>
    <rect class="cls-17" x="743.19" y="714.64" width="27.49" height="27.49"/>
  </g>
  <g>
    <rect class="cls-11" x="495.27" y="55.47" width="27.49" height="27.49"/>
    <rect class="cls-11" x="550.25" y="82.96" width="27.49" height="27.49"/>
    <rect class="cls-11" x="605.22" y="110.45" width="27.49" height="27.49"/>
    <rect class="cls-11" x="660.2" y="137.94" width="27.49" height="27.49"/>
    <rect class="cls-11" x="715.17" y="165.42" width="27.49" height="27.49"/>
    <polygon class="cls-11" points="797.64 247.89 797.64 275.37 797.64 302.86 797.64 330.35 797.64 357.84 797.64 385.32 797.64 412.81 797.64 440.3 797.64 467.79 797.64 495.27 797.64 522.76 797.64 550.25 797.64 577.74 797.64 605.22 797.64 632.71 797.64 660.2 797.64 687.69 797.64 715.17 825.12 715.17 825.12 687.69 825.12 660.2 825.12 632.71 825.12 605.22 825.12 577.74 825.12 550.25 825.12 522.76 825.12 495.27 825.12 467.79 825.12 440.3 825.12 412.81 825.12 385.32 825.12 357.84 825.12 330.35 825.12 302.86 825.12 275.37 825.12 247.89 797.64 247.89"/>
    <rect class="cls-11" x="522.76" y="522.76" width="27.49" height="27.49"/>
    <polygon class="cls-11" points="577.74 550.25 550.25 550.25 550.25 577.74 577.74 577.74 605.22 577.74 605.22 550.25 577.74 550.25"/>
    <rect class="cls-11" x="495.27" y="577.74" width="27.49" height="27.49"/>
    <polygon class="cls-11" points="632.71 577.74 605.22 577.74 605.22 605.22 632.71 605.22 660.2 605.22 660.2 577.74 632.71 577.74"/>
    <rect class="cls-11" x="550.25" y="605.22" width="27.49" height="27.49"/>
    <polygon class="cls-11" points="687.69 605.22 660.2 605.22 660.2 632.71 687.69 632.71 715.17 632.71 715.17 605.22 687.69 605.22"/>
    <rect class="cls-11" x="605.22" y="632.71" width="27.49" height="27.49"/>
    <rect class="cls-11" x="715.17" y="632.71" width="27.49" height="27.49"/>
    <rect class="cls-11" x="660.2" y="660.2" width="27.49" height="27.49"/>
    <rect class="cls-11" x="715.17" y="687.69" width="27.49" height="27.49"/>
    <rect class="cls-11" x="770.15" y="715.17" width="27.49" height="27.49"/>
  </g>
  <g>
    <polygon class="cls-12" points="467.79 605.22 440.3 605.22 412.81 605.22 412.81 632.71 440.3 632.71 467.79 632.71 495.27 632.71 495.27 605.22 467.79 605.22"/>
    <polygon class="cls-12" points="357.84 632.71 357.84 660.2 385.32 660.2 412.81 660.2 412.81 632.71 385.32 632.71 357.84 632.71"/>
    <polygon class="cls-12" points="522.76 632.71 495.27 632.71 495.27 660.2 522.76 660.2 550.25 660.2 550.25 632.71 522.76 632.71"/>
    <polygon class="cls-12" points="302.86 660.2 302.86 687.69 330.35 687.69 357.84 687.69 357.84 660.2 330.35 660.2 302.86 660.2"/>
    <polygon class="cls-12" points="577.74 660.2 550.25 660.2 550.25 687.69 577.74 687.69 605.22 687.69 605.22 660.2 577.74 660.2"/>
    <polygon class="cls-12" points="247.89 687.69 247.89 715.17 275.37 715.17 302.86 715.17 302.86 687.69 275.37 687.69 247.89 687.69"/>
    <polygon class="cls-12" points="632.71 687.69 605.22 687.69 605.22 715.17 632.71 715.17 660.2 715.17 660.2 687.69 632.71 687.69"/>
    <polygon class="cls-12" points="192.91 742.66 165.42 742.66 165.42 770.15 192.91 770.15 220.4 770.15 220.4 742.66 220.4 715.17 192.91 715.17 192.91 742.66"/>
    <polygon class="cls-12" points="687.69 715.17 660.2 715.17 660.2 742.66 687.69 742.66 715.17 742.66 715.17 715.17 687.69 715.17"/>
  </g>
  <g>
    <rect class="cls-14" x="742.66" y="742.66" width="27.49" height="27.49"/>
    <rect class="cls-14" x="660.2" y="770.15" width="27.49" height="27.49"/>
    <rect class="cls-14" x="577.74" y="797.64" width="27.49" height="27.49"/>
    <rect class="cls-14" x="495.27" y="825.12" width="27.49" height="27.49"/>
  </g>
  <g>
    <polygon class="cls-27" points="467.79 632.71 440.3 632.71 412.81 632.71 412.81 660.2 440.3 660.2 467.79 660.2 495.27 660.2 495.27 632.71 467.79 632.71"/>
    <polygon class="cls-27" points="357.84 660.2 357.84 687.69 385.32 687.69 412.81 687.69 412.81 660.2 385.32 660.2 357.84 660.2"/>
    <polygon class="cls-27" points="495.27 660.2 495.27 687.69 522.76 687.69 550.25 687.69 550.25 660.2 522.76 660.2 495.27 660.2"/>
    <rect class="cls-27" x="302.86" y="687.69" width="27.49" height="27.49"/>
    <rect class="cls-27" x="577.74" y="687.69" width="27.49" height="27.49"/>
    <polygon class="cls-27" points="220.4 715.17 220.4 742.66 220.4 770.15 220.4 797.64 247.89 797.64 247.89 770.15 247.89 742.66 275.37 742.66 275.37 715.17 247.89 715.17 220.4 715.17"/>
    <rect class="cls-27" x="632.71" y="715.17" width="27.49" height="27.49"/>
    <polygon class="cls-27" points="715.17 742.66 687.69 742.66 660.2 742.66 660.2 770.15 687.69 770.15 715.17 770.15 742.66 770.15 742.66 742.66 715.17 742.66"/>
  </g>
  <g>
    <rect class="cls-1" x="550.25" y="165.42" width="27.49" height="27.49"/>
    <rect class="cls-1" x="550.25" y="247.89" width="27.49" height="27.49"/>
    <rect class="cls-1" x="550.25" y="330.35" width="27.49" height="27.49"/>
    <rect class="cls-1" x="550.25" y="412.81" width="27.49" height="27.49"/>
    <rect class="cls-1" x="550.25" y="522.76" width="27.49" height="27.49"/>
    <polygon class="cls-1" points="385.32 742.66 357.84 742.66 330.35 742.66 330.35 770.15 357.84 770.15 385.32 770.15 412.81 770.15 412.81 742.66 385.32 742.66"/>
    <polygon class="cls-1" points="522.76 742.66 495.27 742.66 495.27 770.15 522.76 770.15 550.25 770.15 577.74 770.15 577.74 742.66 550.25 742.66 522.76 742.66"/>
    <polygon class="cls-1" points="440.3 770.15 412.81 770.15 412.81 797.64 440.3 797.64 467.79 797.64 495.27 797.64 495.27 770.15 467.79 770.15 440.3 770.15"/>
  </g>
  <g>
    <polygon class="cls-21" points="275.37 742.66 275.37 770.15 302.86 770.15 330.35 770.15 330.35 742.66 302.86 742.66 275.37 742.66"/>
    <rect class="cls-21" x="577.74" y="742.66" width="27.49" height="27.49"/>
    <polygon class="cls-21" points="357.84 770.15 357.84 797.64 385.32 797.64 412.81 797.64 412.81 770.15 385.32 770.15 357.84 770.15"/>
    <rect class="cls-21" x="495.27" y="770.15" width="27.49" height="27.49"/>
  </g>
  <g>
    <polygon class="cls-26" points="632.71 742.66 605.22 742.66 605.22 770.15 632.71 770.15 660.2 770.15 660.2 742.66 632.71 742.66"/>
    <polygon class="cls-26" points="550.25 770.15 522.76 770.15 522.76 797.64 550.25 797.64 577.74 797.64 605.22 797.64 605.22 770.15 577.74 770.15 550.25 770.15"/>
    <polygon class="cls-26" points="467.79 797.64 440.3 797.64 412.81 797.64 385.32 797.64 357.84 797.64 357.84 770.15 330.35 770.15 302.86 770.15 275.37 770.15 275.37 742.66 247.89 742.66 247.89 770.15 247.89 797.64 275.37 797.64 302.86 797.64 302.86 825.12 330.35 825.12 357.84 825.12 385.32 825.12 412.81 825.12 440.3 825.12 467.79 825.12 495.27 825.12 522.76 825.12 522.76 797.64 495.27 797.64 467.79 797.64"/>
  </g>
  <g>
    <polygon class="cls-2" points="632.71 770.15 605.22 770.15 605.22 797.64 632.71 797.64 660.2 797.64 660.2 770.15 632.71 770.15"/>
    <polygon class="cls-2" points="522.76 797.64 522.76 825.12 550.25 825.12 577.74 825.12 577.74 797.64 550.25 797.64 522.76 797.64"/>
    <rect class="cls-2" x="385.32" y="825.12" width="27.49" height="27.49"/>
    <polygon class="cls-2" points="440.3 825.12 412.81 825.12 412.81 852.61 440.3 852.61 467.79 852.61 495.27 852.61 495.27 825.12 467.79 825.12 440.3 825.12"/>
  </g>
  <g>
    <polygon class="cls-24" points="440.3 27.99 440.3 55.47 440.3 82.96 440.3 110.45 440.3 137.94 440.3 165.42 440.3 192.91 440.3 220.4 440.3 247.89 440.3 275.37 440.3 302.86 440.3 330.35 440.3 357.84 440.3 385.32 440.3 412.81 440.3 440.3 440.3 467.79 440.3 495.27 440.3 522.76 440.3 550.25 440.3 577.74 467.79 577.74 495.27 577.74 495.27 550.25 467.79 550.25 467.79 522.76 467.79 495.27 467.79 467.79 467.79 440.3 467.79 412.81 467.79 385.32 467.79 357.84 467.79 330.35 467.79 302.86 467.79 275.37 467.79 247.89 467.79 220.4 467.79 192.91 467.79 165.42 467.79 137.94 467.79 110.45 467.79 82.96 467.79 55.47 495.27 55.47 495.27 27.99 467.79 27.99 440.3 27.99"/>
    <rect class="cls-24" x="522.76" y="55.47" width="27.49" height="27.49"/>
    <rect class="cls-24" x="577.74" y="82.96" width="27.49" height="27.49"/>
    <rect class="cls-24" x="632.71" y="110.45" width="27.49" height="27.49"/>
    <rect class="cls-24" x="687.69" y="137.94" width="27.49" height="27.49"/>
    <rect class="cls-24" x="742.66" y="165.42" width="27.49" height="27.49"/>
    <rect class="cls-24" x="770.15" y="192.91" width="27.49" height="27.49"/>
    <rect class="cls-24" x="797.64" y="220.4" width="27.49" height="27.49"/>
    <rect class="cls-24" x="522.76" y="577.74" width="27.49" height="27.49"/>
    <rect class="cls-24" x="577.74" y="605.22" width="27.49" height="27.49"/>
    <rect class="cls-24" x="632.71" y="632.71" width="27.49" height="27.49"/>
    <rect class="cls-24" x="687.69" y="660.2" width="27.49" height="27.49"/>
    <rect class="cls-24" x="742.66" y="687.69" width="27.49" height="27.49"/>
    <rect class="cls-24" x="797.64" y="715.17" width="27.49" height="27.49"/>
  </g>
  <g>
    <polygon class="cls-4" points="522.76 82.96 495.27 82.96 495.27 110.45 522.76 110.45 550.25 110.45 550.25 82.96 522.76 82.96"/>
    <polygon class="cls-4" points="577.74 110.45 550.25 110.45 550.25 137.94 577.74 137.94 605.22 137.94 605.22 110.45 577.74 110.45"/>
    <polygon class="cls-4" points="632.71 137.94 605.22 137.94 605.22 165.42 632.71 165.42 660.2 165.42 660.2 137.94 632.71 137.94"/>
    <polygon class="cls-4" points="687.69 165.42 660.2 165.42 660.2 192.91 687.69 192.91 715.17 192.91 715.17 165.42 687.69 165.42"/>
    <polygon class="cls-4" points="770.15 220.4 770.15 192.91 742.66 192.91 715.17 192.91 715.17 220.4 742.66 220.4 742.66 247.89 770.15 247.89 770.15 275.37 797.64 275.37 797.64 247.89 797.64 220.4 770.15 220.4"/>
    <rect class="cls-4" x="742.66" y="660.2" width="27.49" height="27.49"/>
    <rect class="cls-4" x="770.15" y="687.69" width="27.49" height="27.49"/>
  </g>
  <g>
    <rect class="cls-23" x="467.79" y="55.47" width="27.49" height="27.49"/>
    <polygon class="cls-23" points="522.76 550.25 522.76 522.76 522.76 495.27 522.76 467.79 522.76 440.3 522.76 412.81 522.76 385.32 522.76 357.84 522.76 330.35 522.76 302.86 522.76 275.37 522.76 247.89 522.76 220.4 522.76 192.91 522.76 165.42 522.76 137.94 522.76 110.45 495.27 110.45 495.27 137.94 495.27 165.42 495.27 192.91 495.27 220.4 495.27 247.89 495.27 275.37 495.27 302.86 495.27 330.35 495.27 357.84 495.27 385.32 495.27 412.81 495.27 440.3 495.27 467.79 495.27 495.27 495.27 522.76 495.27 550.25 495.27 577.74 522.76 577.74 550.25 577.74 550.25 550.25 522.76 550.25"/>
    <polygon class="cls-23" points="577.74 577.74 550.25 577.74 550.25 605.22 577.74 605.22 605.22 605.22 605.22 577.74 577.74 577.74"/>
    <polygon class="cls-23" points="632.71 605.22 605.22 605.22 605.22 632.71 632.71 632.71 660.2 632.71 660.2 605.22 632.71 605.22"/>
    <polygon class="cls-23" points="687.69 632.71 660.2 632.71 660.2 660.2 687.69 660.2 715.17 660.2 715.17 632.71 687.69 632.71"/>
    <rect class="cls-23" x="715.17" y="660.2" width="27.49" height="27.49"/>
  </g>
  <g>
    <polygon class="cls-19" points="467.79 110.45 467.79 137.94 467.79 165.42 467.79 192.91 467.79 220.4 467.79 247.89 467.79 275.37 467.79 302.86 467.79 330.35 467.79 357.84 467.79 385.32 467.79 412.81 467.79 440.3 467.79 467.79 467.79 495.27 467.79 522.76 467.79 550.25 495.27 550.25 495.27 522.76 495.27 495.27 495.27 467.79 495.27 440.3 495.27 412.81 495.27 385.32 495.27 357.84 495.27 330.35 495.27 302.86 495.27 275.37 495.27 247.89 495.27 220.4 495.27 192.91 495.27 165.42 495.27 137.94 495.27 110.45 495.27 82.96 467.79 82.96 467.79 110.45"/>
    <rect class="cls-19" x="522.76" y="110.45" width="27.49" height="27.49"/>
    <polygon class="cls-19" points="577.74 137.94 550.25 137.94 550.25 165.42 577.74 165.42 605.22 165.42 605.22 137.94 577.74 137.94"/>
    <polygon class="cls-19" points="632.71 165.42 605.22 165.42 605.22 192.91 632.71 192.91 660.2 192.91 660.2 165.42 632.71 165.42"/>
    <polygon class="cls-19" points="687.69 192.91 660.2 192.91 660.2 220.4 687.69 220.4 715.17 220.4 715.17 192.91 687.69 192.91"/>
    <rect class="cls-19" x="715.17" y="220.4" width="27.49" height="27.49"/>
    <rect class="cls-19" x="742.66" y="247.89" width="27.49" height="27.49"/>
    <polygon class="cls-19" points="770.15 275.37 770.15 302.86 770.15 330.35 770.15 357.84 770.15 385.32 770.15 412.81 770.15 440.3 770.15 467.79 770.15 495.27 770.15 522.76 770.15 550.25 770.15 577.74 770.15 605.22 770.15 632.71 770.15 660.2 770.15 687.69 797.64 687.69 797.64 660.2 797.64 632.71 797.64 605.22 797.64 577.74 797.64 550.25 797.64 522.76 797.64 495.27 797.64 467.79 797.64 440.3 797.64 412.81 797.64 385.32 797.64 357.84 797.64 330.35 797.64 302.86 797.64 275.37 770.15 275.37"/>
  </g>
  <g>
    <rect class="cls-6" x="412.81" y="27.99" width="27.49" height="27.49"/>
    <rect class="cls-6" x="357.84" y="55.47" width="27.49" height="27.49"/>
    <rect class="cls-6" x="302.86" y="82.96" width="27.49" height="27.49"/>
    <rect class="cls-6" x="247.89" y="110.45" width="27.49" height="27.49"/>
    <rect class="cls-6" x="192.91" y="137.94" width="27.49" height="27.49"/>
    <rect class="cls-6" x="137.94" y="165.42" width="27.49" height="27.49"/>
  </g>
  <g>
    <rect class="cls-8" x="330.35" y="82.96" width="27.49" height="27.49"/>
    <rect class="cls-8" x="275.37" y="110.45" width="27.49" height="27.49"/>
    <rect class="cls-8" x="220.4" y="137.94" width="27.49" height="27.49"/>
    <rect class="cls-8" x="165.42" y="165.42" width="27.49" height="27.49"/>
    <polygon class="cls-8" points="412.81 55.47 385.32 55.47 385.32 82.96 412.81 82.96 412.81 110.45 412.81 137.94 412.81 165.42 412.81 192.91 412.81 220.4 412.81 247.89 412.81 275.37 412.81 302.86 412.81 330.35 412.81 357.84 412.81 385.32 412.81 412.81 412.81 440.3 412.81 467.79 412.81 495.27 412.81 522.76 412.81 550.25 440.3 550.25 440.3 522.76 440.3 495.27 440.3 467.79 440.3 440.3 440.3 412.81 440.3 385.32 440.3 357.84 440.3 330.35 440.3 302.86 440.3 275.37 440.3 247.89 440.3 220.4 440.3 192.91 440.3 165.42 440.3 137.94 440.3 110.45 440.3 82.96 440.3 55.47 412.81 55.47"/>
    <rect class="cls-8" x="385.32" y="550.25" width="27.49" height="27.49"/>
    <rect class="cls-8" x="330.35" y="577.74" width="27.49" height="27.49"/>
    <rect class="cls-8" x="275.37" y="605.22" width="27.49" height="27.49"/>
    <rect class="cls-8" x="220.4" y="632.71" width="27.49" height="27.49"/>
  </g>
  <g>
    <rect class="cls-9" x="412.81" y="550.25" width="27.49" height="27.49"/>
    <rect class="cls-9" x="110.45" y="220.4" width="27.49" height="27.49"/>
    <rect class="cls-9" x="357.84" y="577.74" width="27.49" height="27.49"/>
    <polygon class="cls-9" points="110.45 660.2 110.45 687.69 110.45 715.17 137.94 715.17 137.94 687.69 137.94 660.2 137.94 632.71 110.45 632.71 110.45 660.2"/>
  </g>
  <g>
    <polygon class="cls-20" points="385.32 110.45 385.32 137.94 385.32 165.42 385.32 192.91 385.32 220.4 385.32 247.89 385.32 275.37 385.32 302.86 385.32 330.35 385.32 357.84 385.32 385.32 385.32 412.81 385.32 440.3 385.32 467.79 385.32 495.27 385.32 522.76 412.81 522.76 412.81 495.27 412.81 467.79 412.81 440.3 412.81 412.81 412.81 385.32 412.81 357.84 412.81 330.35 412.81 302.86 412.81 275.37 412.81 247.89 412.81 220.4 412.81 192.91 412.81 165.42 412.81 137.94 412.81 110.45 385.32 110.45"/>
    <rect class="cls-20" x="385.32" y="577.74" width="27.49" height="27.49"/>
    <polygon class="cls-20" points="302.86 605.22 302.86 632.71 330.35 632.71 357.84 632.71 357.84 605.22 330.35 605.22 302.86 605.22"/>
    <polygon class="cls-20" points="247.89 632.71 247.89 660.2 275.37 660.2 302.86 660.2 302.86 632.71 275.37 632.71 247.89 632.71"/>
    <polygon class="cls-20" points="192.91 660.2 192.91 687.69 220.4 687.69 247.89 687.69 247.89 660.2 220.4 660.2 192.91 660.2"/>
    <polygon class="cls-20" points="110.45 687.69 110.45 660.2 110.45 632.71 110.45 605.22 110.45 577.74 110.45 550.25 110.45 522.76 110.45 495.27 110.45 467.79 110.45 440.3 110.45 412.81 110.45 385.32 110.45 357.84 110.45 330.35 110.45 302.86 110.45 275.37 110.45 247.89 110.45 220.4 82.96 220.4 82.96 247.89 82.96 275.37 82.96 302.86 82.96 330.35 82.96 357.84 82.96 385.32 82.96 412.81 82.96 440.3 82.96 467.79 82.96 495.27 82.96 522.76 82.96 550.25 82.96 577.74 82.96 605.22 82.96 632.71 82.96 660.2 82.96 687.69 82.96 715.17 82.96 742.66 110.45 742.66 137.94 742.66 137.94 715.17 110.45 715.17 110.45 687.69"/>
    <polygon class="cls-20" points="137.94 687.69 137.94 715.17 165.42 715.17 192.91 715.17 192.91 687.69 165.42 687.69 137.94 687.69"/>
  </g>
  <g>
    <polygon class="cls-13" points="385.32 82.96 357.84 82.96 357.84 110.45 385.32 110.45 412.81 110.45 412.81 82.96 385.32 82.96"/>
    <polygon class="cls-13" points="302.86 110.45 302.86 137.94 330.35 137.94 357.84 137.94 357.84 110.45 330.35 110.45 302.86 110.45"/>
    <polygon class="cls-13" points="247.89 137.94 247.89 165.42 275.37 165.42 302.86 165.42 302.86 137.94 275.37 137.94 247.89 137.94"/>
    <polygon class="cls-13" points="192.91 165.42 192.91 192.91 220.4 192.91 247.89 192.91 247.89 165.42 220.4 165.42 192.91 165.42"/>
    <polygon class="cls-13" points="137.94 192.91 137.94 220.4 165.42 220.4 192.91 220.4 192.91 192.91 165.42 192.91 137.94 192.91"/>
    <polygon class="cls-13" points="110.45 275.37 110.45 302.86 110.45 330.35 110.45 357.84 110.45 385.32 110.45 412.81 110.45 440.3 110.45 467.79 110.45 495.27 110.45 522.76 110.45 550.25 110.45 577.74 110.45 605.22 110.45 632.71 137.94 632.71 137.94 605.22 137.94 577.74 137.94 550.25 137.94 522.76 137.94 495.27 137.94 467.79 137.94 440.3 137.94 412.81 137.94 385.32 137.94 357.84 137.94 330.35 137.94 302.86 137.94 275.37 137.94 247.89 110.45 247.89 110.45 275.37"/>
    <rect class="cls-13" x="385.32" y="522.76" width="27.49" height="27.49"/>
    <rect class="cls-13" x="357.84" y="550.25" width="27.49" height="27.49"/>
    <rect class="cls-13" x="302.86" y="577.74" width="27.49" height="27.49"/>
    <rect class="cls-13" x="247.89" y="605.22" width="27.49" height="27.49"/>
    <rect class="cls-13" x="192.91" y="632.71" width="27.49" height="27.49"/>
  </g>
</svg>