<?xml version="1.0" encoding="UTF-8"?>
<svg id="Calque_1" data-name="Calque 1" xmlns="http://www.w3.org/2000/svg" viewBox="0 0 908.09 908.09">
  <defs>
    <style>
      .cls-1 {
        fill: #4b4d9b;
        stroke: #4b4c9b;
      }

      .cls-1, .cls-2, .cls-3, .cls-4, .cls-5, .cls-6, .cls-7, .cls-8, .cls-9, .cls-10, .cls-11, .cls-12 {
        stroke-miterlimit: 10;
      }

      .cls-2 {
        fill: #e94b41;
        stroke: #e94b41;
      }

      .cls-3 {
        fill: #28306d;
        stroke: #292f6f;
      }

      .cls-4 {
        fill: #87cdd9;
        stroke: #86cdd9;
      }

      .cls-5 {
        fill: #229b95;
        stroke: #219c95;
      }

      .cls-6 {
        fill: #6c6cb0;
        stroke: #6b6cb0;
      }

      .cls-7 {
        fill: #363786;
        stroke: #363786;
      }

      .cls-8 {
        fill: #b61b1a;
        stroke: #b71918;
      }

      .cls-9 {
        fill: #54bdbc;
        stroke: #53bdbc;
      }

      .cls-10 {
        fill: #b8e0e7;
        stroke: #b9e0e7;
      }

      .cls-13 {
        fill: #e00814;
        stroke-width: 0px;
      }

      .cls-11 {
        fill: #821810;
        stroke: #811812;
      }

      .cls-12 {
        fill: #c81719;
        stroke: #c81617;
      }
    </style>
  </defs>
  <g>
    <rect class="cls-10" x="605.22" y="330.35" width="27.49" height="27.49"/>
    <rect class="cls-10" x="605.22" y="632.71" width="27.49" height="27.49"/>
  </g>
  <g>
    <rect class="cls-5" x="275.37" y="330.35" width="27.49" height="27.49"/>
    <rect class="cls-5" x="302.86" y="357.84" width="27.49" height="27.49"/>
    <rect class="cls-5" x="275.37" y="632.71" width="27.49" height="27.49"/>
    <rect class="cls-5" x="302.86" y="660.2" width="27.49" height="27.49"/>
  </g>
  <g>
    <rect class="cls-6" x="605.22" y="302.86" width="27.49" height="27.49"/>
    <rect class="cls-6" x="605.22" y="357.84" width="27.49" height="27.49"/>
    <rect class="cls-6" x="605.22" y="605.22" width="27.49" height="27.49"/>
    <rect class="cls-6" x="605.22" y="660.2" width="27.49" height="27.49"/>
  </g>
  <g>
    <rect class="cls-3" x="275.37" y="302.86" width="27.49" height="27.49"/>
    <rect class="cls-3" x="302.86" y="330.35" width="27.49" height="27.49"/>
    <rect class="cls-3" x="275.37" y="357.84" width="27.49" height="27.49"/>
    <rect class="cls-3" x="302.86" y="385.32" width="27.49" height="27.49"/>
    <rect class="cls-3" x="275.37" y="605.22" width="27.49" height="27.49"/>
    <rect class="cls-3" x="302.86" y="632.71" width="27.49" height="27.49"/>
    <rect class="cls-3" x="275.37" y="660.2" width="27.49" height="27.49"/>
    <rect class="cls-3" x="302.86" y="687.69" width="27.49" height="27.49"/>
  </g>
  <g>
    <rect class="cls-9" x="330.35" y="357.84" width="27.49" height="27.49"/>
    <polygon class="cls-9" points="440.3 385.32 412.81 385.32 385.32 385.32 357.84 385.32 357.84 412.81 385.32 412.81 412.81 412.81 440.3 412.81 467.79 412.81 467.79 385.32 440.3 385.32"/>
    <rect class="cls-9" x="330.35" y="660.2" width="27.49" height="27.49"/>
    <polygon class="cls-9" points="412.81 687.69 385.32 687.69 357.84 687.69 357.84 715.17 385.32 715.17 412.81 715.17 440.3 715.17 467.79 715.17 467.79 687.69 440.3 687.69 412.81 687.69"/>
  </g>
  <g>
    <polygon class="cls-4" points="577.74 357.84 550.25 357.84 550.25 385.32 577.74 385.32 605.22 385.32 605.22 357.84 577.74 357.84"/>
    <polygon class="cls-4" points="495.27 385.32 467.79 385.32 467.79 412.81 495.27 412.81 522.76 412.81 550.25 412.81 550.25 385.32 522.76 385.32 495.27 385.32"/>
    <polygon class="cls-4" points="550.25 660.2 550.25 687.69 577.74 687.69 605.22 687.69 605.22 660.2 577.74 660.2 550.25 660.2"/>
    <polygon class="cls-4" points="495.27 687.69 467.79 687.69 467.79 715.17 495.27 715.17 522.76 715.17 550.25 715.17 550.25 687.69 522.76 687.69 495.27 687.69"/>
  </g>
  <g>
    <rect class="cls-7" x="330.35" y="330.35" width="27.49" height="27.49"/>
    <polygon class="cls-7" points="412.81 385.32 440.3 385.32 467.79 385.32 467.79 357.84 440.3 357.84 412.81 357.84 385.32 357.84 357.84 357.84 357.84 385.32 385.32 385.32 412.81 385.32"/>
    <rect class="cls-7" x="330.35" y="385.32" width="27.49" height="27.49"/>
    <polygon class="cls-7" points="385.32 440.3 412.81 440.3 440.3 440.3 467.79 440.3 467.79 412.81 440.3 412.81 412.81 412.81 385.32 412.81 357.84 412.81 357.84 440.3 385.32 440.3"/>
    <rect class="cls-7" x="330.35" y="632.71" width="27.49" height="27.49"/>
    <polygon class="cls-7" points="412.81 660.2 385.32 660.2 357.84 660.2 357.84 687.69 385.32 687.69 412.81 687.69 440.3 687.69 467.79 687.69 467.79 660.2 440.3 660.2 412.81 660.2"/>
    <rect class="cls-7" x="330.35" y="687.69" width="27.49" height="27.49"/>
    <polygon class="cls-7" points="385.32 742.66 412.81 742.66 440.3 742.66 467.79 742.66 467.79 715.17 440.3 715.17 412.81 715.17 385.32 715.17 357.84 715.17 357.84 742.66 385.32 742.66"/>
  </g>
  <g>
    <polygon class="cls-1" points="605.22 357.84 605.22 330.35 577.74 330.35 550.25 330.35 550.25 357.84 577.74 357.84 605.22 357.84"/>
    <polygon class="cls-1" points="522.76 357.84 495.27 357.84 467.79 357.84 467.79 385.32 495.27 385.32 522.76 385.32 550.25 385.32 550.25 357.84 522.76 357.84"/>
    <polygon class="cls-1" points="577.74 412.81 605.22 412.81 605.22 385.32 577.74 385.32 550.25 385.32 550.25 412.81 577.74 412.81"/>
    <polygon class="cls-1" points="495.27 412.81 467.79 412.81 467.79 440.3 495.27 440.3 522.76 440.3 550.25 440.3 550.25 412.81 522.76 412.81 495.27 412.81"/>
    <polygon class="cls-1" points="550.25 632.71 550.25 660.2 577.74 660.2 605.22 660.2 605.22 632.71 577.74 632.71 550.25 632.71"/>
    <polygon class="cls-1" points="495.27 660.2 467.79 660.2 467.79 687.69 495.27 687.69 522.76 687.69 550.25 687.69 550.25 660.2 522.76 660.2 495.27 660.2"/>
    <polygon class="cls-1" points="577.74 715.17 605.22 715.17 605.22 687.69 577.74 687.69 550.25 687.69 550.25 715.17 577.74 715.17"/>
    <polygon class="cls-1" points="495.27 715.17 467.79 715.17 467.79 742.66 495.27 742.66 522.76 742.66 550.25 742.66 550.25 715.17 522.76 715.17 495.27 715.17"/>
  </g>
  <g>
    <polygon class="cls-11" points="550.25 82.96 522.76 82.96 522.76 55.47 495.27 55.47 467.79 55.47 440.3 55.47 412.81 55.47 385.32 55.47 385.32 82.96 357.84 82.96 330.35 82.96 330.35 110.45 357.84 110.45 357.84 137.94 385.32 137.94 412.81 137.94 440.3 137.94 467.79 137.94 495.27 137.94 522.76 137.94 550.25 137.94 550.25 110.45 577.74 110.45 577.74 82.96 550.25 82.96"/>
    <polygon class="cls-11" points="247.89 687.69 247.89 715.17 220.4 715.17 220.4 742.66 220.4 770.15 220.4 797.64 220.4 825.12 247.89 825.12 275.37 825.12 275.37 797.64 275.37 770.15 275.37 742.66 275.37 715.17 275.37 687.69 275.37 660.2 247.89 660.2 247.89 687.69"/>
  </g>
  <g>
    <rect class="cls-12" x="302.86" y="110.45" width="27.49" height="27.49"/>
    <polygon class="cls-12" points="440.3 165.42 412.81 165.42 385.32 165.42 357.84 165.42 357.84 137.94 330.35 137.94 330.35 165.42 330.35 192.91 330.35 220.4 302.86 220.4 302.86 247.89 330.35 247.89 330.35 275.37 330.35 302.86 330.35 330.35 357.84 330.35 357.84 357.84 385.32 357.84 412.81 357.84 440.3 357.84 467.79 357.84 467.79 330.35 467.79 302.86 440.3 302.86 440.3 275.37 440.3 247.89 440.3 220.4 467.79 220.4 467.79 192.91 467.79 165.42 440.3 165.42"/>
    <polygon class="cls-12" points="412.81 440.3 385.32 440.3 357.84 440.3 357.84 412.81 330.35 412.81 330.35 440.3 330.35 467.79 330.35 495.27 302.86 495.27 302.86 522.76 302.86 550.25 330.35 550.25 330.35 577.74 330.35 605.22 330.35 632.71 357.84 632.71 357.84 660.2 385.32 660.2 412.81 660.2 440.3 660.2 467.79 660.2 467.79 632.71 467.79 605.22 440.3 605.22 440.3 577.74 440.3 550.25 440.3 522.76 440.3 495.27 467.79 495.27 467.79 467.79 467.79 440.3 440.3 440.3 412.81 440.3"/>
    <polygon class="cls-12" points="412.81 742.66 385.32 742.66 357.84 742.66 357.84 715.17 330.35 715.17 330.35 742.66 330.35 770.15 302.86 770.15 302.86 797.64 330.35 797.64 330.35 825.12 357.84 825.12 357.84 852.61 385.32 852.61 385.32 880.1 412.81 880.1 440.3 880.1 467.79 880.1 467.79 852.61 440.3 852.61 440.3 825.12 440.3 797.64 467.79 797.64 467.79 770.15 467.79 742.66 440.3 742.66 412.81 742.66"/>
  </g>
  <g>
    <polygon class="cls-13" points="413 55.47 440.49 55.47 467.98 55.47 467.98 27.99 440.49 27.99 413 27.99 385.51 27.99 358.03 27.99 358.03 55.47 385.51 55.47 413 55.47"/>
    <polygon class="cls-13" points="550.44 27.99 550.44 55.47 577.93 55.47 577.93 82.96 605.41 82.96 605.41 55.47 605.41 27.99 577.93 27.99 550.44 27.99"/>
    <rect class="cls-13" x="330.54" y="55.47" width="27.49" height="27.49"/>
    <rect class="cls-13" x="303.05" y="82.96" width="27.49" height="27.49"/>
    <rect class="cls-13" x="330.54" y="110.45" width="27.49" height="27.49"/>
    <polygon class="cls-13" points="577.93 137.94 550.44 137.94 550.44 165.42 522.95 165.42 495.46 165.42 467.98 165.42 467.98 192.91 467.98 220.4 440.49 220.4 440.49 247.89 440.49 275.37 440.49 302.86 467.79 302.86 467.79 330.35 467.79 357.84 495.27 357.84 522.76 357.84 550.25 357.84 550.25 330.35 577.74 330.35 577.74 302.86 577.93 302.86 577.93 330.35 605.41 330.35 605.41 302.86 605.41 275.37 605.41 247.89 577.93 247.89 577.93 220.4 577.93 192.91 605.41 192.91 605.41 165.42 605.41 137.94 605.41 110.45 577.93 110.45 577.93 137.94"/>
    <polygon class="cls-13" points="440.49 137.94 413 137.94 385.51 137.94 358.03 137.94 358.03 165.42 385.51 165.42 413 165.42 440.49 165.42 467.98 165.42 467.98 137.94 440.49 137.94"/>
    <polygon class="cls-13" points="577.93 577.74 577.74 577.74 577.74 550.25 577.74 522.76 577.74 495.27 577.74 467.79 605.22 467.79 605.22 440.3 605.22 412.81 577.74 412.81 550.25 412.81 550.25 440.3 522.76 440.3 495.27 440.3 467.79 440.3 467.79 467.79 467.79 495.27 440.49 495.27 440.49 522.76 440.49 550.25 440.49 577.74 440.49 605.22 467.98 605.22 467.98 632.71 467.98 660.2 495.46 660.2 522.95 660.2 550.44 660.2 550.44 632.71 577.93 632.71 605.41 632.71 605.41 605.22 605.41 577.74 605.41 550.25 577.93 550.25 577.93 577.74"/>
    <polygon class="cls-13" points="550.44 715.17 550.44 742.66 522.95 742.66 495.46 742.66 467.98 742.66 467.98 770.15 467.98 797.64 440.49 797.64 440.49 825.12 440.49 852.61 467.98 852.61 467.98 880.1 495.46 880.1 522.95 880.1 550.44 880.1 550.44 852.61 577.93 852.61 605.41 852.61 605.41 825.12 605.41 797.64 577.93 797.64 577.93 770.15 577.93 742.66 605.41 742.66 605.41 715.17 577.93 715.17 550.44 715.17"/>
    <polygon class="cls-13" points="687.88 770.15 687.88 742.66 687.88 715.17 660.39 715.17 660.39 687.69 660.39 660.2 632.9 660.2 632.9 687.69 632.9 715.17 632.9 742.66 632.9 770.15 632.9 797.64 632.9 825.12 660.39 825.12 687.88 825.12 715.36 825.12 715.36 797.64 715.36 770.15 687.88 770.15"/>
  </g>
  <g>
    <polygon class="cls-8" points="522.76 .5 495.27 .5 467.79 .5 440.3 .5 412.81 .5 385.32 .5 357.84 .5 357.84 27.99 385.32 27.99 412.81 27.99 440.3 27.99 467.79 27.99 495.27 27.99 522.76 27.99 550.25 27.99 550.25 .5 522.76 .5"/>
    <polygon class="cls-8" points="302.86 27.99 302.86 55.47 275.37 55.47 275.37 82.96 275.37 110.45 275.37 137.94 275.37 165.42 275.37 192.91 275.37 220.4 275.37 247.89 275.37 275.37 275.37 302.86 302.86 302.86 302.86 330.35 330.35 330.35 330.35 302.86 330.35 275.37 330.35 247.89 302.86 247.89 302.86 220.4 330.35 220.4 330.35 192.91 330.35 165.42 330.35 137.94 302.86 137.94 302.86 110.45 302.86 82.96 330.35 82.96 330.35 55.47 357.84 55.47 357.84 27.99 330.35 27.99 302.86 27.99"/>
    <rect class="cls-8" x="357.84" y="55.47" width="27.49" height="27.49"/>
    <rect class="cls-8" x="522.76" y="55.47" width="27.49" height="27.49"/>
    <polygon class="cls-8" points="302.86 632.71 330.35 632.71 330.35 605.22 330.35 577.74 330.35 550.25 302.86 550.25 302.86 522.76 302.86 495.27 330.35 495.27 330.35 467.79 330.35 440.3 330.35 412.81 302.86 412.81 302.86 385.32 275.37 385.32 275.37 412.81 275.37 440.3 275.37 467.79 275.37 495.27 275.37 522.76 275.37 550.25 275.37 577.74 275.37 605.22 302.86 605.22 302.86 632.71"/>
    <rect class="cls-8" x="247.89" y="632.71" width="27.49" height="27.49"/>
    <rect class="cls-8" x="220.4" y="687.69" width="27.49" height="27.49"/>
    <polygon class="cls-8" points="192.91 770.15 192.91 797.64 192.91 825.12 220.4 825.12 220.4 797.64 220.4 770.15 220.4 742.66 192.91 742.66 192.91 770.15"/>
    <polygon class="cls-8" points="412.81 880.1 385.32 880.1 385.32 852.61 357.84 852.61 357.84 825.12 330.35 825.12 330.35 797.64 302.86 797.64 302.86 770.15 330.35 770.15 330.35 742.66 330.35 715.17 302.86 715.17 302.86 687.69 275.37 687.69 275.37 715.17 275.37 742.66 275.37 770.15 275.37 797.64 275.37 825.12 275.37 852.61 302.86 852.61 302.86 880.1 330.35 880.1 357.84 880.1 357.84 907.59 385.32 907.59 412.81 907.59 440.3 907.59 467.79 907.59 467.79 880.1 440.3 880.1 412.81 880.1"/>
  </g>
  <g>
    <polygon class="cls-2" points="522.76 27.99 495.27 27.99 467.79 27.99 467.79 55.47 495.27 55.47 522.76 55.47 550.25 55.47 550.25 27.99 522.76 27.99"/>
    <rect class="cls-2" x="550.25" y="55.47" width="27.49" height="27.49"/>
    <rect class="cls-2" x="550.25" y="110.45" width="27.49" height="27.49"/>
    <polygon class="cls-2" points="605.22 137.94 605.22 165.42 605.22 192.91 577.74 192.91 577.74 220.4 577.74 247.89 605.22 247.89 605.22 275.37 605.22 302.86 632.71 302.86 632.71 275.37 632.71 247.89 632.71 220.4 632.71 192.91 632.71 165.42 632.71 137.94 632.71 110.45 632.71 82.96 632.71 55.47 605.22 55.47 605.22 82.96 577.74 82.96 577.74 110.45 605.22 110.45 605.22 137.94"/>
    <polygon class="cls-2" points="522.76 165.42 550.25 165.42 550.25 137.94 522.76 137.94 495.27 137.94 467.79 137.94 467.79 165.42 495.27 165.42 522.76 165.42"/>
    <polygon class="cls-2" points="605.22 605.22 632.71 605.22 632.71 577.74 632.71 550.25 632.71 522.76 632.71 495.27 632.71 467.79 632.71 440.3 632.71 412.81 632.71 385.32 605.22 385.32 605.22 412.81 605.22 440.3 605.22 467.79 577.74 467.79 577.74 495.27 577.74 522.76 577.74 550.25 605.22 550.25 605.22 577.74 605.22 605.22"/>
    <rect class="cls-2" x="632.71" y="632.71" width="27.49" height="27.49"/>
    <polygon class="cls-2" points="605.22 715.17 605.22 742.66 577.74 742.66 577.74 770.15 577.74 797.64 605.22 797.64 605.22 825.12 605.22 852.61 632.71 852.61 632.71 825.12 632.71 797.64 632.71 770.15 632.71 742.66 632.71 715.17 632.71 687.69 605.22 687.69 605.22 715.17"/>
    <rect class="cls-2" x="660.2" y="687.69" width="27.49" height="27.49"/>
    <rect class="cls-2" x="687.69" y="742.66" width="27.49" height="27.49"/>
    <polygon class="cls-2" points="550.25 852.61 550.25 880.1 577.74 880.1 605.22 880.1 605.22 852.61 577.74 852.61 550.25 852.61"/>
    <polygon class="cls-2" points="495.27 880.1 467.79 880.1 467.79 907.59 495.27 907.59 522.76 907.59 550.25 907.59 550.25 880.1 522.76 880.1 495.27 880.1"/>
  </g>
</svg>