<?xml version="1.0" encoding="UTF-8"?>
<svg id="Calque_1" data-name="Calque 1" xmlns="http://www.w3.org/2000/svg" viewBox="0 0 908.09 908.09">
  <defs>
    <style>
      .cls-1 {
        fill: #00a166;
        stroke: #00a166;
      }

      .cls-1, .cls-2, .cls-3, .cls-4, .cls-5, .cls-6 {
        stroke-miterlimit: 10;
      }

      .cls-2 {
        fill: #01764b;
        stroke: #01764b;
      }

      .cls-3 {
        fill: #70bb7a;
        stroke: #6ebc87;
      }

      .cls-4 {
        fill: #55b580;
        stroke: #55b580;
      }

      .cls-5 {
        fill: #95ceb9;
        stroke: #95ceb9;
      }

      .cls-6 {
        fill: #f6e943;
        stroke: #f6e943;
      }
    </style>
  </defs>
  <g>
    <polygon class="cls-5" points="659.41 82.93 686.87 82.93 686.87 110.38 714.32 110.38 714.32 82.93 741.77 82.93 741.77 55.47 714.32 55.47 686.87 55.47 659.41 55.47 631.96 55.47 604.5 55.47 577.05 55.47 549.6 55.47 522.14 55.47 494.69 55.47 467.24 55.47 467.24 82.93 494.69 82.93 522.14 82.93 549.6 82.93 577.05 82.93 604.5 82.93 604.5 110.38 631.96 110.38 631.96 82.93 659.41 82.93"/>
    <rect class="cls-5" x="165.78" y="82.93" width="27.45" height="27.45"/>
    <rect class="cls-5" x="303.05" y="82.93" width="27.45" height="27.45"/>
    <rect class="cls-5" x="741.77" y="82.93" width="27.45" height="27.45"/>
    <rect class="cls-5" x="138.32" y="110.38" width="27.45" height="27.45"/>
    <rect class="cls-5" x="275.59" y="110.38" width="27.45" height="27.45"/>
    <rect class="cls-5" x="631.96" y="110.38" width="27.45" height="27.45"/>
    <rect class="cls-5" x="714.32" y="110.38" width="27.45" height="27.45"/>
    <rect class="cls-5" x="769.23" y="110.38" width="27.45" height="27.45"/>
    <rect class="cls-5" x="110.87" y="137.84" width="27.45" height="27.45"/>
    <polygon class="cls-5" points="686.87 137.84 659.41 137.84 659.41 165.29 659.41 192.74 686.87 192.74 686.87 165.29 686.87 137.84"/>
    <rect class="cls-5" x="741.77" y="137.84" width="27.45" height="27.45"/>
    <rect class="cls-5" x="796.68" y="137.84" width="27.45" height="27.45"/>
    <rect class="cls-5" x="83.42" y="165.29" width="27.45" height="27.45"/>
    <polygon class="cls-5" points="275.59 165.29 275.59 137.84 248.14 137.84 248.14 165.29 248.14 192.74 275.59 192.74 275.59 165.29"/>
    <rect class="cls-5" x="769.23" y="165.29" width="27.45" height="27.45"/>
    <rect class="cls-5" x="824.13" y="165.29" width="27.45" height="27.45"/>
    <rect class="cls-5" x="55.96" y="192.74" width="27.45" height="27.45"/>
    <rect class="cls-5" x="220.68" y="192.74" width="27.45" height="27.45"/>
    <rect class="cls-5" x="686.87" y="192.74" width="27.45" height="27.45"/>
    <rect class="cls-5" x="796.68" y="192.74" width="27.45" height="27.45"/>
    <rect class="cls-5" x="851.59" y="192.74" width="27.45" height="27.45"/>
    <rect class="cls-5" x="27.98" y="220.2" width="27.45" height="27.45"/>
    <rect class="cls-5" x="193.23" y="220.2" width="27.45" height="27.45"/>
    <rect class="cls-5" x="714.32" y="220.2" width="27.45" height="27.45"/>
    <rect class="cls-5" x="824.13" y="220.2" width="27.45" height="27.45"/>
    <polygon class="cls-5" points="879.04 220.2 879.04 247.65 851.59 247.65 851.59 275.1 879.04 275.1 879.04 302.56 879.04 330.01 851.59 330.01 851.59 357.47 879.04 357.47 879.04 384.92 851.59 384.92 851.59 412.37 879.04 412.37 879.04 439.83 906.49 439.83 906.49 412.37 906.49 384.92 906.49 357.47 906.49 330.01 906.49 302.56 906.49 275.1 906.49 247.65 906.49 220.2 879.04 220.2"/>
    <polygon class="cls-5" points="165.78 275.1 165.78 302.56 165.78 330.01 165.78 357.47 165.78 384.92 193.23 384.92 193.23 357.47 193.23 330.01 193.23 302.56 193.23 275.1 193.23 247.65 165.78 247.65 165.78 275.1"/>
    <polygon class="cls-5" points="495.22 302.56 522.67 302.56 550.13 302.56 577.58 302.56 605.04 302.56 605.04 275.1 577.58 275.1 577.58 247.65 550.13 247.65 550.13 220.2 522.67 220.2 522.67 192.74 495.22 192.74 495.22 165.29 467.77 165.29 467.77 137.84 440.31 137.84 440.31 165.29 440.31 192.74 467.77 192.74 467.77 220.2 495.22 220.2 495.22 247.65 522.67 247.65 522.67 275.1 495.22 275.1 467.77 275.1 440.31 275.1 440.31 302.56 467.77 302.56 495.22 302.56"/>
    <polygon class="cls-5" points="824.13 357.47 796.68 357.47 769.23 357.47 769.23 330.01 769.23 302.56 769.23 275.1 769.23 247.65 741.77 247.65 741.77 275.1 741.77 302.56 741.77 330.01 741.77 357.47 741.77 384.92 714.32 384.92 686.87 384.92 659.41 384.92 659.41 412.37 686.87 412.37 714.32 412.37 741.77 412.37 769.23 412.37 769.23 384.92 796.68 384.92 824.13 384.92 851.59 384.92 851.59 357.47 824.13 357.47"/>
    <polygon class="cls-5" points="110.87 412.37 138.32 412.37 138.32 384.92 110.87 384.92 83.42 384.92 55.96 384.92 55.96 412.37 83.42 412.37 110.87 412.37"/>
    <rect class="cls-5" x="28.51" y="412.37" width="27.45" height="27.45"/>
    <polygon class="cls-5" points="165.78 439.83 193.23 439.83 193.23 467.28 193.23 494.73 220.68 494.73 220.68 467.28 248.14 467.28 275.59 467.28 303.05 467.28 330.5 467.28 357.95 467.28 385.41 467.28 412.86 467.28 412.86 439.83 385.41 439.83 357.95 439.83 330.5 439.83 303.05 439.83 275.59 439.83 248.14 439.83 248.14 412.37 220.68 412.37 193.23 412.37 165.78 412.37 138.32 412.37 138.32 439.83 165.78 439.83"/>
    <polygon class="cls-5" points="604.5 412.37 577.05 412.37 549.6 412.37 522.14 412.37 494.69 412.37 494.69 384.92 494.69 357.47 494.69 330.01 467.24 330.01 467.24 357.47 467.24 384.92 467.24 412.37 467.24 439.83 467.24 467.28 467.24 494.73 467.24 522.19 494.69 522.19 494.69 494.73 494.69 467.28 494.69 439.83 522.14 439.83 549.6 439.83 577.05 439.83 604.5 439.83 631.96 439.83 659.41 439.83 659.41 412.37 631.96 412.37 604.5 412.37"/>
    <rect class="cls-5" x="824.13" y="412.37" width="27.45" height="27.45"/>
    <rect class="cls-5" x="55.96" y="439.83" width="27.45" height="27.45"/>
    <rect class="cls-5" x="796.68" y="439.83" width="27.45" height="27.45"/>
    <rect class="cls-5" x="851.59" y="439.83" width="27.45" height="27.45"/>
    <rect class="cls-5" x="83.42" y="467.28" width="27.45" height="27.45"/>
    <polygon class="cls-5" points="741.77 467.28 741.77 439.83 714.32 439.83 714.32 467.28 714.32 494.73 741.77 494.73 741.77 467.28"/>
    <rect class="cls-5" x="769.23" y="467.28" width="27.45" height="27.45"/>
    <rect class="cls-5" x="824.13" y="467.28" width="27.45" height="27.45"/>
    <rect class="cls-5" x="110.87" y="494.73" width="27.45" height="27.45"/>
    <rect class="cls-5" x="220.68" y="494.73" width="27.45" height="27.45"/>
    <rect class="cls-5" x="686.87" y="494.73" width="27.45" height="27.45"/>
    <rect class="cls-5" x="741.77" y="494.73" width="27.45" height="27.45"/>
    <rect class="cls-5" x="796.68" y="494.73" width="27.45" height="27.45"/>
    <rect class="cls-5" x="138.32" y="522.19" width="27.45" height="27.45"/>
    <rect class="cls-5" x="248.14" y="522.19" width="27.45" height="27.45"/>
    <rect class="cls-5" x="714.32" y="522.19" width="27.45" height="27.45"/>
    <rect class="cls-5" x="769.23" y="522.19" width="27.45" height="27.45"/>
    <rect class="cls-5" x="165.78" y="549.64" width="27.45" height="27.45"/>
    <polygon class="cls-5" points="494.69 577.09 494.69 604.55 522.14 604.55 522.14 577.09 549.6 577.09 549.6 549.64 522.14 549.64 494.69 549.64 467.24 549.64 439.78 549.64 439.78 577.09 467.24 577.09 494.69 577.09"/>
    <rect class="cls-5" x="741.77" y="549.64" width="27.45" height="27.45"/>
    <rect class="cls-5" x="193.23" y="577.09" width="27.45" height="27.45"/>
    <polygon class="cls-5" points="275.59 604.55 303.05 604.55 303.05 577.09 303.05 549.64 275.59 549.64 275.59 577.09 275.59 604.55"/>
    <rect class="cls-5" x="714.32" y="577.09" width="27.45" height="27.45"/>
    <rect class="cls-5" x="220.68" y="604.55" width="27.45" height="27.45"/>
    <rect class="cls-5" x="303.05" y="604.55" width="27.45" height="27.45"/>
    <polygon class="cls-5" points="467.24 604.55 440.31 604.55 440.31 632 440.31 659.46 467.77 659.46 467.77 632 494.69 632 494.69 604.55 467.77 604.55 467.24 604.55"/>
    <polygon class="cls-5" points="659.41 604.55 686.87 604.55 686.87 577.09 714.32 577.09 714.32 549.64 686.87 549.64 686.87 522.19 659.41 522.19 659.41 549.64 659.41 577.09 631.96 577.09 631.96 604.55 631.96 632 659.41 632 659.41 604.55"/>
    <rect class="cls-5" x="686.87" y="604.55" width="27.45" height="27.45"/>
    <rect class="cls-5" x="248.14" y="632" width="27.45" height="27.45"/>
    <rect class="cls-5" x="330.5" y="632" width="27.45" height="27.45"/>
    <rect class="cls-5" x="604.5" y="632" width="27.45" height="27.45"/>
    <rect class="cls-5" x="659.41" y="632" width="27.45" height="27.45"/>
    <rect class="cls-5" x="275.59" y="659.46" width="27.45" height="27.45"/>
    <rect class="cls-5" x="357.95" y="659.46" width="27.45" height="27.45"/>
    <rect class="cls-5" x="577.05" y="659.46" width="27.45" height="27.45"/>
    <rect class="cls-5" x="631.96" y="659.46" width="27.45" height="27.45"/>
    <rect class="cls-5" x="303.05" y="686.91" width="27.45" height="27.45"/>
    <polygon class="cls-5" points="577.05 686.91 549.6 686.91 549.6 714.36 549.6 741.82 522.14 741.82 522.14 769.27 494.69 769.27 494.69 796.72 494.69 824.18 522.14 824.18 522.14 796.72 549.6 796.72 549.6 769.27 577.05 769.27 577.05 741.82 604.5 741.82 604.5 714.36 577.05 714.36 577.05 686.91"/>
    <rect class="cls-5" x="604.5" y="686.91" width="27.45" height="27.45"/>
    <rect class="cls-5" x="330.5" y="714.36" width="27.45" height="27.45"/>
    <rect class="cls-5" x="385.41" y="714.36" width="27.45" height="27.45"/>
    <rect class="cls-5" x="357.95" y="741.82" width="27.45" height="27.45"/>
    <rect class="cls-5" x="412.86" y="741.82" width="27.45" height="27.45"/>
    <rect class="cls-5" x="385.41" y="769.27" width="27.45" height="27.45"/>
    <rect class="cls-5" x="440.31" y="769.27" width="27.45" height="27.45"/>
    <rect class="cls-5" x="467.24" y="824.18" width="27.45" height="27.45"/>
  </g>
  <g>
    <polygon class="cls-4" points="220.69 82.93 248.14 82.93 275.59 82.93 275.59 110.38 303.05 110.38 303.05 82.93 330.5 82.93 357.96 82.93 385.41 82.93 412.86 82.93 440.32 82.93 467.77 82.93 467.77 55.47 440.32 55.47 412.86 55.47 385.41 55.47 357.96 55.47 330.5 55.47 303.05 55.47 275.59 55.47 248.14 55.47 220.69 55.47 193.23 55.47 193.23 82.93 193.23 110.38 220.69 110.38 220.69 82.93"/>
    <rect class="cls-4" x="577.58" y="82.93" width="27.45" height="27.45"/>
    <rect class="cls-4" x="659.95" y="82.93" width="27.45" height="27.45"/>
    <rect class="cls-4" x="714.85" y="82.93" width="27.45" height="27.45"/>
    <rect class="cls-4" x="165.78" y="110.38" width="27.45" height="27.45"/>
    <rect class="cls-4" x="248.14" y="110.38" width="27.45" height="27.45"/>
    <rect class="cls-4" x="440.31" y="110.38" width="27.45" height="27.45"/>
    <rect class="cls-4" x="605.04" y="110.38" width="27.45" height="27.45"/>
    <rect class="cls-4" x="687.4" y="110.38" width="27.45" height="27.45"/>
    <rect class="cls-4" x="742.31" y="110.38" width="27.45" height="27.45"/>
    <rect class="cls-4" x="138.33" y="137.84" width="27.45" height="27.45"/>
    <rect class="cls-4" x="467.77" y="137.84" width="27.45" height="27.45"/>
    <rect class="cls-4" x="714.85" y="137.84" width="27.45" height="27.45"/>
    <rect class="cls-4" x="769.76" y="137.84" width="27.45" height="27.45"/>
    <rect class="cls-4" x="110.87" y="165.29" width="27.45" height="27.45"/>
    <rect class="cls-4" x="220.69" y="165.29" width="27.45" height="27.45"/>
    <rect class="cls-4" x="495.22" y="165.29" width="27.45" height="27.45"/>
    <polygon class="cls-4" points="632.49 192.74 659.95 192.74 659.95 165.29 659.95 137.84 632.49 137.84 632.49 165.29 632.49 192.74"/>
    <rect class="cls-4" x="742.31" y="165.29" width="27.45" height="27.45"/>
    <rect class="cls-4" x="797.21" y="165.29" width="27.45" height="27.45"/>
    <rect class="cls-4" x="83.42" y="192.74" width="27.45" height="27.45"/>
    <rect class="cls-4" x="193.23" y="192.74" width="27.45" height="27.45"/>
    <rect class="cls-4" x="522.67" y="192.74" width="27.45" height="27.45"/>
    <rect class="cls-4" x="659.95" y="192.74" width="27.45" height="27.45"/>
    <rect class="cls-4" x="769.76" y="192.74" width="27.45" height="27.45"/>
    <rect class="cls-4" x="824.67" y="192.74" width="27.45" height="27.45"/>
    <rect class="cls-4" x="55.97" y="220.2" width="27.45" height="27.45"/>
    <rect class="cls-4" x="165.78" y="220.2" width="27.45" height="27.45"/>
    <rect class="cls-4" x="550.13" y="220.2" width="27.45" height="27.45"/>
    <rect class="cls-4" x="687.4" y="220.2" width="27.45" height="27.45"/>
    <rect class="cls-4" x="797.21" y="220.2" width="27.45" height="27.45"/>
    <rect class="cls-4" x="852.12" y="220.2" width="27.45" height="27.45"/>
    <rect class="cls-4" x="28.51" y="247.65" width="27.45" height="27.45"/>
    <rect class="cls-4" x="577.58" y="247.65" width="27.45" height="27.45"/>
    <rect class="cls-4" x="824.67" y="247.65" width="27.45" height="27.45"/>
    <polygon class="cls-4" points="412.86 275.1 385.41 275.1 357.95 275.1 357.95 247.65 385.41 247.65 385.41 220.2 412.86 220.2 412.86 192.74 440.31 192.74 440.31 165.29 440.31 137.84 412.86 137.84 412.86 165.29 385.41 165.29 385.41 192.74 357.95 192.74 357.95 220.2 330.5 220.2 330.5 247.65 303.05 247.65 303.05 275.1 275.59 275.1 275.59 302.56 303.05 302.56 330.5 302.56 357.95 302.56 385.41 302.56 412.86 302.56 440.31 302.56 440.31 275.1 412.86 275.1"/>
    <polygon class="cls-4" points="714.85 302.56 714.85 330.01 714.85 357.47 714.85 384.92 742.31 384.92 742.31 357.47 742.31 330.01 742.31 302.56 742.31 275.1 742.31 247.65 714.85 247.65 714.85 275.1 714.85 302.56"/>
    <polygon class="cls-4" points="577.58 302.56 550.13 302.56 522.67 302.56 495.22 302.56 467.77 302.56 440.31 302.56 440.31 330.01 440.31 357.47 440.31 384.92 440.31 412.37 440.31 439.83 440.31 467.28 440.31 494.73 440.31 522.19 440.31 549.64 467.77 549.64 495.22 549.64 522.67 549.64 550.13 549.64 550.13 577.09 577.58 577.09 577.58 549.64 605.04 549.64 605.04 522.19 577.58 522.19 550.13 522.19 522.67 522.19 495.22 522.19 467.77 522.19 467.77 494.73 467.77 467.28 467.77 439.83 467.77 412.37 467.77 384.92 467.77 357.47 467.77 330.01 495.22 330.01 522.67 330.01 550.13 330.01 577.58 330.01 605.04 330.01 632.49 330.01 659.94 330.01 659.94 302.56 632.49 302.56 632.49 275.1 605.04 275.1 605.04 302.56 577.58 302.56"/>
    <polygon class="cls-4" points="852.12 330.01 879.58 330.01 879.58 302.56 879.58 275.1 852.12 275.1 852.12 302.56 852.12 330.01"/>
    <rect class="cls-4" x="28.51" y="330.01" width="27.45" height="27.45"/>
    <rect class="cls-4" x="824.67" y="330.01" width="27.45" height="27.45"/>
    <polygon class="cls-4" points="110.87 384.92 138.33 384.92 138.33 412.37 165.78 412.37 193.23 412.37 220.69 412.37 248.14 412.37 248.14 384.92 220.69 384.92 193.23 384.92 165.78 384.92 165.78 357.47 165.78 330.01 165.78 302.56 165.78 275.1 165.78 247.65 138.33 247.65 138.33 275.1 138.33 302.56 138.33 330.01 138.33 357.47 110.87 357.47 83.42 357.47 55.97 357.47 55.97 384.92 83.42 384.92 110.87 384.92"/>
    <rect class="cls-4" x="28.51" y="384.92" width="27.45" height="27.45"/>
    <polygon class="cls-4" points="824.67 412.37 852.12 412.37 852.12 384.92 824.67 384.92 797.21 384.92 769.76 384.92 769.76 412.37 797.21 412.37 824.67 412.37"/>
    <rect class="cls-4" x="55.97" y="412.37" width="27.45" height="27.45"/>
    <polygon class="cls-4" points="275.59 439.83 303.05 439.83 330.5 439.83 357.96 439.83 385.41 439.83 412.86 439.83 412.86 412.37 385.41 412.37 357.96 412.37 330.5 412.37 303.05 412.37 275.59 412.37 248.14 412.37 248.14 439.83 275.59 439.83"/>
    <rect class="cls-4" x="852.12" y="412.37" width="27.45" height="27.45"/>
    <rect class="cls-4" x="83.42" y="439.83" width="27.45" height="27.45"/>
    <polygon class="cls-4" points="605.04 439.83 577.58 439.83 550.13 439.83 522.67 439.83 495.22 439.83 495.22 467.28 522.67 467.28 550.13 467.28 577.58 467.28 605.04 467.28 632.49 467.28 659.94 467.28 659.94 439.83 632.49 439.83 605.04 439.83"/>
    <rect class="cls-4" x="824.67" y="439.83" width="27.45" height="27.45"/>
    <rect class="cls-4" x="110.87" y="467.28" width="27.45" height="27.45"/>
    <polygon class="cls-4" points="714.85 467.28 714.85 439.83 742.3 439.83 769.76 439.83 769.76 412.37 742.3 412.37 714.85 412.37 687.4 412.37 659.94 412.37 659.94 439.83 687.4 439.83 687.4 467.28 687.4 494.73 714.85 494.73 714.85 467.28"/>
    <rect class="cls-4" x="797.21" y="467.28" width="27.45" height="27.45"/>
    <rect class="cls-4" x="138.33" y="494.73" width="27.45" height="27.45"/>
    <polygon class="cls-4" points="193.23 522.19 165.78 522.19 165.78 549.64 193.23 549.64 193.23 577.09 220.68 577.09 220.68 549.64 193.23 549.64 193.23 522.19 220.68 522.19 220.68 494.73 193.23 494.73 193.23 467.28 193.23 439.83 165.78 439.83 165.78 467.28 165.78 494.73 193.23 494.73 193.23 522.19"/>
    <rect class="cls-4" x="659.94" y="494.73" width="27.45" height="27.45"/>
    <rect class="cls-4" x="769.76" y="494.73" width="27.45" height="27.45"/>
    <rect class="cls-4" x="220.68" y="522.19" width="27.45" height="27.45"/>
    <rect class="cls-4" x="742.31" y="522.19" width="27.45" height="27.45"/>
    <rect class="cls-4" x="248.14" y="549.64" width="27.45" height="27.45"/>
    <rect class="cls-4" x="714.85" y="549.64" width="27.45" height="27.45"/>
    <rect class="cls-4" x="220.68" y="577.09" width="27.45" height="27.45"/>
    <rect class="cls-4" x="522.67" y="577.09" width="27.45" height="27.45"/>
    <polygon class="cls-4" points="632.49 577.09 659.94 577.09 659.94 549.64 659.94 522.19 632.49 522.19 632.49 549.64 632.49 577.09 605.04 577.09 605.04 604.55 632.49 604.55 632.49 577.09"/>
    <rect class="cls-4" x="687.4" y="577.09" width="27.45" height="27.45"/>
    <rect class="cls-4" x="248.14" y="604.55" width="27.45" height="27.45"/>
    <polygon class="cls-4" points="440.31 604.55 412.86 604.55 412.86 577.09 440.31 577.09 440.31 549.64 412.86 549.64 385.41 549.64 357.95 549.64 330.5 549.64 330.5 577.09 357.95 577.09 357.95 604.55 385.41 604.55 385.41 632 412.86 632 412.86 659.46 440.31 659.46 440.31 632 440.31 604.55"/>
    <rect class="cls-4" x="495.22" y="604.55" width="27.45" height="27.45"/>
    <rect class="cls-4" x="659.95" y="604.55" width="27.45" height="27.45"/>
    <rect class="cls-4" x="275.59" y="632" width="27.45" height="27.45"/>
    <rect class="cls-4" x="467.77" y="632" width="27.45" height="27.45"/>
    <polygon class="cls-4" points="605.04 632 605.04 604.55 577.58 604.55 577.58 632 577.58 659.46 605.04 659.46 605.04 632"/>
    <rect class="cls-4" x="632.49" y="632" width="27.45" height="27.45"/>
    <polygon class="cls-4" points="248.14 659.46 220.69 659.46 220.69 686.91 193.23 686.91 193.23 714.36 193.23 741.82 165.78 741.82 165.78 769.27 165.78 796.72 165.78 824.18 165.78 851.63 193.23 851.63 193.23 824.18 193.23 796.72 193.23 769.27 220.69 769.27 220.69 741.82 248.14 741.82 248.14 714.36 275.59 714.36 275.59 686.91 248.14 686.91 248.14 659.46"/>
    <rect class="cls-4" x="303.05" y="659.46" width="27.45" height="27.45"/>
    <rect class="cls-4" x="440.31" y="659.46" width="27.45" height="27.45"/>
    <rect class="cls-4" x="550.13" y="659.46" width="27.45" height="27.45"/>
    <rect class="cls-4" x="605.04" y="659.46" width="27.45" height="27.45"/>
    <rect class="cls-4" x="659.95" y="659.46" width="27.45" height="27.45"/>
    <rect class="cls-4" x="330.5" y="686.91" width="27.45" height="27.45"/>
    <rect class="cls-4" x="577.58" y="686.91" width="27.45" height="27.45"/>
    <polygon class="cls-4" points="632.49 714.36 632.49 741.82 632.49 769.27 659.95 769.27 659.95 741.82 659.95 714.36 659.95 686.91 632.49 686.91 632.49 714.36"/>
    <rect class="cls-4" x="357.96" y="714.36" width="27.45" height="27.45"/>
    <rect class="cls-4" x="522.68" y="714.36" width="27.45" height="27.45"/>
    <rect class="cls-4" x="385.41" y="741.82" width="27.45" height="27.45"/>
    <rect class="cls-4" x="495.22" y="741.82" width="27.45" height="27.45"/>
    <polygon class="cls-4" points="467.77 796.72 440.32 796.72 440.32 769.27 412.86 769.27 412.86 796.72 412.86 824.18 440.32 824.18 440.32 851.63 467.77 851.63 467.77 824.18 495.22 824.18 495.22 796.72 495.22 769.27 467.77 769.27 467.77 796.72"/>
    <polygon class="cls-4" points="659.95 824.18 659.95 851.63 687.4 851.63 687.4 824.18 687.4 796.72 687.4 769.27 659.95 769.27 659.95 796.72 659.95 824.18"/>
  </g>
  <g>
    <rect class="cls-3" x="220.68" y="82.93" width="27.45" height="27.45"/>
    <rect class="cls-3" x="632.49" y="82.93" width="27.45" height="27.45"/>
    <rect class="cls-3" x="659.94" y="110.38" width="27.45" height="27.45"/>
    <polygon class="cls-3" points="248.14 220.2 220.68 220.2 220.68 247.65 193.23 247.65 193.23 275.1 193.23 302.56 193.23 330.01 220.68 330.01 220.68 302.56 248.14 302.56 248.14 275.1 275.59 275.1 275.59 247.65 303.05 247.65 303.05 220.2 330.5 220.2 330.5 192.74 357.95 192.74 357.95 165.29 385.41 165.29 385.41 137.84 412.86 137.84 412.86 110.38 440.31 110.38 467.77 110.38 467.77 137.84 495.22 137.84 495.22 165.29 522.67 165.29 522.67 192.74 550.13 192.74 550.13 165.29 550.13 137.84 550.13 137.84 550.13 165.29 550.13 192.74 550.13 220.2 577.58 220.2 577.58 247.65 605.04 247.65 605.04 275.1 632.49 275.1 632.49 302.56 659.94 302.56 659.94 330.01 687.4 330.01 687.4 302.56 687.4 275.1 687.4 247.65 659.94 247.65 659.94 220.2 632.49 220.2 632.49 192.74 605.04 192.74 605.04 165.29 605.04 137.84 577.58 137.84 577.58 110.38 550.13 110.38 550.13 82.93 522.68 82.93 495.22 82.93 467.77 82.93 440.31 82.93 412.86 82.93 385.41 82.93 357.95 82.93 330.5 82.93 330.5 110.38 303.05 110.38 303.05 137.84 275.59 137.84 275.59 165.29 275.59 192.74 248.14 192.74 248.14 220.2"/>
    <polygon class="cls-3" points="138.32 220.2 165.78 220.2 165.78 192.74 193.23 192.74 193.23 165.29 220.68 165.29 220.68 137.84 220.68 110.38 193.23 110.38 193.23 137.84 165.78 137.84 165.78 165.29 138.32 165.29 138.32 192.74 110.87 192.74 110.87 220.2 83.42 220.2 83.42 247.65 55.96 247.65 55.96 275.1 83.42 275.1 83.42 302.56 110.87 302.56 110.87 275.1 110.87 247.65 138.32 247.65 138.32 220.2"/>
    <polygon class="cls-3" points="522.67 275.1 522.67 247.65 495.22 247.65 495.22 220.2 467.77 220.2 467.77 192.74 440.31 192.74 412.86 192.74 412.86 220.2 385.41 220.2 385.41 247.65 357.95 247.65 357.95 275.1 385.41 275.1 412.86 275.1 440.31 275.1 467.77 275.1 495.22 275.1 522.67 275.1"/>
    <polygon class="cls-3" points="797.21 247.65 797.21 220.2 769.76 220.2 769.76 192.74 742.3 192.74 742.3 165.29 714.85 165.29 714.85 137.84 687.4 137.84 687.4 165.29 687.4 192.74 714.85 192.74 714.85 220.2 742.3 220.2 742.3 247.65 769.76 247.65 769.76 275.1 769.76 302.56 797.21 302.56 797.21 275.1 824.67 275.1 824.67 247.65 797.21 247.65"/>
    <polygon class="cls-3" points="28.51 302.56 28.51 330.01 55.96 330.01 55.96 302.56 55.96 275.1 28.51 275.1 28.51 302.56"/>
    <polygon class="cls-3" points="824.67 275.1 824.67 302.56 824.67 330.01 852.12 330.01 852.12 302.56 852.12 275.1 824.67 275.1"/>
    <polygon class="cls-3" points="83.42 357.47 110.87 357.47 110.87 330.01 83.42 330.01 55.96 330.01 55.96 357.47 83.42 357.47"/>
    <path class="cls-3" d="M605.04,330.01h-109.81v27.45h27.45v27.45h-27.45v27.45h164.72v-27.45h27.45v-27.45h-27.45v-27.45h-54.91ZM632.49,384.92h-54.91v-27.45h54.91v27.45Z"/>
    <polygon class="cls-3" points="769.76 330.01 769.76 357.47 797.21 357.47 824.67 357.47 824.67 330.01 797.21 330.01 769.76 330.01"/>
    <path class="cls-3" d="M193.23,357.47v27.45h54.91v27.45h164.72v-27.45h-27.45v-27.45h27.45v-27.45h-192.18v27.45h-27.45ZM303.05,357.47h27.45v27.45h-54.91v-27.45h27.45Z"/>
    <rect class="cls-3" x="83.42" y="412.37" width="27.45" height="27.45"/>
    <polygon class="cls-3" points="769.76 412.37 769.76 439.83 797.21 439.83 824.67 439.83 824.67 412.37 797.21 412.37 769.76 412.37"/>
    <polygon class="cls-3" points="742.3 467.28 742.3 494.73 769.76 494.73 769.76 467.28 769.76 439.83 742.3 439.83 742.3 467.28"/>
    <rect class="cls-3" x="138.32" y="467.28" width="27.45" height="27.45"/>
    <polygon class="cls-3" points="659.94 467.28 632.49 467.28 605.04 467.28 577.58 467.28 550.13 467.28 522.68 467.28 495.22 467.28 495.22 494.73 495.22 522.19 522.68 522.19 550.13 522.19 577.58 522.19 605.04 522.19 632.49 522.19 632.49 494.73 659.94 494.73 659.94 467.28"/>
    <rect class="cls-3" x="165.78" y="494.73" width="27.45" height="27.45"/>
    <polygon class="cls-3" points="330.5 522.19 357.95 522.19 385.41 522.19 412.86 522.19 412.86 494.73 412.86 467.28 385.41 467.28 357.95 467.28 330.5 467.28 303.05 467.28 275.59 467.28 248.14 467.28 220.68 467.28 220.68 494.73 248.14 494.73 248.14 522.19 275.59 522.19 303.05 522.19 330.5 522.19"/>
    <rect class="cls-3" x="714.85" y="494.73" width="27.45" height="27.45"/>
    <rect class="cls-3" x="220.68" y="549.64" width="27.45" height="27.45"/>
    <rect class="cls-3" x="577.58" y="549.64" width="27.45" height="27.45"/>
    <rect class="cls-3" x="248.14" y="577.09" width="27.45" height="27.45"/>
    <rect class="cls-3" x="303.05" y="577.09" width="27.45" height="27.45"/>
    <polygon class="cls-3" points="440.31 577.09 412.86 577.09 412.86 604.55 440.31 604.55 467.77 604.55 495.22 604.55 495.22 577.09 467.77 577.09 440.31 577.09"/>
    <rect class="cls-3" x="550.13" y="577.09" width="27.45" height="27.45"/>
    <rect class="cls-3" x="330.5" y="604.55" width="27.45" height="27.45"/>
    <polygon class="cls-3" points="522.68 632 495.22 632 495.22 659.46 467.77 659.46 467.77 686.91 440.31 686.91 412.86 686.91 412.86 659.46 385.41 659.46 385.41 686.91 385.41 714.36 412.86 714.36 412.86 741.82 440.31 741.82 467.77 741.82 495.22 741.82 495.22 714.36 495.22 686.91 522.68 686.91 522.68 659.46 550.13 659.46 550.13 632 550.13 604.55 522.68 604.55 522.68 632"/>
    <rect class="cls-3" x="303.05" y="632" width="27.45" height="27.45"/>
    <rect class="cls-3" x="357.95" y="632" width="27.45" height="27.45"/>
    <rect class="cls-3" x="330.5" y="659.46" width="27.45" height="27.45"/>
    <polygon class="cls-3" points="248.14 741.82 220.68 741.82 220.68 769.27 193.23 769.27 193.23 796.72 193.23 824.18 193.23 851.63 220.68 851.63 248.14 851.63 248.14 824.18 248.14 796.72 248.14 769.27 275.59 769.27 275.59 741.82 275.59 714.36 248.14 714.36 248.14 741.82"/>
    <polygon class="cls-3" points="714.85 714.36 714.85 686.91 687.4 686.91 659.94 686.91 659.94 714.36 659.94 741.82 659.94 769.27 687.4 769.27 687.4 796.72 687.4 824.18 687.4 851.63 714.85 851.63 742.3 851.63 742.3 824.18 742.3 796.72 742.3 769.27 742.3 741.82 714.85 741.82 714.85 714.36"/>
  </g>
  <g>
    <polygon class="cls-2" points="165.78 879.09 165.78 906.54 193.23 906.54 193.23 879.09 193.23 851.63 165.78 851.63 165.78 879.09"/>
    <polygon class="cls-2" points="659.94 851.63 659.94 879.09 659.94 906.54 687.4 906.54 687.4 879.09 687.4 851.63 659.94 851.63"/>
  </g>
  <g>
    <polygon class="cls-6" points="797.21 302.56 769.76 302.56 769.76 330.01 797.21 330.01 824.67 330.01 824.67 302.56 824.67 275.1 797.21 275.1 797.21 302.56"/>
    <polygon class="cls-6" points="110.87 302.56 83.42 302.56 83.42 275.1 55.96 275.1 55.96 302.56 55.96 330.01 83.42 330.01 110.87 330.01 110.87 302.56"/>
    <rect class="cls-6" x="193.23" y="330.01" width="27.45" height="27.45"/>
    <rect class="cls-6" x="659.94" y="330.01" width="27.45" height="27.45"/>
    <rect class="cls-6" x="28.51" y="357.47" width="27.45" height="27.45"/>
    <polygon class="cls-6" points="275.59 357.47 275.59 384.92 303.05 384.92 330.5 384.92 330.5 357.47 303.05 357.47 275.59 357.47"/>
    <rect class="cls-6" x="385.41" y="357.47" width="27.45" height="27.45"/>
    <rect class="cls-6" x="495.22" y="357.47" width="27.45" height="27.45"/>
    <polygon class="cls-6" points="577.58 357.47 577.58 384.92 605.04 384.92 632.49 384.92 632.49 357.47 605.04 357.47 577.58 357.47"/>
    <rect class="cls-6" x="852.12" y="357.47" width="27.45" height="27.45"/>
    <rect class="cls-6" x="110.87" y="439.83" width="27.45" height="27.45"/>
    <rect class="cls-6" x="769.76" y="439.83" width="27.45" height="27.45"/>
    <rect class="cls-6" x="193.23" y="522.19" width="27.45" height="27.45"/>
    <rect class="cls-6" x="687.4" y="522.19" width="27.45" height="27.45"/>
    <rect class="cls-6" x="275.59" y="604.55" width="27.45" height="27.45"/>
    <rect class="cls-6" x="605.04" y="604.55" width="27.45" height="27.45"/>
    <rect class="cls-6" x="357.95" y="686.91" width="27.45" height="27.45"/>
    <rect class="cls-6" x="522.67" y="686.91" width="27.45" height="27.45"/>
    <rect class="cls-6" x="440.31" y="741.82" width="27.45" height="27.45"/>
    <rect class="cls-6" x="193.23" y="879.09" width="27.45" height="27.45"/>
    <rect class="cls-6" x="687.4" y="879.09" width="27.45" height="27.45"/>
  </g>
  <g>
    <rect class="cls-1" x="165.78" y="55.47" width="27.45" height="27.45"/>
    <rect class="cls-1" x="138.32" y="82.93" width="27.45" height="27.45"/>
    <rect class="cls-1" x="248.14" y="82.93" width="27.45" height="27.45"/>
    <rect class="cls-1" x="550.13" y="82.93" width="27.45" height="27.45"/>
    <rect class="cls-1" x="110.87" y="110.38" width="27.45" height="27.45"/>
    <rect class="cls-1" x="412.86" y="110.38" width="27.45" height="27.45"/>
    <rect class="cls-1" x="577.58" y="110.38" width="27.45" height="27.45"/>
    <rect class="cls-1" x="83.42" y="137.84" width="27.45" height="27.45"/>
    <polygon class="cls-1" points="248.14 137.84 248.14 110.38 220.68 110.38 220.68 137.84 220.68 165.29 248.14 165.29 248.14 137.84"/>
    <rect class="cls-1" x="385.41" y="137.84" width="27.45" height="27.45"/>
    <rect class="cls-1" x="55.96" y="165.29" width="27.45" height="27.45"/>
    <rect class="cls-1" x="193.23" y="165.29" width="27.45" height="27.45"/>
    <rect class="cls-1" x="357.95" y="165.29" width="27.45" height="27.45"/>
    <polygon class="cls-1" points="605.04 192.74 632.49 192.74 632.49 165.29 632.49 137.84 605.04 137.84 605.04 165.29 605.04 192.74"/>
    <rect class="cls-1" x="28.51" y="192.74" width="27.45" height="27.45"/>
    <rect class="cls-1" x="165.78" y="192.74" width="27.45" height="27.45"/>
    <rect class="cls-1" x="330.5" y="192.74" width="27.45" height="27.45"/>
    <rect class="cls-1" x="632.49" y="192.74" width="27.45" height="27.45"/>
    <rect class="cls-1" x="138.32" y="220.2" width="27.45" height="27.45"/>
    <rect class="cls-1" x="303.05" y="220.2" width="27.45" height="27.45"/>
    <rect class="cls-1" x="659.94" y="220.2" width="27.45" height="27.45"/>
    <polygon class="cls-1" points="110.87 275.1 110.87 302.56 110.87 330.01 110.87 357.47 138.32 357.47 138.32 330.01 138.32 302.56 138.32 275.1 138.32 247.65 110.87 247.65 110.87 275.1"/>
    <rect class="cls-1" x="275.59" y="247.65" width="27.45" height="27.45"/>
    <polygon class="cls-1" points="248.14 302.56 220.68 302.56 220.68 330.01 248.14 330.01 275.59 330.01 303.05 330.01 330.5 330.01 357.95 330.01 385.41 330.01 412.86 330.01 412.86 357.47 412.86 384.92 412.86 412.37 412.86 439.83 412.86 467.28 412.86 494.73 412.86 522.19 385.41 522.19 357.95 522.19 330.5 522.19 303.05 522.19 275.59 522.19 275.59 549.64 303.05 549.64 303.05 577.09 330.5 577.09 330.5 549.64 357.95 549.64 385.41 549.64 412.86 549.64 440.31 549.64 440.31 522.19 440.31 494.73 440.31 467.28 440.31 439.83 440.31 412.37 440.31 384.92 440.31 357.47 440.31 330.01 440.31 302.56 412.86 302.56 385.41 302.56 357.95 302.56 330.5 302.56 303.05 302.56 275.59 302.56 275.59 275.1 248.14 275.1 248.14 302.56"/>
    <polygon class="cls-1" points="687.4 302.56 687.4 330.01 687.4 357.47 687.4 384.92 714.85 384.92 714.85 357.47 714.85 330.01 714.85 302.56 714.85 275.1 714.85 247.65 687.4 247.65 687.4 275.1 687.4 302.56"/>
    <polygon class="cls-1" points="28.51 384.92 28.51 357.47 28.51 330.01 28.51 302.56 28.51 275.1 28.51 247.65 28.51 220.2 1.06 220.2 1.06 247.65 1.06 275.1 1.06 302.56 1.06 330.01 1.06 357.47 1.06 384.92 1.06 412.37 1.06 439.83 28.51 439.83 28.51 412.37 28.51 384.92"/>
    <rect class="cls-1" x="110.87" y="412.37" width="27.45" height="27.45"/>
    <rect class="cls-1" x="28.51" y="439.83" width="27.45" height="27.45"/>
    <rect class="cls-1" x="138.32" y="439.83" width="27.45" height="27.45"/>
    <rect class="cls-1" x="55.96" y="467.28" width="27.45" height="27.45"/>
    <polygon class="cls-1" points="687.4 467.28 687.4 439.83 659.94 439.83 659.94 467.28 659.94 494.73 687.4 494.73 687.4 467.28"/>
    <rect class="cls-1" x="83.42" y="494.73" width="27.45" height="27.45"/>
    <rect class="cls-1" x="632.49" y="494.73" width="27.45" height="27.45"/>
    <rect class="cls-1" x="110.87" y="522.19" width="27.45" height="27.45"/>
    <polygon class="cls-1" points="605.04 549.64 605.04 577.09 632.49 577.09 632.49 549.64 632.49 522.19 605.04 522.19 605.04 549.64"/>
    <rect class="cls-1" x="138.32" y="549.64" width="27.45" height="27.45"/>
    <rect class="cls-1" x="165.78" y="577.09" width="27.45" height="27.45"/>
    <rect class="cls-1" x="330.5" y="577.09" width="27.45" height="27.45"/>
    <rect class="cls-1" x="577.58" y="577.09" width="27.45" height="27.45"/>
    <rect class="cls-1" x="193.23" y="604.55" width="27.45" height="27.45"/>
    <rect class="cls-1" x="357.95" y="604.55" width="27.45" height="27.45"/>
    <polygon class="cls-1" points="550.13 632 550.13 659.46 577.58 659.46 577.58 632 577.58 604.55 550.13 604.55 550.13 632"/>
    <rect class="cls-1" x="220.68" y="632" width="27.45" height="27.45"/>
    <rect class="cls-1" x="385.41" y="632" width="27.45" height="27.45"/>
    <rect class="cls-1" x="248.14" y="659.46" width="27.45" height="27.45"/>
    <rect class="cls-1" x="412.86" y="659.46" width="27.45" height="27.45"/>
    <rect class="cls-1" x="522.67" y="659.46" width="27.45" height="27.45"/>
    <rect class="cls-1" x="275.59" y="686.91" width="27.45" height="27.45"/>
    <polygon class="cls-1" points="495.22 714.36 495.22 741.82 522.67 741.82 522.67 714.36 522.67 686.91 495.22 686.91 495.22 714.36"/>
    <rect class="cls-1" x="303.05" y="714.36" width="27.45" height="27.45"/>
    <rect class="cls-1" x="330.5" y="741.82" width="27.45" height="27.45"/>
    <rect class="cls-1" x="467.77" y="741.82" width="27.45" height="27.45"/>
    <rect class="cls-1" x="357.95" y="769.27" width="27.45" height="27.45"/>
    <rect class="cls-1" x="385.41" y="796.72" width="27.45" height="27.45"/>
    <rect class="cls-1" x="412.86" y="824.18" width="27.45" height="27.45"/>
    <polygon class="cls-1" points="193.23 851.63 193.23 879.09 220.68 879.09 220.68 906.54 248.14 906.54 248.14 879.09 248.14 851.63 220.68 851.63 193.23 851.63"/>
    <rect class="cls-1" x="440.31" y="851.63" width="27.45" height="27.45"/>
    <polygon class="cls-1" points="714.85 851.63 687.4 851.63 687.4 879.09 714.85 879.09 714.85 906.54 742.3 906.54 742.3 879.09 742.3 851.63 714.85 851.63"/>
  </g>
</svg>