<?xml version="1.0" encoding="UTF-8"?>
<svg id="egg" data-name="Calque 1" xmlns="http://www.w3.org/2000/svg" viewBox="0 0 908.09 908.09">
  <defs>
    <style>
      .cls-1 {
        fill: #aadcf8;
        stroke: #aadcf8;
      }

      .cls-1, .cls-2, .cls-3, .cls-4, .cls-5, .cls-6, .cls-7, .cls-8, .cls-9, .cls-10, .cls-11, .cls-12, .cls-13, .cls-14, .cls-15 {
        stroke-miterlimit: 10;
      }

      .cls-2 {
        fill: #c6a902;
        stroke: #c6a902;
      }

      .cls-3 {
        fill: #ffea64;
        stroke: #ffea64;
      }

      .cls-16 {
        fill: #eccb00;
        stroke-width: 0px;
      }

      .cls-4 {
        fill: #d73b8e;
        stroke: #d73b8e;
      }

      .cls-5 {
        fill: #7acdf4;
        stroke: #7acdf4;
      }

      .cls-6 {
        fill: #f5c9e0;
        stroke: #f5c9e0;
      }

      .cls-7 {
        fill: #dcbd03;
        stroke: #dcbd03;
      }

      .cls-8 {
        fill: #eba3c8;
        stroke: #eba3c8;
      }

      .cls-9 {
        fill: #ffe027;
        stroke: #ffe028;
      }

      .cls-10 {
        fill: #dc71aa;
        stroke: #dc71aa;
      }

      .cls-11 {
        fill: #cc167a;
        stroke: #cc167a;
      }

      .cls-12 {
        fill: #53c0ef;
        stroke: #53c0ef;
      }

      .cls-13 {
        fill: #fef3a2;
        stroke: #fff3a0;
      }

      .cls-14 {
        fill: #42a9e0;
        stroke: #42a9e0;
      }

      .cls-15 {
        fill: #048fce;
        stroke: #048fce;
      }
    </style>
  </defs>
  <polygon class="cls-11" points="440.3 660.2 440.3 632.71 412.81 632.71 412.81 605.22 385.32 605.22 385.32 577.74 357.84 577.74 357.84 550.25 357.84 522.76 330.35 522.76 330.35 550.25 330.35 577.74 330.35 605.22 330.35 632.71 357.84 632.71 357.84 660.2 385.32 660.2 385.32 687.69 412.81 687.69 440.3 687.69 467.79 687.69 467.79 660.2 440.3 660.2"/>
  <g>
    <rect class="cls-6" x="275.37" y="165.42" width="27.49" height="27.49"/>
    <rect class="cls-6" x="605.22" y="165.42" width="27.49" height="27.49"/>
    <rect class="cls-6" x="247.89" y="192.91" width="27.49" height="27.49"/>
    <rect class="cls-6" x="660.2" y="192.91" width="27.49" height="27.49"/>
    <rect class="cls-6" x="687.69" y="220.4" width="27.49" height="27.49"/>
    <rect class="cls-6" x="715.17" y="275.37" width="27.49" height="27.49"/>
    <rect class="cls-6" x="247.89" y="357.84" width="27.49" height="27.49"/>
    <rect class="cls-6" x="440.3" y="357.84" width="27.49" height="27.49"/>
    <rect class="cls-6" x="632.71" y="357.84" width="27.49" height="27.49"/>
    <rect class="cls-6" x="275.37" y="385.32" width="27.49" height="27.49"/>
    <rect class="cls-6" x="467.79" y="385.32" width="27.49" height="27.49"/>
    <rect class="cls-6" x="660.2" y="385.32" width="27.49" height="27.49"/>
    <rect class="cls-6" x="495.27" y="412.81" width="27.49" height="27.49"/>
    <rect class="cls-6" x="522.76" y="467.79" width="27.49" height="27.49"/>
    <rect class="cls-6" x="550.25" y="495.27" width="27.49" height="27.49"/>
    <rect class="cls-6" x="660.2" y="495.27" width="27.49" height="27.49"/>
    <rect class="cls-6" x="687.69" y="522.76" width="27.49" height="27.49"/>
    <rect class="cls-6" x="192.91" y="660.2" width="27.49" height="27.49"/>
    <rect class="cls-6" x="715.17" y="660.2" width="27.49" height="27.49"/>
  </g>
  <g>
    <polygon class="cls-10" points="522.76 577.74 522.76 550.25 495.27 550.25 495.27 522.76 467.79 522.76 467.79 495.27 467.79 467.79 440.3 467.79 440.3 440.3 412.81 440.3 412.81 412.81 385.32 412.81 385.32 440.3 385.32 467.79 357.84 467.79 357.84 495.27 357.84 522.76 385.32 522.76 385.32 550.25 412.81 550.25 412.81 577.74 440.3 577.74 440.3 605.22 467.79 605.22 467.79 632.71 467.79 660.2 495.27 660.2 495.27 687.69 522.76 687.69 522.76 660.2 550.25 660.2 550.25 632.71 550.25 605.22 522.76 605.22 522.76 577.74"/>
    <rect class="cls-10" x="247.89" y="412.81" width="27.49" height="27.49"/>
    <polygon class="cls-10" points="220.4 275.37 247.89 275.37 247.89 247.89 247.89 220.4 220.4 220.4 192.91 220.4 192.91 247.89 220.4 247.89 220.4 275.37"/>
    <rect class="cls-10" x="632.71" y="220.4" width="27.49" height="27.49"/>
    <rect class="cls-10" x="302.86" y="302.86" width="27.49" height="27.49"/>
    <rect class="cls-10" x="220.4" y="385.32" width="27.49" height="27.49"/>
    <rect class="cls-10" x="605.22" y="385.32" width="27.49" height="27.49"/>
    <rect class="cls-10" x="632.71" y="412.81" width="27.49" height="27.49"/>
    <rect class="cls-10" x="632.71" y="522.76" width="27.49" height="27.49"/>
    <rect class="cls-10" x="660.2" y="550.25" width="27.49" height="27.49"/>
    <rect class="cls-10" x="165.42" y="687.69" width="27.49" height="27.49"/>
    <rect class="cls-10" x="687.69" y="687.69" width="27.49" height="27.49"/>
  </g>
  <g>
    <rect class="cls-4" x="330.35" y="495.27" width="27.49" height="27.49"/>
    <polygon class="cls-4" points="467.79 605.22 440.3 605.22 440.3 577.74 412.81 577.74 412.81 550.25 385.32 550.25 385.32 522.76 357.84 522.76 357.84 550.25 357.84 577.74 385.32 577.74 385.32 605.22 412.81 605.22 412.81 632.71 440.3 632.71 440.3 660.2 467.79 660.2 467.79 632.71 467.79 605.22"/>
    <rect class="cls-4" x="467.79" y="660.2" width="27.49" height="27.49"/>
    <rect class="cls-4" x="192.91" y="247.89" width="27.49" height="27.49"/>
    <rect class="cls-4" x="660.2" y="247.89" width="27.49" height="27.49"/>
    <rect class="cls-4" x="165.42" y="275.37" width="27.49" height="27.49"/>
    <rect class="cls-4" x="192.91" y="385.32" width="27.49" height="27.49"/>
    <rect class="cls-4" x="577.74" y="385.32" width="27.49" height="27.49"/>
    <rect class="cls-4" x="220.4" y="412.81" width="27.49" height="27.49"/>
    <rect class="cls-4" x="605.22" y="412.81" width="27.49" height="27.49"/>
    <rect class="cls-4" x="632.71" y="550.25" width="27.49" height="27.49"/>
    <rect class="cls-4" x="660.2" y="577.74" width="27.49" height="27.49"/>
    <rect class="cls-4" x="137.94" y="715.17" width="27.49" height="27.49"/>
  </g>
  <g>
    <polygon class="cls-8" points="550.25 495.27 522.76 495.27 522.76 467.79 522.76 440.3 495.27 440.3 495.27 412.81 467.79 412.81 467.79 385.32 440.3 385.32 412.81 385.32 412.81 412.81 412.81 440.3 440.3 440.3 440.3 467.79 467.79 467.79 467.79 495.27 467.79 522.76 495.27 522.76 495.27 550.25 522.76 550.25 522.76 577.74 522.76 605.22 550.25 605.22 550.25 632.71 577.74 632.71 577.74 605.22 577.74 577.74 577.74 550.25 577.74 522.76 550.25 522.76 550.25 495.27"/>
    <rect class="cls-8" x="220.4" y="192.91" width="27.49" height="27.49"/>
    <rect class="cls-8" x="632.71" y="192.91" width="27.49" height="27.49"/>
    <rect class="cls-8" x="247.89" y="220.4" width="27.49" height="27.49"/>
    <rect class="cls-8" x="660.2" y="220.4" width="27.49" height="27.49"/>
    <rect class="cls-8" x="687.69" y="247.89" width="27.49" height="27.49"/>
    <rect class="cls-8" x="522.76" y="302.86" width="27.49" height="27.49"/>
    <rect class="cls-8" x="220.4" y="357.84" width="27.49" height="27.49"/>
    <rect class="cls-8" x="605.22" y="357.84" width="27.49" height="27.49"/>
    <rect class="cls-8" x="247.89" y="385.32" width="27.49" height="27.49"/>
    <rect class="cls-8" x="632.71" y="385.32" width="27.49" height="27.49"/>
    <rect class="cls-8" x="660.2" y="522.76" width="27.49" height="27.49"/>
    <rect class="cls-8" x="687.69" y="550.25" width="27.49" height="27.49"/>
    <rect class="cls-8" x="165.42" y="660.2" width="27.49" height="27.49"/>
    <rect class="cls-8" x="687.69" y="660.2" width="27.49" height="27.49"/>
    <rect class="cls-8" x="192.91" y="687.69" width="27.49" height="27.49"/>
    <rect class="cls-8" x="715.17" y="687.69" width="27.49" height="27.49"/>
    <rect class="cls-8" x="742.66" y="715.17" width="27.49" height="27.49"/>
  </g>
  <g>
    <rect class="cls-1" x="440.3" y="55.47" width="27.49" height="27.49"/>
    <rect class="cls-1" x="467.79" y="82.96" width="27.49" height="27.49"/>
    <rect class="cls-1" x="495.27" y="137.94" width="27.49" height="27.49"/>
    <rect class="cls-1" x="55.47" y="440.3" width="27.49" height="27.49"/>
    <rect class="cls-1" x="825.12" y="440.3" width="27.49" height="27.49"/>
    <rect class="cls-1" x="82.96" y="467.79" width="27.49" height="27.49"/>
    <rect class="cls-1" x="852.61" y="467.79" width="27.49" height="27.49"/>
    <rect class="cls-1" x="110.45" y="495.27" width="27.49" height="27.49"/>
    <rect class="cls-1" x="220.4" y="495.27" width="27.49" height="27.49"/>
    <rect class="cls-1" x="137.94" y="522.76" width="27.49" height="27.49"/>
    <rect class="cls-1" x="247.89" y="522.76" width="27.49" height="27.49"/>
    <rect class="cls-1" x="275.37" y="742.66" width="27.49" height="27.49"/>
    <rect class="cls-1" x="440.3" y="742.66" width="27.49" height="27.49"/>
    <rect class="cls-1" x="632.71" y="742.66" width="27.49" height="27.49"/>
  </g>
  <g>
    <rect class="cls-5" x="467.79" y="110.45" width="27.49" height="27.49"/>
    <rect class="cls-5" x="495.27" y="165.42" width="27.49" height="27.49"/>
    <rect class="cls-5" x="55.47" y="467.79" width="27.49" height="27.49"/>
    <rect class="cls-5" x="82.96" y="495.27" width="27.49" height="27.49"/>
    <polygon class="cls-5" points="852.61 495.27 852.61 467.79 825.12 467.79 825.12 495.27 825.12 522.76 852.61 522.76 852.61 550.25 852.61 577.74 880.1 577.74 880.1 550.25 880.1 522.76 880.1 495.27 852.61 495.27"/>
    <polygon class="cls-5" points="137.94 522.76 110.45 522.76 110.45 550.25 110.45 577.74 137.94 577.74 165.42 577.74 165.42 550.25 137.94 550.25 137.94 522.76"/>
    <rect class="cls-5" x="247.89" y="550.25" width="27.49" height="27.49"/>
    <polygon class="cls-5" points="632.71 742.66 605.22 742.66 605.22 770.15 605.22 797.64 632.71 797.64 660.2 797.64 660.2 770.15 632.71 770.15 632.71 742.66"/>
    <rect class="cls-5" x="302.86" y="770.15" width="27.49" height="27.49"/>
    <rect class="cls-5" x="467.79" y="770.15" width="27.49" height="27.49"/>
  </g>
  <g>
    <polygon class="cls-12" points="467.79 82.96 440.3 82.96 412.81 82.96 412.81 110.45 440.3 110.45 440.3 137.94 467.79 137.94 467.79 110.45 467.79 82.96"/>
    <polygon class="cls-12" points="467.79 165.42 467.79 192.91 467.79 220.4 495.27 220.4 495.27 192.91 495.27 165.42 495.27 137.94 467.79 137.94 467.79 165.42"/>
    <rect class="cls-12" x="220.4" y="522.76" width="27.49" height="27.49"/>
    <polygon class="cls-12" points="110.45 550.25 110.45 522.76 82.96 522.76 82.96 495.27 55.47 495.27 55.47 467.79 27.99 467.79 27.99 495.27 27.99 522.76 55.47 522.76 55.47 550.25 82.96 550.25 82.96 577.74 82.96 605.22 110.45 605.22 137.94 605.22 137.94 577.74 110.45 577.74 110.45 550.25"/>
    <polygon class="cls-12" points="852.61 577.74 852.61 550.25 852.61 522.76 825.12 522.76 825.12 495.27 825.12 467.79 797.64 467.79 797.64 495.27 797.64 522.76 797.64 550.25 825.12 550.25 825.12 577.74 825.12 605.22 852.61 605.22 852.61 632.71 880.1 632.71 880.1 605.22 880.1 577.74 852.61 577.74"/>
    <rect class="cls-12" x="275.37" y="770.15" width="27.49" height="27.49"/>
    <polygon class="cls-12" points="467.79 770.15 440.3 770.15 412.81 770.15 412.81 797.64 440.3 797.64 440.3 825.12 467.79 825.12 495.27 825.12 495.27 797.64 467.79 797.64 467.79 770.15"/>
    <polygon class="cls-12" points="605.22 770.15 577.74 770.15 577.74 797.64 577.74 825.12 605.22 825.12 632.71 825.12 632.71 797.64 605.22 797.64 605.22 770.15"/>
  </g>
  <g>
    <polygon class="cls-14" points="440.3 192.91 440.3 220.4 467.79 220.4 467.79 192.91 467.79 165.42 467.79 137.94 440.3 137.94 440.3 110.45 412.81 110.45 412.81 137.94 412.81 165.42 440.3 165.42 440.3 192.91"/>
    <rect class="cls-14" x="192.91" y="522.76" width="27.49" height="27.49"/>
    <polygon class="cls-14" points="82.96 550.25 55.47 550.25 55.47 522.76 27.99 522.76 27.99 550.25 27.99 577.74 55.47 577.74 55.47 605.22 82.96 605.22 82.96 577.74 82.96 550.25"/>
    <rect class="cls-14" x="220.4" y="550.25" width="27.49" height="27.49"/>
    <rect class="cls-14" x="82.96" y="605.22" width="27.49" height="27.49"/>
    <polygon class="cls-14" points="825.12 605.22 825.12 577.74 825.12 550.25 797.64 550.25 797.64 522.76 797.64 495.27 770.15 495.27 770.15 522.76 770.15 550.25 770.15 577.74 797.64 577.74 797.64 605.22 797.64 632.71 825.12 632.71 825.12 660.2 852.61 660.2 852.61 632.71 852.61 605.22 825.12 605.22"/>
    <rect class="cls-14" x="247.89" y="742.66" width="27.49" height="27.49"/>
    <polygon class="cls-14" points="550.25 797.64 522.76 797.64 495.27 797.64 495.27 825.12 522.76 825.12 550.25 825.12 577.74 825.12 577.74 797.64 550.25 797.64"/>
    <polygon class="cls-14" points="440.3 825.12 440.3 797.64 412.81 797.64 385.32 797.64 357.84 797.64 330.35 797.64 302.86 797.64 302.86 825.12 330.35 825.12 357.84 825.12 385.32 825.12 412.81 825.12 412.81 852.61 440.3 852.61 467.79 852.61 495.27 852.61 495.27 825.12 467.79 825.12 440.3 825.12"/>
    <rect class="cls-14" x="577.74" y="825.12" width="27.49" height="27.49"/>
  </g>
  <g>
    <polygon class="cls-15" points="412.81 220.4 440.3 220.4 440.3 192.91 440.3 165.42 412.81 165.42 412.81 137.94 385.32 137.94 385.32 165.42 385.32 192.91 412.81 192.91 412.81 220.4"/>
    <polygon class="cls-15" points="770.15 522.76 742.66 522.76 742.66 550.25 742.66 577.74 770.15 577.74 770.15 550.25 770.15 522.76"/>
    <rect class="cls-15" x="192.91" y="550.25" width="27.49" height="27.49"/>
    <polygon class="cls-15" points="55.47 577.74 27.99 577.74 27.99 605.22 27.99 632.71 27.99 660.2 55.47 660.2 82.96 660.2 82.96 632.71 82.96 605.22 55.47 605.22 55.47 577.74"/>
    <rect class="cls-15" x="220.4" y="577.74" width="27.49" height="27.49"/>
    <rect class="cls-15" x="770.15" y="577.74" width="27.49" height="27.49"/>
    <rect class="cls-15" x="247.89" y="770.15" width="27.49" height="27.49"/>
    <rect class="cls-15" x="275.37" y="797.64" width="27.49" height="27.49"/>
    <polygon class="cls-15" points="522.76 825.12 495.27 825.12 495.27 852.61 467.79 852.61 440.3 852.61 412.81 852.61 412.81 825.12 385.32 825.12 357.84 825.12 330.35 825.12 302.86 825.12 302.86 852.61 330.35 852.61 357.84 852.61 357.84 880.1 385.32 880.1 412.81 880.1 440.3 880.1 467.79 880.1 495.27 880.1 522.76 880.1 550.25 880.1 550.25 852.61 577.74 852.61 577.74 825.12 550.25 825.12 522.76 825.12"/>
  </g>
  <g>
    <polygon class="cls-2" points="55.47 466.76 55.47 439.27 82.96 439.27 82.96 466.76 110.45 466.76 110.45 439.27 110.45 411.78 110.45 384.29 82.96 384.29 82.96 356.81 82.96 329.32 82.96 301.83 55.47 301.83 55.47 329.32 55.47 356.81 27.99 356.81 27.99 384.29 27.99 411.78 .5 411.78 .5 439.27 .5 466.76 27.99 466.76 55.47 466.76"/>
    <polygon class="cls-2" points="110.45 742.66 110.45 715.17 110.45 687.69 82.96 687.69 82.96 686.66 110.45 686.66 110.45 659.17 137.94 659.17 137.94 631.68 137.94 604.19 110.45 604.19 110.45 631.68 82.96 631.68 82.96 659.17 82.96 660.2 55.47 660.2 27.99 660.2 27.99 632.71 27.99 605.22 27.99 577.74 27.99 550.25 27.99 522.76 27.99 495.27 27.99 467.79 .5 467.79 .5 495.27 .5 522.76 .5 550.25 .5 577.74 .5 605.22 .5 632.71 .5 660.2 .5 687.69 .5 715.17 27.99 715.17 27.99 742.66 55.47 742.66 55.47 770.15 82.96 770.15 82.96 797.64 110.45 797.64 110.45 770.15 110.45 742.66"/>
    <rect class="cls-2" x="110.45" y="797.64" width="27.49" height="27.49"/>
    <polygon class="cls-2" points="165.42 851.58 165.42 825.12 137.94 825.12 137.94 852.61 165.42 852.61 165.42 879.07 192.91 879.07 192.91 851.58 165.42 851.58"/>
    <polygon class="cls-2" points="220.4 879.07 192.91 879.07 192.91 906.56 220.4 906.56 247.89 906.56 247.89 879.07 220.4 879.07"/>
  </g>
  <path class="cls-7" d="M302.86,880.1h-27.49v-27.49h-27.49v-27.49h-27.49v-82.46h27.49v-82.46h27.49v-82.46h-27.49v27.49h-27.49v-27.49h-27.49v-54.97h27.49v-27.49h27.49v27.49h27.49v-54.97h-27.49v-27.49h-27.49v-27.49h-27.49v-27.49h27.49v-82.46h-54.97v-27.49h27.49v-54.97h-27.49v-27.49h-27.49v27.49h-27.49v54.97h-27.49v109.95h27.49v109.95h27.49v27.49h27.49v54.97h-27.49v82.46h-27.49v137.44h27.49v27.49h27.49v27.49h27.49v27.49h54.97v27.49h82.46v-27.49h-27.49ZM137.94,715.17h27.49v-54.97h54.97v54.97h-54.97v27.49h-27.49v-27.49Z"/>
  <g>
    <path class="cls-16" d="M357.84,797.64h54.97v-27.49h27.49v-54.97h27.49v-27.49h-82.46v-27.49h-27.49v-27.49h-27.49v-137.44h27.49v-27.49h27.49v-54.97h27.49v-27.49h27.49v-82.46h-27.49v-27.49h0v-27.49h-27.49v-27.49h-54.97v-54.97h-27.49v27.49h-27.49v54.97h-27.49v27.49h-27.49s-27.49,0-27.49,0v27.49h27.49v54.97h54.97v27.49h27.49v27.49h-27.49v27.49h-27.49v27.49h27.49v192.41h-27.49v82.46h54.97v27.49h27.49v27.49h27.49ZM302.86,302.86h27.49v27.49h-27.49v-27.49Z"/>
    <polygon class="cls-16" points="302.86 165.42 302.86 137.94 302.86 110.45 275.37 110.45 275.37 82.96 247.89 82.96 247.89 110.45 220.4 110.45 220.4 137.94 192.91 137.94 192.91 165.42 165.42 165.42 165.42 192.91 165.42 220.4 192.91 220.4 220.4 220.4 220.4 192.91 247.89 192.91 275.37 192.91 275.37 165.42 302.86 165.42"/>
    <polygon class="cls-16" points="220.4 770.15 220.4 797.64 220.4 825.12 247.89 825.12 247.89 852.61 275.37 852.61 275.37 880.1 302.86 880.1 330.35 880.1 330.35 907.59 357.84 907.59 385.32 907.59 412.81 907.59 440.3 907.59 467.79 907.59 467.79 880.1 440.3 880.1 412.81 880.1 385.32 880.1 357.84 880.1 357.84 852.61 330.35 852.61 302.86 852.61 302.86 825.12 275.37 825.12 275.37 797.64 247.89 797.64 247.89 770.15 247.89 742.66 220.4 742.66 220.4 770.15"/>
  </g>
  <g>
    <path class="cls-9" d="M660.2,440.3h-54.97v-27.49h-27.49v-27.49h27.49v-27.49h27.49v-54.97h-27.49v-54.97h-27.49v-27.49h-27.49v-27.49h-54.97v27.49h-82.46v-27.49h-27.49v-54.97h27.49v-54.97h-27.49v-27.49h-27.49v-27.49h-27.49v27.49h-27.49v27.49h-27.49v27.49h27.49v54.97h27.49v54.97h54.97v27.49h27.49v54.97h27.49v54.97h27.49v27.49h27.49v27.49h27.49v54.97h27.49v27.49h27.49v137.44h-27.49v27.49h-27.49v27.49h-54.97v27.49h-27.49v27.49h27.49v27.49h27.49v27.49h82.46v-27.49h27.49v-27.49h54.97v-82.46h27.49v-54.97h-27.49v-27.49h-27.49v-54.97h27.49v-27.49h27.49v-54.97h-27.49ZM550.25,330.35h-27.49v-27.49h27.49v27.49Z"/>
    <rect class="cls-9" x="550.25" y="852.61" width="27.49" height="27.49"/>
    <polygon class="cls-9" points="495.27 880.1 467.79 880.1 467.79 907.59 495.27 907.59 522.76 907.59 550.25 907.59 550.25 880.1 522.76 880.1 495.27 880.1"/>
  </g>
  <g>
    <rect class="cls-3" x="467.79" y="55.47" width="27.49" height="27.49"/>
    <polygon class="cls-3" points="687.69 715.17 687.69 687.69 687.69 660.2 660.2 660.2 660.2 687.69 660.2 715.17 660.2 742.66 660.2 770.15 660.2 797.64 632.71 797.64 632.71 825.12 605.22 825.12 605.22 852.61 577.74 852.61 577.74 880.1 550.25 880.1 550.25 907.59 577.74 907.59 605.22 907.59 632.71 907.59 660.2 907.59 660.2 880.1 687.69 880.1 687.69 852.61 715.17 852.61 715.17 825.12 715.17 797.64 742.66 797.64 742.66 770.15 770.15 770.15 770.15 742.66 742.66 742.66 742.66 715.17 715.17 715.17 687.69 715.17"/>
    <polygon class="cls-3" points="412.81 .5 385.32 .5 385.32 27.99 357.84 27.99 357.84 55.47 385.32 55.47 385.32 82.96 412.81 82.96 440.3 82.96 440.3 55.47 440.3 27.99 412.81 27.99 412.81 .5"/>
    <polygon class="cls-3" points="797.64 632.71 797.64 605.22 770.15 605.22 770.15 577.74 742.66 577.74 742.66 550.25 742.66 522.76 742.66 522.76 770.15 522.76 770.15 495.27 797.64 495.27 797.64 467.79 797.64 440.3 797.64 412.81 797.64 385.32 797.64 357.84 770.15 357.84 770.15 330.35 742.66 330.35 742.66 302.86 715.17 302.86 715.17 275.37 687.69 275.37 660.2 275.37 660.2 247.89 632.71 247.89 632.71 220.4 632.71 192.91 605.22 192.91 605.22 165.42 632.71 165.42 632.71 137.94 605.22 137.94 577.74 137.94 577.74 110.45 550.25 110.45 550.25 82.96 522.76 82.96 495.27 82.96 495.27 110.45 495.27 137.94 522.76 137.94 522.76 165.42 522.76 192.91 550.25 192.91 550.25 220.4 577.74 220.4 577.74 247.89 605.22 247.89 605.22 275.37 605.22 302.86 632.71 302.86 632.71 330.35 632.71 357.84 660.2 357.84 660.2 385.32 687.69 385.32 687.69 412.81 660.2 412.81 660.2 440.3 687.69 440.3 687.69 467.79 687.69 495.27 687.69 522.76 715.17 522.76 715.17 550.25 715.17 577.74 687.69 577.74 687.69 605.22 687.69 632.71 687.69 660.2 715.17 660.2 742.66 660.2 742.66 687.69 742.66 715.17 770.15 715.17 797.64 715.17 797.64 687.69 797.64 660.2 825.12 660.2 825.12 632.71 797.64 632.71"/>
  </g>
  <polygon class="cls-13" points="880.1 412.81 880.1 385.32 880.1 357.84 852.61 357.84 852.61 330.35 825.12 330.35 825.12 302.86 825.12 275.37 797.64 275.37 797.64 247.89 770.15 247.89 770.15 220.4 770.15 192.91 742.66 192.91 742.66 165.42 715.17 165.42 715.17 137.94 687.69 137.94 687.69 110.45 660.2 110.45 660.2 82.96 632.71 82.96 605.22 82.96 605.22 55.47 577.74 55.47 577.74 27.99 550.25 27.99 522.76 27.99 522.76 .5 495.27 .5 467.79 .5 440.3 .5 412.81 .5 412.81 27.99 440.3 27.99 440.3 55.47 467.79 55.47 495.27 55.47 495.27 82.96 522.76 82.96 550.25 82.96 550.25 110.45 577.74 110.45 577.74 137.94 605.22 137.94 632.71 137.94 632.71 165.42 632.71 192.91 660.2 192.91 687.69 192.91 687.69 220.4 715.17 220.4 715.17 247.89 715.17 275.37 742.66 275.37 742.66 302.86 742.66 330.35 770.15 330.35 770.15 357.84 797.64 357.84 797.64 385.32 797.64 412.81 797.64 440.3 797.64 467.79 825.12 467.79 825.12 440.3 852.61 440.3 852.61 467.79 880.1 467.79 880.1 495.27 880.1 522.76 880.1 550.25 880.1 577.74 880.1 605.22 880.1 632.71 852.61 632.71 852.61 660.2 825.12 660.2 797.64 660.2 797.64 687.69 797.64 715.17 770.15 715.17 770.15 742.66 770.15 770.15 742.66 770.15 742.66 797.64 715.17 797.64 715.17 825.12 715.17 852.61 687.69 852.61 687.69 880.1 660.2 880.1 660.2 907.59 687.69 907.59 715.17 907.59 715.17 880.1 742.66 880.1 742.66 852.61 770.15 852.61 770.15 825.12 797.64 825.12 797.64 797.64 825.12 797.64 825.12 770.15 852.61 770.15 852.61 742.66 880.1 742.66 880.1 715.17 907.59 715.17 907.59 687.69 907.59 660.2 907.59 632.71 907.59 605.22 907.59 577.74 907.59 550.25 907.59 522.76 907.59 495.27 907.59 467.79 907.59 440.3 907.59 412.81 880.1 412.81"/>
</svg>