<?xml version="1.0" encoding="UTF-8"?>
<svg id="flash" data-name="Calque 1" xmlns="http://www.w3.org/2000/svg" viewBox="0 0 908.49 908.49">
  <defs>
    <style>
      .cls-1 {
        fill: #a0d9f2;
      }

      .cls-1, .cls-2, .cls-3 {
        stroke-width: 0px;
      }

      .cls-4 {
        fill: #f8e92a;
        stroke: #f9e927;
      }

      .cls-4, .cls-5, .cls-6, .cls-7 {
        stroke-miterlimit: 10;
      }

      .cls-5 {
        fill: #4cc2ee;
        stroke: #4cc2ed;
      }

      .cls-2 {
        fill: #74ccf4;
      }

      .cls-3 {
        fill: #c3e5f4;
      }

      .cls-6 {
        fill: #dff1f9;
        stroke: #dff1f9;
      }

      .cls-7 {
        fill: #fdf7c6;
        stroke: #fdf7c6;
      }
    </style>
  </defs>
  <g>
    <polygon class="cls-3" points="468.19 358.24 468.19 330.76 468.19 303.27 440.71 303.27 440.71 330.76 440.71 358.24 440.71 385.73 468.19 385.73 468.19 358.24"/>
    <rect class="cls-3" x="440.71" y="413.22" width="27.49" height="27.49"/>
    <polygon class="cls-3" points="330.76 440.71 303.27 440.71 303.27 468.19 330.76 468.19 358.24 468.19 385.73 468.19 385.73 440.71 358.24 440.71 330.76 440.71"/>
    <rect class="cls-3" x="413.22" y="440.71" width="27.49" height="27.49"/>
    <rect class="cls-3" x="468.19" y="440.71" width="27.49" height="27.49"/>
    <polygon class="cls-3" points="578.14 440.71 550.66 440.71 523.17 440.71 523.17 468.19 550.66 468.19 578.14 468.19 605.63 468.19 605.63 440.71 578.14 440.71"/>
    <rect class="cls-3" x="440.71" y="468.19" width="27.49" height="27.49"/>
    <polygon class="cls-3" points="440.71 550.66 440.71 578.14 440.71 605.63 468.19 605.63 468.19 578.14 468.19 550.66 468.19 523.17 440.71 523.17 440.71 550.66"/>
  </g>
  <g>
    <rect class="cls-6" x="440.71" y="385.73" width="27.49" height="27.49"/>
    <rect class="cls-6" x="495.68" y="440.71" width="27.49" height="27.49"/>
    <rect class="cls-6" x="440.71" y="138.34" width="27.49" height="27.49"/>
    <rect class="cls-6" x="440.71" y="275.78" width="27.49" height="27.49"/>
    <rect class="cls-6" x="303.27" y="303.27" width="27.49" height="27.49"/>
    <rect class="cls-6" x="578.14" y="303.27" width="27.49" height="27.49"/>
    <rect class="cls-6" x="330.76" y="330.76" width="27.49" height="27.49"/>
    <rect class="cls-6" x="550.66" y="330.76" width="27.49" height="27.49"/>
    <rect class="cls-6" x="358.24" y="358.24" width="27.49" height="27.49"/>
    <rect class="cls-6" x="523.17" y="358.24" width="27.49" height="27.49"/>
    <rect class="cls-6" x="385.73" y="385.73" width="27.49" height="27.49"/>
    <rect class="cls-6" x="495.68" y="385.73" width="27.49" height="27.49"/>
    <rect class="cls-6" x="413.22" y="413.22" width="27.49" height="27.49"/>
    <rect class="cls-6" x="468.19" y="413.22" width="27.49" height="27.49"/>
    <rect class="cls-6" x="138.34" y="440.71" width="27.49" height="27.49"/>
    <rect class="cls-6" x="275.78" y="440.71" width="27.49" height="27.49"/>
    <rect class="cls-6" x="385.73" y="440.71" width="27.49" height="27.49"/>
    <rect class="cls-6" x="605.63" y="440.71" width="27.49" height="27.49"/>
    <rect class="cls-6" x="743.07" y="440.71" width="27.49" height="27.49"/>
    <rect class="cls-6" x="413.22" y="468.19" width="27.49" height="27.49"/>
    <rect class="cls-6" x="468.19" y="468.19" width="27.49" height="27.49"/>
    <rect class="cls-6" x="385.73" y="495.68" width="27.49" height="27.49"/>
    <rect class="cls-6" x="440.71" y="495.68" width="27.49" height="27.49"/>
    <rect class="cls-6" x="495.68" y="495.68" width="27.49" height="27.49"/>
    <rect class="cls-6" x="358.24" y="523.17" width="27.49" height="27.49"/>
    <rect class="cls-6" x="523.17" y="523.17" width="27.49" height="27.49"/>
    <rect class="cls-6" x="330.76" y="550.66" width="27.49" height="27.49"/>
    <rect class="cls-6" x="550.66" y="550.66" width="27.49" height="27.49"/>
    <rect class="cls-6" x="440.71" y="605.63" width="27.49" height="27.49"/>
    <rect class="cls-6" x="440.71" y="743.07" width="27.49" height="27.49"/>
  </g>
  <g>
    <rect class="cls-1" x="138.34" y="138.34" width="27.49" height="27.49"/>
    <rect class="cls-1" x="743.07" y="138.34" width="27.49" height="27.49"/>
    <rect class="cls-1" x="165.83" y="165.83" width="27.49" height="27.49"/>
    <polygon class="cls-1" points="440.71 193.32 440.71 220.81 440.71 248.29 440.71 275.78 468.19 275.78 468.19 248.29 468.19 220.81 468.19 193.32 468.19 165.83 440.71 165.83 440.71 193.32"/>
    <rect class="cls-1" x="715.58" y="165.83" width="27.49" height="27.49"/>
    <rect class="cls-1" x="193.32" y="193.32" width="27.49" height="27.49"/>
    <rect class="cls-1" x="688.09" y="193.32" width="27.49" height="27.49"/>
    <rect class="cls-1" x="220.81" y="220.81" width="27.49" height="27.49"/>
    <rect class="cls-1" x="660.61" y="220.81" width="27.49" height="27.49"/>
    <rect class="cls-1" x="248.29" y="248.29" width="27.49" height="27.49"/>
    <rect class="cls-1" x="633.12" y="248.29" width="27.49" height="27.49"/>
    <rect class="cls-1" x="275.78" y="275.78" width="27.49" height="27.49"/>
    <rect class="cls-1" x="605.63" y="275.78" width="27.49" height="27.49"/>
    <polygon class="cls-1" points="220.81 440.71 193.32 440.71 165.83 440.71 165.83 468.19 193.32 468.19 220.81 468.19 248.29 468.19 275.78 468.19 275.78 440.71 248.29 440.71 220.81 440.71"/>
    <polygon class="cls-1" points="688.09 468.19 715.58 468.19 743.07 468.19 743.07 440.71 715.58 440.71 688.09 440.71 660.61 440.71 633.12 440.71 633.12 468.19 660.61 468.19 688.09 468.19"/>
    <rect class="cls-1" x="303.27" y="578.14" width="27.49" height="27.49"/>
    <rect class="cls-1" x="578.14" y="578.14" width="27.49" height="27.49"/>
    <rect class="cls-1" x="275.78" y="605.63" width="27.49" height="27.49"/>
    <rect class="cls-1" x="605.63" y="605.63" width="27.49" height="27.49"/>
    <rect class="cls-1" x="248.29" y="633.12" width="27.49" height="27.49"/>
    <polygon class="cls-1" points="440.71 660.61 440.71 688.09 440.71 715.58 440.71 743.07 468.19 743.07 468.19 715.58 468.19 688.09 468.19 660.61 468.19 633.12 440.71 633.12 440.71 660.61"/>
    <rect class="cls-1" x="633.12" y="633.12" width="27.49" height="27.49"/>
    <rect class="cls-1" x="220.81" y="660.61" width="27.49" height="27.49"/>
    <rect class="cls-1" x="660.61" y="660.61" width="27.49" height="27.49"/>
    <rect class="cls-1" x="193.32" y="688.09" width="27.49" height="27.49"/>
    <rect class="cls-1" x="688.09" y="688.09" width="27.49" height="27.49"/>
    <rect class="cls-1" x="165.83" y="715.58" width="27.49" height="27.49"/>
    <rect class="cls-1" x="715.58" y="715.58" width="27.49" height="27.49"/>
    <rect class="cls-1" x="138.34" y="743.07" width="27.49" height="27.49"/>
    <rect class="cls-1" x="743.07" y="743.07" width="27.49" height="27.49"/>
  </g>
  <g>
    <polygon class="cls-2" points="440.71 385.73 440.71 358.24 440.71 330.76 440.71 303.27 440.71 275.78 413.22 275.78 413.22 303.27 413.22 330.76 413.22 358.24 413.22 385.73 413.22 413.22 440.71 413.22 440.71 385.73"/>
    <rect class="cls-2" x="110.86" y="110.86" width="27.49" height="27.49"/>
    <rect class="cls-2" x="770.56" y="110.86" width="27.49" height="27.49"/>
    <rect class="cls-2" x="110.86" y="770.56" width="27.49" height="27.49"/>
    <rect class="cls-2" x="770.56" y="770.56" width="27.49" height="27.49"/>
    <polygon class="cls-2" points="468.19 110.86 468.19 83.37 440.71 83.37 440.71 110.86 440.71 138.34 468.19 138.34 468.19 110.86"/>
    <polygon class="cls-2" points="495.68 358.24 495.68 330.76 495.68 303.27 495.68 275.78 468.19 275.78 468.19 303.27 468.19 330.76 468.19 358.24 468.19 385.73 468.19 413.22 495.68 413.22 495.68 385.73 495.68 358.24"/>
    <polygon class="cls-2" points="330.76 440.71 358.24 440.71 385.73 440.71 413.22 440.71 413.22 413.22 385.73 413.22 358.24 413.22 330.76 413.22 303.27 413.22 275.78 413.22 275.78 440.71 303.27 440.71 330.76 440.71"/>
    <polygon class="cls-2" points="578.14 413.22 550.66 413.22 523.17 413.22 495.68 413.22 495.68 440.71 523.17 440.71 550.66 440.71 578.14 440.71 605.63 440.71 633.12 440.71 633.12 413.22 605.63 413.22 578.14 413.22"/>
    <polygon class="cls-2" points="83.37 440.71 83.37 468.19 110.86 468.19 138.34 468.19 138.34 440.71 110.86 440.71 83.37 440.71"/>
    <polygon class="cls-2" points="798.04 440.71 770.56 440.71 770.56 468.19 798.04 468.19 825.53 468.19 825.53 440.71 798.04 440.71"/>
    <polygon class="cls-2" points="385.73 468.19 358.24 468.19 330.76 468.19 303.27 468.19 275.78 468.19 275.78 495.68 303.27 495.68 330.76 495.68 358.24 495.68 385.73 495.68 413.22 495.68 413.22 468.19 385.73 468.19"/>
    <polygon class="cls-2" points="578.14 468.19 550.66 468.19 523.17 468.19 495.68 468.19 495.68 495.68 523.17 495.68 550.66 495.68 578.14 495.68 605.63 495.68 633.12 495.68 633.12 468.19 605.63 468.19 578.14 468.19"/>
    <polygon class="cls-2" points="413.22 550.66 413.22 578.14 413.22 605.63 413.22 633.12 440.71 633.12 440.71 605.63 440.71 578.14 440.71 550.66 440.71 523.17 440.71 495.68 413.22 495.68 413.22 523.17 413.22 550.66"/>
    <polygon class="cls-2" points="468.19 523.17 468.19 550.66 468.19 578.14 468.19 605.63 468.19 633.12 495.68 633.12 495.68 605.63 495.68 578.14 495.68 550.66 495.68 523.17 495.68 495.68 468.19 495.68 468.19 523.17"/>
    <polygon class="cls-2" points="440.71 798.04 440.71 825.53 468.19 825.53 468.19 798.04 468.19 770.56 440.71 770.56 440.71 798.04"/>
  </g>
  <g>
    <rect class="cls-4" x="28.39" y="28.39" width="27.49" height="27.49"/>
    <rect class="cls-4" x="853.02" y="28.39" width="27.49" height="27.49"/>
    <rect class="cls-4" x="248.29" y="110.86" width="27.49" height="27.49"/>
    <polygon class="cls-4" points="385.73 138.34 385.73 165.83 413.22 165.83 413.22 138.34 413.22 110.86 385.73 110.86 385.73 138.34"/>
    <polygon class="cls-4" points="495.68 138.34 495.68 165.83 523.17 165.83 523.17 138.34 523.17 110.86 495.68 110.86 495.68 138.34"/>
    <rect class="cls-4" x="633.12" y="110.86" width="27.49" height="27.49"/>
    <rect class="cls-4" x="110.86" y="248.29" width="27.49" height="27.49"/>
    <rect class="cls-4" x="330.76" y="248.29" width="27.49" height="27.49"/>
    <rect class="cls-4" x="550.66" y="248.29" width="27.49" height="27.49"/>
    <rect class="cls-4" x="770.56" y="248.29" width="27.49" height="27.49"/>
    <rect class="cls-4" x="248.29" y="330.76" width="27.49" height="27.49"/>
    <rect class="cls-4" x="633.12" y="330.76" width="27.49" height="27.49"/>
    <polygon class="cls-4" points="110.86 385.73 110.86 413.22 138.34 413.22 165.83 413.22 165.83 385.73 138.34 385.73 110.86 385.73"/>
    <polygon class="cls-4" points="743.07 385.73 743.07 413.22 770.56 413.22 798.04 413.22 798.04 385.73 770.56 385.73 743.07 385.73"/>
    <rect class="cls-4" x="440.71" y="440.71" width="27.49" height="27.49"/>
    <polygon class="cls-4" points="110.86 495.68 110.86 523.17 138.34 523.17 165.83 523.17 165.83 495.68 138.34 495.68 110.86 495.68"/>
    <polygon class="cls-4" points="743.07 495.68 743.07 523.17 770.56 523.17 798.04 523.17 798.04 495.68 770.56 495.68 743.07 495.68"/>
    <rect class="cls-4" x="248.29" y="550.66" width="27.49" height="27.49"/>
    <rect class="cls-4" x="633.12" y="550.66" width="27.49" height="27.49"/>
    <rect class="cls-4" x="110.86" y="633.12" width="27.49" height="27.49"/>
    <rect class="cls-4" x="330.76" y="633.12" width="27.49" height="27.49"/>
    <rect class="cls-4" x="550.66" y="633.12" width="27.49" height="27.49"/>
    <rect class="cls-4" x="770.56" y="633.12" width="27.49" height="27.49"/>
    <polygon class="cls-4" points="385.73 770.56 385.73 798.04 413.22 798.04 413.22 770.56 413.22 743.07 385.73 743.07 385.73 770.56"/>
    <polygon class="cls-4" points="495.68 770.56 495.68 798.04 523.17 798.04 523.17 770.56 523.17 743.07 495.68 743.07 495.68 770.56"/>
    <rect class="cls-4" x="248.29" y="770.56" width="27.49" height="27.49"/>
    <rect class="cls-4" x="633.12" y="770.56" width="27.49" height="27.49"/>
    <rect class="cls-4" x="28.39" y="853.02" width="27.49" height="27.49"/>
    <rect class="cls-4" x="853.02" y="853.02" width="27.49" height="27.49"/>
  </g>
  <g>
    <rect class="cls-7" x=".91" y=".91" width="27.49" height="27.49"/>
    <rect class="cls-7" x="880.51" y=".91" width="27.49" height="27.49"/>
    <rect class="cls-7" x="413.22" y="55.88" width="27.49" height="27.49"/>
    <rect class="cls-7" x="468.19" y="55.88" width="27.49" height="27.49"/>
    <rect class="cls-7" x="55.88" y="413.22" width="27.49" height="27.49"/>
    <rect class="cls-7" x="825.53" y="413.22" width="27.49" height="27.49"/>
    <rect class="cls-7" x="55.88" y="468.19" width="27.49" height="27.49"/>
    <rect class="cls-7" x="825.53" y="468.19" width="27.49" height="27.49"/>
    <rect class="cls-7" x="413.22" y="825.53" width="27.49" height="27.49"/>
    <rect class="cls-7" x="468.19" y="825.53" width="27.49" height="27.49"/>
    <rect class="cls-7" x=".91" y="880.51" width="27.49" height="27.49"/>
    <rect class="cls-7" x="880.51" y="880.51" width="27.49" height="27.49"/>
  </g>
  <g>
    <rect class="cls-5" x="303.27" y="330.76" width="27.49" height="27.49"/>
    <rect class="cls-5" x="660.61" y="330.76" width="27.49" height="27.49"/>
    <rect class="cls-5" x="193.32" y="358.24" width="27.49" height="27.49"/>
    <rect class="cls-5" x="688.09" y="358.24" width="27.49" height="27.49"/>
    <polygon class="cls-5" points="468.19 55.88 468.19 28.39 468.19 .91 440.71 .91 440.71 28.39 440.71 55.88 440.71 83.37 468.19 83.37 468.19 55.88"/>
    <rect class="cls-5" x="55.88" y="55.88" width="27.49" height="27.49"/>
    <rect class="cls-5" x="825.53" y="55.88" width="27.49" height="27.49"/>
    <rect class="cls-5" x="83.37" y="83.37" width="27.49" height="27.49"/>
    <polygon class="cls-5" points="413.22 220.81 413.22 248.29 385.73 248.29 385.73 275.78 358.24 275.78 358.24 303.27 385.73 303.27 385.73 330.76 358.24 330.76 358.24 358.24 385.73 358.24 385.73 385.73 413.22 385.73 413.22 358.24 413.22 330.76 413.22 303.27 413.22 275.78 440.71 275.78 440.71 248.29 440.71 220.81 440.71 193.32 440.71 165.83 440.71 138.34 440.71 110.86 440.71 83.37 413.22 83.37 413.22 110.86 413.22 138.34 413.22 165.83 385.73 165.83 385.73 193.32 413.22 193.32 413.22 220.81"/>
    <rect class="cls-5" x="798.04" y="83.37" width="27.49" height="27.49"/>
    <rect class="cls-5" x="138.34" y="110.86" width="27.49" height="27.49"/>
    <rect class="cls-5" x="743.07" y="110.86" width="27.49" height="27.49"/>
    <rect class="cls-5" x="110.86" y="138.34" width="27.49" height="27.49"/>
    <rect class="cls-5" x="165.83" y="138.34" width="27.49" height="27.49"/>
    <rect class="cls-5" x="220.81" y="138.34" width="27.49" height="27.49"/>
    <rect class="cls-5" x="660.61" y="138.34" width="27.49" height="27.49"/>
    <rect class="cls-5" x="715.58" y="138.34" width="27.49" height="27.49"/>
    <rect class="cls-5" x="770.56" y="138.34" width="27.49" height="27.49"/>
    <rect class="cls-5" x="138.34" y="165.83" width="27.49" height="27.49"/>
    <rect class="cls-5" x="193.32" y="165.83" width="27.49" height="27.49"/>
    <rect class="cls-5" x="688.09" y="165.83" width="27.49" height="27.49"/>
    <rect class="cls-5" x="743.07" y="165.83" width="27.49" height="27.49"/>
    <rect class="cls-5" x="165.83" y="193.32" width="27.49" height="27.49"/>
    <rect class="cls-5" x="220.81" y="193.32" width="27.49" height="27.49"/>
    <rect class="cls-5" x="358.24" y="193.32" width="27.49" height="27.49"/>
    <rect class="cls-5" x="523.17" y="193.32" width="27.49" height="27.49"/>
    <rect class="cls-5" x="660.61" y="193.32" width="27.49" height="27.49"/>
    <rect class="cls-5" x="715.58" y="193.32" width="27.49" height="27.49"/>
    <rect class="cls-5" x="138.34" y="220.81" width="27.49" height="27.49"/>
    <rect class="cls-5" x="193.32" y="220.81" width="27.49" height="27.49"/>
    <rect class="cls-5" x="248.29" y="220.81" width="27.49" height="27.49"/>
    <rect class="cls-5" x="330.76" y="220.81" width="27.49" height="27.49"/>
    <rect class="cls-5" x="550.66" y="220.81" width="27.49" height="27.49"/>
    <rect class="cls-5" x="633.12" y="220.81" width="27.49" height="27.49"/>
    <rect class="cls-5" x="688.09" y="220.81" width="27.49" height="27.49"/>
    <rect class="cls-5" x="743.07" y="220.81" width="27.49" height="27.49"/>
    <rect class="cls-5" x="220.81" y="248.29" width="27.49" height="27.49"/>
    <polygon class="cls-5" points="303.27 275.78 303.27 303.27 330.76 303.27 330.76 275.78 330.76 248.29 303.27 248.29 275.78 248.29 275.78 275.78 303.27 275.78"/>
    <rect class="cls-5" x="660.61" y="248.29" width="27.49" height="27.49"/>
    <polygon class="cls-5" points="303.27 330.76 303.27 303.27 275.78 303.27 275.78 275.78 248.29 275.78 248.29 303.27 248.29 330.76 275.78 330.76 303.27 330.76"/>
    <polygon class="cls-5" points="468.19 138.34 468.19 165.83 468.19 193.32 468.19 220.81 468.19 248.29 468.19 275.78 495.68 275.78 495.68 303.27 495.68 330.76 495.68 358.24 495.68 385.73 523.17 385.73 523.17 358.24 550.66 358.24 550.66 330.76 523.17 330.76 523.17 303.27 550.66 303.27 550.66 275.78 523.17 275.78 523.17 248.29 495.68 248.29 495.68 220.81 495.68 193.32 523.17 193.32 523.17 165.83 495.68 165.83 495.68 138.34 495.68 110.86 495.68 83.37 468.19 83.37 468.19 110.86 468.19 138.34"/>
    <polygon class="cls-5" points="578.14 303.27 605.63 303.27 605.63 275.78 633.12 275.78 633.12 248.29 605.63 248.29 578.14 248.29 578.14 275.78 578.14 303.27"/>
    <polygon class="cls-5" points="633.12 303.27 605.63 303.27 605.63 330.76 633.12 330.76 660.61 330.76 660.61 303.27 660.61 275.78 633.12 275.78 633.12 303.27"/>
    <rect class="cls-5" x="330.76" y="303.27" width="27.49" height="27.49"/>
    <rect class="cls-5" x="550.66" y="303.27" width="27.49" height="27.49"/>
    <rect class="cls-5" x="220.81" y="330.76" width="27.49" height="27.49"/>
    <rect class="cls-5" x="578.14" y="330.76" width="27.49" height="27.49"/>
    <polygon class="cls-5" points="138.34 440.71 165.83 440.71 193.32 440.71 220.81 440.71 248.29 440.71 275.78 440.71 275.78 413.22 275.78 413.22 303.27 413.22 330.76 413.22 358.24 413.22 385.73 413.22 385.73 385.73 358.24 385.73 358.24 358.24 330.76 358.24 330.76 385.73 303.27 385.73 303.27 358.24 275.78 358.24 275.78 385.73 248.29 385.73 248.29 413.22 220.81 413.22 193.32 413.22 193.32 385.73 165.83 385.73 165.83 413.22 138.34 413.22 110.86 413.22 83.37 413.22 83.37 440.71 110.86 440.71 138.34 440.71"/>
    <polygon class="cls-5" points="688.09 413.22 660.61 413.22 660.61 385.73 633.12 385.73 633.12 358.24 605.63 358.24 605.63 385.73 578.14 385.73 578.14 358.24 550.66 358.24 550.66 385.73 523.17 385.73 523.17 413.22 550.66 413.22 578.14 413.22 605.63 413.22 633.12 413.22 633.12 440.71 660.61 440.71 688.09 440.71 715.58 440.71 743.07 440.71 770.56 440.71 798.04 440.71 825.53 440.71 825.53 413.22 798.04 413.22 770.56 413.22 743.07 413.22 743.07 385.73 715.58 385.73 715.58 413.22 688.09 413.22"/>
    <polygon class="cls-5" points="55.88 440.71 28.39 440.71 .91 440.71 .91 468.19 28.39 468.19 55.88 468.19 83.37 468.19 83.37 440.71 55.88 440.71"/>
    <polygon class="cls-5" points="880.51 440.71 853.02 440.71 825.53 440.71 825.53 468.19 853.02 468.19 880.51 468.19 907.99 468.19 907.99 440.71 880.51 440.71"/>
    <polygon class="cls-5" points="220.81 495.68 248.29 495.68 248.29 523.17 275.78 523.17 275.78 550.66 303.27 550.66 303.27 523.17 330.76 523.17 330.76 550.66 358.24 550.66 358.24 523.17 385.73 523.17 385.73 495.68 358.24 495.68 330.76 495.68 303.27 495.68 275.78 495.68 275.78 468.19 248.29 468.19 220.81 468.19 193.32 468.19 165.83 468.19 138.34 468.19 110.86 468.19 83.37 468.19 83.37 495.68 110.86 495.68 138.34 495.68 165.83 495.68 165.83 523.17 193.32 523.17 193.32 495.68 220.81 495.68"/>
    <rect class="cls-5" x="193.32" y="523.17" width="27.49" height="27.49"/>
    <polygon class="cls-5" points="770.56 468.19 743.07 468.19 715.58 468.19 688.09 468.19 660.61 468.19 633.12 468.19 633.12 495.68 605.63 495.68 578.14 495.68 550.66 495.68 523.17 495.68 523.17 523.17 550.66 523.17 550.66 550.66 578.14 550.66 578.14 523.17 605.63 523.17 605.63 550.66 633.12 550.66 633.12 523.17 660.61 523.17 660.61 495.68 688.09 495.68 715.58 495.68 715.58 523.17 743.07 523.17 743.07 495.68 770.56 495.68 798.04 495.68 825.53 495.68 825.53 468.19 798.04 468.19 770.56 468.19"/>
    <rect class="cls-5" x="688.09" y="523.17" width="27.49" height="27.49"/>
    <rect class="cls-5" x="220.81" y="550.66" width="27.49" height="27.49"/>
    <rect class="cls-5" x="303.27" y="550.66" width="27.49" height="27.49"/>
    <rect class="cls-5" x="578.14" y="550.66" width="27.49" height="27.49"/>
    <rect class="cls-5" x="660.61" y="550.66" width="27.49" height="27.49"/>
    <rect class="cls-5" x="330.76" y="578.14" width="27.49" height="27.49"/>
    <rect class="cls-5" x="550.66" y="578.14" width="27.49" height="27.49"/>
    <polygon class="cls-5" points="605.63 578.14 605.63 605.63 633.12 605.63 633.12 633.12 660.61 633.12 660.61 605.63 660.61 578.14 633.12 578.14 605.63 578.14"/>
    <polygon class="cls-5" points="275.78 605.63 303.27 605.63 303.27 578.14 275.78 578.14 248.29 578.14 248.29 605.63 248.29 633.12 275.78 633.12 275.78 605.63"/>
    <polygon class="cls-5" points="330.76 605.63 303.27 605.63 303.27 633.12 275.78 633.12 275.78 660.61 303.27 660.61 330.76 660.61 330.76 633.12 330.76 605.63"/>
    <rect class="cls-5" x="220.81" y="633.12" width="27.49" height="27.49"/>
    <polygon class="cls-5" points="605.63 633.12 605.63 605.63 578.14 605.63 578.14 633.12 578.14 660.61 605.63 660.61 633.12 660.61 633.12 633.12 605.63 633.12"/>
    <rect class="cls-5" x="660.61" y="633.12" width="27.49" height="27.49"/>
    <rect class="cls-5" x="138.34" y="660.61" width="27.49" height="27.49"/>
    <rect class="cls-5" x="193.32" y="660.61" width="27.49" height="27.49"/>
    <rect class="cls-5" x="248.29" y="660.61" width="27.49" height="27.49"/>
    <rect class="cls-5" x="330.76" y="660.61" width="27.49" height="27.49"/>
    <rect class="cls-5" x="550.66" y="660.61" width="27.49" height="27.49"/>
    <rect class="cls-5" x="633.12" y="660.61" width="27.49" height="27.49"/>
    <rect class="cls-5" x="688.09" y="660.61" width="27.49" height="27.49"/>
    <rect class="cls-5" x="743.07" y="660.61" width="27.49" height="27.49"/>
    <rect class="cls-5" x="165.83" y="688.09" width="27.49" height="27.49"/>
    <rect class="cls-5" x="220.81" y="688.09" width="27.49" height="27.49"/>
    <rect class="cls-5" x="358.24" y="688.09" width="27.49" height="27.49"/>
    <polygon class="cls-5" points="495.68 688.09 495.68 660.61 523.17 660.61 523.17 633.12 550.66 633.12 550.66 605.63 523.17 605.63 523.17 578.14 550.66 578.14 550.66 550.66 523.17 550.66 523.17 523.17 495.68 523.17 495.68 550.66 495.68 578.14 495.68 605.63 495.68 633.12 468.19 633.12 468.19 660.61 468.19 688.09 468.19 715.58 468.19 743.07 468.19 770.56 468.19 798.04 468.19 825.53 495.68 825.53 495.68 798.04 495.68 770.56 495.68 743.07 523.17 743.07 523.17 715.58 495.68 715.58 495.68 688.09"/>
    <rect class="cls-5" x="523.17" y="688.09" width="27.49" height="27.49"/>
    <rect class="cls-5" x="660.61" y="688.09" width="27.49" height="27.49"/>
    <rect class="cls-5" x="715.58" y="688.09" width="27.49" height="27.49"/>
    <rect class="cls-5" x="138.34" y="715.58" width="27.49" height="27.49"/>
    <rect class="cls-5" x="193.32" y="715.58" width="27.49" height="27.49"/>
    <rect class="cls-5" x="688.09" y="715.58" width="27.49" height="27.49"/>
    <rect class="cls-5" x="743.07" y="715.58" width="27.49" height="27.49"/>
    <rect class="cls-5" x="110.86" y="743.07" width="27.49" height="27.49"/>
    <rect class="cls-5" x="165.83" y="743.07" width="27.49" height="27.49"/>
    <rect class="cls-5" x="220.81" y="743.07" width="27.49" height="27.49"/>
    <rect class="cls-5" x="660.61" y="743.07" width="27.49" height="27.49"/>
    <rect class="cls-5" x="715.58" y="743.07" width="27.49" height="27.49"/>
    <rect class="cls-5" x="770.56" y="743.07" width="27.49" height="27.49"/>
    <rect class="cls-5" x="138.34" y="770.56" width="27.49" height="27.49"/>
    <polygon class="cls-5" points="440.71 770.56 440.71 743.07 440.71 715.58 440.71 688.09 440.71 660.61 440.71 633.12 413.22 633.12 413.22 605.63 413.22 578.14 413.22 550.66 413.22 523.17 385.73 523.17 385.73 550.66 358.24 550.66 358.24 578.14 385.73 578.14 385.73 605.63 358.24 605.63 358.24 633.12 385.73 633.12 385.73 660.61 413.22 660.61 413.22 688.09 413.22 715.58 385.73 715.58 385.73 743.07 413.22 743.07 413.22 770.56 413.22 798.04 413.22 825.53 440.71 825.53 440.71 798.04 440.71 770.56"/>
    <rect class="cls-5" x="743.07" y="770.56" width="27.49" height="27.49"/>
    <rect class="cls-5" x="83.37" y="798.04" width="27.49" height="27.49"/>
    <rect class="cls-5" x="798.04" y="798.04" width="27.49" height="27.49"/>
    <rect class="cls-5" x="55.88" y="825.53" width="27.49" height="27.49"/>
    <polygon class="cls-5" points="440.71 853.02 440.71 880.51 440.71 907.99 468.19 907.99 468.19 880.51 468.19 853.02 468.19 825.53 440.71 825.53 440.71 853.02"/>
    <rect class="cls-5" x="825.53" y="825.53" width="27.49" height="27.49"/>
  </g>
</svg>