<?xml version="1.0" encoding="UTF-8"?>
<svg id="Calque_1" data-name="Calque 1" xmlns="http://www.w3.org/2000/svg" viewBox="0 0 908.09 908.09">
  <defs>
    <style>
      .cls-1 {
        fill: #f8ea47;
        stroke: #f9ea44;
      }

      .cls-1, .cls-2, .cls-3, .cls-4, .cls-5, .cls-6, .cls-7, .cls-8, .cls-9, .cls-10, .cls-11, .cls-12, .cls-13, .cls-14, .cls-15 {
        stroke-miterlimit: 10;
      }

      .cls-2 {
        fill: #328da0;
        stroke: #328da0;
      }

      .cls-3 {
        fill: #5db132;
        stroke: #5db130;
      }

      .cls-4 {
        fill: #3cb3cc;
        stroke: #3db2cc;
      }

      .cls-5 {
        fill: #fac200;
        stroke: #fbc201;
      }

      .cls-6 {
        fill: #83bc3b;
        stroke: #82bc3b;
      }

      .cls-7 {
        fill: #def0f6;
        stroke: #def0f6;
      }

      .cls-8 {
        fill: #f39118;
        stroke: #f39117;
      }

      .cls-16 {
        fill: #9cc650;
        stroke-width: 0px;
      }

      .cls-9 {
        fill: #483;
        stroke: #448733;
      }

      .cls-10 {
        fill: #f8aa13;
        stroke: #f8aa0d;
      }

      .cls-11 {
        fill: #8fd2e8;
        stroke: #8fd2e8;
      }

      .cls-12 {
        fill: #ffde0d;
        stroke: #ffde0d;
      }

      .cls-13 {
        fill: #25798b;
        stroke: #25798b;
      }

      .cls-14 {
        fill: #3b7730;
        stroke: #3b7730;
      }

      .cls-15 {
        fill: #4f9d34;
        stroke: #509d33;
      }
    </style>
  </defs>
  <rect class="cls-8" x="275.18" y="220.22" width="27.47" height="27.47"/>
  <g>
    <rect class="cls-10" x="604.76" y=".5" width="27.47" height="27.47"/>
    <rect class="cls-10" x="275.18" y="247.69" width="27.47" height="27.47"/>
    <rect class="cls-10" x="82.92" y="604.74" width="27.47" height="27.47"/>
    <rect class="cls-10" x="577.3" y="659.67" width="27.47" height="27.47"/>
  </g>
  <g>
    <rect class="cls-1" x="192.78" y=".5" width="27.47" height="27.47"/>
    <rect class="cls-1" x="797.02" y=".5" width="27.47" height="27.47"/>
    <polygon class="cls-1" points="494.9 247.69 494.9 275.16 522.37 275.16 522.37 247.69 522.37 220.22 494.9 220.22 494.9 247.69"/>
    <rect class="cls-1" x="879.42" y="412.48" width="27.47" height="27.47"/>
    <rect class="cls-1" x="220.25" y="604.74" width="27.47" height="27.47"/>
    <rect class="cls-1" x="742.09" y="659.67" width="27.47" height="27.47"/>
  </g>
  <g>
    <rect class="cls-5" x="55.45" y=".5" width="27.47" height="27.47"/>
    <rect class="cls-5" x="632.23" y="27.97" width="27.47" height="27.47"/>
    <rect class="cls-5" x="302.64" y="275.16" width="27.47" height="27.47"/>
    <rect class="cls-5" x="742.09" y="412.48" width="27.47" height="27.47"/>
    <rect class="cls-5" x="110.38" y="632.21" width="27.47" height="27.47"/>
    <rect class="cls-5" x="604.76" y="687.14" width="27.47" height="27.47"/>
  </g>
  <g>
    <rect class="cls-12" x="769.56" y="27.97" width="27.47" height="27.47"/>
    <rect class="cls-12" x="467.44" y="275.16" width="27.47" height="27.47"/>
    <rect class="cls-12" x="192.78" y="632.21" width="27.47" height="27.47"/>
    <rect class="cls-12" x="714.63" y="687.14" width="27.47" height="27.47"/>
  </g>
  <g>
    <rect class="cls-16" x="137.85" y="54.43" width="27.47" height="27.47"/>
    <polygon class="cls-16" points="742.09 137.86 769.56 137.86 769.56 110.39 797.02 110.39 797.02 82.93 769.56 82.93 742.09 82.93 714.63 82.93 714.63 110.39 742.09 110.39 742.09 137.86"/>
    <polygon class="cls-16" points="824.49 110.39 824.49 137.86 824.49 165.32 797.02 165.32 797.02 192.79 824.49 192.79 851.95 192.79 851.95 165.32 851.95 137.86 851.95 110.39 824.49 110.39"/>
    <polygon class="cls-16" points="467.44 330.09 439.97 330.09 412.5 330.09 412.5 357.55 439.97 357.55 439.97 385.02 467.44 385.02 467.44 357.55 494.9 357.55 522.37 357.55 522.37 330.09 494.9 330.09 467.44 330.09"/>
    <polygon class="cls-16" points="604.76 357.58 577.3 357.58 549.83 357.58 549.83 385.05 549.83 412.51 549.83 439.98 577.3 439.98 577.3 467.44 604.76 467.44 604.76 439.98 632.23 439.98 632.23 412.51 632.23 385.05 604.76 385.05 604.76 357.58"/>
    <rect class="cls-16" x="824.49" y="467.44" width="27.47" height="27.47"/>
    <rect class="cls-16" x="165.32" y="687.17" width="27.47" height="27.47"/>
    <rect class="cls-16" x="247.71" y="714.63" width="27.47" height="27.47"/>
    <rect class="cls-16" x="220.25" y="742.1" width="27.47" height="27.47"/>
    <rect class="cls-16" x="687.16" y="742.1" width="27.47" height="27.47"/>
    <polygon class="cls-16" points="769.56 769.57 769.56 797.03 742.09 797.03 742.09 824.5 769.56 824.5 797.02 824.5 824.49 824.5 824.49 797.03 824.49 769.57 797.02 769.57 769.56 769.57"/>
  </g>
  <g>
    <rect class="cls-6" x="110.38" y="55.43" width="27.47" height="27.47"/>
    <rect class="cls-6" x="769.56" y="55.43" width="27.47" height="27.47"/>
    <rect class="cls-6" x="137.85" y="82.9" width="27.47" height="27.47"/>
    <polygon class="cls-6" points="220.25 110.36 247.71 110.36 247.71 82.9 247.71 55.43 220.25 55.43 192.78 55.43 192.78 82.9 220.25 82.9 220.25 110.36"/>
    <polygon class="cls-6" points="824.49 110.36 851.95 110.36 851.95 82.9 824.49 82.9 797.02 82.9 797.02 110.36 824.49 110.36"/>
    <polygon class="cls-6" points="687.16 137.83 714.63 137.83 714.63 165.29 742.09 165.29 742.09 192.76 769.56 192.76 769.56 220.22 797.02 220.22 797.02 192.76 797.02 165.29 769.56 165.29 769.56 137.83 742.09 137.83 742.09 110.36 714.63 110.36 714.63 82.9 687.16 82.9 659.69 82.9 659.69 110.36 687.16 110.36 687.16 137.83"/>
    <polygon class="cls-6" points="851.95 165.29 851.95 192.76 879.42 192.76 879.42 165.29 879.42 137.83 879.42 110.36 851.95 110.36 851.95 137.83 851.95 165.29"/>
    <rect class="cls-6" x="824.49" y="192.76" width="27.47" height="27.47"/>
    <polygon class="cls-6" points="494.9 302.62 467.44 302.62 439.97 302.62 412.5 302.62 412.5 330.09 439.97 330.09 467.44 330.09 494.9 330.09 522.37 330.09 522.37 302.62 494.9 302.62"/>
    <polygon class="cls-6" points="357.57 330.09 330.11 330.09 330.11 357.55 357.57 357.55 357.57 385.02 385.04 385.02 385.04 412.48 412.5 412.48 412.5 439.95 439.97 439.95 439.97 467.41 467.44 467.41 494.9 467.41 522.37 467.41 549.83 467.41 577.3 467.41 577.3 439.95 549.83 439.95 522.37 439.95 494.9 439.95 467.44 439.95 467.44 412.48 467.44 385.02 439.97 385.02 439.97 357.55 412.5 357.55 412.5 330.09 385.04 330.09 357.57 330.09"/>
    <polygon class="cls-6" points="577.3 330.09 549.83 330.09 522.37 330.09 522.37 357.55 549.83 357.55 577.3 357.55 604.76 357.55 604.76 330.09 577.3 330.09"/>
    <rect class="cls-6" x="604.76" y="357.55" width="27.47" height="27.47"/>
    <polygon class="cls-6" points="632.23 439.95 659.69 439.95 659.69 412.48 659.69 385.02 632.23 385.02 632.23 412.48 632.23 439.95"/>
    <rect class="cls-6" x="604.76" y="439.95" width="27.47" height="27.47"/>
    <rect class="cls-6" x="851.95" y="439.95" width="27.47" height="27.47"/>
    <rect class="cls-6" x="797.02" y="467.41" width="27.47" height="27.47"/>
    <polygon class="cls-6" points="879.42 467.41 879.42 494.88 879.42 522.34 906.88 522.34 906.88 494.88 906.88 467.41 879.42 467.41"/>
    <rect class="cls-6" x="824.49" y="494.88" width="27.47" height="27.47"/>
    <rect class="cls-6" x="467.44" y="577.28" width="27.47" height="27.47"/>
    <rect class="cls-6" x="220.25" y="659.67" width="27.47" height="27.47"/>
    <rect class="cls-6" x="247.71" y="687.14" width="27.47" height="27.47"/>
    <polygon class="cls-6" points="192.78 714.6 165.32 714.6 165.32 687.14 137.85 687.14 137.85 714.6 137.85 742.07 165.32 742.07 165.32 769.53 192.78 769.53 220.25 769.53 220.25 742.07 192.78 742.07 192.78 714.6"/>
    <rect class="cls-6" x="275.18" y="714.6" width="27.47" height="27.47"/>
    <polygon class="cls-6" points="742.09 742.07 769.56 742.07 769.56 714.6 742.09 714.6 714.63 714.6 687.16 714.6 687.16 742.07 714.63 742.07 742.09 742.07"/>
    <rect class="cls-6" x="247.71" y="742.07" width="27.47" height="27.47"/>
    <polygon class="cls-6" points="797.02 769.53 824.49 769.53 824.49 742.07 797.02 742.07 769.56 742.07 769.56 769.53 797.02 769.53"/>
    <polygon class="cls-6" points="824.49 797 824.49 824.47 851.95 824.47 851.95 797 851.95 769.53 824.49 769.53 824.49 797"/>
    <polygon class="cls-6" points="769.56 824.47 742.09 824.47 742.09 797 714.63 797 714.63 769.53 687.16 769.53 687.16 742.07 659.69 742.07 632.23 742.07 632.23 769.53 659.69 769.53 659.69 797 687.16 797 687.16 824.47 714.63 824.47 714.63 851.93 742.09 851.93 769.56 851.93 797.02 851.93 824.49 851.93 824.49 824.47 797.02 824.47 769.56 824.47"/>
  </g>
  <g>
    <rect class="cls-15" x="110.38" y="27.97" width="27.47" height="27.47"/>
    <polygon class="cls-15" points="714.63 82.9 714.63 55.43 687.16 55.43 659.69 55.43 659.69 82.9 687.16 82.9 714.63 82.9"/>
    <rect class="cls-15" x="110.38" y="110.36" width="27.47" height="27.47"/>
    <polygon class="cls-15" points="659.69 192.76 659.69 165.29 632.23 165.29 604.76 165.29 604.76 192.76 632.23 192.76 632.23 220.22 659.69 220.22 687.16 220.22 687.16 192.76 659.69 192.76"/>
    <polygon class="cls-15" points="714.63 220.22 687.16 220.22 687.16 247.69 714.63 247.69 742.09 247.69 769.56 247.69 769.56 220.22 742.09 220.22 714.63 220.22"/>
    <polygon class="cls-15" points="330.11 330.09 330.11 302.62 302.64 302.62 275.18 302.62 275.18 330.09 302.64 330.09 330.11 330.09"/>
    <polygon class="cls-15" points="220.25 385.02 220.25 412.48 247.71 412.48 247.71 385.02 247.71 357.55 220.25 357.55 220.25 385.02"/>
    <rect class="cls-15" x="797.02" y="439.95" width="27.47" height="27.47"/>
    <polygon class="cls-15" points="357.57 467.41 357.57 439.95 330.11 439.95 302.64 439.95 275.18 439.95 275.18 467.41 302.64 467.41 302.64 494.88 330.11 494.88 357.57 494.88 385.04 494.88 385.04 467.41 357.57 467.41"/>
    <polygon class="cls-15" points="467.44 494.88 439.97 494.88 412.5 494.88 385.04 494.88 385.04 522.34 412.5 522.34 439.97 522.34 467.44 522.34 494.9 522.34 522.37 522.34 522.37 494.88 494.9 494.88 467.44 494.88"/>
    <rect class="cls-15" x="797.02" y="522.34" width="27.47" height="27.47"/>
    <polygon class="cls-15" points="165.32 687.14 165.32 659.67 137.85 659.67 110.38 659.67 110.38 687.14 137.85 687.14 165.32 687.14"/>
    <polygon class="cls-15" points="632.23 742.07 632.23 714.6 604.76 714.6 577.3 714.6 577.3 742.07 604.76 742.07 632.23 742.07"/>
    <rect class="cls-15" x="82.92" y="742.07" width="27.47" height="27.47"/>
    <polygon class="cls-15" points="165.32 769.53 137.85 769.53 110.38 769.53 110.38 797 137.85 797 165.32 797 192.78 797 220.25 797 220.25 769.53 192.78 769.53 165.32 769.53"/>
    <rect class="cls-15" x="549.83" y="769.53" width="27.47" height="27.47"/>
    <rect class="cls-15" x="577.3" y="797" width="27.47" height="27.47"/>
    <rect class="cls-15" x="604.76" y="824.47" width="27.47" height="27.47"/>
    <polygon class="cls-15" points="659.69 851.93 632.23 851.93 632.23 879.4 659.69 879.4 687.16 879.4 714.63 879.4 714.63 851.93 687.16 851.93 659.69 851.93"/>
  </g>
  <g>
    <polygon class="cls-3" points="192.78 55.43 192.78 27.97 165.32 27.97 137.85 27.97 137.85 55.43 165.32 55.43 192.78 55.43"/>
    <polygon class="cls-3" points="769.56 82.9 769.56 55.43 742.09 55.43 714.63 55.43 714.63 82.9 742.09 82.9 769.56 82.9"/>
    <rect class="cls-3" x="110.38" y="82.9" width="27.47" height="27.47"/>
    <rect class="cls-3" x="192.78" y="82.9" width="27.47" height="27.47"/>
    <rect class="cls-3" x="632.23" y="82.9" width="27.47" height="27.47"/>
    <polygon class="cls-3" points="165.32 137.83 192.78 137.83 192.78 110.36 165.32 110.36 137.85 110.36 137.85 137.83 165.32 137.83"/>
    <polygon class="cls-3" points="742.09 192.76 742.09 165.29 714.63 165.29 714.63 137.83 687.16 137.83 687.16 110.36 659.69 110.36 659.69 137.83 659.69 165.29 659.69 192.76 687.16 192.76 687.16 220.22 714.63 220.22 742.09 220.22 769.56 220.22 769.56 192.76 742.09 192.76"/>
    <rect class="cls-3" x="797.02" y="192.76" width="27.47" height="27.47"/>
    <rect class="cls-3" x="769.56" y="220.22" width="27.47" height="27.47"/>
    <rect class="cls-3" x="742.09" y="275.16" width="27.47" height="27.47"/>
    <polygon class="cls-3" points="385.04 330.09 412.5 330.09 412.5 302.62 385.04 302.62 357.57 302.62 330.11 302.62 330.11 330.09 357.57 330.09 385.04 330.09"/>
    <polygon class="cls-3" points="302.64 330.09 275.18 330.09 275.18 357.55 302.64 357.55 330.11 357.55 330.11 330.09 302.64 330.09"/>
    <rect class="cls-3" x="824.49" y="439.95" width="27.47" height="27.47"/>
    <polygon class="cls-3" points="604.76 467.41 577.3 467.41 549.83 467.41 522.37 467.41 494.9 467.41 467.44 467.41 439.97 467.41 439.97 439.95 412.5 439.95 412.5 412.48 385.04 412.48 385.04 385.02 357.57 385.02 357.57 357.55 330.11 357.55 330.11 385.02 330.11 412.48 330.11 439.95 357.57 439.95 357.57 467.41 385.04 467.41 385.04 494.88 412.5 494.88 439.97 494.88 467.44 494.88 494.9 494.88 522.37 494.88 549.83 494.88 577.3 494.88 604.76 494.88 604.76 467.41"/>
    <rect class="cls-3" x="797.02" y="494.88" width="27.47" height="27.47"/>
    <polygon class="cls-3" points="851.95 522.34 824.49 522.34 824.49 549.81 851.95 549.81 879.42 549.81 879.42 522.34 851.95 522.34"/>
    <rect class="cls-3" x="467.44" y="549.81" width="27.47" height="27.47"/>
    <rect class="cls-3" x="330.11" y="577.28" width="27.47" height="27.47"/>
    <polygon class="cls-3" points="220.25 659.67 192.78 659.67 165.32 659.67 165.32 687.14 192.78 687.14 220.25 687.14 220.25 659.67"/>
    <polygon class="cls-3" points="687.16 742.07 687.16 714.6 659.69 714.6 632.23 714.6 632.23 742.07 659.69 742.07 687.16 742.07"/>
    <polygon class="cls-3" points="110.38 742.07 110.38 769.53 137.85 769.53 165.32 769.53 165.32 742.07 137.85 742.07 110.38 742.07"/>
    <rect class="cls-3" x="220.25" y="769.53" width="27.47" height="27.47"/>
    <polygon class="cls-3" points="687.16 824.47 687.16 797 659.69 797 659.69 769.53 632.23 769.53 632.23 797 604.76 797 604.76 824.47 632.23 824.47 632.23 851.93 659.69 851.93 687.16 851.93 714.63 851.93 714.63 824.47 687.16 824.47"/>
    <polygon class="cls-3" points="714.63 851.93 714.63 879.4 742.09 879.4 769.56 879.4 769.56 851.93 742.09 851.93 714.63 851.93"/>
  </g>
  <g>
    <polygon class="cls-14" points="82.92 110.36 82.92 82.9 55.45 82.9 55.45 55.43 27.99 55.43 27.99 82.9 27.99 110.36 55.45 110.36 82.92 110.36"/>
    <rect class="cls-14" x="577.3" y="82.9" width="27.47" height="27.47"/>
    <rect class="cls-14" x="82.92" y="137.83" width="27.47" height="27.47"/>
    <polygon class="cls-14" points="577.3 137.83 577.3 110.36 549.83 110.36 549.83 137.83 549.83 165.29 549.83 192.76 577.3 192.76 577.3 165.29 577.3 137.83"/>
    <polygon class="cls-14" points="577.3 192.76 577.3 220.22 604.76 220.22 632.23 220.22 632.23 192.76 604.76 192.76 577.3 192.76"/>
    <rect class="cls-14" x="659.69" y="247.69" width="27.47" height="27.47"/>
    <rect class="cls-14" x="192.78" y="330.09" width="27.47" height="27.47"/>
    <rect class="cls-14" x="165.32" y="357.55" width="27.47" height="27.47"/>
    <polygon class="cls-14" points="165.32 385.02 137.85 385.02 137.85 412.48 137.85 439.95 165.32 439.95 165.32 412.48 165.32 385.02"/>
    <rect class="cls-14" x="165.32" y="439.95" width="27.47" height="27.47"/>
    <polygon class="cls-14" points="247.71 467.41 220.25 467.41 192.78 467.41 192.78 494.88 220.25 494.88 247.71 494.88 275.18 494.88 275.18 467.41 247.71 467.41"/>
    <rect class="cls-14" x="275.18" y="494.88" width="27.47" height="27.47"/>
    <polygon class="cls-14" points="769.56 494.88 769.56 467.41 742.09 467.41 742.09 494.88 742.09 522.34 769.56 522.34 769.56 494.88"/>
    <rect class="cls-14" x="330.11" y="522.34" width="27.47" height="27.47"/>
    <rect class="cls-14" x="769.56" y="549.81" width="27.47" height="27.47"/>
    <rect class="cls-14" x="55.45" y="687.14" width="27.47" height="27.47"/>
    <rect class="cls-14" x="27.99" y="714.6" width="27.47" height="27.47"/>
    <rect class="cls-14" x="55.45" y="742.07" width="27.47" height="27.47"/>
    <rect class="cls-14" x="522.37" y="742.07" width="27.47" height="27.47"/>
    <polygon class="cls-14" points="522.37 769.53 494.9 769.53 494.9 797 494.9 824.47 522.37 824.47 522.37 797 522.37 769.53"/>
    <rect class="cls-14" x="110.38" y="797" width="27.47" height="27.47"/>
    <polygon class="cls-14" points="549.83 824.47 522.37 824.47 522.37 851.93 549.83 851.93 577.3 851.93 577.3 824.47 549.83 824.47"/>
    <rect class="cls-14" x="577.3" y="851.93" width="27.47" height="27.47"/>
    <rect class="cls-14" x="604.76" y="879.4" width="27.47" height="27.47"/>
  </g>
  <g>
    <polygon class="cls-9" points="247.71 439.95 247.71 412.48 220.25 412.48 220.25 385.02 220.25 357.55 192.78 357.55 192.78 385.02 165.32 385.02 165.32 412.48 165.32 439.95 192.78 439.95 192.78 467.41 220.25 467.41 247.71 467.41 275.18 467.41 275.18 439.95 247.71 439.95"/>
    <rect class="cls-9" x="82.92" y="27.97" width="27.47" height="27.47"/>
    <rect class="cls-9" x="55.45" y="55.43" width="27.47" height="27.47"/>
    <rect class="cls-9" x="632.23" y="55.43" width="27.47" height="27.47"/>
    <rect class="cls-9" x="604.76" y="82.9" width="27.47" height="27.47"/>
    <rect class="cls-9" x="82.92" y="110.36" width="27.47" height="27.47"/>
    <rect class="cls-9" x="165.32" y="137.83" width="27.47" height="27.47"/>
    <polygon class="cls-9" points="604.76 165.29 604.76 137.83 604.76 110.36 577.3 110.36 577.3 137.83 577.3 165.29 577.3 192.76 604.76 192.76 604.76 165.29"/>
    <polygon class="cls-9" points="632.23 220.22 632.23 247.69 659.69 247.69 687.16 247.69 687.16 220.22 659.69 220.22 632.23 220.22"/>
    <rect class="cls-9" x="742.09" y="247.69" width="27.47" height="27.47"/>
    <rect class="cls-9" x="659.69" y="275.16" width="27.47" height="27.47"/>
    <polygon class="cls-9" points="275.18 357.55 275.18 330.09 247.71 330.09 220.25 330.09 220.25 357.55 247.71 357.55 275.18 357.55"/>
    <rect class="cls-9" x="769.56" y="439.95" width="27.47" height="27.47"/>
    <rect class="cls-9" x="275.18" y="467.41" width="27.47" height="27.47"/>
    <polygon class="cls-9" points="330.11 494.88 302.64 494.88 302.64 522.34 330.11 522.34 357.57 522.34 385.04 522.34 385.04 494.88 357.57 494.88 330.11 494.88"/>
    <rect class="cls-9" x="467.44" y="522.34" width="27.47" height="27.47"/>
    <rect class="cls-9" x="769.56" y="522.34" width="27.47" height="27.47"/>
    <rect class="cls-9" x="330.11" y="549.81" width="27.47" height="27.47"/>
    <rect class="cls-9" x="851.95" y="549.81" width="27.47" height="27.47"/>
    <rect class="cls-9" x="82.92" y="659.67" width="27.47" height="27.47"/>
    <rect class="cls-9" x="55.45" y="714.6" width="27.47" height="27.47"/>
    <rect class="cls-9" x="549.83" y="742.07" width="27.47" height="27.47"/>
    <rect class="cls-9" x="82.92" y="769.53" width="27.47" height="27.47"/>
    <rect class="cls-9" x="192.78" y="797" width="27.47" height="27.47"/>
    <polygon class="cls-9" points="549.83 797 549.83 769.53 522.37 769.53 522.37 797 522.37 824.47 549.83 824.47 577.3 824.47 577.3 797 549.83 797"/>
    <rect class="cls-9" x="577.3" y="824.47" width="27.47" height="27.47"/>
    <rect class="cls-9" x="604.76" y="851.93" width="27.47" height="27.47"/>
    <rect class="cls-9" x="714.63" y="879.4" width="27.47" height="27.47"/>
  </g>
  <g>
    <rect class="cls-7" x="632.23" y="110.36" width="27.47" height="27.47"/>
    <rect class="cls-7" x="82.92" y="55.43" width="27.47" height="27.47"/>
    <rect class="cls-7" x="165.32" y="55.43" width="27.47" height="27.47"/>
    <rect class="cls-7" x="797.02" y="110.36" width="27.47" height="27.47"/>
    <rect class="cls-7" x="302.64" y="357.55" width="27.47" height="27.47"/>
    <rect class="cls-7" x="522.37" y="357.55" width="27.47" height="27.47"/>
    <rect class="cls-7" x="769.56" y="467.41" width="27.47" height="27.47"/>
    <rect class="cls-7" x="851.95" y="467.41" width="27.47" height="27.47"/>
    <rect class="cls-7" x="110.38" y="687.14" width="27.47" height="27.47"/>
    <rect class="cls-7" x="220.25" y="687.14" width="27.47" height="27.47"/>
    <rect class="cls-7" x="604.76" y="742.07" width="27.47" height="27.47"/>
    <rect class="cls-7" x="742.09" y="742.07" width="27.47" height="27.47"/>
  </g>
  <g>
    <rect class="cls-11" x="632.23" y="137.83" width="27.47" height="27.47"/>
    <rect class="cls-11" x="797.02" y="137.83" width="27.47" height="27.47"/>
    <rect class="cls-11" x="275.18" y="357.55" width="27.47" height="27.47"/>
    <rect class="cls-11" x="494.9" y="357.55" width="27.47" height="27.47"/>
    <rect class="cls-11" x="302.64" y="385.02" width="27.47" height="27.47"/>
    <rect class="cls-11" x="522.37" y="385.02" width="27.47" height="27.47"/>
    <rect class="cls-11" x="110.38" y="714.6" width="27.47" height="27.47"/>
    <rect class="cls-11" x="220.25" y="714.6" width="27.47" height="27.47"/>
    <rect class="cls-11" x="604.76" y="769.53" width="27.47" height="27.47"/>
    <rect class="cls-11" x="742.09" y="769.53" width="27.47" height="27.47"/>
  </g>
  <g>
    <rect class="cls-4" x="165.32" y="82.9" width="27.47" height="27.47"/>
    <rect class="cls-4" x="604.76" y="110.36" width="27.47" height="27.47"/>
    <rect class="cls-4" x="769.56" y="110.36" width="27.47" height="27.47"/>
    <rect class="cls-4" x="247.71" y="357.55" width="27.47" height="27.47"/>
    <rect class="cls-4" x="467.44" y="357.55" width="27.47" height="27.47"/>
    <rect class="cls-4" x="275.18" y="385.02" width="27.47" height="27.47"/>
    <rect class="cls-4" x="494.9" y="385.02" width="27.47" height="27.47"/>
    <rect class="cls-4" x="302.64" y="412.48" width="27.47" height="27.47"/>
    <rect class="cls-4" x="522.37" y="412.48" width="27.47" height="27.47"/>
    <rect class="cls-4" x="851.95" y="494.88" width="27.47" height="27.47"/>
    <rect class="cls-4" x="82.92" y="687.14" width="27.47" height="27.47"/>
    <rect class="cls-4" x="192.78" y="687.14" width="27.47" height="27.47"/>
    <rect class="cls-4" x="577.3" y="742.07" width="27.47" height="27.47"/>
    <rect class="cls-4" x="714.63" y="742.07" width="27.47" height="27.47"/>
  </g>
  <g>
    <rect class="cls-2" x="82.92" y="82.9" width="27.47" height="27.47"/>
    <rect class="cls-2" x="604.76" y="137.83" width="27.47" height="27.47"/>
    <rect class="cls-2" x="769.56" y="137.83" width="27.47" height="27.47"/>
    <rect class="cls-2" x="247.71" y="385.02" width="27.47" height="27.47"/>
    <rect class="cls-2" x="467.44" y="385.02" width="27.47" height="27.47"/>
    <rect class="cls-2" x="275.18" y="412.48" width="27.47" height="27.47"/>
    <rect class="cls-2" x="494.9" y="412.48" width="27.47" height="27.47"/>
    <rect class="cls-2" x="769.56" y="494.88" width="27.47" height="27.47"/>
    <rect class="cls-2" x="82.92" y="714.6" width="27.47" height="27.47"/>
    <rect class="cls-2" x="192.78" y="714.6" width="27.47" height="27.47"/>
    <rect class="cls-2" x="577.3" y="769.53" width="27.47" height="27.47"/>
    <rect class="cls-2" x="714.63" y="769.53" width="27.47" height="27.47"/>
  </g>
  <g>
    <rect class="cls-13" x="247.71" y="412.48" width="27.47" height="27.47"/>
    <rect class="cls-13" x="467.44" y="412.48" width="27.47" height="27.47"/>
  </g>
</svg>