<?xml version="1.0" encoding="UTF-8"?>
<svg id="Calque_1" data-name="Calque 1" xmlns="http://www.w3.org/2000/svg" viewBox="0 0 907.89 907.89">
  <defs>
    <style>
      .cls-1 {
        fill: #33652b;
        stroke: #33652b;
      }

      .cls-1, .cls-2, .cls-3, .cls-4, .cls-5, .cls-6, .cls-7, .cls-8, .cls-9, .cls-10, .cls-11, .cls-12, .cls-13, .cls-14, .cls-15, .cls-16, .cls-17, .cls-18, .cls-19, .cls-20, .cls-21, .cls-22 {
        stroke-miterlimit: 10;
      }

      .cls-2 {
        fill: #efb7d5;
        stroke: #efb7d5;
      }

      .cls-3 {
        fill: #c6388d;
        stroke: #c6388d;
      }

      .cls-4 {
        fill: #d0cfce;
        stroke: #cfcfcf;
      }

      .cls-5 {
        fill: #aeadad;
        stroke: #aeadad;
      }

      .cls-6 {
        fill: #d17db2;
        stroke: #d17db2;
      }

      .cls-7 {
        fill: #4b4a4b;
        stroke: #4a4a4a;
      }

      .cls-23 {
        fill: #832564;
        stroke-width: 0px;
      }

      .cls-8 {
        fill: #ad2b85;
        stroke: #ad2a84;
      }

      .cls-9 {
        fill: #fbe0ee;
        stroke: #fbdfed;
      }

      .cls-10 {
        fill: #6e6e6d;
        stroke: #6d6d6d;
      }

      .cls-11 {
        fill: #313132;
        stroke: #313131;
      }

      .cls-12 {
        fill: #6c1950;
        stroke: #6c1850;
      }

      .cls-13 {
        fill: #458b34;
        stroke: #458b33;
      }

      .cls-14 {
        fill: #9d9d9c;
        stroke: #9d9d9c;
      }

      .cls-15 {
        fill: #e191bd;
        stroke: #e192be;
      }

      .cls-16 {
        fill: #bb4592;
        stroke: #bb4492;
      }

      .cls-17 {
        fill: #da7bb0;
        stroke: #da7bb0;
      }

      .cls-18 {
        fill: #868686;
        stroke: #868686;
      }

      .cls-19 {
        fill: #5d5c5c;
        stroke: #5c5c5c;
      }

      .cls-20 {
        fill: #c7db88;
        stroke: #c7db87;
      }

      .cls-21 {
        fill: #8ebf26;
        stroke: #8dbf22;
      }

      .cls-22 {
        fill: #d05fa0;
        stroke: #d15f9f;
      }
    </style>
  </defs>
  <g>
    <rect class="cls-22" x="550.04" y="110.41" width="27.48" height="27.48"/>
    <rect class="cls-22" x="577.52" y="137.89" width="27.48" height="27.48"/>
    <rect class="cls-22" x="605" y="165.36" width="27.48" height="27.48"/>
    <rect class="cls-22" x="632.48" y="192.84" width="27.48" height="27.48"/>
    <polygon class="cls-22" points="659.95 220.32 659.95 247.8 659.95 275.27 659.95 302.75 659.95 330.23 659.95 357.7 659.95 385.18 687.43 385.18 687.43 357.7 687.43 330.23 687.43 302.75 687.43 275.27 687.43 247.8 687.43 220.32 659.95 220.32"/>
    <rect class="cls-22" x="632.48" y="385.18" width="27.48" height="27.48"/>
  </g>
  <g>
    <rect class="cls-15" x="495.09" y="192.84" width="27.48" height="27.48"/>
    <rect class="cls-15" x="385.18" y="137.89" width="27.48" height="27.48"/>
    <rect class="cls-15" x="550.04" y="137.89" width="27.48" height="27.48"/>
    <rect class="cls-15" x="330.23" y="165.36" width="27.48" height="27.48"/>
    <rect class="cls-15" x="440.14" y="165.36" width="27.48" height="27.48"/>
    <rect class="cls-15" x="577.52" y="165.36" width="27.48" height="27.48"/>
    <rect class="cls-15" x="412.66" y="192.84" width="27.48" height="27.48"/>
    <rect class="cls-15" x="550.04" y="192.84" width="27.48" height="27.48"/>
    <rect class="cls-15" x="275.27" y="247.8" width="27.48" height="27.48"/>
    <rect class="cls-15" x="302.75" y="275.27" width="27.48" height="27.48"/>
    <rect class="cls-15" x="605" y="275.27" width="27.48" height="27.48"/>
    <rect class="cls-15" x="577.52" y="357.7" width="27.48" height="27.48"/>
    <rect class="cls-15" x="467.61" y="440.14" width="27.48" height="27.48"/>
    <polygon class="cls-15" points="440.14 522.57 440.14 550.04 467.61 550.04 495.09 550.04 495.09 522.57 467.61 522.57 440.14 522.57"/>
    <rect class="cls-15" x="412.66" y="577.52" width="27.48" height="27.48"/>
  </g>
  <g>
    <rect class="cls-6" x="522.57" y="165.36" width="27.48" height="27.48"/>
    <rect class="cls-6" x="577.52" y="192.84" width="27.48" height="27.48"/>
    <rect class="cls-6" x="467.61" y="467.61" width="27.48" height="27.48"/>
    <rect class="cls-6" x="302.75" y="165.36" width="27.48" height="27.48"/>
    <polygon class="cls-6" points="467.61 192.84 495.09 192.84 495.09 165.36 467.61 165.36 467.61 138.92 440.14 138.92 440.14 165.36 412.66 165.36 385.18 165.36 385.18 192.84 412.66 192.84 440.14 192.84 440.14 166.39 467.61 166.39 467.61 192.84"/>
    <rect class="cls-6" x="330.23" y="192.84" width="27.48" height="27.48"/>
    <polygon class="cls-6" points="302.75 220.32 302.75 193.87 275.27 193.87 275.27 221.35 302.75 221.35 302.75 247.8 330.23 247.8 330.23 220.32 302.75 220.32"/>
    <polygon class="cls-6" points="357.7 247.8 330.23 247.8 330.23 275.27 357.7 275.27 357.7 248.83 385.18 248.83 385.18 221.35 357.7 221.35 357.7 247.8"/>
    <rect class="cls-6" x="550.04" y="221.35" width="27.48" height="27.48"/>
    <polygon class="cls-6" points="632.48 248.83 605 248.83 577.52 248.83 577.52 276.3 605 276.3 632.48 276.3 659.95 276.3 659.95 248.83 632.48 248.83"/>
    <rect class="cls-6" x="302.75" y="303.78" width="27.48" height="27.48"/>
    <rect class="cls-6" x="605" y="303.78" width="27.48" height="27.48"/>
    <rect class="cls-6" x="330.23" y="331.26" width="27.48" height="27.48"/>
    <rect class="cls-6" x="577.52" y="331.26" width="27.48" height="27.48"/>
    <rect class="cls-6" x="632.48" y="331.26" width="27.48" height="27.48"/>
    <rect class="cls-6" x="550.04" y="358.74" width="27.48" height="27.48"/>
    <rect class="cls-6" x="605" y="358.74" width="27.48" height="27.48"/>
    <polygon class="cls-6" points="522.57 412.66 495.09 412.66 495.09 440.14 522.57 440.14 522.57 413.69 550.04 413.69 550.04 386.21 522.57 386.21 522.57 412.66"/>
    <rect class="cls-6" x="577.52" y="386.21" width="27.48" height="27.48"/>
    <polygon class="cls-6" points="550.04 467.61 550.04 468.64 577.52 468.64 577.52 441.17 550.04 441.17 550.04 440.14 522.57 440.14 522.57 467.61 550.04 467.61"/>
    <rect class="cls-6" x="412.66" y="495.09" width="27.48" height="27.48"/>
    <rect class="cls-6" x="495.09" y="495.09" width="27.48" height="27.48"/>
    <rect class="cls-6" x="467.61" y="577.52" width="27.48" height="27.48"/>
    <rect class="cls-6" x="412.66" y="605" width="27.48" height="27.48"/>
  </g>
  <g>
    <rect class="cls-2" x="330.23" y="137.89" width="27.48" height="27.48"/>
    <rect class="cls-2" x="412.66" y="137.89" width="27.48" height="27.48"/>
    <rect class="cls-2" x="495.09" y="165.36" width="27.48" height="27.48"/>
    <rect class="cls-2" x="550.04" y="165.36" width="27.48" height="27.48"/>
    <rect class="cls-2" x="302.75" y="192.84" width="27.48" height="27.48"/>
    <rect class="cls-2" x="385.18" y="192.84" width="27.48" height="27.48"/>
    <rect class="cls-2" x="577.52" y="220.32" width="27.48" height="27.48"/>
    <rect class="cls-2" x="330.23" y="275.27" width="27.48" height="27.48"/>
    <rect class="cls-2" x="632.48" y="275.27" width="27.48" height="27.48"/>
    <rect class="cls-2" x="275.27" y="330.23" width="27.48" height="27.48"/>
    <rect class="cls-2" x="605" y="385.18" width="27.48" height="27.48"/>
    <rect class="cls-2" x="522.57" y="412.66" width="27.48" height="27.48"/>
    <rect class="cls-2" x="495.09" y="467.61" width="27.48" height="27.48"/>
    <rect class="cls-2" x="440.14" y="495.09" width="27.48" height="27.48"/>
    <rect class="cls-2" x="412.66" y="550.04" width="27.48" height="27.48"/>
    <rect class="cls-2" x="467.61" y="605" width="27.48" height="27.48"/>
    <rect class="cls-2" x="467.61" y="742.39" width="27.48" height="27.48"/>
  </g>
  <g>
    <polygon class="cls-3" points="495.09 110.41 495.09 137.89 522.57 137.89 550.04 137.89 550.04 110.41 522.57 110.41 495.09 110.41"/>
    <rect class="cls-3" x="605" y="412.66" width="27.48" height="27.48"/>
    <polygon class="cls-3" points="495.09 742.39 495.09 769.86 522.57 769.86 522.57 742.39 522.57 714.91 495.09 714.91 495.09 742.39"/>
  </g>
  <g>
    <polygon class="cls-21" points="824.82 55.45 797.34 55.45 769.86 55.45 742.39 55.45 742.39 82.93 742.39 110.41 769.86 110.41 769.86 82.93 797.34 82.93 824.82 82.93 852.29 82.93 852.29 55.45 824.82 55.45"/>
    <polygon class="cls-21" points="165.36 110.41 165.36 82.93 165.36 55.45 137.89 55.45 110.41 55.45 82.93 55.45 55.45 55.45 55.45 82.93 82.93 82.93 110.41 82.93 137.89 82.93 137.89 110.41 165.36 110.41"/>
    <polygon class="cls-21" points="165.36 302.75 165.36 330.23 192.84 330.23 192.84 302.75 192.84 275.27 165.36 275.27 165.36 302.75"/>
    <polygon class="cls-21" points="769.86 302.75 769.86 275.27 742.39 275.27 742.39 302.75 742.39 330.23 769.86 330.23 769.86 302.75"/>
    <polygon class="cls-21" points="82.93 440.14 82.93 467.61 110.41 467.61 137.89 467.61 137.89 440.14 110.41 440.14 82.93 440.14"/>
    <polygon class="cls-21" points="769.86 440.14 769.86 467.61 797.34 467.61 824.82 467.61 824.82 440.14 797.34 440.14 769.86 440.14"/>
    <polygon class="cls-21" points="714.91 550.04 687.43 550.04 659.95 550.04 659.95 577.52 632.48 577.52 632.48 605 632.48 632.48 659.95 632.48 659.95 659.95 687.43 659.95 714.91 659.95 714.91 632.48 742.39 632.48 742.39 605 742.39 577.52 714.91 577.52 714.91 550.04"/>
    <polygon class="cls-21" points="275.27 605 275.27 577.52 247.8 577.52 247.8 550.04 220.32 550.04 192.84 550.04 192.84 577.52 165.36 577.52 165.36 605 165.36 632.48 192.84 632.48 192.84 659.95 220.32 659.95 247.8 659.95 247.8 632.48 275.27 632.48 275.27 605"/>
    <polygon class="cls-21" points="302.75 742.39 275.27 742.39 275.27 769.86 302.75 769.86 330.23 769.86 330.23 742.39 330.23 714.91 302.75 714.91 302.75 742.39"/>
    <polygon class="cls-21" points="605 714.91 577.52 714.91 577.52 742.39 577.52 769.86 605 769.86 632.48 769.86 632.48 742.39 605 742.39 605 714.91"/>
  </g>
  <g>
    <rect class="cls-20" x="137.89" y="27.98" width="27.48" height="27.48"/>
    <rect class="cls-20" x="824.82" y="27.98" width="27.48" height="27.48"/>
    <rect class="cls-20" x="165.36" y="55.45" width="27.48" height="27.48"/>
    <rect class="cls-20" x="852.29" y="55.45" width="27.48" height="27.48"/>
    <polygon class="cls-20" points="797.34 82.93 769.86 82.93 769.86 110.41 742.39 110.41 742.39 137.89 769.86 137.89 797.34 137.89 797.34 110.41 824.82 110.41 852.29 110.41 852.29 82.93 824.82 82.93 797.34 82.93"/>
    <rect class="cls-20" x="165.36" y="247.8" width="27.48" height="27.48"/>
    <rect class="cls-20" x="742.39" y="247.8" width="27.48" height="27.48"/>
    <polygon class="cls-20" points="192.84 330.23 220.32 330.23 220.32 302.75 220.32 275.27 192.84 275.27 192.84 302.75 192.84 330.23"/>
    <polygon class="cls-20" points="769.86 330.23 797.34 330.23 797.34 302.75 797.34 275.27 769.86 275.27 769.86 302.75 769.86 330.23"/>
    <rect class="cls-20" x="110.41" y="412.66" width="27.48" height="27.48"/>
    <rect class="cls-20" x="797.34" y="412.66" width="27.48" height="27.48"/>
    <rect class="cls-20" x="137.89" y="440.14" width="27.48" height="27.48"/>
    <rect class="cls-20" x="824.82" y="440.14" width="27.48" height="27.48"/>
    <rect class="cls-20" x="797.34" y="467.61" width="27.48" height="27.48"/>
    <rect class="cls-20" x="220.32" y="522.57" width="27.48" height="27.48"/>
    <rect class="cls-20" x="687.43" y="522.57" width="27.48" height="27.48"/>
    <rect class="cls-20" x="247.8" y="550.04" width="27.48" height="27.48"/>
    <rect class="cls-20" x="714.91" y="550.04" width="27.48" height="27.48"/>
    <rect class="cls-20" x="275.27" y="577.52" width="27.48" height="27.48"/>
    <polygon class="cls-20" points="742.39 605 742.39 632.48 769.86 632.48 769.86 605 769.86 577.52 742.39 577.52 742.39 605"/>
    <rect class="cls-20" x="714.91" y="632.48" width="27.48" height="27.48"/>
    <rect class="cls-20" x="302.75" y="687.43" width="27.48" height="27.48"/>
    <rect class="cls-20" x="577.52" y="687.43" width="27.48" height="27.48"/>
    <polygon class="cls-20" points="330.23 742.39 330.23 769.86 357.7 769.86 357.7 742.39 357.7 714.91 330.23 714.91 330.23 742.39"/>
    <rect class="cls-20" x="605" y="714.91" width="27.48" height="27.48"/>
    <rect class="cls-20" x="632.48" y="742.39" width="27.48" height="27.48"/>
  </g>
  <g>
    <polygon class="cls-12" points="275.27 357.7 275.27 385.18 302.75 385.18 330.23 385.18 330.23 357.7 302.75 357.7 275.27 357.7"/>
    <polygon class="cls-12" points="275.27 302.75 275.27 275.27 275.27 247.8 275.27 220.32 247.8 220.32 247.8 247.8 247.8 275.27 247.8 302.75 247.8 330.23 247.8 357.7 275.27 357.7 275.27 330.23 275.27 302.75"/>
    <polygon class="cls-12" points="550.04 247.8 550.04 275.27 550.04 302.75 550.04 330.23 577.52 330.23 577.52 302.75 577.52 275.27 577.52 247.8 550.04 247.8"/>
    <polygon class="cls-12" points="412.66 577.52 412.66 550.04 412.66 522.57 385.18 522.57 385.18 550.04 385.18 577.52 385.18 605 385.18 632.48 412.66 632.48 412.66 605 412.66 577.52"/>
    <rect class="cls-12" x="412.66" y="632.48" width="27.48" height="27.48"/>
    <polygon class="cls-12" points="385.18 742.39 385.18 769.86 385.18 797.34 412.66 797.34 412.66 769.86 412.66 742.39 412.66 714.91 385.18 714.91 385.18 742.39"/>
  </g>
  <g>
    <rect class="cls-9" x="357.7" y="137.89" width="27.48" height="27.48"/>
    <rect class="cls-9" x="495.09" y="137.89" width="27.48" height="27.48"/>
    <rect class="cls-9" x="467.61" y="192.84" width="27.48" height="27.48"/>
    <rect class="cls-9" x="605" y="192.84" width="27.48" height="27.48"/>
    <rect class="cls-9" x="330.23" y="220.32" width="27.48" height="27.48"/>
    <rect class="cls-9" x="275.27" y="275.27" width="27.48" height="27.48"/>
    <rect class="cls-9" x="577.52" y="302.75" width="27.48" height="27.48"/>
    <rect class="cls-9" x="632.48" y="357.7" width="27.48" height="27.48"/>
    <rect class="cls-9" x="577.52" y="412.66" width="27.48" height="27.48"/>
    <rect class="cls-9" x="495.09" y="440.14" width="27.48" height="27.48"/>
    <rect class="cls-9" x="522.57" y="467.61" width="27.48" height="27.48"/>
    <rect class="cls-9" x="440.14" y="550.04" width="27.48" height="27.48"/>
    <rect class="cls-9" x="467.61" y="714.91" width="27.48" height="27.48"/>
    <rect class="cls-9" x="412.66" y="769.86" width="27.48" height="27.48"/>
  </g>
  <g>
    <rect class="cls-16" x="467.61" y="137.89" width="27.48" height="27.48"/>
    <rect class="cls-16" x="357.7" y="192.84" width="27.48" height="27.48"/>
    <rect class="cls-16" x="522.57" y="192.84" width="27.48" height="27.48"/>
    <rect class="cls-16" x="275.27" y="220.32" width="27.48" height="27.48"/>
    <rect class="cls-16" x="632.48" y="220.32" width="27.48" height="27.48"/>
    <rect class="cls-16" x="577.52" y="275.27" width="27.48" height="27.48"/>
    <rect class="cls-16" x="275.27" y="302.75" width="27.48" height="27.48"/>
    <rect class="cls-16" x="330.23" y="302.75" width="27.48" height="27.48"/>
    <rect class="cls-16" x="632.48" y="302.75" width="27.48" height="27.48"/>
    <rect class="cls-16" x="302.75" y="330.23" width="27.48" height="27.48"/>
    <rect class="cls-16" x="550.04" y="385.18" width="27.48" height="27.48"/>
    <rect class="cls-16" x="440.14" y="467.61" width="27.48" height="27.48"/>
    <rect class="cls-16" x="467.61" y="495.09" width="27.48" height="27.48"/>
    <rect class="cls-16" x="440.14" y="577.52" width="27.48" height="27.48"/>
    <rect class="cls-16" x="412.66" y="714.91" width="27.48" height="27.48"/>
    <rect class="cls-16" x="440.14" y="769.86" width="27.48" height="27.48"/>
  </g>
  <g>
    <rect class="cls-17" x="522.57" y="137.89" width="27.48" height="27.48"/>
    <rect class="cls-17" x="357.7" y="165.36" width="27.48" height="27.48"/>
    <rect class="cls-17" x="440.14" y="192.84" width="27.48" height="27.48"/>
    <rect class="cls-17" x="605" y="220.32" width="27.48" height="27.48"/>
    <rect class="cls-17" x="302.75" y="247.8" width="27.48" height="27.48"/>
    <rect class="cls-17" x="605" y="330.23" width="27.48" height="27.48"/>
    <rect class="cls-17" x="550.04" y="412.66" width="27.48" height="27.48"/>
    <rect class="cls-17" x="412.66" y="522.57" width="27.48" height="27.48"/>
    <rect class="cls-17" x="467.61" y="550.04" width="27.48" height="27.48"/>
    <rect class="cls-17" x="440.14" y="605" width="27.48" height="27.48"/>
    <polygon class="cls-17" points="467.61 714.91 440.14 714.91 440.14 742.39 412.66 742.39 412.66 769.86 440.14 769.86 467.61 769.86 467.61 742.39 467.61 714.91"/>
    <rect class="cls-17" x="467.61" y="769.86" width="27.48" height="27.48"/>
  </g>
  <g>
    <rect class="cls-1" x="55.45" y="27.98" width="27.48" height="27.48"/>
    <rect class="cls-1" x="742.39" y="27.98" width="27.48" height="27.48"/>
    <rect class="cls-1" x="27.98" y="55.45" width="27.48" height="27.48"/>
    <rect class="cls-1" x="714.91" y="55.45" width="27.48" height="27.48"/>
    <polygon class="cls-1" points="82.93 82.93 55.45 82.93 55.45 110.41 82.93 110.41 110.41 110.41 110.41 82.93 82.93 82.93"/>
    <rect class="cls-1" x="110.41" y="110.41" width="27.48" height="27.48"/>
    <rect class="cls-1" x="137.89" y="302.75" width="27.48" height="27.48"/>
    <rect class="cls-1" x="714.91" y="302.75" width="27.48" height="27.48"/>
    <rect class="cls-1" x="55.45" y="440.14" width="27.48" height="27.48"/>
    <rect class="cls-1" x="82.93" y="467.61" width="27.48" height="27.48"/>
    <polygon class="cls-1" points="165.36 577.52 137.89 577.52 137.89 605 137.89 632.48 165.36 632.48 165.36 605 165.36 577.52"/>
    <polygon class="cls-1" points="632.48 577.52 605 577.52 605 605 605 632.48 632.48 632.48 632.48 605 632.48 577.52"/>
    <rect class="cls-1" x="165.36" y="632.48" width="27.48" height="27.48"/>
    <rect class="cls-1" x="632.48" y="632.48" width="27.48" height="27.48"/>
    <rect class="cls-1" x="192.84" y="659.95" width="27.48" height="27.48"/>
    <rect class="cls-1" x="247.8" y="742.39" width="27.48" height="27.48"/>
    <rect class="cls-1" x="550.04" y="742.39" width="27.48" height="27.48"/>
    <rect class="cls-1" x="275.27" y="769.86" width="27.48" height="27.48"/>
    <rect class="cls-1" x="577.52" y="769.86" width="27.48" height="27.48"/>
  </g>
  <g>
    <polygon class="cls-13" points="137.89 55.45 137.89 27.98 110.41 27.98 82.93 27.98 82.93 55.45 110.41 55.45 137.89 55.45"/>
    <polygon class="cls-13" points="797.34 27.98 769.86 27.98 769.86 55.45 797.34 55.45 824.82 55.45 824.82 27.98 797.34 27.98"/>
    <rect class="cls-13" x="110.41" y="82.93" width="27.48" height="27.48"/>
    <rect class="cls-13" x="165.36" y="82.93" width="27.48" height="27.48"/>
    <rect class="cls-13" x="714.91" y="82.93" width="27.48" height="27.48"/>
    <rect class="cls-13" x="137.89" y="275.27" width="27.48" height="27.48"/>
    <rect class="cls-13" x="714.91" y="275.27" width="27.48" height="27.48"/>
    <rect class="cls-13" x="165.36" y="330.23" width="27.48" height="27.48"/>
    <rect class="cls-13" x="742.39" y="330.23" width="27.48" height="27.48"/>
    <rect class="cls-13" x="82.93" y="412.66" width="27.48" height="27.48"/>
    <rect class="cls-13" x="769.86" y="412.66" width="27.48" height="27.48"/>
    <rect class="cls-13" x="742.39" y="440.14" width="27.48" height="27.48"/>
    <rect class="cls-13" x="110.41" y="467.61" width="27.48" height="27.48"/>
    <rect class="cls-13" x="769.86" y="467.61" width="27.48" height="27.48"/>
    <rect class="cls-13" x="192.84" y="522.57" width="27.48" height="27.48"/>
    <rect class="cls-13" x="659.95" y="522.57" width="27.48" height="27.48"/>
    <rect class="cls-13" x="165.36" y="550.04" width="27.48" height="27.48"/>
    <rect class="cls-13" x="632.48" y="550.04" width="27.48" height="27.48"/>
    <rect class="cls-13" x="275.27" y="605" width="27.48" height="27.48"/>
    <rect class="cls-13" x="247.8" y="632.48" width="27.48" height="27.48"/>
    <rect class="cls-13" x="220.32" y="659.95" width="27.48" height="27.48"/>
    <polygon class="cls-13" points="659.95 659.95 659.95 687.43 687.43 687.43 714.91 687.43 714.91 659.95 687.43 659.95 659.95 659.95"/>
    <rect class="cls-13" x="275.27" y="714.91" width="27.48" height="27.48"/>
    <rect class="cls-13" x="550.04" y="714.91" width="27.48" height="27.48"/>
    <rect class="cls-13" x="302.75" y="769.86" width="27.48" height="27.48"/>
    <rect class="cls-13" x="605" y="769.86" width="27.48" height="27.48"/>
  </g>
  <g>
    <rect class="cls-23" x="247.8" y="192.84" width="27.48" height="27.48"/>
    <rect class="cls-23" x="550.04" y="330.23" width="27.48" height="27.48"/>
    <rect class="cls-23" x="330.23" y="357.7" width="27.48" height="27.48"/>
    <rect class="cls-23" x="522.57" y="357.7" width="27.48" height="27.48"/>
    <rect class="cls-23" x="495.09" y="385.18" width="27.48" height="27.48"/>
    <rect class="cls-23" x="467.61" y="412.66" width="27.48" height="27.48"/>
    <rect class="cls-23" x="440.14" y="440.14" width="27.48" height="27.48"/>
    <rect class="cls-23" x="412.66" y="467.61" width="27.48" height="27.48"/>
    <rect class="cls-23" x="385.18" y="495.09" width="27.48" height="27.48"/>
    <rect class="cls-23" x="440.14" y="632.48" width="27.48" height="27.48"/>
    <rect class="cls-23" x="412.66" y="687.43" width="27.48" height="27.48"/>
    <polygon class="cls-23" points="412.66 797.34 412.66 824.82 440.14 824.82 467.61 824.82 467.61 797.34 440.14 797.34 412.66 797.34"/>
  </g>
  <g>
    <polygon class="cls-8" points="357.7 137.89 385.18 137.89 412.66 137.89 440.14 137.89 467.61 137.89 495.09 137.89 495.09 110.41 467.61 110.41 440.14 110.41 412.66 110.41 385.18 110.41 357.7 110.41 357.7 109.38 330.23 109.38 330.23 136.86 357.7 136.86 357.7 137.89"/>
    <rect class="cls-8" x="302.75" y="136.86" width="27.48" height="27.48"/>
    <rect class="cls-8" x="275.27" y="164.33" width="27.48" height="27.48"/>
    <polygon class="cls-8" points="467.61 246.76 495.09 246.76 522.57 246.76 550.04 246.76 550.04 219.29 522.57 219.29 495.09 219.29 467.61 219.29 440.14 219.29 412.66 219.29 385.18 219.29 385.18 246.76 412.66 246.76 440.14 246.76 467.61 246.76"/>
    <polygon class="cls-8" points="357.7 274.24 357.7 301.72 357.7 329.2 357.7 356.67 385.18 356.67 385.18 329.2 385.18 301.72 385.18 274.24 385.18 246.76 357.7 246.76 357.7 274.24"/>
    <rect class="cls-8" x="577.52" y="439.1" width="27.48" height="27.48"/>
    <rect class="cls-8" x="550.04" y="466.58" width="27.48" height="27.48"/>
    <rect class="cls-8" x="522.57" y="494.06" width="27.48" height="27.48"/>
    <polygon class="cls-8" points="495.09 549.01 495.09 576.49 495.09 603.97 495.09 631.45 522.57 631.45 522.57 603.97 522.57 576.49 522.57 549.01 522.57 521.54 495.09 521.54 495.09 549.01"/>
    <rect class="cls-8" x="467.61" y="631.45" width="27.48" height="27.48"/>
    <polygon class="cls-8" points="495.09 713.88 495.09 686.4 467.61 686.4 440.14 686.4 440.14 713.88 467.61 713.88 495.09 713.88"/>
    <rect class="cls-8" x="495.09" y="768.83" width="27.48" height="27.48"/>
    <rect class="cls-8" x="467.61" y="796.31" width="27.48" height="27.48"/>
  </g>
  <g>
    <rect class="cls-19" x="192.84" y="82.93" width="27.48" height="27.48"/>
    <polygon class="cls-19" points="192.84 137.89 192.84 110.41 165.36 110.41 137.89 110.41 137.89 137.89 165.36 137.89 192.84 137.89"/>
    <rect class="cls-19" x="110.41" y="137.89" width="27.48" height="27.48"/>
    <rect class="cls-19" x="192.84" y="247.8" width="27.48" height="27.48"/>
    <polygon class="cls-19" points="137.89 330.23 137.89 302.75 137.89 275.27 165.36 275.27 165.36 247.8 192.84 247.8 192.84 220.32 192.84 192.84 165.36 192.84 165.36 165.36 137.89 165.36 137.89 192.84 110.41 192.84 110.41 220.32 82.93 220.32 82.93 247.8 82.93 275.27 55.45 275.27 55.45 302.75 82.93 302.75 82.93 330.23 110.41 330.23 110.41 357.7 137.89 357.7 165.36 357.7 165.36 330.23 137.89 330.23"/>
    <polygon class="cls-19" points="412.66 412.66 412.66 385.18 412.66 357.7 385.18 357.7 357.7 357.7 357.7 385.18 330.23 385.18 302.75 385.18 275.27 385.18 275.27 357.7 247.8 357.7 247.8 330.23 247.8 302.75 247.8 275.27 220.32 275.27 220.32 302.75 220.32 330.23 192.84 330.23 192.84 357.7 165.36 357.7 165.36 385.18 192.84 385.18 192.84 412.66 220.32 412.66 220.32 440.14 220.32 467.61 220.32 495.09 220.32 522.57 247.8 522.57 247.8 550.04 275.27 550.04 275.27 577.52 302.75 577.52 302.75 605 302.75 632.48 275.27 632.48 275.27 659.95 247.8 659.95 247.8 687.43 220.32 687.43 192.84 687.43 192.84 659.95 165.36 659.95 165.36 632.48 137.89 632.48 137.89 659.95 110.41 659.95 110.41 687.43 110.41 714.91 137.89 714.91 137.89 742.39 137.89 769.86 165.36 769.86 165.36 797.34 192.84 797.34 192.84 769.86 220.32 769.86 220.32 742.39 247.8 742.39 247.8 714.91 275.27 714.91 275.27 687.43 302.75 687.43 302.75 659.95 330.23 659.95 330.23 632.48 357.7 632.48 357.7 605 385.18 605 385.18 577.52 385.18 550.04 385.18 522.57 385.18 495.09 412.66 495.09 412.66 467.61 440.14 467.61 440.14 440.14 440.14 412.66 412.66 412.66"/>
    <polygon class="cls-19" points="110.41 742.39 110.41 714.91 82.93 714.91 82.93 742.39 55.45 742.39 55.45 769.86 82.93 769.86 82.93 797.34 82.93 824.82 82.93 852.29 82.93 879.77 110.41 879.77 110.41 852.29 110.41 824.82 110.41 797.34 137.89 797.34 137.89 769.86 110.41 769.86 110.41 742.39"/>
    <rect class="cls-19" x="192.84" y="797.34" width="27.48" height="27.48"/>
    <polygon class="cls-19" points="247.8 852.29 275.27 852.29 275.27 824.82 247.8 824.82 220.32 824.82 220.32 852.29 247.8 852.29"/>
    <rect class="cls-19" x="275.27" y="852.29" width="27.48" height="27.48"/>
  </g>
  <g>
    <polygon class="cls-14" points="550.04 82.93 522.57 82.93 495.09 82.93 495.09 55.45 467.61 55.45 467.61 27.98 440.14 27.98 412.66 27.98 385.18 27.98 357.7 27.98 357.7 55.45 330.23 55.45 330.23 82.93 357.7 82.93 385.18 82.93 385.18 110.41 412.66 110.41 440.14 110.41 467.61 110.41 495.09 110.41 522.57 110.41 550.04 110.41 577.52 110.41 577.52 82.93 550.04 82.93"/>
    <rect class="cls-14" x="577.52" y="110.41" width="27.48" height="27.48"/>
    <rect class="cls-14" x="605" y="137.89" width="27.48" height="27.48"/>
    <rect class="cls-14" x="632.48" y="165.36" width="27.48" height="27.48"/>
    <rect class="cls-14" x="659.95" y="192.84" width="27.48" height="27.48"/>
    <polygon class="cls-14" points="824.82 357.7 797.34 357.7 797.34 330.23 769.86 330.23 769.86 357.7 742.39 357.7 742.39 330.23 714.91 330.23 714.91 302.75 714.91 275.27 742.39 275.27 742.39 247.8 742.39 220.32 714.91 220.32 687.43 220.32 687.43 247.8 687.43 275.27 687.43 302.75 687.43 330.23 687.43 357.7 714.91 357.7 714.91 385.18 742.39 385.18 742.39 412.66 742.39 440.14 769.86 440.14 769.86 412.66 797.34 412.66 824.82 412.66 824.82 385.18 824.82 357.7"/>
    <rect class="cls-14" x="824.82" y="412.66" width="27.48" height="27.48"/>
    <polygon class="cls-14" points="769.86 495.09 769.86 467.61 742.39 467.61 742.39 495.09 742.39 522.57 769.86 522.57 769.86 550.04 769.86 577.52 769.86 605 769.86 632.48 797.34 632.48 797.34 605 824.82 605 824.82 577.52 824.82 550.04 824.82 522.57 824.82 495.09 797.34 495.09 769.86 495.09"/>
    <rect class="cls-14" x="742.39" y="632.48" width="27.48" height="27.48"/>
    <rect class="cls-14" x="714.91" y="659.95" width="27.48" height="27.48"/>
    <polygon class="cls-14" points="659.95 687.43 659.95 659.95 632.48 659.95 632.48 687.43 605 687.43 605 714.91 632.48 714.91 632.48 742.39 659.95 742.39 687.43 742.39 687.43 714.91 714.91 714.91 714.91 687.43 687.43 687.43 659.95 687.43"/>
    <polygon class="cls-14" points="550.04 742.39 522.57 742.39 522.57 769.86 522.57 797.34 495.09 797.34 495.09 824.82 467.61 824.82 440.14 824.82 412.66 824.82 412.66 852.29 412.66 879.77 440.14 879.77 467.61 879.77 467.61 852.29 495.09 852.29 522.57 852.29 522.57 824.82 550.04 824.82 577.52 824.82 577.52 797.34 577.52 769.86 550.04 769.86 550.04 742.39"/>
    <rect class="cls-14" x="632.48" y="769.86" width="27.48" height="27.48"/>
  </g>
  <g>
    <polygon class="cls-11" points="55.45 330.23 55.45 302.75 27.98 302.75 27.98 330.23 27.98 357.7 55.45 357.7 55.45 330.23"/>
    <polygon class="cls-11" points="27.98 495.09 27.98 467.61 27.98 440.14 27.98 412.66 27.98 385.18 27.98 357.7 .5 357.7 .5 385.18 .5 412.66 .5 440.14 .5 467.61 .5 495.09 .5 522.57 .5 550.04 27.98 550.04 27.98 522.57 27.98 495.09"/>
    <polygon class="cls-11" points="55.45 577.52 55.45 550.04 27.98 550.04 27.98 577.52 27.98 605 27.98 632.48 55.45 632.48 55.45 605 55.45 577.52"/>
    <polygon class="cls-11" points="82.93 632.48 55.45 632.48 55.45 659.95 55.45 687.43 82.93 687.43 82.93 659.95 82.93 632.48"/>
    <rect class="cls-11" x="82.93" y="687.43" width="27.48" height="27.48"/>
    <rect class="cls-11" x="55.45" y="714.91" width="27.48" height="27.48"/>
    <rect class="cls-11" x="27.98" y="742.39" width="27.48" height="27.48"/>
    <polygon class="cls-11" points=".5 797.34 .5 824.82 27.98 824.82 27.98 852.29 27.98 879.77 55.45 879.77 55.45 852.29 55.45 824.82 55.45 797.34 27.98 797.34 27.98 769.86 .5 769.86 .5 797.34"/>
    <rect class="cls-11" x="55.45" y="879.77" width="27.48" height="27.48"/>
  </g>
  <g>
    <rect class="cls-7" x="110.41" y="165.36" width="27.48" height="27.48"/>
    <rect class="cls-7" x="82.93" y="192.84" width="27.48" height="27.48"/>
    <polygon class="cls-7" points="82.93 247.8 82.93 220.32 55.45 220.32 55.45 247.8 55.45 275.27 82.93 275.27 82.93 247.8"/>
    <rect class="cls-7" x="27.98" y="275.27" width="27.48" height="27.48"/>
    <path class="cls-7" d="M192.84,412.66v-27.48h-27.48v-27.48h-54.95v-27.48h-27.48v-27.48h-27.48v54.95h-27.48v192.34h27.48v82.43h27.48v54.95h27.48v-27.48h27.48v-82.43h27.48v-27.48h27.48v-27.48h27.48v-109.91h-27.48ZM165.36,467.61h-27.48v27.48h-54.95v-27.48h-27.48v-27.48h27.48v-27.48h54.95v27.48h27.48v27.48Z"/>
    <polygon class="cls-7" points="137.89 714.91 110.41 714.91 110.41 742.39 110.41 769.86 137.89 769.86 137.89 742.39 137.89 714.91"/>
    <polygon class="cls-7" points="165.36 769.86 137.89 769.86 137.89 797.34 110.41 797.34 110.41 824.82 110.41 852.29 110.41 879.77 137.89 879.77 137.89 852.29 137.89 824.82 165.36 824.82 192.84 824.82 192.84 797.34 165.36 797.34 165.36 769.86"/>
    <polygon class="cls-7" points="82.93 824.82 82.93 797.34 82.93 769.86 55.45 769.86 27.98 769.86 27.98 797.34 55.45 797.34 55.45 824.82 55.45 852.29 55.45 879.77 82.93 879.77 82.93 852.29 82.93 824.82"/>
    <rect class="cls-7" x="82.93" y="879.77" width="27.48" height="27.48"/>
  </g>
  <g>
    <polygon class="cls-10" points="330.23 54.42 330.23 26.95 302.75 26.95 275.27 26.95 275.27 54.42 302.75 54.42 330.23 54.42"/>
    <polygon class="cls-10" points="275.27 81.9 275.27 54.42 247.8 54.42 220.32 54.42 220.32 81.9 247.8 81.9 275.27 81.9"/>
    <path class="cls-10" d="M192.84,192.84v54.95h27.48v27.48h27.48v-82.43h27.48v-54.95h-27.48v-27.48h-27.48v-1.03h-27.48v28.51h-54.95v27.48h27.48v27.48h27.48ZM192.84,164.33h27.48v1.03h-27.48v-1.03Z"/>
    <polygon class="cls-10" points="412.66 385.18 412.66 412.66 440.14 412.66 440.14 440.14 467.61 440.14 467.61 412.66 495.09 412.66 495.09 385.18 522.57 385.18 522.57 357.7 550.04 357.7 550.04 330.23 522.57 330.23 522.57 302.75 495.09 302.75 495.09 275.27 467.61 275.27 467.61 247.8 440.14 247.8 412.66 247.8 385.18 247.8 385.18 275.27 385.18 302.75 385.18 330.23 385.18 357.7 412.66 357.7 412.66 385.18"/>
    <polygon class="cls-10" points="577.52 495.09 550.04 495.09 550.04 522.57 522.57 522.57 522.57 550.04 522.57 577.52 522.57 605 522.57 632.48 495.09 632.48 495.09 659.95 522.57 659.95 550.04 659.95 550.04 632.48 577.52 632.48 577.52 605 577.52 577.52 577.52 550.04 605 550.04 605 522.57 605 495.09 605 467.61 577.52 467.61 577.52 495.09"/>
    <polygon class="cls-10" points="440.14 659.95 412.66 659.95 412.66 632.48 385.18 632.48 385.18 605 357.7 605 357.7 632.48 330.23 632.48 330.23 659.95 302.75 659.95 302.75 687.43 330.23 687.43 330.23 714.91 357.7 714.91 357.7 742.39 357.7 769.86 385.18 769.86 385.18 742.39 385.18 714.91 412.66 714.91 412.66 687.43 440.14 687.43 467.61 687.43 495.09 687.43 495.09 659.95 467.61 659.95 440.14 659.95"/>
    <rect class="cls-10" x="275.27" y="687.43" width="27.48" height="27.48"/>
    <rect class="cls-10" x="247.8" y="714.91" width="27.48" height="27.48"/>
    <polygon class="cls-10" points="220.32 769.86 192.84 769.86 192.84 797.34 220.32 797.34 220.32 824.82 247.8 824.82 275.27 824.82 275.27 852.29 302.75 852.29 302.75 824.82 330.23 824.82 330.23 797.34 302.75 797.34 275.27 797.34 275.27 769.86 247.8 769.86 247.8 742.39 220.32 742.39 220.32 769.86"/>
    <polygon class="cls-10" points="769.86 797.34 742.39 797.34 714.91 797.34 714.91 824.82 742.39 824.82 769.86 824.82 769.86 852.29 769.86 879.77 797.34 879.77 797.34 852.29 797.34 824.82 797.34 797.34 769.86 797.34"/>
    <polygon class="cls-10" points="330.23 879.77 357.7 879.77 357.7 852.29 330.23 852.29 302.75 852.29 302.75 879.77 330.23 879.77"/>
    <polygon class="cls-10" points="385.18 907.25 412.66 907.25 412.66 879.77 385.18 879.77 357.7 879.77 357.7 907.25 385.18 907.25"/>
  </g>
  <g>
    <polygon class="cls-18" points="412.66 27.98 440.14 27.98 440.14 .5 412.66 .5 385.18 .5 357.7 .5 357.7 27.98 385.18 27.98 412.66 27.98"/>
    <rect class="cls-18" x="330.23" y="27.98" width="27.48" height="27.48"/>
    <polygon class="cls-18" points="302.75 165.36 302.75 137.89 330.23 137.89 330.23 110.41 357.7 110.41 385.18 110.41 385.18 82.93 357.7 82.93 330.23 82.93 330.23 55.45 302.75 55.45 275.27 55.45 275.27 82.93 247.8 82.93 220.32 82.93 220.32 110.41 247.8 110.41 247.8 137.89 275.27 137.89 275.27 165.36 302.75 165.36"/>
    <polygon class="cls-18" points="495.09 302.75 522.57 302.75 522.57 330.23 550.04 330.23 550.04 302.75 550.04 275.27 550.04 247.8 522.57 247.8 495.09 247.8 467.61 247.8 467.61 275.27 495.09 275.27 495.09 302.75"/>
    <polygon class="cls-18" points="769.86 577.52 769.86 550.04 769.86 522.57 742.39 522.57 742.39 495.09 742.39 467.61 742.39 440.14 742.39 412.66 742.39 385.18 714.91 385.18 714.91 357.7 687.43 357.7 687.43 385.18 659.95 385.18 659.95 412.66 632.48 412.66 632.48 440.14 605 440.14 605 467.61 605 495.09 605 522.57 605 550.04 577.52 550.04 577.52 577.52 577.52 605 577.52 632.48 550.04 632.48 550.04 659.95 522.57 659.95 495.09 659.95 495.09 687.43 495.09 714.91 522.57 714.91 522.57 742.39 550.04 742.39 550.04 714.91 577.52 714.91 577.52 687.43 605 687.43 632.48 687.43 632.48 659.95 632.48 632.48 605 632.48 605 605 605 577.52 632.48 577.52 632.48 550.04 659.95 550.04 659.95 522.57 687.43 522.57 714.91 522.57 714.91 550.04 742.39 550.04 742.39 577.52 769.86 577.52"/>
    <rect class="cls-18" x="824.82" y="714.91" width="27.48" height="27.48"/>
    <rect class="cls-18" x="852.29" y="742.39" width="27.48" height="27.48"/>
    <polygon class="cls-18" points="879.77 769.86 879.77 797.34 852.29 797.34 852.29 824.82 824.82 824.82 824.82 797.34 824.82 769.86 797.34 769.86 769.86 769.86 769.86 797.34 797.34 797.34 797.34 824.82 797.34 852.29 797.34 879.77 824.82 879.77 852.29 879.77 879.77 879.77 879.77 852.29 879.77 824.82 907.25 824.82 907.25 797.34 907.25 769.86 879.77 769.86"/>
    <polygon class="cls-18" points="412.66 824.82 412.66 797.34 385.18 797.34 385.18 769.86 357.7 769.86 330.23 769.86 330.23 797.34 330.23 824.82 302.75 824.82 302.75 852.29 330.23 852.29 357.7 852.29 357.7 879.77 385.18 879.77 412.66 879.77 412.66 852.29 412.66 824.82"/>
    <polygon class="cls-18" points="412.66 879.77 412.66 907.25 440.14 907.25 467.61 907.25 467.61 879.77 440.14 879.77 412.66 879.77"/>
  </g>
  <g>
    <polygon class="cls-4" points="495.09 27.98 522.57 27.98 550.04 27.98 550.04 .5 522.57 .5 495.09 .5 467.61 .5 440.14 .5 440.14 27.98 467.61 27.98 495.09 27.98"/>
    <polygon class="cls-4" points="577.52 55.45 605 55.45 632.48 55.45 632.48 27.98 605 27.98 577.52 27.98 550.04 27.98 550.04 55.45 577.52 55.45"/>
    <polygon class="cls-4" points="659.95 82.93 687.43 82.93 687.43 55.45 659.95 55.45 632.48 55.45 632.48 82.93 659.95 82.93"/>
    <rect class="cls-4" x="687.43" y="82.93" width="27.48" height="27.48"/>
    <rect class="cls-4" x="714.91" y="110.41" width="27.48" height="27.48"/>
    <polygon class="cls-4" points="797.34 137.89 769.86 137.89 769.86 165.36 769.86 192.84 797.34 192.84 797.34 165.36 797.34 137.89"/>
    <rect class="cls-4" x="797.34" y="192.84" width="27.48" height="27.48"/>
    <polygon class="cls-4" points="852.29 220.32 824.82 220.32 824.82 247.8 824.82 275.27 852.29 275.27 852.29 247.8 852.29 220.32"/>
    <polygon class="cls-4" points="879.77 302.75 879.77 275.27 852.29 275.27 852.29 302.75 852.29 330.23 852.29 357.7 879.77 357.7 879.77 330.23 879.77 302.75"/>
    <polygon class="cls-4" points="879.77 357.7 879.77 385.18 879.77 412.66 879.77 440.14 879.77 467.61 879.77 495.09 879.77 522.57 879.77 550.04 907.25 550.04 907.25 522.57 907.25 495.09 907.25 467.61 907.25 440.14 907.25 412.66 907.25 385.18 907.25 357.7 879.77 357.7"/>
    <polygon class="cls-4" points="852.29 577.52 852.29 605 852.29 632.48 879.77 632.48 879.77 605 879.77 577.52 879.77 550.04 852.29 550.04 852.29 577.52"/>
    <polygon class="cls-4" points="824.82 659.95 824.82 687.43 852.29 687.43 852.29 659.95 852.29 632.48 824.82 632.48 824.82 659.95"/>
    <rect class="cls-4" x="797.34" y="687.43" width="27.48" height="27.48"/>
    <polygon class="cls-4" points="769.86 742.39 769.86 769.86 797.34 769.86 797.34 742.39 797.34 714.91 769.86 714.91 769.86 742.39"/>
    <polygon class="cls-4" points="714.91 769.86 714.91 797.34 742.39 797.34 769.86 797.34 769.86 769.86 742.39 769.86 714.91 769.86"/>
    <rect class="cls-4" x="687.43" y="797.34" width="27.48" height="27.48"/>
    <polygon class="cls-4" points="632.48 824.82 632.48 852.29 659.95 852.29 687.43 852.29 687.43 824.82 659.95 824.82 632.48 824.82"/>
    <polygon class="cls-4" points="577.52 852.29 550.04 852.29 550.04 879.77 577.52 879.77 605 879.77 632.48 879.77 632.48 852.29 605 852.29 577.52 852.29"/>
    <polygon class="cls-4" points="495.09 879.77 467.61 879.77 467.61 907.25 495.09 907.25 522.57 907.25 550.04 907.25 550.04 879.77 522.57 879.77 495.09 879.77"/>
  </g>
  <g>
    <polygon class="cls-5" points="852.29 357.7 852.29 330.23 852.29 302.75 852.29 275.27 824.82 275.27 824.82 247.8 824.82 220.32 797.34 220.32 797.34 192.84 769.86 192.84 769.86 165.36 769.86 137.89 742.39 137.89 714.91 137.89 714.91 110.41 687.43 110.41 687.43 82.93 659.95 82.93 632.48 82.93 632.48 55.45 605 55.45 577.52 55.45 550.04 55.45 550.04 27.98 522.57 27.98 495.09 27.98 467.61 27.98 467.61 55.45 495.09 55.45 495.09 82.93 522.57 82.93 550.04 82.93 577.52 82.93 577.52 110.41 605 110.41 605 137.89 632.48 137.89 632.48 165.36 659.95 165.36 659.95 192.84 687.43 192.84 687.43 220.32 714.91 220.32 742.39 220.32 742.39 247.8 769.86 247.8 769.86 275.27 797.34 275.27 797.34 302.75 797.34 330.23 797.34 357.7 824.82 357.7 824.82 385.18 824.82 412.66 852.29 412.66 852.29 440.14 852.29 467.61 824.82 467.61 824.82 495.09 824.82 522.57 824.82 550.04 824.82 577.52 824.82 605 797.34 605 797.34 632.48 769.86 632.48 769.86 659.95 742.39 659.95 742.39 687.43 714.91 687.43 714.91 714.91 687.43 714.91 687.43 742.39 659.95 742.39 659.95 769.86 659.95 797.34 632.48 797.34 605 797.34 577.52 797.34 577.52 824.82 550.04 824.82 522.57 824.82 522.57 852.29 495.09 852.29 467.61 852.29 467.61 879.77 495.09 879.77 522.57 879.77 550.04 879.77 550.04 852.29 577.52 852.29 605 852.29 632.48 852.29 632.48 824.82 659.95 824.82 687.43 824.82 687.43 797.34 714.91 797.34 714.91 769.86 742.39 769.86 769.86 769.86 769.86 742.39 769.86 714.91 797.34 714.91 797.34 687.43 824.82 687.43 824.82 659.95 824.82 632.48 852.29 632.48 852.29 605 852.29 577.52 852.29 550.04 879.77 550.04 879.77 522.57 879.77 495.09 879.77 467.61 879.77 440.14 879.77 412.66 879.77 385.18 879.77 357.7 852.29 357.7"/>
    <polygon class="cls-5" points="797.34 769.86 824.82 769.86 824.82 797.34 824.82 824.82 852.29 824.82 852.29 797.34 879.77 797.34 879.77 769.86 852.29 769.86 852.29 742.39 824.82 742.39 824.82 714.91 797.34 714.91 797.34 742.39 797.34 769.86"/>
    <polygon class="cls-5" points="824.82 879.77 797.34 879.77 797.34 907.25 824.82 907.25 852.29 907.25 879.77 907.25 879.77 879.77 852.29 879.77 824.82 879.77"/>
  </g>
</svg>