<?xml version="1.0" encoding="UTF-8"?>
<svg id="Calque_1" data-name="Calque 1" xmlns="http://www.w3.org/2000/svg" viewBox="0 0 908.09 908.09">
  <defs>
    <style>
      .cls-1 {
        fill: #fabd6a;
        stroke: #fabd69;
      }

      .cls-1, .cls-2, .cls-3, .cls-4, .cls-5, .cls-6, .cls-7, .cls-8, .cls-9, .cls-10, .cls-11, .cls-12, .cls-13, .cls-14, .cls-15, .cls-16, .cls-17, .cls-18, .cls-19 {
        stroke-miterlimit: 10;
      }

      .cls-2 {
        fill: #596d67;
        stroke: #596d67;
      }

      .cls-3 {
        fill: #f6a354;
        stroke: #f6a353;
      }

      .cls-4 {
        fill: #f28a2c;
        stroke: #f28a2b;
      }

      .cls-5 {
        fill: #b8cfc8;
        stroke: #b8cfc9;
      }

      .cls-6 {
        fill: #fdd8a5;
        stroke: #fdd8a5;
      }

      .cls-7 {
        fill: #f2f2f2;
        stroke: #f2f2f2;
      }

      .cls-8 {
        fill: #8bbf48;
        stroke: #8abf46;
      }

      .cls-9 {
        fill: #c1d77a;
        stroke: #c2d77a;
      }

      .cls-10 {
        fill: #dddada;
        stroke: #dddada;
      }

      .cls-11 {
        fill: #ed7028;
        stroke: #ed6f26;
      }

      .cls-12 {
        fill: #e94f1f;
        stroke: #e94e1e;
      }

      .cls-13 {
        fill: #a6bbb4;
        stroke: #a6bab4;
      }

      .cls-14 {
        fill: #fff;
        stroke: #fff;
      }

      .cls-15 {
        fill: #1f1f1f;
        stroke: #1f1f1f;
      }

      .cls-16 {
        fill: #64a030;
        stroke: #64a030;
      }

      .cls-17 {
        fill: #6e837c;
        stroke: #6e837c;
      }

      .cls-18 {
        fill: #9cc652;
        stroke: #9cc650;
      }

      .cls-19 {
        fill: #8ca19b;
        stroke: #8ba19b;
      }
    </style>
  </defs>
  <g>
    <polygon class="cls-10" points="357.84 192.91 330.35 192.91 330.35 220.4 357.84 220.4 385.32 220.4 412.81 220.4 412.81 192.91 385.32 192.91 357.84 192.91"/>
    <polygon class="cls-10" points="550.25 192.91 522.76 192.91 495.27 192.91 495.27 220.4 522.76 220.4 550.25 220.4 577.74 220.4 577.74 192.91 550.25 192.91"/>
    <polygon class="cls-10" points="275.37 220.4 247.89 220.4 220.4 220.4 220.4 247.89 247.89 247.89 275.37 247.89 302.86 247.89 330.35 247.89 330.35 220.4 302.86 220.4 275.37 220.4"/>
    <polygon class="cls-10" points="660.2 220.4 632.71 220.4 605.22 220.4 577.74 220.4 577.74 247.89 605.22 247.89 632.71 247.89 660.2 247.89 687.69 247.89 687.69 220.4 660.2 220.4"/>
    <polygon class="cls-10" points="165.42 247.89 165.42 275.37 165.42 302.86 192.91 302.86 220.4 302.86 220.4 275.37 220.4 247.89 192.91 247.89 165.42 247.89"/>
    <polygon class="cls-10" points="715.17 247.89 687.69 247.89 687.69 275.37 715.17 275.37 742.66 275.37 742.66 247.89 715.17 247.89"/>
    <polygon class="cls-10" points="247.89 330.35 275.37 330.35 275.37 302.86 247.89 302.86 220.4 302.86 220.4 330.35 247.89 330.35"/>
  </g>
  <polygon class="cls-15" points="467.79 247.89 467.79 220.4 440.3 220.4 440.3 247.89 412.81 247.89 412.81 275.37 412.81 302.86 440.3 302.86 440.3 330.35 467.79 330.35 467.79 302.86 495.27 302.86 495.27 275.37 495.27 247.89 467.79 247.89"/>
  <g>
    <rect class="cls-18" x="467.79" y="220.4" width="27.49" height="27.49"/>
    <polygon class="cls-18" points="495.27 247.89 495.27 275.37 495.27 302.86 522.76 302.86 522.76 275.37 522.76 247.89 495.27 247.89"/>
    <rect class="cls-18" x="467.79" y="302.86" width="27.49" height="27.49"/>
  </g>
  <g>
    <rect class="cls-16" x="412.81" y="192.91" width="27.49" height="27.49"/>
    <rect class="cls-16" x="385.32" y="220.4" width="27.49" height="27.49"/>
    <polygon class="cls-16" points="385.32 247.89 357.84 247.89 357.84 275.37 357.84 302.86 385.32 302.86 385.32 275.37 385.32 247.89"/>
    <rect class="cls-16" x="385.32" y="302.86" width="27.49" height="27.49"/>
    <rect class="cls-16" x="412.81" y="330.35" width="27.49" height="27.49"/>
  </g>
  <g>
    <rect class="cls-8" x="440.3" y="192.91" width="27.49" height="27.49"/>
    <rect class="cls-8" x="412.81" y="220.4" width="27.49" height="27.49"/>
    <polygon class="cls-8" points="412.81 247.89 385.32 247.89 385.32 275.37 385.32 302.86 412.81 302.86 412.81 275.37 412.81 247.89"/>
    <rect class="cls-8" x="412.81" y="302.86" width="27.49" height="27.49"/>
    <rect class="cls-8" x="440.3" y="330.35" width="27.49" height="27.49"/>
  </g>
  <g>
    <rect class="cls-9" x="467.79" y="192.91" width="27.49" height="27.49"/>
    <rect class="cls-9" x="495.27" y="220.4" width="27.49" height="27.49"/>
    <polygon class="cls-9" points="522.76 247.89 522.76 275.37 522.76 302.86 550.25 302.86 550.25 275.37 550.25 247.89 522.76 247.89"/>
    <rect class="cls-9" x="495.27" y="302.86" width="27.49" height="27.49"/>
    <rect class="cls-9" x="467.79" y="330.35" width="27.49" height="27.49"/>
  </g>
  <g>
    <polygon class="cls-14" points="357.84 275.37 357.84 247.89 330.35 247.89 330.35 275.37 302.86 275.37 302.86 302.86 330.35 302.86 330.35 330.35 357.84 330.35 385.32 330.35 385.32 302.86 357.84 302.86 357.84 275.37"/>
    <polygon class="cls-14" points="660.2 275.37 632.71 275.37 605.22 275.37 577.74 275.37 550.25 275.37 550.25 302.86 522.76 302.86 522.76 330.35 495.27 330.35 495.27 357.84 522.76 357.84 550.25 357.84 550.25 330.35 577.74 330.35 605.22 330.35 632.71 330.35 660.2 330.35 687.69 330.35 687.69 302.86 687.69 275.37 660.2 275.37"/>
  </g>
  <g>
    <polygon class="cls-7" points="385.32 247.89 385.32 220.4 357.84 220.4 330.35 220.4 330.35 247.89 357.84 247.89 385.32 247.89"/>
    <polygon class="cls-7" points="660.2 247.89 632.71 247.89 605.22 247.89 577.74 247.89 577.74 220.4 550.25 220.4 522.76 220.4 522.76 247.89 550.25 247.89 550.25 275.37 577.74 275.37 605.22 275.37 632.71 275.37 660.2 275.37 687.69 275.37 687.69 247.89 660.2 247.89"/>
    <polygon class="cls-7" points="715.17 275.37 687.69 275.37 687.69 302.86 715.17 302.86 742.66 302.86 742.66 275.37 715.17 275.37"/>
    <polygon class="cls-7" points="302.86 302.86 302.86 275.37 330.35 275.37 330.35 247.89 302.86 247.89 275.37 247.89 247.89 247.89 220.4 247.89 220.4 275.37 220.4 302.86 247.89 302.86 275.37 302.86 275.37 330.35 302.86 330.35 330.35 330.35 330.35 302.86 302.86 302.86"/>
    <polygon class="cls-7" points="357.84 330.35 330.35 330.35 330.35 357.84 357.84 357.84 385.32 357.84 412.81 357.84 412.81 330.35 385.32 330.35 357.84 330.35"/>
    <rect class="cls-7" x="550.25" y="330.35" width="27.49" height="27.49"/>
  </g>
  <g>
    <polygon class="cls-19" points="467.79 165.42 440.3 165.42 412.81 165.42 385.32 165.42 357.84 165.42 330.35 165.42 330.35 192.91 357.84 192.91 385.32 192.91 412.81 192.91 440.3 192.91 467.79 192.91 495.27 192.91 495.27 165.42 467.79 165.42"/>
    <polygon class="cls-19" points="440.3 357.84 412.81 357.84 385.32 357.84 357.84 357.84 330.35 357.84 330.35 385.32 357.84 385.32 385.32 385.32 412.81 385.32 440.3 385.32 467.79 385.32 495.27 385.32 495.27 357.84 467.79 357.84 440.3 357.84"/>
    <polygon class="cls-19" points="412.81 605.22 412.81 632.71 440.3 632.71 467.79 632.71 467.79 605.22 440.3 605.22 412.81 605.22"/>
  </g>
  <g>
    <polygon class="cls-13" points="550.25 165.42 522.76 165.42 495.27 165.42 495.27 192.91 522.76 192.91 550.25 192.91 577.74 192.91 577.74 165.42 550.25 165.42"/>
    <polygon class="cls-13" points="660.2 192.91 632.71 192.91 605.22 192.91 577.74 192.91 577.74 220.4 605.22 220.4 632.71 220.4 660.2 220.4 687.69 220.4 687.69 192.91 660.2 192.91"/>
    <polygon class="cls-13" points="632.71 330.35 605.22 330.35 577.74 330.35 577.74 357.84 605.22 357.84 632.71 357.84 660.2 357.84 687.69 357.84 687.69 330.35 660.2 330.35 632.71 330.35"/>
    <polygon class="cls-13" points="522.76 357.84 495.27 357.84 495.27 385.32 522.76 385.32 550.25 385.32 577.74 385.32 577.74 357.84 550.25 357.84 522.76 357.84"/>
    <rect class="cls-13" x="467.79" y="605.22" width="27.49" height="27.49"/>
    <rect class="cls-13" x="220.4" y="687.69" width="27.49" height="27.49"/>
  </g>
  <g>
    <rect class="cls-12" x="192.91" y="110.45" width="27.49" height="27.49"/>
    <polygon class="cls-12" points="165.42 165.42 192.91 165.42 192.91 137.94 165.42 137.94 137.94 137.94 110.45 137.94 110.45 165.42 137.94 165.42 165.42 165.42"/>
    <rect class="cls-12" x="82.96" y="165.42" width="27.49" height="27.49"/>
    <rect class="cls-12" x="55.47" y="192.91" width="27.49" height="27.49"/>
    <rect class="cls-12" x="27.99" y="220.4" width="27.49" height="27.49"/>
    <polygon class="cls-12" points="27.99 247.89 .5 247.89 .5 275.37 .5 302.86 27.99 302.86 27.99 275.37 27.99 247.89"/>
    <rect class="cls-12" x="27.99" y="302.86" width="27.49" height="27.49"/>
    <rect class="cls-12" x="55.47" y="330.35" width="27.49" height="27.49"/>
    <rect class="cls-12" x="82.96" y="357.84" width="27.49" height="27.49"/>
    <polygon class="cls-12" points="165.42 385.32 137.94 385.32 110.45 385.32 110.45 412.81 137.94 412.81 165.42 412.81 192.91 412.81 192.91 385.32 165.42 385.32"/>
    <polygon class="cls-12" points="192.91 412.81 192.91 440.3 220.4 440.3 247.89 440.3 247.89 412.81 220.4 412.81 192.91 412.81"/>
    <polygon class="cls-12" points="385.32 605.22 357.84 605.22 357.84 577.74 385.32 577.74 385.32 550.25 357.84 550.25 330.35 550.25 330.35 577.74 302.86 577.74 302.86 605.22 330.35 605.22 330.35 632.71 357.84 632.71 385.32 632.71 385.32 605.22"/>
    <rect class="cls-12" x="137.94" y="660.2" width="27.49" height="27.49"/>
    <rect class="cls-12" x="385.32" y="660.2" width="27.49" height="27.49"/>
    <rect class="cls-12" x="165.42" y="715.17" width="27.49" height="27.49"/>
  </g>
  <g>
    <polygon class="cls-1" points="577.74 110.45 605.22 110.45 605.22 82.96 577.74 82.96 550.25 82.96 522.76 82.96 522.76 110.45 550.25 110.45 577.74 110.45"/>
    <polygon class="cls-1" points="632.71 137.94 660.2 137.94 687.69 137.94 715.17 137.94 715.17 110.45 687.69 110.45 660.2 110.45 632.71 110.45 605.22 110.45 605.22 137.94 632.71 137.94"/>
    <polygon class="cls-1" points="770.15 248.92 770.15 276.41 770.15 303.89 770.15 330.35 742.66 330.35 742.66 357.84 715.17 357.84 715.17 385.32 742.66 385.32 770.15 385.32 797.64 385.32 797.64 358.87 825.12 358.87 825.12 331.38 825.12 303.89 825.12 276.41 825.12 248.92 797.64 248.92 770.15 248.92"/>
    <polygon class="cls-1" points="852.61 247.89 852.61 220.4 825.12 220.4 825.12 192.91 797.64 192.91 797.64 165.42 770.15 165.42 742.66 165.42 715.17 165.42 715.17 192.91 742.66 192.91 742.66 220.4 770.15 220.4 770.15 247.89 797.64 247.89 825.12 247.89 825.12 275.37 825.12 302.86 825.12 330.35 852.61 330.35 852.61 302.86 880.1 302.86 880.1 275.37 880.1 247.89 852.61 247.89"/>
    <polygon class="cls-1" points="660.2 412.81 632.71 412.81 605.22 412.81 605.22 440.3 632.71 440.3 660.2 440.3 687.69 440.3 715.17 440.3 715.17 412.81 687.69 412.81 660.2 412.81"/>
    <polygon class="cls-1" points="550.25 440.3 522.76 440.3 522.76 467.79 550.25 467.79 577.74 467.79 605.22 467.79 605.22 440.3 577.74 440.3 550.25 440.3"/>
    <rect class="cls-1" x="495.27" y="522.76" width="27.49" height="27.49"/>
    <rect class="cls-1" x="522.76" y="551.28" width="27.49" height="27.49"/>
    <polygon class="cls-1" points="550.25 605.22 522.76 605.22 522.76 632.71 550.25 632.71 550.25 606.26 577.74 606.26 577.74 578.77 550.25 578.77 550.25 605.22"/>
    <rect class="cls-1" x="220.4" y="633.74" width="27.49" height="27.49"/>
    <rect class="cls-1" x="495.27" y="633.74" width="27.49" height="27.49"/>
    <rect class="cls-1" x="412.81" y="716.21" width="27.49" height="27.49"/>
  </g>
  <g>
    <polygon class="cls-11" points="247.89 110.45 220.4 110.45 220.4 137.94 247.89 137.94 275.37 137.94 302.86 137.94 302.86 110.45 275.37 110.45 247.89 110.45"/>
    <polygon class="cls-11" points="110.45 165.42 110.45 192.91 82.96 192.91 82.96 220.4 55.47 220.4 55.47 247.89 27.99 247.89 27.99 275.37 27.99 302.86 55.47 302.86 55.47 330.35 82.96 330.35 82.96 357.84 110.45 357.84 110.45 385.32 137.94 385.32 165.42 385.32 165.42 357.84 137.94 357.84 137.94 330.35 110.45 330.35 110.45 302.86 110.45 275.37 110.45 247.89 110.45 220.4 137.94 220.4 137.94 192.91 165.42 192.91 165.42 165.42 137.94 165.42 110.45 165.42"/>
    <polygon class="cls-11" points="247.89 412.81 247.89 440.3 275.37 440.3 302.86 440.3 302.86 412.81 275.37 412.81 247.89 412.81"/>
    <polygon class="cls-11" points="220.4 495.27 192.91 495.27 192.91 522.76 220.4 522.76 247.89 522.76 275.37 522.76 275.37 495.27 247.89 495.27 220.4 495.27"/>
    <polygon class="cls-11" points="440.3 577.74 440.3 550.25 412.81 550.25 412.81 522.76 385.32 522.76 357.84 522.76 357.84 550.25 385.32 550.25 385.32 577.74 412.81 577.74 412.81 605.22 440.3 605.22 467.79 605.22 467.79 577.74 440.3 577.74"/>
    <polygon class="cls-11" points="385.32 632.71 357.84 632.71 357.84 660.2 385.32 660.2 412.81 660.2 412.81 632.71 412.81 605.22 385.32 605.22 385.32 632.71"/>
    <rect class="cls-11" x="357.84" y="742.66" width="27.49" height="27.49"/>
  </g>
  <g>
    <polygon class="cls-2" points="165.42 220.4 165.42 247.89 192.91 247.89 220.4 247.89 220.4 220.4 192.91 220.4 165.42 220.4"/>
    <polygon class="cls-2" points="137.94 275.37 137.94 302.86 165.42 302.86 165.42 275.37 165.42 247.89 137.94 247.89 137.94 275.37"/>
    <polygon class="cls-2" points="192.91 330.35 220.4 330.35 220.4 302.86 192.91 302.86 165.42 302.86 165.42 330.35 192.91 330.35"/>
    <rect class="cls-2" x="357.84" y="577.74" width="27.49" height="27.49"/>
    <rect class="cls-2" x="165.42" y="660.2" width="27.49" height="27.49"/>
    <rect class="cls-2" x="385.32" y="742.66" width="27.49" height="27.49"/>
  </g>
  <g>
    <polygon class="cls-5" points="715.17 220.4 687.69 220.4 687.69 247.89 715.17 247.89 742.66 247.89 742.66 220.4 715.17 220.4"/>
    <polygon class="cls-5" points="742.66 247.89 742.66 275.37 742.66 302.86 770.15 302.86 770.15 275.37 770.15 247.89 742.66 247.89"/>
    <polygon class="cls-5" points="687.69 302.86 687.69 330.35 715.17 330.35 742.66 330.35 742.66 302.86 715.17 302.86 687.69 302.86"/>
    <polygon class="cls-5" points="495.27 577.74 495.27 605.22 522.76 605.22 550.25 605.22 550.25 577.74 522.76 577.74 495.27 577.74"/>
    <rect class="cls-5" x="247.89" y="660.2" width="27.49" height="27.49"/>
    <rect class="cls-5" x="440.3" y="742.66" width="27.49" height="27.49"/>
  </g>
  <g>
    <polygon class="cls-17" points="275.37 192.91 247.89 192.91 220.4 192.91 220.4 220.4 247.89 220.4 275.37 220.4 302.86 220.4 330.35 220.4 330.35 192.91 302.86 192.91 275.37 192.91"/>
    <polygon class="cls-17" points="275.37 330.35 247.89 330.35 220.4 330.35 220.4 357.84 247.89 357.84 275.37 357.84 302.86 357.84 330.35 357.84 330.35 330.35 302.86 330.35 275.37 330.35"/>
    <rect class="cls-17" x="385.32" y="577.74" width="27.49" height="27.49"/>
    <rect class="cls-17" x="192.91" y="687.69" width="27.49" height="27.49"/>
    <rect class="cls-17" x="412.81" y="770.15" width="27.49" height="27.49"/>
  </g>
  <g>
    <polygon class="cls-6" points="770.15 137.94 742.66 137.94 715.17 137.94 715.17 165.42 742.66 165.42 770.15 165.42 797.64 165.42 797.64 137.94 770.15 137.94"/>
    <rect class="cls-6" x="797.64" y="165.42" width="27.49" height="27.49"/>
    <rect class="cls-6" x="825.12" y="192.91" width="27.49" height="27.49"/>
    <rect class="cls-6" x="852.61" y="220.4" width="27.49" height="27.49"/>
    <polygon class="cls-6" points="880.1 247.89 880.1 275.37 880.1 302.86 907.59 302.86 907.59 275.37 907.59 247.89 880.1 247.89"/>
    <rect class="cls-6" x="852.61" y="302.86" width="27.49" height="27.49"/>
    <rect class="cls-6" x="825.12" y="330.35" width="27.49" height="27.49"/>
    <rect class="cls-6" x="797.64" y="357.84" width="27.49" height="27.49"/>
    <polygon class="cls-6" points="742.66 385.32 715.17 385.32 715.17 412.81 742.66 412.81 770.15 412.81 797.64 412.81 797.64 385.32 770.15 385.32 742.66 385.32"/>
    <rect class="cls-6" x="687.69" y="495.27" width="27.49" height="27.49"/>
    <rect class="cls-6" x="522.76" y="522.76" width="27.49" height="27.49"/>
    <rect class="cls-6" x="550.25" y="550.25" width="27.49" height="27.49"/>
    <rect class="cls-6" x="577.74" y="577.74" width="27.49" height="27.49"/>
    <rect class="cls-6" x="550.25" y="605.22" width="27.49" height="27.49"/>
    <rect class="cls-6" x="247.89" y="632.71" width="27.49" height="27.49"/>
    <rect class="cls-6" x="522.76" y="632.71" width="27.49" height="27.49"/>
    <rect class="cls-6" x="275.37" y="660.2" width="27.49" height="27.49"/>
    <rect class="cls-6" x="247.89" y="687.69" width="27.49" height="27.49"/>
    <rect class="cls-6" x="440.3" y="715.17" width="27.49" height="27.49"/>
    <rect class="cls-6" x="467.79" y="742.66" width="27.49" height="27.49"/>
    <rect class="cls-6" x="440.3" y="770.15" width="27.49" height="27.49"/>
  </g>
  <g>
    <polygon class="cls-4" points="467.79 110.45 440.3 110.45 412.81 110.45 385.32 110.45 357.84 110.45 330.35 110.45 302.86 110.45 302.86 137.94 275.37 137.94 247.89 137.94 220.4 137.94 192.91 137.94 192.91 165.42 165.42 165.42 165.42 192.91 137.94 192.91 137.94 220.4 110.45 220.4 110.45 247.89 110.45 275.37 110.45 302.86 110.45 330.35 137.94 330.35 137.94 357.84 165.42 357.84 165.42 385.32 192.91 385.32 192.91 412.81 220.4 412.81 247.89 412.81 275.37 412.81 302.86 412.81 302.86 440.3 330.35 440.3 357.84 440.3 385.32 440.3 412.81 440.3 440.3 440.3 467.79 440.3 495.27 440.3 522.76 440.3 522.76 412.81 495.27 412.81 495.27 385.32 467.79 385.32 440.3 385.32 412.81 385.32 385.32 385.32 357.84 385.32 330.35 385.32 330.35 357.84 302.86 357.84 275.37 357.84 247.89 357.84 220.4 357.84 220.4 330.35 192.91 330.35 165.42 330.35 165.42 302.86 137.94 302.86 137.94 275.37 137.94 247.89 165.42 247.89 165.42 220.4 192.91 220.4 220.4 220.4 220.4 192.91 247.89 192.91 275.37 192.91 302.86 192.91 330.35 192.91 330.35 165.42 357.84 165.42 385.32 165.42 412.81 165.42 440.3 165.42 467.79 165.42 495.27 165.42 495.27 137.94 522.76 137.94 522.76 110.45 495.27 110.45 467.79 110.45"/>
    <polygon class="cls-4" points="275.37 467.79 247.89 467.79 247.89 495.27 275.37 495.27 302.86 495.27 302.86 467.79 302.86 440.3 275.37 440.3 275.37 467.79"/>
    <polygon class="cls-4" points="632.71 467.79 632.71 440.3 605.22 440.3 605.22 467.79 605.22 495.27 632.71 495.27 660.2 495.27 660.2 467.79 632.71 467.79"/>
    <polygon class="cls-4" points="467.79 522.76 440.3 522.76 412.81 522.76 412.81 550.25 440.3 550.25 440.3 577.74 467.79 577.74 467.79 605.22 495.27 605.22 495.27 577.74 495.27 550.25 467.79 550.25 467.79 522.76"/>
    <rect class="cls-4" x="165.42" y="632.71" width="27.49" height="27.49"/>
    <polygon class="cls-4" points="412.81 632.71 412.81 660.2 440.3 660.2 467.79 660.2 467.79 632.71 440.3 632.71 412.81 632.71"/>
    <rect class="cls-4" x="192.91" y="660.2" width="27.49" height="27.49"/>
    <rect class="cls-4" x="165.42" y="687.69" width="27.49" height="27.49"/>
    <rect class="cls-4" x="385.32" y="797.64" width="27.49" height="27.49"/>
  </g>
  <g>
    <polygon class="cls-3" points="495.27 82.96 467.79 82.96 440.3 82.96 412.81 82.96 385.32 82.96 357.84 82.96 330.35 82.96 302.86 82.96 302.86 110.45 330.35 110.45 357.84 110.45 385.32 110.45 412.81 110.45 440.3 110.45 467.79 110.45 495.27 110.45 522.76 110.45 522.76 82.96 495.27 82.96"/>
    <polygon class="cls-3" points="715.17 192.91 715.17 165.42 715.17 137.94 687.69 137.94 660.2 137.94 632.71 137.94 605.22 137.94 605.22 110.45 577.74 110.45 550.25 110.45 522.76 110.45 522.76 137.94 495.27 137.94 495.27 165.42 522.76 165.42 550.25 165.42 577.74 165.42 577.74 192.91 605.22 192.91 632.71 192.91 660.2 192.91 687.69 192.91 687.69 220.4 715.17 220.4 742.66 220.4 742.66 192.91 715.17 192.91"/>
    <rect class="cls-3" x="742.66" y="220.4" width="27.49" height="27.49"/>
    <rect class="cls-3" x="742.66" y="302.86" width="27.49" height="27.49"/>
    <polygon class="cls-3" points="687.69 330.35 687.69 357.84 660.2 357.84 632.71 357.84 605.22 357.84 577.74 357.84 577.74 385.32 550.25 385.32 522.76 385.32 495.27 385.32 495.27 412.81 522.76 412.81 522.76 440.3 550.25 440.3 577.74 440.3 605.22 440.3 605.22 412.81 632.71 412.81 660.2 412.81 687.69 412.81 715.17 412.81 715.17 385.32 715.17 357.84 742.66 357.84 742.66 330.35 715.17 330.35 687.69 330.35"/>
    <polygon class="cls-3" points="467.79 440.3 440.3 440.3 412.81 440.3 385.32 440.3 357.84 440.3 330.35 440.3 302.86 440.3 302.86 467.79 330.35 467.79 357.84 467.79 385.32 467.79 412.81 467.79 440.3 467.79 467.79 467.79 495.27 467.79 522.76 467.79 522.76 440.3 495.27 440.3 467.79 440.3"/>
    <polygon class="cls-3" points="632.71 495.27 632.71 522.76 660.2 522.76 687.69 522.76 687.69 495.27 660.2 495.27 632.71 495.27"/>
    <rect class="cls-3" x="467.79" y="522.76" width="27.49" height="27.49"/>
    <rect class="cls-3" x="495.27" y="550.25" width="27.49" height="27.49"/>
    <rect class="cls-3" x="495.27" y="605.22" width="27.49" height="27.49"/>
    <rect class="cls-3" x="192.91" y="632.71" width="27.49" height="27.49"/>
    <rect class="cls-3" x="467.79" y="632.71" width="27.49" height="27.49"/>
    <rect class="cls-3" x="220.4" y="660.2" width="27.49" height="27.49"/>
    <rect class="cls-3" x="495.27" y="660.2" width="27.49" height="27.49"/>
    <rect class="cls-3" x="247.89" y="715.17" width="27.49" height="27.49"/>
    <rect class="cls-3" x="385.32" y="715.17" width="27.49" height="27.49"/>
    <rect class="cls-3" x="412.81" y="742.66" width="27.49" height="27.49"/>
    <rect class="cls-3" x="385.32" y="770.15" width="27.49" height="27.49"/>
    <rect class="cls-3" x="440.3" y="797.64" width="27.49" height="27.49"/>
  </g>
</svg>