<?xml version="1.0" encoding="UTF-8"?>
<svg id="rectangle" data-name="Calque 1" xmlns="http://www.w3.org/2000/svg" viewBox="0 0 908.09 908.09">
  <defs>
    <style>
      .cls-1 {
        fill: #f6a22d;
        stroke: #f6a22d;
      }

      .cls-1, .cls-2, .cls-3, .cls-4, .cls-5, .cls-6, .cls-7, .cls-8, .cls-9, .cls-10, .cls-11, .cls-12, .cls-13, .cls-14, .cls-15, .cls-16, .cls-17, .cls-18, .cls-19, .cls-20, .cls-21, .cls-22, .cls-23, .cls-24, .cls-25, .cls-26, .cls-27, .cls-28, .cls-29, .cls-30, .cls-31, .cls-32, .cls-33, .cls-34, .cls-35, .cls-36, .cls-37 {
        stroke-miterlimit: 10;
      }

      .cls-2 {
        fill: #8e8e8f;
        stroke: #8f8f8f;
      }

      .cls-3 {
        fill: #999898;
        stroke: #989898;
      }

      .cls-4 {
        fill: #d5d5d5;
        stroke: #d5d5d4;
      }

      .cls-5 {
        fill: #d0cfce;
        stroke: #cfcfcf;
      }

      .cls-6 {
        fill: #3cacc3;
        stroke: #3dacc3;
      }

      .cls-7 {
        fill: #b2b2b2;
        stroke: #b2b2b2;
      }

      .cls-8 {
        fill: #eaeae9;
        stroke: #e9e9e9;
      }

      .cls-9 {
        fill: #e63230;
        stroke: #e6322f;
      }

      .cls-10 {
        fill: #a8a7a8;
        stroke: #a8a8a8;
      }

      .cls-11 {
        fill: #53bfd5;
        stroke: #54bed5;
      }

      .cls-12 {
        fill: #c9c8c7;
        stroke: #c8c7c7;
      }

      .cls-13 {
        fill: #cbe8f5;
        stroke: #cae8f5;
      }

      .cls-14 {
        fill: #e31218;
        stroke: #e30d13;
      }

      .cls-15 {
        fill: #e1e1e1;
        stroke: #e1e1e1;
      }

      .cls-16 {
        fill: #babab9;
        stroke: #bababa;
      }

      .cls-17 {
        fill: #e51d22;
        stroke: #e51d22;
      }

      .cls-18 {
        fill: #fdc40b;
        stroke: #fdc50a;
      }

      .cls-19 {
        fill: #9d9d9c;
        stroke: #9d9d9c;
      }

      .cls-20 {
        fill: #1f7c8f;
        stroke: #207c8f;
      }

      .cls-21 {
        fill: #b7b7b6;
        stroke: #b7b7b6;
      }

      .cls-22 {
        fill: #68c6de;
        stroke: #68c5de;
      }

      .cls-23 {
        fill: #fbc823;
        stroke: #fbc923;
      }

      .cls-24 {
        fill: #f3931b;
        stroke: #f3931a;
      }

      .cls-25 {
        fill: #a01b18;
        stroke: #a01915;
      }

      .cls-26 {
        fill: #f6a02a;
        stroke: #f6a02a;
      }

      .cls-27 {
        fill: #b61b1a;
        stroke: #b71918;
      }

      .cls-28 {
        fill: #3591a4;
        stroke: #3591a4;
      }

      .cls-29 {
        fill: #cb161a;
        stroke: #cb1517;
      }

      .cls-30 {
        fill: #fab528;
        stroke: #fab526;
      }

      .cls-31 {
        fill: #e84142;
        stroke: #e84143;
      }

      .cls-32 {
        fill: #ef7a1d;
        stroke: #ef7b1a;
      }

      .cls-33 {
        fill: #fff;
        stroke: #fff;
      }

      .cls-34 {
        fill: #929292;
        stroke: #939393;
      }

      .cls-35 {
        fill: #f8ec6b;
        stroke: #f8ec69;
      }

      .cls-36 {
        fill: #ffda00;
        stroke: #ffda00;
      }

      .cls-37 {
        fill: #f8e929;
        stroke: #f8e925;
      }
    </style>
  </defs>
  <g>
    <rect class="cls-16" x="137.94" y="137.94" width="27.49" height="27.49"/>
    <rect class="cls-16" x="715.17" y="137.94" width="27.49" height="27.49"/>
  </g>
  <g>
    <rect class="cls-5" x="165.42" y="137.94" width="27.49" height="27.49"/>
    <rect class="cls-5" x="742.66" y="137.94" width="27.49" height="27.49"/>
  </g>
  <g>
    <rect class="cls-8" x="165.42" y="110.45" width="27.49" height="27.49"/>
    <rect class="cls-8" x="742.66" y="110.45" width="27.49" height="27.49"/>
    <rect class="cls-8" x="192.91" y="137.94" width="27.49" height="27.49"/>
    <rect class="cls-8" x="770.15" y="137.94" width="27.49" height="27.49"/>
  </g>
  <g>
    <polygon class="cls-13" points="687.69 220.4 687.69 247.89 687.69 275.37 715.17 275.37 742.66 275.37 742.66 247.89 742.66 220.4 715.17 220.4 687.69 220.4"/>
    <rect class="cls-13" x="770.15" y="302.86" width="27.49" height="27.49"/>
  </g>
  <path class="cls-22" d="M797.64,247.89v-27.49h-27.49v-27.49h-274.87v27.49h27.49v27.49h54.97v27.49h54.97v27.49h27.49v27.49h54.97v27.49h82.46v-27.49h-27.49v-27.49h27.49v27.49h27.49v-82.46h-27.49ZM715.17,220.4h27.49v54.97h-54.97v-54.97h27.49Z"/>
  <polygon class="cls-20" points="275.37 357.84 247.89 357.84 247.89 330.35 220.4 330.35 220.4 302.86 192.91 302.86 192.91 302.86 165.42 302.86 165.42 275.37 137.94 275.37 137.94 247.89 110.45 247.89 82.96 247.89 82.96 275.37 82.96 302.86 82.96 330.35 110.45 330.35 110.45 357.84 137.94 357.84 137.94 385.32 165.42 385.32 192.91 385.32 220.4 385.32 247.89 385.32 275.37 385.32 302.86 385.32 302.86 357.84 275.37 357.84"/>
  <polygon class="cls-28" points="467.79 357.84 440.3 357.84 440.3 330.35 412.81 330.35 385.32 330.35 385.32 302.86 357.84 302.86 357.84 275.37 330.35 275.37 302.86 275.37 302.86 247.89 275.37 247.89 247.89 247.89 247.89 220.4 220.4 220.4 220.4 192.91 192.91 192.91 165.42 192.91 137.94 192.91 137.94 220.4 110.45 220.4 110.45 247.89 137.94 247.89 137.94 275.37 165.42 275.37 165.42 302.86 192.91 302.86 220.4 302.86 220.4 330.35 247.89 330.35 247.89 357.84 275.37 357.84 302.86 357.84 302.86 385.32 330.35 385.32 357.84 385.32 385.32 385.32 412.81 385.32 440.3 385.32 467.79 385.32 495.27 385.32 495.27 357.84 467.79 357.84"/>
  <polygon class="cls-6" points="605.22 357.84 577.74 357.84 577.74 330.35 550.25 330.35 522.76 330.35 522.76 302.86 495.27 302.86 495.27 275.37 467.79 275.37 440.3 275.37 440.3 247.89 412.81 247.89 385.32 247.89 385.32 220.4 357.84 220.4 357.84 192.91 330.35 192.91 302.86 192.91 275.37 192.91 247.89 192.91 220.4 192.91 220.4 220.4 247.89 220.4 247.89 247.89 275.37 247.89 302.86 247.89 302.86 275.37 330.35 275.37 357.84 275.37 357.84 302.86 385.32 302.86 385.32 330.35 412.81 330.35 440.3 330.35 440.3 357.84 467.79 357.84 495.27 357.84 495.27 385.32 522.76 385.32 550.25 385.32 577.74 385.32 605.22 385.32 632.71 385.32 632.71 357.84 605.22 357.84"/>
  <polygon class="cls-11" points="742.66 357.84 715.17 357.84 715.17 330.35 687.69 330.35 660.2 330.35 660.2 302.86 632.71 302.86 632.71 275.37 605.22 275.37 577.74 275.37 577.74 247.89 550.25 247.89 522.76 247.89 522.76 220.4 495.27 220.4 495.27 192.91 467.79 192.91 440.3 192.91 412.81 192.91 385.32 192.91 357.84 192.91 357.84 220.4 385.32 220.4 385.32 247.89 412.81 247.89 440.3 247.89 440.3 275.37 467.79 275.37 495.27 275.37 495.27 302.86 522.76 302.86 522.76 330.35 550.25 330.35 577.74 330.35 577.74 357.84 605.22 357.84 632.71 357.84 632.71 385.32 660.2 385.32 687.69 385.32 715.17 385.32 742.66 385.32 770.15 385.32 770.15 357.84 742.66 357.84"/>
  <g>
    <rect class="cls-33" x="330.35" y="550.25" width="27.49" height="27.49"/>
    <rect class="cls-33" x="440.3" y="550.25" width="27.49" height="27.49"/>
    <rect class="cls-33" x="577.74" y="550.25" width="27.49" height="27.49"/>
  </g>
  <g>
    <rect class="cls-18" x="55.47" y="357.84" width="27.49" height="27.49"/>
    <rect class="cls-18" x="55.47" y="412.81" width="27.49" height="27.49"/>
    <rect class="cls-18" x="55.47" y="467.79" width="27.49" height="27.49"/>
    <rect class="cls-18" x="55.47" y="522.76" width="27.49" height="27.49"/>
    <rect class="cls-18" x="55.47" y="577.74" width="27.49" height="27.49"/>
  </g>
  <g>
    <polygon class="cls-15" points="330.35 550.25 302.86 550.25 302.86 577.74 302.86 605.22 330.35 605.22 357.84 605.22 357.84 577.74 330.35 577.74 330.35 550.25"/>
    <rect class="cls-15" x="440.3" y="577.74" width="27.49" height="27.49"/>
    <polygon class="cls-15" points="577.74 577.74 577.74 550.25 550.25 550.25 550.25 577.74 550.25 605.22 577.74 605.22 605.22 605.22 605.22 577.74 577.74 577.74"/>
  </g>
  <g>
    <polygon class="cls-12" points="357.84 550.25 357.84 577.74 357.84 605.22 385.32 605.22 385.32 577.74 385.32 550.25 385.32 522.76 357.84 522.76 357.84 550.25"/>
    <polygon class="cls-12" points="467.79 550.25 467.79 577.74 467.79 605.22 495.27 605.22 495.27 577.74 495.27 550.25 495.27 522.76 467.79 522.76 467.79 550.25"/>
    <polygon class="cls-12" points="605.22 522.76 605.22 550.25 605.22 577.74 605.22 605.22 632.71 605.22 632.71 577.74 632.71 550.25 632.71 522.76 605.22 522.76"/>
  </g>
  <g>
    <polygon class="cls-34" points="275.37 577.74 275.37 605.22 275.37 632.71 302.86 632.71 302.86 605.22 302.86 577.74 302.86 550.25 275.37 550.25 275.37 577.74"/>
    <polygon class="cls-34" points="412.81 577.74 412.81 605.22 412.81 632.71 440.3 632.71 440.3 605.22 440.3 577.74 440.3 550.25 412.81 550.25 412.81 577.74"/>
    <polygon class="cls-34" points="522.76 550.25 522.76 577.74 522.76 605.22 522.76 632.71 550.25 632.71 550.25 605.22 550.25 577.74 550.25 550.25 522.76 550.25"/>
  </g>
  <g>
    <polygon class="cls-19" points="275.37 522.76 275.37 550.25 302.86 550.25 330.35 550.25 330.35 522.76 302.86 522.76 275.37 522.76"/>
    <rect class="cls-19" x="412.81" y="522.76" width="27.49" height="27.49"/>
    <polygon class="cls-19" points="550.25 522.76 522.76 522.76 522.76 550.25 550.25 550.25 577.74 550.25 577.74 522.76 550.25 522.76"/>
    <rect class="cls-19" x="302.86" y="605.22" width="27.49" height="27.49"/>
    <rect class="cls-19" x="440.3" y="605.22" width="27.49" height="27.49"/>
    <rect class="cls-19" x="550.25" y="605.22" width="27.49" height="27.49"/>
  </g>
  <g>
    <rect class="cls-21" x="330.35" y="522.76" width="27.49" height="27.49"/>
    <rect class="cls-21" x="440.3" y="522.76" width="27.49" height="27.49"/>
    <rect class="cls-21" x="577.74" y="522.76" width="27.49" height="27.49"/>
    <polygon class="cls-21" points="330.35 605.22 330.35 632.71 357.84 632.71 385.32 632.71 385.32 605.22 357.84 605.22 330.35 605.22"/>
    <rect class="cls-21" x="467.79" y="605.22" width="27.49" height="27.49"/>
    <polygon class="cls-21" points="605.22 605.22 577.74 605.22 577.74 632.71 605.22 632.71 632.71 632.71 632.71 605.22 605.22 605.22"/>
  </g>
  <polygon class="cls-26" points="165.42 467.79 137.94 467.79 137.94 495.27 137.94 522.76 137.94 550.25 137.94 577.74 137.94 605.22 137.94 632.71 137.94 660.2 165.42 660.2 192.91 660.2 192.91 632.71 192.91 605.22 192.91 577.74 192.91 550.25 192.91 522.76 192.91 495.27 192.91 467.79 165.42 467.79"/>
  <polygon class="cls-18" points="357.84 632.71 330.35 632.71 302.86 632.71 275.37 632.71 275.37 605.22 275.37 577.74 275.37 550.25 275.37 522.76 302.86 522.76 330.35 522.76 357.84 522.76 357.84 495.27 357.84 467.79 330.35 467.79 302.86 467.79 275.37 467.79 247.89 467.79 220.4 467.79 220.4 495.27 220.4 522.76 220.4 550.25 220.4 577.74 220.4 605.22 220.4 632.71 220.4 660.2 247.89 660.2 275.37 660.2 302.86 660.2 330.35 660.2 357.84 660.2 385.32 660.2 385.32 632.71 357.84 632.71"/>
  <g>
    <polygon class="cls-37" points="632.71 467.79 605.22 467.79 577.74 467.79 550.25 467.79 522.76 467.79 522.76 495.27 522.76 522.76 550.25 522.76 577.74 522.76 605.22 522.76 632.71 522.76 632.71 550.25 632.71 577.74 632.71 605.22 632.71 632.71 605.22 632.71 577.74 632.71 550.25 632.71 522.76 632.71 522.76 660.2 550.25 660.2 577.74 660.2 605.22 660.2 632.71 660.2 660.2 660.2 687.69 660.2 687.69 632.71 687.69 605.22 687.69 577.74 687.69 550.25 687.69 522.76 687.69 495.27 687.69 467.79 660.2 467.79 632.71 467.79"/>
    <polygon class="cls-37" points="742.66 467.79 715.09 467.79 715.09 495.36 715.09 522.94 715.09 550.51 715.09 578.08 715.17 578.08 715.17 605.22 715.17 632.71 715.17 660.2 742.66 660.2 770.15 660.2 770.15 633.23 770.24 633.23 770.24 605.66 742.66 605.66 742.66 605.22 770.15 605.22 770.15 578.08 770.24 578.08 770.24 550.51 770.24 522.94 770.24 495.36 770.24 467.79 742.66 467.79"/>
  </g>
  <g>
    <rect class="cls-35" x="825.12" y="357.84" width="27.49" height="27.49"/>
    <rect class="cls-35" x="825.12" y="412.81" width="27.49" height="27.49"/>
    <polygon class="cls-35" points="770.15 495.27 770.15 522.76 770.15 550.25 770.15 577.74 770.15 605.22 770.15 632.71 770.15 660.2 797.64 660.2 797.64 632.71 797.64 605.22 797.64 577.74 797.64 550.25 797.64 522.76 797.64 495.27 797.64 467.79 770.15 467.79 770.15 495.27"/>
    <rect class="cls-35" x="825.12" y="467.79" width="27.49" height="27.49"/>
    <rect class="cls-35" x="825.12" y="522.76" width="27.49" height="27.49"/>
    <rect class="cls-35" x="825.12" y="577.74" width="27.49" height="27.49"/>
  </g>
  <g>
    <polygon class="cls-32" points="192.91 467.79 220.4 467.79 220.4 440.3 192.91 440.3 165.42 440.3 137.94 440.3 137.94 467.79 165.42 467.79 192.91 467.79"/>
    <polygon class="cls-32" points="137.94 605.22 137.94 577.74 137.94 550.25 137.94 522.76 137.94 495.27 137.94 467.79 110.45 467.79 110.45 495.27 110.45 522.76 110.45 550.25 110.45 577.74 110.45 605.22 110.45 632.71 110.45 660.2 110.45 687.69 137.94 687.69 165.42 687.69 192.91 687.69 220.4 687.69 220.4 660.2 192.91 660.2 165.42 660.2 137.94 660.2 137.94 632.71 137.94 605.22"/>
  </g>
  <g>
    <polygon class="cls-24" points="275.37 467.79 275.37 440.3 247.89 440.3 220.4 440.3 220.4 467.79 247.89 467.79 275.37 467.79"/>
    <polygon class="cls-24" points="220.4 605.22 220.4 577.74 220.4 550.25 220.4 522.76 220.4 495.27 220.4 467.79 192.91 467.79 192.91 495.27 192.91 522.76 192.91 550.25 192.91 577.74 192.91 605.22 192.91 632.71 192.91 660.2 220.4 660.2 220.4 632.71 220.4 605.22"/>
    <polygon class="cls-24" points="275.37 660.2 247.89 660.2 220.4 660.2 220.4 687.69 247.89 687.69 275.37 687.69 302.86 687.69 302.86 660.2 275.37 660.2"/>
  </g>
  <g>
    <polygon class="cls-1" points="385.32 412.81 357.84 412.81 357.84 440.3 385.32 440.3 412.81 440.3 412.81 412.81 385.32 412.81"/>
    <polygon class="cls-1" points="302.86 440.3 275.37 440.3 275.37 467.79 302.86 467.79 330.35 467.79 357.84 467.79 357.84 440.3 330.35 440.3 302.86 440.3"/>
    <polygon class="cls-1" points="330.35 660.2 302.86 660.2 302.86 687.69 330.35 687.69 357.84 687.69 385.32 687.69 385.32 660.2 357.84 660.2 330.35 660.2"/>
  </g>
  <g>
    <polygon class="cls-30" points="467.79 412.81 440.3 412.81 412.81 412.81 412.81 440.3 440.3 440.3 467.79 440.3 495.27 440.3 495.27 412.81 467.79 412.81"/>
    <polygon class="cls-30" points="440.3 660.2 412.81 660.2 385.32 660.2 385.32 687.69 412.81 687.69 440.3 687.69 467.79 687.69 495.27 687.69 495.27 660.2 467.79 660.2 440.3 660.2"/>
  </g>
  <g>
    <polygon class="cls-23" points="578.77 440.3 551.28 440.3 523.79 440.3 523.79 412.81 496.31 412.81 496.31 440.3 496.31 467.79 523.79 467.79 551.28 467.79 578.77 467.79 606.26 467.79 606.26 440.3 578.77 440.3"/>
    <polygon class="cls-23" points="577.74 660.2 551.28 660.2 523.79 660.2 496.31 660.2 496.31 687.69 523.79 687.69 551.28 687.69 577.74 687.69 578.77 687.69 605.22 687.69 605.22 660.2 578.77 660.2 577.74 660.2"/>
  </g>
  <g>
    <path class="cls-36" d="M495.27,440.3h-137.44v82.46h27.49v137.44h137.44v-192.41h-27.49v-27.49ZM495.27,550.25v82.46h-82.46v-109.95h82.46v27.49Z"/>
    <polygon class="cls-36" points="770.15 660.2 742.66 660.2 715.17 660.2 715.17 632.71 715.17 605.22 715.17 577.74 715.17 550.25 715.17 522.76 715.17 495.27 715.17 467.79 742.66 467.79 770.15 467.79 770.15 440.3 742.66 440.3 715.17 440.3 687.69 440.3 660.2 440.3 632.71 440.3 605.22 440.3 605.22 467.79 632.71 467.79 660.2 467.79 687.69 467.79 687.69 495.27 687.69 522.76 687.69 550.25 687.69 577.74 687.69 605.22 687.69 632.71 687.69 660.2 660.2 660.2 632.71 660.2 605.22 660.2 605.22 687.69 632.71 687.69 660.2 687.69 687.69 687.69 715.17 687.69 742.66 687.69 770.15 687.69 797.64 687.69 797.64 660.2 770.15 660.2"/>
  </g>
  <g>
    <rect class="cls-7" x="192.91" y="715.17" width="27.49" height="27.49"/>
    <rect class="cls-7" x="715.17" y="715.17" width="27.49" height="27.49"/>
  </g>
  <g>
    <rect class="cls-4" x="220.4" y="715.17" width="27.49" height="27.49"/>
    <rect class="cls-4" x="742.66" y="715.17" width="27.49" height="27.49"/>
    <rect class="cls-4" x="247.89" y="742.66" width="27.49" height="27.49"/>
    <rect class="cls-4" x="770.15" y="742.66" width="27.49" height="27.49"/>
  </g>
  <g>
    <polygon class="cls-2" points="165.42 742.66 137.94 742.66 110.45 742.66 110.45 770.15 110.45 797.64 137.94 797.64 165.42 797.64 192.91 797.64 192.91 770.15 165.42 770.15 165.42 742.66"/>
    <polygon class="cls-2" points="687.69 770.15 687.69 742.66 660.2 742.66 632.71 742.66 632.71 770.15 632.71 797.64 660.2 797.64 687.69 797.64 715.17 797.64 715.17 770.15 687.69 770.15"/>
  </g>
  <g>
    <rect class="cls-3" x="137.94" y="715.17" width="27.49" height="27.49"/>
    <rect class="cls-3" x="660.2" y="715.17" width="27.49" height="27.49"/>
    <rect class="cls-3" x="165.42" y="742.66" width="27.49" height="27.49"/>
    <rect class="cls-3" x="687.69" y="742.66" width="27.49" height="27.49"/>
    <polygon class="cls-3" points="192.91 770.15 192.91 797.64 220.4 797.64 247.89 797.64 247.89 770.15 220.4 770.15 192.91 770.15"/>
    <polygon class="cls-3" points="742.66 770.15 715.17 770.15 715.17 797.64 742.66 797.64 770.15 797.64 770.15 770.15 742.66 770.15"/>
  </g>
  <g>
    <rect class="cls-10" x="165.42" y="715.17" width="27.49" height="27.49"/>
    <rect class="cls-10" x="687.69" y="715.17" width="27.49" height="27.49"/>
    <polygon class="cls-10" points="220.4 742.66 192.91 742.66 192.91 770.15 220.4 770.15 247.89 770.15 247.89 742.66 220.4 742.66"/>
    <polygon class="cls-10" points="742.66 742.66 715.17 742.66 715.17 770.15 742.66 770.15 770.15 770.15 770.15 742.66 742.66 742.66"/>
    <rect class="cls-10" x="247.89" y="770.15" width="27.49" height="27.49"/>
    <rect class="cls-10" x="770.15" y="770.15" width="27.49" height="27.49"/>
  </g>
  <polygon class="cls-25" points="82.96 632.71 82.96 605.22 55.47 605.22 55.47 577.74 82.96 577.74 82.96 550.25 55.47 550.25 55.47 522.76 82.96 522.76 82.96 495.27 55.47 495.27 55.47 467.79 82.96 467.79 82.96 440.3 55.47 440.3 55.47 412.81 82.96 412.81 82.96 385.32 55.47 385.32 55.47 357.84 55.47 330.35 55.47 302.86 55.47 275.37 55.47 247.89 55.47 220.4 27.99 220.4 27.99 192.91 .5 192.91 .5 220.4 .5 247.89 .5 275.37 .5 302.86 .5 330.35 .5 357.84 .5 385.32 .5 412.81 .5 440.3 .5 467.79 .5 495.27 .5 522.76 .5 550.25 .5 577.74 .5 605.22 .5 632.71 .5 660.2 .5 687.69 27.99 687.69 27.99 715.17 55.47 715.17 82.96 715.17 110.45 715.17 110.45 687.69 110.45 660.2 110.45 632.71 82.96 632.71"/>
  <g>
    <polygon class="cls-29" points="110.45 220.4 137.94 220.4 137.94 192.91 165.42 192.91 192.91 192.91 220.4 192.91 247.89 192.91 247.89 165.42 220.4 165.42 192.91 165.42 165.42 165.42 137.94 165.42 110.45 165.42 82.96 165.42 82.96 192.91 110.45 192.91 110.45 220.4"/>
    <rect class="cls-29" x="110.45" y="357.84" width="27.49" height="27.49"/>
    <polygon class="cls-29" points="137.94 440.3 165.42 440.3 192.91 440.3 220.4 440.3 247.89 440.3 275.37 440.3 302.86 440.3 302.86 412.81 275.37 412.81 275.37 385.32 247.89 385.32 220.4 385.32 192.91 385.32 165.42 385.32 137.94 385.32 137.94 412.81 137.94 440.3"/>
    <polygon class="cls-29" points="330.35 687.69 302.86 687.69 275.37 687.69 247.89 687.69 220.4 687.69 192.91 687.69 165.42 687.69 165.42 715.17 192.91 715.17 220.4 715.17 247.89 715.17 275.37 715.17 302.86 715.17 330.35 715.17 357.84 715.17 357.84 687.69 330.35 687.69"/>
  </g>
  <g>
    <polygon class="cls-27" points="82.96 412.81 82.96 440.3 82.96 467.79 82.96 495.27 82.96 522.76 82.96 550.25 82.96 577.74 82.96 605.22 82.96 632.71 110.45 632.71 110.45 605.22 110.45 577.74 110.45 550.25 110.45 522.76 110.45 495.27 110.45 467.79 137.94 467.79 137.94 440.3 137.94 412.81 137.94 385.32 110.45 385.32 110.45 357.84 110.45 330.35 82.96 330.35 82.96 302.86 82.96 275.37 82.96 247.89 110.45 247.89 110.45 220.4 110.45 192.91 82.96 192.91 82.96 165.42 55.47 165.42 27.99 165.42 27.99 192.91 27.99 220.4 55.47 220.4 55.47 247.89 55.47 275.37 55.47 302.86 55.47 330.35 55.47 357.84 82.96 357.84 82.96 385.32 82.96 412.81"/>
    <polygon class="cls-27" points="137.94 687.69 110.45 687.69 110.45 715.17 137.94 715.17 165.42 715.17 165.42 687.69 137.94 687.69"/>
  </g>
  <g>
    <polygon class="cls-14" points="329.83 193.43 357.32 193.43 384.81 193.43 412.3 193.43 439.78 193.43 467.27 193.43 494.76 193.43 494.76 165.94 467.27 165.94 439.78 165.94 412.3 165.94 384.81 165.94 357.32 165.94 329.83 165.94 302.35 165.94 274.86 165.94 247.37 165.94 247.37 193.43 274.86 193.43 302.35 193.43 329.83 193.43"/>
    <polygon class="cls-14" points="467.79 385.84 467.79 385.32 440.3 385.32 412.81 385.32 385.32 385.32 357.84 385.32 330.35 385.32 302.86 385.32 275.37 385.32 275.37 412.81 302.86 412.81 302.86 440.3 330.35 440.3 357.84 440.3 357.84 412.81 385.32 412.81 412.81 412.81 440.3 412.81 467.27 412.81 467.27 413.33 494.76 413.33 522.25 413.33 522.25 385.84 494.76 385.84 467.79 385.84"/>
    <polygon class="cls-14" points="577.74 412.81 577.74 385.32 550.25 385.32 522.76 385.32 522.76 412.81 522.76 440.3 550.25 440.3 577.74 440.3 605.22 440.3 605.22 412.81 577.74 412.81"/>
    <polygon class="cls-14" points="440.3 687.69 412.81 687.69 385.32 687.69 357.84 687.69 357.84 715.17 385.32 715.17 412.81 715.17 440.3 715.17 467.79 715.17 495.27 715.17 495.27 687.69 467.79 687.69 440.3 687.69"/>
  </g>
  <g>
    <rect class="cls-17" x="495.27" y="165.42" width="27.49" height="27.49"/>
    <polygon class="cls-17" points="660.2 385.32 632.71 385.32 605.22 385.32 577.74 385.32 577.74 412.81 605.22 412.81 605.22 440.3 632.71 440.3 660.2 440.3 687.69 440.3 687.69 412.81 687.69 385.32 660.2 385.32"/>
    <polygon class="cls-17" points="495.27 687.69 495.27 715.17 522.76 715.17 550.25 715.17 550.25 687.69 522.76 687.69 495.27 687.69"/>
  </g>
  <g>
    <polygon class="cls-9" points="577.74 192.91 605.22 192.91 605.22 165.42 577.74 165.42 550.25 165.42 522.76 165.42 522.76 192.91 550.25 192.91 577.74 192.91"/>
    <rect class="cls-9" x="770.15" y="192.91" width="27.49" height="27.49"/>
    <rect class="cls-9" x="797.64" y="220.4" width="27.49" height="27.49"/>
    <polygon class="cls-9" points="825.12 247.89 825.12 275.37 825.12 302.86 825.12 330.35 797.64 330.35 797.64 357.84 770.15 357.84 770.15 385.32 742.66 385.32 715.17 385.32 687.69 385.32 687.69 412.81 687.69 440.3 715.17 440.3 742.66 440.3 770.15 440.3 770.15 467.79 797.64 467.79 797.64 495.27 797.64 522.76 797.64 550.25 797.64 577.74 797.64 605.22 797.64 632.71 797.64 660.2 797.64 687.69 825.12 687.69 825.12 660.2 852.61 660.2 852.61 632.71 852.61 605.22 825.12 605.22 825.12 577.74 852.61 577.74 852.61 550.25 825.12 550.25 825.12 522.76 852.61 522.76 852.61 495.27 825.12 495.27 825.12 467.79 852.61 467.79 852.61 440.3 825.12 440.3 825.12 412.81 852.61 412.81 852.61 385.32 825.12 385.32 825.12 357.84 852.61 357.84 852.61 330.35 852.61 302.86 852.61 275.37 852.61 247.89 825.12 247.89"/>
    <polygon class="cls-9" points="577.74 687.69 550.25 687.69 550.25 715.17 577.74 715.17 605.22 715.17 632.71 715.17 632.71 687.69 605.22 687.69 577.74 687.69"/>
  </g>
  <polygon class="cls-31" points="880.1 192.91 880.1 165.42 852.61 165.42 825.12 165.42 797.64 165.42 770.15 165.42 742.66 165.42 715.17 165.42 687.69 165.42 660.2 165.42 632.71 165.42 605.22 165.42 605.22 192.91 632.71 192.91 660.2 192.91 687.69 192.91 715.17 192.91 742.66 192.91 770.15 192.91 797.64 192.91 797.64 220.4 825.12 220.4 825.12 247.89 852.61 247.89 852.61 275.37 852.61 302.86 852.61 330.35 852.61 357.84 852.61 385.32 852.61 412.81 852.61 440.3 852.61 467.79 852.61 495.27 852.61 522.76 852.61 550.25 852.61 577.74 852.61 605.22 852.61 632.71 852.61 660.2 825.12 660.2 825.12 687.69 797.64 687.69 770.15 687.69 742.66 687.69 715.17 687.69 687.69 687.69 660.2 687.69 632.71 687.69 632.71 715.17 660.2 715.17 687.69 715.17 715.17 715.17 742.66 715.17 770.15 715.17 797.64 715.17 825.12 715.17 852.61 715.17 880.1 715.17 880.1 687.69 907.59 687.69 907.59 660.2 907.59 632.71 907.59 605.22 907.59 577.74 907.59 550.25 907.59 522.76 907.59 495.27 907.59 467.79 907.59 440.3 907.59 412.81 907.59 385.32 907.59 357.84 907.59 330.35 907.59 302.86 907.59 275.37 907.59 247.89 907.59 220.4 907.59 192.91 880.1 192.91"/>
</svg>