<?xml version="1.0" encoding="UTF-8"?>
<svg id="Calque_1" data-name="Calque 1" xmlns="http://www.w3.org/2000/svg" viewBox="0 0 908.09 908.09">
  <defs>
    <style>
      .cls-1 {
        fill: #f8f3b4;
        stroke: #f9f4b3;
      }

      .cls-1, .cls-2, .cls-3, .cls-4, .cls-5, .cls-6, .cls-7, .cls-8, .cls-9, .cls-10, .cls-11, .cls-12, .cls-13, .cls-14, .cls-15 {
        stroke-miterlimit: 10;
      }

      .cls-2 {
        fill: #a6c842;
        stroke: #a6c842;
      }

      .cls-3 {
        fill: #feeb15;
        stroke: #feeb15;
      }

      .cls-4 {
        stroke: #5d529e;
      }

      .cls-4, .cls-10 {
        fill: #574f9c;
      }

      .cls-5 {
        fill: #a696c8;
        stroke: #a696c8;
      }

      .cls-6 {
        fill: #9385be;
        stroke: #9385be;
      }

      .cls-7 {
        fill: #00accd;
        stroke: #00accd;
      }

      .cls-8 {
        fill: #6d5fa7;
        stroke: #6c5fa7;
      }

      .cls-9 {
        fill: #8577b6;
        stroke: #8678b6;
      }

      .cls-10 {
        stroke: #574e9c;
      }

      .cls-11 {
        fill: #69c7e7;
        stroke: #69c7e7;
      }

      .cls-12 {
        fill: #6fb62e;
        stroke: #6fb62c;
      }

      .cls-13 {
        fill: #55c3eb;
        stroke: #55c3eb;
      }

      .cls-14 {
        fill: #93d3ea;
        stroke: #92d3eb;
      }

      .cls-15 {
        fill: #007d94;
        stroke: #017d94;
      }
    </style>
  </defs>
  <polygon class="cls-13" points="495.27 605.22 495.27 577.74 495.27 550.25 495.27 522.76 467.79 522.76 467.79 495.27 467.79 467.79 467.79 440.3 440.3 440.3 440.3 467.79 440.3 495.27 440.3 522.76 412.81 522.76 412.81 550.25 412.81 577.74 412.81 605.22 385.32 605.22 385.32 632.71 385.32 660.2 385.32 687.69 385.32 715.17 412.81 715.17 412.81 742.66 440.3 742.66 467.79 742.66 495.27 742.66 495.27 715.17 522.76 715.17 522.76 687.69 522.76 660.2 522.76 632.71 522.76 605.22 495.27 605.22"/>
  <g>
    <polygon class="cls-11" points="467.79 385.32 440.3 385.32 440.3 412.81 440.3 440.3 467.79 440.3 467.79 412.81 467.79 385.32"/>
    <polygon class="cls-11" points="550.25 605.22 550.25 577.74 550.25 550.25 522.76 550.25 522.76 522.76 522.76 495.27 495.27 495.27 495.27 467.79 495.27 440.3 467.79 440.3 467.79 467.79 467.79 495.27 467.79 522.76 495.27 522.76 495.27 550.25 495.27 577.74 495.27 605.22 522.76 605.22 522.76 632.71 522.76 660.2 522.76 687.69 522.76 715.17 495.27 715.17 495.27 742.66 467.79 742.66 467.79 770.15 495.27 770.15 522.76 770.15 522.76 742.66 550.25 742.66 550.25 715.17 550.25 687.69 577.74 687.69 577.74 660.2 577.74 632.71 577.74 605.22 550.25 605.22"/>
  </g>
  <g>
    <polygon class="cls-14" points="495.27 385.32 467.79 385.32 467.79 412.81 467.79 440.3 495.27 440.3 495.27 412.81 495.27 385.32"/>
    <polygon class="cls-14" points="522.76 440.3 495.27 440.3 495.27 467.79 495.27 495.27 522.76 495.27 522.76 467.79 522.76 440.3"/>
    <polygon class="cls-14" points="550.25 495.27 522.76 495.27 522.76 522.76 522.76 550.25 550.25 550.25 550.25 522.76 550.25 495.27"/>
    <polygon class="cls-14" points="577.74 550.25 550.25 550.25 550.25 577.74 550.25 605.22 577.74 605.22 577.74 577.74 577.74 550.25"/>
    <polygon class="cls-14" points="577.74 605.22 577.74 632.71 577.74 660.2 577.74 687.69 605.22 687.69 605.22 660.2 605.22 632.71 605.22 605.22 577.74 605.22"/>
    <polygon class="cls-14" points="550.25 715.17 550.25 742.66 577.74 742.66 577.74 715.17 577.74 687.69 550.25 687.69 550.25 715.17"/>
    <rect class="cls-14" x="522.76" y="742.66" width="27.49" height="27.49"/>
  </g>
  <g>
    <polygon class="cls-15" points="440.3 412.81 440.3 385.32 412.81 385.32 412.81 412.81 412.81 440.3 440.3 440.3 440.3 412.81"/>
    <polygon class="cls-15" points="412.81 467.79 412.81 440.3 385.32 440.3 385.32 467.79 385.32 495.27 412.81 495.27 412.81 467.79"/>
    <polygon class="cls-15" points="385.32 522.76 385.32 495.27 357.84 495.27 357.84 522.76 357.84 550.25 385.32 550.25 385.32 522.76"/>
    <polygon class="cls-15" points="357.84 577.74 357.84 550.25 330.35 550.25 330.35 577.74 330.35 605.22 357.84 605.22 357.84 577.74"/>
    <polygon class="cls-15" points="330.35 632.71 330.35 605.22 302.86 605.22 302.86 632.71 302.86 660.2 302.86 687.69 330.35 687.69 330.35 660.2 330.35 632.71"/>
    <polygon class="cls-15" points="357.84 687.69 330.35 687.69 330.35 715.17 330.35 742.66 357.84 742.66 357.84 715.17 357.84 687.69"/>
    <polygon class="cls-15" points="385.32 742.66 357.84 742.66 357.84 770.15 385.32 770.15 412.81 770.15 412.81 742.66 385.32 742.66"/>
    <polygon class="cls-15" points="440.3 770.15 412.81 770.15 412.81 797.64 440.3 797.64 467.79 797.64 467.79 770.15 440.3 770.15"/>
  </g>
  <g>
    <polygon class="cls-7" points="467.79 357.84 467.79 330.35 440.3 330.35 440.3 357.84 440.3 385.32 467.79 385.32 467.79 357.84"/>
    <polygon class="cls-7" points="385.32 715.17 385.32 687.69 385.32 660.2 385.32 632.71 385.32 605.22 412.81 605.22 412.81 577.74 412.81 550.25 412.81 522.76 440.3 522.76 440.3 495.27 440.3 467.79 440.3 440.3 412.81 440.3 412.81 467.79 412.81 495.27 385.32 495.27 385.32 522.76 385.32 550.25 357.84 550.25 357.84 577.74 357.84 605.22 330.35 605.22 330.35 632.71 330.35 660.2 330.35 687.69 357.84 687.69 357.84 715.17 357.84 742.66 385.32 742.66 412.81 742.66 412.81 715.17 385.32 715.17"/>
    <polygon class="cls-7" points="440.3 742.66 412.81 742.66 412.81 770.15 440.3 770.15 467.79 770.15 467.79 742.66 440.3 742.66"/>
    <rect class="cls-7" x="467.79" y="770.15" width="27.49" height="27.49"/>
  </g>
  <g>
    <rect class="cls-2" x="495.27" y="220.4" width="27.49" height="27.49"/>
    <rect class="cls-2" x="522.76" y="247.89" width="27.49" height="27.49"/>
    <rect class="cls-2" x="330.35" y="302.86" width="27.49" height="27.49"/>
    <rect class="cls-2" x="550.25" y="302.86" width="27.49" height="27.49"/>
    <rect class="cls-2" x="577.74" y="330.35" width="27.49" height="27.49"/>
    <rect class="cls-2" x="330.35" y="357.84" width="27.49" height="27.49"/>
    <rect class="cls-2" x="632.71" y="357.84" width="27.49" height="27.49"/>
    <rect class="cls-2" x="550.25" y="385.32" width="27.49" height="27.49"/>
    <rect class="cls-2" x="605.22" y="385.32" width="27.49" height="27.49"/>
    <rect class="cls-2" x="302.86" y="412.81" width="27.49" height="27.49"/>
    <rect class="cls-2" x="247.89" y="440.3" width="27.49" height="27.49"/>
    <rect class="cls-2" x="605.22" y="440.3" width="27.49" height="27.49"/>
    <rect class="cls-2" x="247.89" y="495.27" width="27.49" height="27.49"/>
    <rect class="cls-2" x="660.2" y="495.27" width="27.49" height="27.49"/>
    <rect class="cls-2" x="632.71" y="550.25" width="27.49" height="27.49"/>
    <rect class="cls-2" x="715.17" y="577.74" width="27.49" height="27.49"/>
    <rect class="cls-2" x="192.91" y="605.22" width="27.49" height="27.49"/>
    <rect class="cls-2" x="220.4" y="660.2" width="27.49" height="27.49"/>
    <rect class="cls-2" x="660.2" y="660.2" width="27.49" height="27.49"/>
    <rect class="cls-2" x="687.69" y="687.69" width="27.49" height="27.49"/>
    <rect class="cls-2" x="220.4" y="715.17" width="27.49" height="27.49"/>
    <rect class="cls-2" x="632.71" y="770.15" width="27.49" height="27.49"/>
  </g>
  <g>
    <rect class="cls-12" x="385.32" y="192.91" width="27.49" height="27.49"/>
    <rect class="cls-12" x="357.84" y="302.86" width="27.49" height="27.49"/>
    <rect class="cls-12" x="550.25" y="330.35" width="27.49" height="27.49"/>
    <rect class="cls-12" x="302.86" y="385.32" width="27.49" height="27.49"/>
    <rect class="cls-12" x="247.89" y="412.81" width="27.49" height="27.49"/>
    <rect class="cls-12" x="605.22" y="412.81" width="27.49" height="27.49"/>
    <rect class="cls-12" x="247.89" y="467.79" width="27.49" height="27.49"/>
    <rect class="cls-12" x="632.71" y="467.79" width="27.49" height="27.49"/>
    <rect class="cls-12" x="55.47" y="522.76" width="27.49" height="27.49"/>
    <rect class="cls-12" x="660.2" y="522.76" width="27.49" height="27.49"/>
    <rect class="cls-12" x="825.12" y="522.76" width="27.49" height="27.49"/>
    <rect class="cls-12" x="192.91" y="550.25" width="27.49" height="27.49"/>
    <rect class="cls-12" x="247.89" y="550.25" width="27.49" height="27.49"/>
    <rect class="cls-12" x="55.47" y="577.74" width="27.49" height="27.49"/>
    <rect class="cls-12" x="165.42" y="577.74" width="27.49" height="27.49"/>
    <rect class="cls-12" x="825.12" y="577.74" width="27.49" height="27.49"/>
    <rect class="cls-12" x="687.69" y="605.22" width="27.49" height="27.49"/>
    <rect class="cls-12" x="55.47" y="687.69" width="27.49" height="27.49"/>
    <rect class="cls-12" x="247.89" y="687.69" width="27.49" height="27.49"/>
    <rect class="cls-12" x="632.71" y="687.69" width="27.49" height="27.49"/>
    <rect class="cls-12" x="247.89" y="742.66" width="27.49" height="27.49"/>
    <rect class="cls-12" x="275.37" y="770.15" width="27.49" height="27.49"/>
    <rect class="cls-12" x="797.64" y="770.15" width="27.49" height="27.49"/>
    <rect class="cls-12" x="577.74" y="797.64" width="27.49" height="27.49"/>
  </g>
  <g>
    <rect class="cls-3" x="495.27" y="192.91" width="27.49" height="27.49"/>
    <rect class="cls-3" x="302.86" y="330.35" width="27.49" height="27.49"/>
    <rect class="cls-3" x="577.74" y="412.81" width="27.49" height="27.49"/>
    <rect class="cls-3" x="687.69" y="550.25" width="27.49" height="27.49"/>
    <rect class="cls-3" x="825.12" y="550.25" width="27.49" height="27.49"/>
    <rect class="cls-3" x="110.45" y="577.74" width="27.49" height="27.49"/>
    <rect class="cls-3" x="192.91" y="577.74" width="27.49" height="27.49"/>
    <rect class="cls-3" x="770.15" y="577.74" width="27.49" height="27.49"/>
    <rect class="cls-3" x="825.12" y="687.69" width="27.49" height="27.49"/>
    <rect class="cls-3" x="605.22" y="742.66" width="27.49" height="27.49"/>
    <rect class="cls-3" x="27.99" y="797.64" width="27.49" height="27.49"/>
    <rect class="cls-3" x="522.76" y="825.12" width="27.49" height="27.49"/>
  </g>
  <g>
    <rect class="cls-1" x="412.81" y="137.94" width="27.49" height="27.49"/>
    <rect class="cls-1" x="357.84" y="275.37" width="27.49" height="27.49"/>
    <rect class="cls-1" x="605.22" y="357.84" width="27.49" height="27.49"/>
    <rect class="cls-1" x="275.37" y="440.3" width="27.49" height="27.49"/>
    <rect class="cls-1" x="632.71" y="440.3" width="27.49" height="27.49"/>
    <rect class="cls-1" x="220.4" y="522.76" width="27.49" height="27.49"/>
    <rect class="cls-1" x="55.47" y="550.25" width="27.49" height="27.49"/>
    <rect class="cls-1" x="82.96" y="577.74" width="27.49" height="27.49"/>
    <rect class="cls-1" x="797.64" y="577.74" width="27.49" height="27.49"/>
    <rect class="cls-1" x="220.4" y="632.71" width="27.49" height="27.49"/>
    <rect class="cls-1" x="687.69" y="632.71" width="27.49" height="27.49"/>
    <rect class="cls-1" x="632.71" y="715.17" width="27.49" height="27.49"/>
    <rect class="cls-1" x="82.96" y="742.66" width="27.49" height="27.49"/>
    <rect class="cls-1" x="275.37" y="742.66" width="27.49" height="27.49"/>
    <rect class="cls-1" x="357.84" y="825.12" width="27.49" height="27.49"/>
    <rect class="cls-1" x="852.61" y="825.12" width="27.49" height="27.49"/>
  </g>
  <g>
    <rect class="cls-4" x="412.28" y="82.43" width="27.49" height="27.49"/>
    <rect class="cls-4" x="384.79" y="137.41" width="27.49" height="27.49"/>
    <rect class="cls-4" x="357.31" y="164.89" width="27.49" height="27.49"/>
    <rect class="cls-4" x="329.82" y="219.87" width="27.49" height="27.49"/>
    <rect class="cls-4" x="302.33" y="247.36" width="27.49" height="27.49"/>
    <rect class="cls-4" x="274.84" y="302.33" width="27.49" height="27.49"/>
    <rect class="cls-4" x="247.89" y="385.32" width="27.49" height="27.49"/>
    <rect class="cls-4" x="220.4" y="412.81" width="27.49" height="27.49"/>
    <rect class="cls-4" x="192.91" y="467.79" width="27.49" height="27.49"/>
    <rect class="cls-4" x="165.42" y="522.76" width="27.49" height="27.49"/>
    <polygon class="cls-4" points="192.91 660.2 192.91 632.71 192.91 605.22 165.42 605.22 165.42 632.71 165.42 660.2 165.42 687.69 192.91 687.69 192.91 660.2"/>
    <rect class="cls-4" x="192.91" y="715.17" width="27.49" height="27.49"/>
    <rect class="cls-4" x="220.4" y="770.15" width="27.49" height="27.49"/>
    <rect class="cls-4" x="247.89" y="797.64" width="27.49" height="27.49"/>
    <rect class="cls-4" x="302.86" y="825.12" width="27.49" height="27.49"/>
    <polygon class="cls-4" points="357.84 852.61 357.84 880.1 385.32 880.1 412.81 880.1 412.81 852.61 385.32 852.61 357.84 852.61"/>
  </g>
  <g>
    <rect class="cls-9" x="440.3" y=".5" width="27.49" height="27.49"/>
    <rect class="cls-9" x="440.3" y="55.47" width="27.49" height="27.49"/>
    <polygon class="cls-9" points="522.76 247.89 550.25 247.89 550.25 220.4 550.25 192.91 522.76 192.91 522.76 220.4 522.76 247.89"/>
    <rect class="cls-9" x="577.74" y="302.86" width="27.49" height="27.49"/>
    <rect class="cls-9" x="605.22" y="330.35" width="27.49" height="27.49"/>
    <polygon class="cls-9" points="660.2 385.32 632.71 385.32 632.71 412.81 632.71 440.3 660.2 440.3 660.2 412.81 660.2 385.32"/>
    <polygon class="cls-9" points="687.69 467.79 687.69 440.3 660.2 440.3 660.2 467.79 660.2 495.27 687.69 495.27 687.69 467.79"/>
    <polygon class="cls-9" points="27.99 522.76 27.99 550.25 27.99 577.74 55.47 577.74 55.47 550.25 55.47 522.76 55.47 495.27 27.99 495.27 27.99 522.76"/>
    <polygon class="cls-9" points="687.69 522.76 687.69 550.25 715.17 550.25 715.17 522.76 715.17 495.27 687.69 495.27 687.69 522.76"/>
    <rect class="cls-9" x="825.12" y="495.27" width="27.49" height="27.49"/>
    <polygon class="cls-9" points="660.2 577.74 632.71 577.74 632.71 550.25 660.2 550.25 660.2 522.76 660.2 495.27 632.71 495.27 632.71 467.79 605.22 467.79 605.22 440.3 577.74 440.3 577.74 412.81 550.25 412.81 550.25 385.32 577.74 385.32 577.74 412.81 605.22 412.81 605.22 385.32 605.22 357.84 577.74 357.84 550.25 357.84 550.25 330.35 550.25 302.86 577.74 302.86 577.74 275.37 577.74 247.89 550.25 247.89 550.25 275.37 522.76 275.37 522.76 247.89 495.27 247.89 495.27 220.4 495.27 192.91 522.76 192.91 522.76 165.42 495.27 165.42 495.27 137.94 495.27 110.45 467.79 110.45 467.79 137.94 467.79 165.42 440.3 165.42 440.3 192.91 440.3 220.4 440.3 247.89 467.79 247.89 467.79 275.37 467.79 302.86 467.79 330.35 495.27 330.35 495.27 357.84 495.27 385.32 522.76 385.32 522.76 412.81 522.76 440.3 550.25 440.3 550.25 467.79 550.25 495.27 577.74 495.27 577.74 522.76 577.74 550.25 605.22 550.25 605.22 577.74 605.22 605.22 632.71 605.22 632.71 632.71 632.71 660.2 632.71 687.69 660.2 687.69 660.2 660.2 687.69 660.2 687.69 632.71 687.69 605.22 715.17 605.22 715.17 577.74 687.69 577.74 687.69 550.25 660.2 550.25 660.2 577.74"/>
    <polygon class="cls-9" points="852.61 577.74 852.61 605.22 825.12 605.22 825.12 632.71 825.12 660.2 852.61 660.2 852.61 632.71 880.1 632.71 880.1 605.22 880.1 577.74 852.61 577.74"/>
    <rect class="cls-9" x="687.69" y="660.2" width="27.49" height="27.49"/>
    <polygon class="cls-9" points="660.2 715.17 660.2 742.66 687.69 742.66 687.69 715.17 687.69 687.69 660.2 687.69 660.2 715.17"/>
    <polygon class="cls-9" points="632.71 715.17 632.71 687.69 605.22 687.69 605.22 715.17 605.22 742.66 632.71 742.66 632.71 715.17"/>
    <polygon class="cls-9" points="605.22 742.66 577.74 742.66 577.74 770.15 550.25 770.15 550.25 797.64 522.76 797.64 495.27 797.64 495.27 825.12 467.79 825.12 440.3 825.12 440.3 852.61 467.79 852.61 467.79 880.1 495.27 880.1 522.76 880.1 522.76 852.61 522.76 825.12 550.25 825.12 577.74 825.12 577.74 797.64 605.22 797.64 632.71 797.64 632.71 770.15 605.22 770.15 605.22 742.66"/>
    <rect class="cls-9" x="632.71" y="742.66" width="27.49" height="27.49"/>
  </g>
  <g>
    <rect class="cls-6" x="440.3" y="27.99" width="27.49" height="27.49"/>
    <rect class="cls-6" x="467.79" y="82.96" width="27.49" height="27.49"/>
    <rect class="cls-6" x="495.27" y="137.94" width="27.49" height="27.49"/>
    <rect class="cls-6" x="522.76" y="165.42" width="27.49" height="27.49"/>
    <rect class="cls-6" x="550.25" y="220.4" width="27.49" height="27.49"/>
    <rect class="cls-6" x="577.74" y="275.37" width="27.49" height="27.49"/>
    <rect class="cls-6" x="605.22" y="302.86" width="27.49" height="27.49"/>
    <rect class="cls-6" x="660.2" y="412.81" width="27.49" height="27.49"/>
    <rect class="cls-6" x="687.69" y="467.79" width="27.49" height="27.49"/>
    <polygon class="cls-6" points="715.17 522.76 715.17 550.25 715.17 577.74 742.66 577.74 742.66 550.25 742.66 522.76 742.66 495.27 715.17 495.27 715.17 522.76"/>
    <polygon class="cls-6" points="852.61 495.27 852.61 522.76 852.61 550.25 852.61 577.74 880.1 577.74 880.1 550.25 880.1 522.76 880.1 495.27 852.61 495.27"/>
    <polygon class="cls-6" points="715.17 632.71 715.17 660.2 715.17 687.69 742.66 687.69 742.66 660.2 742.66 632.71 742.66 605.22 715.17 605.22 715.17 632.71"/>
    <rect class="cls-6" x="687.69" y="715.17" width="27.49" height="27.49"/>
    <polygon class="cls-6" points="660.2 770.15 660.2 797.64 687.69 797.64 687.69 770.15 687.69 742.66 660.2 742.66 660.2 770.15"/>
    <polygon class="cls-6" points="605.22 797.64 605.22 825.12 632.71 825.12 660.2 825.12 660.2 797.64 632.71 797.64 605.22 797.64"/>
    <polygon class="cls-6" points="550.25 825.12 550.25 852.61 577.74 852.61 605.22 852.61 605.22 825.12 577.74 825.12 550.25 825.12"/>
    <rect class="cls-6" x="522.76" y="852.61" width="27.49" height="27.49"/>
  </g>
  <g>
    <polygon class="cls-5" points="742.66 440.3 715.17 440.3 715.17 412.81 715.17 385.32 687.69 385.32 687.69 357.84 660.2 357.84 660.2 385.32 660.2 412.81 687.69 412.81 687.69 440.3 687.69 467.79 715.17 467.79 715.17 495.27 742.66 495.27 742.66 467.79 742.66 440.3"/>
    <polygon class="cls-5" points="495.27 27.99 467.79 27.99 467.79 55.47 467.79 82.96 495.27 82.96 495.27 55.47 495.27 27.99"/>
    <polygon class="cls-5" points="522.76 82.96 495.27 82.96 495.27 110.45 495.27 137.94 522.76 137.94 522.76 110.45 522.76 82.96"/>
    <rect class="cls-5" x="522.76" y="137.94" width="27.49" height="27.49"/>
    <polygon class="cls-5" points="577.74 165.42 550.25 165.42 550.25 192.91 550.25 220.4 577.74 220.4 577.74 192.91 577.74 165.42"/>
    <polygon class="cls-5" points="605.22 220.4 577.74 220.4 577.74 247.89 577.74 275.37 605.22 275.37 605.22 247.89 605.22 220.4"/>
    <rect class="cls-5" x="605.22" y="275.37" width="27.49" height="27.49"/>
    <polygon class="cls-5" points="660.2 302.86 632.71 302.86 632.71 330.35 632.71 357.84 660.2 357.84 660.2 330.35 660.2 302.86"/>
    <polygon class="cls-5" points="742.66 495.27 742.66 522.76 742.66 550.25 742.66 577.74 742.66 605.22 742.66 632.71 742.66 660.2 742.66 687.69 770.15 687.69 770.15 660.2 770.15 632.71 770.15 605.22 770.15 577.74 770.15 550.25 770.15 522.76 770.15 495.27 742.66 495.27"/>
    <polygon class="cls-5" points="715.17 715.17 715.17 742.66 742.66 742.66 742.66 715.17 742.66 687.69 715.17 687.69 715.17 715.17"/>
    <polygon class="cls-5" points="687.69 770.15 687.69 797.64 715.17 797.64 715.17 770.15 715.17 742.66 687.69 742.66 687.69 770.15"/>
    <rect class="cls-5" x="660.2" y="797.64" width="27.49" height="27.49"/>
    <polygon class="cls-5" points="605.22 825.12 605.22 852.61 632.71 852.61 660.2 852.61 660.2 825.12 632.71 825.12 605.22 825.12"/>
    <polygon class="cls-5" points="550.25 852.61 550.25 880.1 577.74 880.1 605.22 880.1 605.22 852.61 577.74 852.61 550.25 852.61"/>
  </g>
  <g>
    <polygon class="cls-10" points="440.3 55.47 440.3 27.99 412.81 27.99 412.81 55.47 412.81 82.96 440.3 82.96 440.3 55.47"/>
    <polygon class="cls-10" points="412.81 110.45 412.81 82.96 385.32 82.96 385.32 110.45 385.32 137.94 412.81 137.94 412.81 110.45"/>
    <rect class="cls-10" x="357.84" y="137.94" width="27.49" height="27.49"/>
    <polygon class="cls-10" points="357.84 192.91 357.84 165.42 330.35 165.42 330.35 192.91 330.35 220.4 357.84 220.4 357.84 192.91"/>
    <rect class="cls-10" x="302.86" y="220.4" width="27.49" height="27.49"/>
    <polygon class="cls-10" points="302.86 275.37 302.86 247.89 275.37 247.89 275.37 275.37 275.37 302.86 302.86 302.86 302.86 275.37"/>
    <polygon class="cls-10" points="467.79 302.86 467.79 275.37 440.3 275.37 440.3 302.86 440.3 330.35 467.79 330.35 467.79 302.86"/>
    <polygon class="cls-10" points="440.3 357.84 440.3 330.35 412.81 330.35 412.81 357.84 412.81 385.32 440.3 385.32 440.3 357.84"/>
    <polygon class="cls-10" points="412.81 412.81 412.81 385.32 385.32 385.32 385.32 412.81 385.32 440.3 412.81 440.3 412.81 412.81"/>
    <polygon class="cls-10" points="385.32 467.79 385.32 440.3 357.84 440.3 357.84 467.79 357.84 495.27 385.32 495.27 385.32 467.79"/>
    <polygon class="cls-10" points="357.84 522.76 357.84 495.27 330.35 495.27 330.35 522.76 330.35 550.25 357.84 550.25 357.84 522.76"/>
    <polygon class="cls-10" points="165.42 632.71 165.42 605.22 165.42 577.74 165.42 550.25 165.42 522.76 192.91 522.76 192.91 495.27 192.91 467.79 220.4 467.79 220.4 440.3 220.4 412.81 247.89 412.81 247.89 385.32 275.37 385.32 275.37 357.84 275.37 330.35 275.37 302.86 247.89 302.86 247.89 330.35 247.89 357.84 220.4 357.84 220.4 385.32 192.91 385.32 192.91 412.81 192.91 440.3 165.42 440.3 165.42 467.79 165.42 495.27 137.94 495.27 137.94 522.76 137.94 550.25 110.45 550.25 110.45 522.76 110.45 495.27 82.96 495.27 82.96 522.76 82.96 550.25 82.96 577.74 110.45 577.74 137.94 577.74 137.94 605.22 110.45 605.22 82.96 605.22 55.47 605.22 55.47 632.71 82.96 632.71 110.45 632.71 137.94 632.71 137.94 660.2 137.94 687.69 165.42 687.69 165.42 660.2 165.42 632.71"/>
    <polygon class="cls-10" points="302.86 632.71 302.86 605.22 330.35 605.22 330.35 577.74 330.35 550.25 302.86 550.25 302.86 577.74 275.37 577.74 275.37 605.22 275.37 632.71 275.37 660.2 275.37 687.69 302.86 687.69 302.86 660.2 302.86 632.71"/>
    <polygon class="cls-10" points="192.91 687.69 165.42 687.69 165.42 715.17 165.42 742.66 192.91 742.66 192.91 715.17 192.91 687.69"/>
    <polygon class="cls-10" points="330.35 687.69 302.86 687.69 302.86 715.17 302.86 742.66 330.35 742.66 330.35 715.17 330.35 687.69"/>
    <polygon class="cls-10" points="220.4 742.66 192.91 742.66 192.91 770.15 192.91 797.64 220.4 797.64 220.4 770.15 220.4 742.66"/>
    <rect class="cls-10" x="330.35" y="742.66" width="27.49" height="27.49"/>
    <polygon class="cls-10" points="385.32 770.15 357.84 770.15 357.84 797.64 385.32 797.64 412.81 797.64 412.81 770.15 385.32 770.15"/>
    <rect class="cls-10" x="220.4" y="797.64" width="27.49" height="27.49"/>
    <polygon class="cls-10" points="467.79 797.64 440.3 797.64 412.81 797.64 412.81 825.12 440.3 825.12 467.79 825.12 495.27 825.12 495.27 797.64 467.79 797.64"/>
    <polygon class="cls-10" points="275.37 825.12 247.89 825.12 247.89 852.61 275.37 852.61 302.86 852.61 302.86 825.12 275.37 825.12"/>
    <polygon class="cls-10" points="330.35 852.61 302.86 852.61 302.86 880.1 330.35 880.1 357.84 880.1 357.84 852.61 330.35 852.61"/>
    <polygon class="cls-10" points="440.3 880.1 412.81 880.1 385.32 880.1 357.84 880.1 357.84 907.59 385.32 907.59 412.81 907.59 440.3 907.59 467.79 907.59 495.27 907.59 495.27 880.1 467.79 880.1 440.3 880.1"/>
  </g>
  <g>
    <polygon class="cls-8" points="467.79 137.94 467.79 110.45 467.79 82.96 440.3 82.96 440.3 110.45 412.81 110.45 412.81 137.94 440.3 137.94 440.3 165.42 467.79 165.42 467.79 137.94"/>
    <polygon class="cls-8" points="495.27 330.35 467.79 330.35 467.79 357.84 467.79 385.32 495.27 385.32 495.27 357.84 495.27 330.35"/>
    <polygon class="cls-8" points="302.86 385.32 330.35 385.32 330.35 357.84 302.86 357.84 302.86 330.35 275.37 330.35 275.37 357.84 275.37 385.32 275.37 412.81 275.37 440.3 302.86 440.3 302.86 412.81 302.86 385.32"/>
    <polygon class="cls-8" points="522.76 385.32 495.27 385.32 495.27 412.81 495.27 440.3 522.76 440.3 522.76 412.81 522.76 385.32"/>
    <polygon class="cls-8" points="550.25 440.3 522.76 440.3 522.76 467.79 522.76 495.27 550.25 495.27 550.25 467.79 550.25 440.3"/>
    <rect class="cls-8" x="55.47" y="495.27" width="27.49" height="27.49"/>
    <polygon class="cls-8" points="247.89 522.76 247.89 495.27 247.89 467.79 247.89 440.3 220.4 440.3 220.4 467.79 220.4 495.27 192.91 495.27 192.91 522.76 192.91 550.25 220.4 550.25 220.4 522.76 247.89 522.76"/>
    <polygon class="cls-8" points="577.74 495.27 550.25 495.27 550.25 522.76 550.25 550.25 577.74 550.25 577.74 522.76 577.74 495.27"/>
    <polygon class="cls-8" points="797.64 495.27 797.64 522.76 797.64 550.25 770.15 550.25 770.15 577.74 797.64 577.74 825.12 577.74 825.12 550.25 825.12 522.76 825.12 495.27 797.64 495.27"/>
    <polygon class="cls-8" points="275.37 550.25 275.37 577.74 302.86 577.74 302.86 550.25 330.35 550.25 330.35 522.76 330.35 495.27 357.84 495.27 357.84 467.79 357.84 440.3 385.32 440.3 385.32 412.81 385.32 385.32 412.81 385.32 412.81 357.84 412.81 330.35 440.3 330.35 440.3 302.86 440.3 275.37 467.79 275.37 467.79 247.89 440.3 247.89 440.3 220.4 440.3 192.91 440.3 165.42 412.81 165.42 385.32 165.42 385.32 192.91 412.81 192.91 412.81 220.4 385.32 220.4 385.32 192.91 357.84 192.91 357.84 220.4 357.84 247.89 330.35 247.89 330.35 275.37 302.86 275.37 302.86 302.86 302.86 330.35 330.35 330.35 330.35 302.86 357.84 302.86 357.84 275.37 385.32 275.37 385.32 302.86 385.32 330.35 357.84 330.35 330.35 330.35 330.35 357.84 357.84 357.84 357.84 385.32 330.35 385.32 330.35 412.81 330.35 440.3 302.86 440.3 302.86 467.79 275.37 467.79 275.37 495.27 275.37 522.76 247.89 522.76 247.89 550.25 275.37 550.25"/>
    <rect class="cls-8" x="165.42" y="550.25" width="27.49" height="27.49"/>
    <polygon class="cls-8" points="605.22 550.25 577.74 550.25 577.74 577.74 577.74 605.22 605.22 605.22 605.22 577.74 605.22 550.25"/>
    <polygon class="cls-8" points="55.47 577.74 27.99 577.74 27.99 605.22 27.99 632.71 55.47 632.71 55.47 605.22 55.47 577.74"/>
    <polygon class="cls-8" points="605.22 632.71 605.22 660.2 605.22 687.69 632.71 687.69 632.71 660.2 632.71 632.71 632.71 605.22 605.22 605.22 605.22 632.71"/>
    <polygon class="cls-8" points="770.15 605.22 770.15 632.71 797.64 632.71 825.12 632.71 825.12 605.22 797.64 605.22 770.15 605.22"/>
    <rect class="cls-8" x="55.47" y="632.71" width="27.49" height="27.49"/>
    <polygon class="cls-8" points="247.89 660.2 247.89 687.69 275.37 687.69 275.37 660.2 275.37 632.71 275.37 605.22 275.37 577.74 247.89 577.74 247.89 550.25 220.4 550.25 220.4 577.74 220.4 605.22 220.4 632.71 247.89 632.71 247.89 660.2"/>
    <polygon class="cls-8" points="220.4 687.69 220.4 660.2 220.4 632.71 192.91 632.71 192.91 660.2 192.91 687.69 192.91 715.17 220.4 715.17 247.89 715.17 247.89 687.69 220.4 687.69"/>
    <polygon class="cls-8" points="577.74 715.17 577.74 742.66 605.22 742.66 605.22 715.17 605.22 687.69 577.74 687.69 577.74 715.17"/>
    <polygon class="cls-8" points="302.86 742.66 302.86 715.17 302.86 687.69 275.37 687.69 275.37 715.17 247.89 715.17 247.89 742.66 275.37 742.66 302.86 742.66"/>
    <rect class="cls-8" x="220.4" y="742.66" width="27.49" height="27.49"/>
    <rect class="cls-8" x="550.25" y="742.66" width="27.49" height="27.49"/>
    <rect class="cls-8" x="247.89" y="770.15" width="27.49" height="27.49"/>
    <polygon class="cls-8" points="495.27 770.15 495.27 797.64 522.76 797.64 550.25 797.64 550.25 770.15 522.76 770.15 495.27 770.15"/>
    <polygon class="cls-8" points="440.3 825.12 412.81 825.12 412.81 797.64 385.32 797.64 357.84 797.64 357.84 770.15 330.35 770.15 330.35 742.66 302.86 742.66 302.86 770.15 302.86 797.64 275.37 797.64 275.37 825.12 302.86 825.12 330.35 825.12 330.35 852.61 357.84 852.61 357.84 825.12 385.32 825.12 385.32 852.61 412.81 852.61 412.81 880.1 440.3 880.1 467.79 880.1 467.79 852.61 440.3 852.61 440.3 825.12"/>
    <polygon class="cls-8" points="495.27 880.1 495.27 907.59 522.76 907.59 550.25 907.59 550.25 880.1 522.76 880.1 495.27 880.1"/>
  </g>
</svg>