<?xml version="1.0" encoding="UTF-8"?>
<svg id="triangle" data-name="Calque 1" xmlns="http://www.w3.org/2000/svg" viewBox="0 0 908.09 908.09">
  <defs>
    <style>
      .cls-1 {
        fill: #aeb5dc;
        stroke: #aeb5dd;
      }

      .cls-1, .cls-2, .cls-3, .cls-4, .cls-5, .cls-6 {
        stroke-miterlimit: 10;
      }

      .cls-2 {
        fill: #fcf6c4;
        stroke: #fdf7c4;
      }

      .cls-3 {
        fill: #d6daf0;
        stroke: #d6daf0;
      }

      .cls-4 {
        fill: #5768af;
        stroke: #5768af;
      }

      .cls-5 {
        fill: #7e8dc6;
        stroke: #7e8dc6;
      }

      .cls-6 {
        fill: #f9ed6f;
        stroke: #f9ed6d;
      }
    </style>
  </defs>
  <polygon class="cls-2" points="522.76 494.81 522.76 467.32 522.76 439.84 495.27 439.84 495.27 412.35 495.27 384.86 467.79 384.86 467.79 357.37 467.79 329.89 440.3 329.89 440.3 357.37 440.3 384.86 412.81 384.86 412.81 412.35 412.81 439.84 385.32 439.84 385.32 467.32 385.32 494.81 357.84 494.81 357.84 522.3 385.32 522.3 412.81 522.3 440.3 522.3 440.3 549.79 440.3 577.27 440.3 604.76 440.3 632.25 440.3 659.74 440.3 687.22 412.81 687.22 412.81 714.71 412.81 742.2 412.81 769.69 412.81 797.17 440.3 797.17 467.79 797.17 495.27 797.17 495.27 769.69 495.27 742.2 495.27 714.71 495.27 687.22 467.79 687.22 467.79 659.74 467.79 632.25 467.79 604.76 467.79 577.27 467.79 549.79 467.79 522.3 495.27 522.3 522.76 522.3 550.25 522.3 550.25 494.81 522.76 494.81"/>
  <g>
    <polygon class="cls-6" points="550.25 494.81 550.25 467.32 550.25 439.84 522.76 439.84 522.76 467.32 522.76 494.81 550.25 494.81 550.25 522.3 577.74 522.3 577.74 494.81 550.25 494.81"/>
    <polygon class="cls-6" points="412.81 357.37 412.81 384.86 440.3 384.86 440.3 357.37 440.3 329.89 412.81 329.89 412.81 357.37"/>
    <polygon class="cls-6" points="495.27 329.89 467.79 329.89 467.79 357.37 467.79 384.86 495.27 384.86 495.27 357.37 495.27 329.89"/>
    <polygon class="cls-6" points="385.32 412.35 385.32 439.84 412.81 439.84 412.81 412.35 412.81 384.86 385.32 384.86 385.32 412.35"/>
    <polygon class="cls-6" points="522.76 384.86 495.27 384.86 495.27 412.35 495.27 439.84 522.76 439.84 522.76 412.35 522.76 384.86"/>
    <polygon class="cls-6" points="357.84 467.32 357.84 494.81 330.35 494.81 330.35 522.3 357.84 522.3 357.84 494.81 385.32 494.81 385.32 467.32 385.32 439.84 357.84 439.84 357.84 467.32"/>
    <polygon class="cls-6" points="440.3 659.74 440.3 632.25 440.3 604.76 440.3 577.27 412.81 577.27 412.81 604.76 412.81 632.25 412.81 659.74 412.81 687.22 440.3 687.22 440.3 659.74"/>
    <polygon class="cls-6" points="412.81 714.71 412.81 714.25 412.81 687.22 385.32 687.22 385.32 714.25 385.32 714.71 385.32 741.74 412.81 741.74 412.81 714.71"/>
    <polygon class="cls-6" points="522.76 796.71 522.76 769.22 522.76 741.74 522.76 714.25 522.76 686.76 495.27 686.76 495.27 659.74 495.27 632.25 495.27 604.76 495.27 577.27 467.79 577.27 467.79 604.76 467.79 632.25 467.79 659.74 467.79 687.22 495.27 687.22 495.27 714.25 495.27 741.74 495.27 769.22 495.27 796.71 467.79 796.71 440.3 796.71 412.81 796.71 412.81 769.69 412.81 769.22 412.81 742.2 385.32 742.2 385.32 769.22 385.32 769.69 385.32 796.71 385.32 797.17 357.84 797.17 357.84 824.66 385.32 824.66 385.32 824.2 412.81 824.2 440.3 824.2 467.79 824.2 495.27 824.2 522.76 824.2 522.76 824.66 550.25 824.66 550.25 797.17 522.76 797.17 522.76 796.71"/>
    <polygon class="cls-6" points="467.79 274.91 440.3 274.91 440.3 302.4 440.3 329.89 467.79 329.89 467.79 302.4 467.79 274.91"/>
  </g>
  <g>
    <polygon class="cls-3" points="385.32 247.42 385.32 274.91 412.81 274.91 412.81 247.42 412.81 219.94 385.32 219.94 385.32 247.42"/>
    <polygon class="cls-3" points="357.84 302.4 357.84 329.89 385.32 329.89 385.32 302.4 385.32 274.91 357.84 274.91 357.84 302.4"/>
    <polygon class="cls-3" points="330.35 357.37 330.35 384.86 357.84 384.86 357.84 357.37 357.84 329.89 330.35 329.89 330.35 357.37"/>
    <polygon class="cls-3" points="302.86 412.35 302.86 439.84 330.35 439.84 330.35 412.35 330.35 384.86 302.86 384.86 302.86 412.35"/>
    <polygon class="cls-3" points="275.37 467.32 275.37 494.81 302.86 494.81 302.86 467.32 302.86 439.84 275.37 439.84 275.37 467.32"/>
    <polygon class="cls-3" points="247.89 522.3 247.89 549.79 275.37 549.79 275.37 522.3 275.37 494.81 247.89 494.81 247.89 522.3"/>
    <polygon class="cls-3" points="220.4 577.27 220.4 604.76 247.89 604.76 247.89 577.27 247.89 549.79 220.4 549.79 220.4 577.27"/>
    <polygon class="cls-3" points="192.91 632.25 192.91 659.74 220.4 659.74 220.4 632.25 220.4 604.76 192.91 604.76 192.91 632.25"/>
    <polygon class="cls-3" points="165.42 687.22 165.42 714.71 192.91 714.71 192.91 687.22 192.91 659.74 165.42 659.74 165.42 687.22"/>
    <polygon class="cls-3" points="137.94 742.2 137.94 769.69 165.42 769.69 165.42 742.2 165.42 714.71 137.94 714.71 137.94 742.2"/>
    <polygon class="cls-3" points="220.4 797.17 192.91 797.17 165.42 797.17 165.42 797.64 137.94 797.64 137.94 825.12 165.42 825.12 165.42 824.66 192.91 824.66 220.4 824.66 247.89 824.66 275.37 824.66 275.37 797.17 247.89 797.17 220.4 797.17"/>
    <polygon class="cls-3" points="495.27 165.42 467.79 165.42 467.79 192.91 467.79 220.4 495.27 220.4 495.27 192.91 495.27 165.42"/>
    <polygon class="cls-3" points="522.76 247.42 522.76 220.4 495.27 220.4 495.27 247.42 495.27 247.89 495.27 274.91 522.76 274.91 522.76 247.89 522.76 247.42"/>
    <polygon class="cls-3" points="550.25 274.91 522.76 274.91 522.76 302.4 522.76 329.89 550.25 329.89 550.25 302.4 550.25 274.91"/>
    <polygon class="cls-3" points="577.74 329.89 550.25 329.89 550.25 357.37 550.25 384.86 577.74 384.86 577.74 357.37 577.74 329.89"/>
    <polygon class="cls-3" points="605.22 384.86 577.74 384.86 577.74 412.35 577.74 439.84 605.22 439.84 605.22 412.35 605.22 384.86"/>
    <polygon class="cls-3" points="605.22 494.81 632.71 494.81 632.71 467.32 632.71 439.84 605.22 439.84 605.22 467.32 605.22 494.81"/>
    <polygon class="cls-3" points="632.71 549.79 660.2 549.79 660.2 522.3 660.2 494.81 632.71 494.81 632.71 522.3 632.71 549.79"/>
    <rect class="cls-3" x="412.81" y="549.79" width="27.49" height="27.49"/>
    <rect class="cls-3" x="467.79" y="549.79" width="27.49" height="27.49"/>
    <polygon class="cls-3" points="660.2 604.76 687.69 604.76 687.69 577.27 687.69 549.79 660.2 549.79 660.2 577.27 660.2 604.76"/>
    <polygon class="cls-3" points="522.76 632.25 522.76 604.76 522.76 577.27 495.27 577.27 495.27 604.76 495.27 632.25 495.27 659.74 495.27 687.22 522.76 687.22 522.76 659.74 522.76 632.25"/>
    <polygon class="cls-3" points="687.69 659.74 715.17 659.74 715.17 632.25 715.17 604.76 687.69 604.76 687.69 632.25 687.69 659.74"/>
    <polygon class="cls-3" points="412.81 659.74 412.81 632.25 412.81 604.76 412.81 577.27 385.32 577.27 385.32 604.76 385.32 632.25 385.32 659.74 385.32 687.22 412.81 687.22 412.81 659.74"/>
    <polygon class="cls-3" points="715.17 714.71 742.66 714.71 742.66 687.22 742.66 659.74 715.17 659.74 715.17 687.22 715.17 714.71"/>
    <polygon class="cls-3" points="550.25 742.2 550.25 714.71 550.25 687.22 522.76 687.22 522.76 714.71 522.76 742.2 522.76 769.69 522.76 797.17 550.25 797.17 550.25 769.69 550.25 742.2"/>
    <polygon class="cls-3" points="742.66 769.69 770.15 769.69 770.15 742.2 770.15 714.71 742.66 714.71 742.66 742.2 742.66 769.69"/>
    <polygon class="cls-3" points="385.32 769.69 385.32 742.2 385.32 714.71 385.32 687.22 357.84 687.22 357.84 714.71 357.84 742.2 357.84 769.69 357.84 797.17 385.32 797.17 385.32 769.69"/>
    <rect class="cls-3" x="330.35" y="797.17" width="27.49" height="27.49"/>
    <rect class="cls-3" x="550.25" y="797.17" width="27.49" height="27.49"/>
    <polygon class="cls-3" points="742.66 797.17 715.17 797.17 687.69 797.17 660.2 797.17 632.71 797.17 632.71 824.66 660.2 824.66 687.69 824.66 715.17 824.66 742.66 824.66 742.66 825.12 770.15 825.12 770.15 797.64 742.66 797.64 742.66 797.17"/>
    <polygon class="cls-3" points="440.3 137.94 440.3 164.96 412.81 164.96 412.81 192.45 412.81 219.94 440.3 219.94 440.3 192.45 440.3 165.42 467.79 165.42 467.79 137.94 440.3 137.94"/>
    <rect class="cls-3" x="110.45" y="770.15" width="27.49" height="27.49"/>
    <rect class="cls-3" x="770.15" y="770.15" width="27.49" height="27.49"/>
    <polygon class="cls-3" points="495.27 825.12 467.79 825.12 440.3 825.12 412.81 825.12 385.32 825.12 357.84 825.12 357.84 852.61 385.32 852.61 412.81 852.61 440.3 852.61 467.79 852.61 495.27 852.61 522.76 852.61 550.25 852.61 550.25 825.12 522.76 825.12 495.27 825.12"/>
  </g>
  <g>
    <polygon class="cls-1" points="412.81 247.42 412.81 274.91 440.3 274.91 440.3 247.42 440.3 219.94 412.81 219.94 412.81 247.42"/>
    <polygon class="cls-1" points="385.32 302.4 385.32 329.89 412.81 329.89 412.81 302.4 412.81 274.91 385.32 274.91 385.32 302.4"/>
    <polygon class="cls-1" points="357.84 357.37 357.84 384.86 385.32 384.86 385.32 357.37 385.32 329.89 357.84 329.89 357.84 357.37"/>
    <polygon class="cls-1" points="330.35 412.35 330.35 439.84 357.84 439.84 357.84 412.35 357.84 384.86 330.35 384.86 330.35 412.35"/>
    <polygon class="cls-1" points="302.86 467.32 302.86 494.81 330.35 494.81 330.35 467.32 330.35 439.84 302.86 439.84 302.86 467.32"/>
    <polygon class="cls-1" points="275.37 522.3 275.37 549.79 302.86 549.79 302.86 522.3 302.86 494.81 275.37 494.81 275.37 522.3"/>
    <polygon class="cls-1" points="247.89 577.27 247.89 604.76 275.37 604.76 275.37 577.27 275.37 549.79 247.89 549.79 247.89 577.27"/>
    <polygon class="cls-1" points="220.4 632.25 220.4 659.74 247.89 659.74 247.89 632.25 247.89 604.76 220.4 604.76 220.4 632.25"/>
    <polygon class="cls-1" points="192.91 687.22 192.91 714.71 220.4 714.71 220.4 687.22 220.4 659.74 192.91 659.74 192.91 687.22"/>
    <polygon class="cls-1" points="440.3 137.48 440.3 109.99 412.81 109.99 412.81 137.48 412.81 164.96 440.3 164.96 440.3 137.48"/>
    <polygon class="cls-1" points="412.81 192.45 412.81 164.96 385.32 164.96 385.32 192.45 385.32 219.94 412.81 219.94 412.81 192.45"/>
    <polygon class="cls-1" points="385.32 247.42 385.32 219.94 357.84 219.94 357.84 247.42 357.84 274.91 385.32 274.91 385.32 247.42"/>
    <polygon class="cls-1" points="357.84 302.4 357.84 274.91 330.35 274.91 330.35 302.4 330.35 329.89 357.84 329.89 357.84 302.4"/>
    <polygon class="cls-1" points="330.35 357.37 330.35 329.89 302.86 329.89 302.86 357.37 302.86 384.86 330.35 384.86 330.35 357.37"/>
    <polygon class="cls-1" points="302.86 412.35 302.86 384.86 275.37 384.86 275.37 412.35 275.37 439.84 302.86 439.84 302.86 412.35"/>
    <polygon class="cls-1" points="275.37 467.32 275.37 439.84 247.89 439.84 247.89 467.32 247.89 494.81 275.37 494.81 275.37 467.32"/>
    <polygon class="cls-1" points="247.89 522.3 247.89 494.81 220.4 494.81 220.4 522.3 220.4 549.79 247.89 549.79 247.89 522.3"/>
    <polygon class="cls-1" points="220.4 577.27 220.4 549.79 192.91 549.79 192.91 577.27 192.91 604.76 220.4 604.76 220.4 577.27"/>
    <polygon class="cls-1" points="192.91 632.25 192.91 604.76 165.42 604.76 165.42 632.25 165.42 659.74 192.91 659.74 192.91 632.25"/>
    <polygon class="cls-1" points="165.42 687.22 165.42 659.74 137.94 659.74 137.94 687.22 137.94 714.71 165.42 714.71 165.42 687.22"/>
    <polygon class="cls-1" points="137.94 714.71 110.45 714.71 110.45 742.2 110.45 769.69 137.94 769.69 137.94 742.2 137.94 714.71"/>
    <polygon class="cls-1" points="82.96 797.17 82.96 824.66 55.47 824.66 55.47 852.15 82.96 852.15 110.45 852.15 137.94 852.15 165.42 852.15 165.42 824.66 137.94 824.66 110.45 824.66 110.45 797.17 110.45 769.69 82.96 769.69 82.96 797.17"/>
    <polygon class="cls-1" points="165.42 742.2 165.42 769.69 137.94 769.69 137.94 797.17 165.42 797.17 192.91 797.17 220.4 797.17 247.89 797.17 275.37 797.17 275.37 824.66 302.86 824.66 302.86 797.17 302.86 769.69 275.37 769.69 247.89 769.69 220.4 769.69 192.91 769.69 192.91 742.2 192.91 714.71 165.42 714.71 165.42 742.2"/>
    <polygon class="cls-1" points="220.4 824.66 192.91 824.66 165.42 824.66 165.42 852.15 192.91 852.15 220.4 852.15 247.89 852.15 275.37 852.15 275.37 824.66 247.89 824.66 220.4 824.66"/>
    <polygon class="cls-1" points="467.79 164.96 495.27 164.96 495.27 137.48 495.27 109.99 467.79 109.99 467.79 137.48 467.79 164.96"/>
    <polygon class="cls-1" points="495.27 219.94 522.76 219.94 522.76 192.45 522.76 164.96 495.27 164.96 495.27 192.45 495.27 219.94"/>
    <polygon class="cls-1" points="522.76 274.91 550.25 274.91 550.25 247.42 550.25 219.94 522.76 219.94 522.76 247.42 522.76 274.91"/>
    <polygon class="cls-1" points="550.25 329.89 577.74 329.89 577.74 302.4 577.74 274.91 550.25 274.91 550.25 302.4 550.25 329.89"/>
    <polygon class="cls-1" points="577.74 384.86 605.22 384.86 605.22 357.37 605.22 329.89 577.74 329.89 577.74 357.37 577.74 384.86"/>
    <polygon class="cls-1" points="605.22 439.84 632.71 439.84 632.71 412.35 632.71 384.86 605.22 384.86 605.22 412.35 605.22 439.84"/>
    <polygon class="cls-1" points="632.71 494.81 660.2 494.81 660.2 467.32 660.2 439.84 632.71 439.84 632.71 467.32 632.71 494.81"/>
    <polygon class="cls-1" points="660.2 549.79 687.69 549.79 687.69 522.3 687.69 494.81 660.2 494.81 660.2 522.3 660.2 549.79"/>
    <polygon class="cls-1" points="687.69 604.76 715.17 604.76 715.17 577.27 715.17 549.79 687.69 549.79 687.69 577.27 687.69 604.76"/>
    <polygon class="cls-1" points="715.17 659.74 742.66 659.74 742.66 632.25 742.66 604.76 715.17 604.76 715.17 632.25 715.17 659.74"/>
    <polygon class="cls-1" points="742.66 714.71 770.15 714.71 770.15 687.22 770.15 659.74 742.66 659.74 742.66 687.22 742.66 714.71"/>
    <polygon class="cls-1" points="770.15 769.69 797.64 769.69 797.64 742.2 797.64 714.71 770.15 714.71 770.15 742.2 770.15 769.69"/>
    <polygon class="cls-1" points="495.27 219.94 467.79 219.94 467.79 247.42 467.79 274.91 495.27 274.91 495.27 247.42 495.27 219.94"/>
    <polygon class="cls-1" points="522.76 274.91 495.27 274.91 495.27 302.4 495.27 329.89 522.76 329.89 522.76 302.4 522.76 274.91"/>
    <polygon class="cls-1" points="550.25 329.89 522.76 329.89 522.76 357.37 522.76 384.86 550.25 384.86 550.25 357.37 550.25 329.89"/>
    <polygon class="cls-1" points="577.74 384.86 550.25 384.86 550.25 412.35 550.25 439.84 577.74 439.84 577.74 412.35 577.74 384.86"/>
    <polygon class="cls-1" points="605.22 439.84 577.74 439.84 577.74 467.32 577.74 494.81 605.22 494.81 605.22 467.32 605.22 439.84"/>
    <polygon class="cls-1" points="632.71 494.81 605.22 494.81 605.22 522.3 605.22 549.79 632.71 549.79 632.71 522.3 632.71 494.81"/>
    <polygon class="cls-1" points="660.2 549.79 632.71 549.79 632.71 577.27 632.71 604.76 660.2 604.76 660.2 577.27 660.2 549.79"/>
    <polygon class="cls-1" points="687.69 604.76 660.2 604.76 660.2 632.25 660.2 659.74 687.69 659.74 687.69 632.25 687.69 604.76"/>
    <polygon class="cls-1" points="715.17 659.74 687.69 659.74 687.69 687.22 687.69 714.71 715.17 714.71 715.17 687.22 715.17 659.74"/>
    <polygon class="cls-1" points="660.2 797.17 687.69 797.17 715.17 797.17 742.66 797.17 770.15 797.17 770.15 769.69 742.66 769.69 742.66 742.2 742.66 714.71 715.17 714.71 715.17 742.2 715.17 769.69 687.69 769.69 660.2 769.69 632.71 769.69 605.22 769.69 605.22 797.17 605.22 824.66 632.71 824.66 632.71 797.17 660.2 797.17"/>
    <polygon class="cls-1" points="467.79 82.5 467.79 55.01 440.3 55.01 440.3 82.5 440.3 109.99 467.79 109.99 467.79 82.5"/>
    <polygon class="cls-1" points="467.79 164.96 440.3 164.96 440.3 192.45 440.3 219.94 467.79 219.94 467.79 192.45 467.79 164.96"/>
    <rect class="cls-1" x="330.35" y="824.66" width="27.49" height="27.49"/>
    <rect class="cls-1" x="550.25" y="824.66" width="27.49" height="27.49"/>
    <polygon class="cls-1" points="825.12 824.66 825.12 797.17 825.12 769.69 797.64 769.69 797.64 797.17 797.64 824.66 770.15 824.66 742.66 824.66 715.17 824.66 687.69 824.66 660.2 824.66 632.71 824.66 632.71 852.15 660.2 852.15 687.69 852.15 715.17 852.15 742.66 852.15 770.15 852.15 797.64 852.15 825.12 852.15 852.61 852.15 852.61 824.66 825.12 824.66"/>
    <rect class="cls-1" x="302.86" y="852.15" width="27.49" height="27.49"/>
    <rect class="cls-1" x="577.74" y="852.15" width="27.49" height="27.49"/>
  </g>
  <g>
    <polygon class="cls-5" points="522.76 852.15 495.27 852.15 467.79 852.15 440.3 852.15 412.81 852.15 385.32 852.15 357.84 852.15 330.35 852.15 330.35 879.64 357.84 879.64 385.32 879.64 412.81 879.64 440.3 879.64 467.79 879.64 495.27 879.64 522.76 879.64 550.25 879.64 577.74 879.64 577.74 852.15 550.25 852.15 522.76 852.15"/>
    <polygon class="cls-5" points="220.4 852.15 192.91 852.15 165.42 852.15 137.94 852.15 110.45 852.15 82.96 852.15 55.47 852.15 55.47 824.66 27.99 824.66 27.99 852.15 27.99 879.64 55.47 879.64 82.96 879.64 110.45 879.64 137.94 879.64 165.42 879.64 192.91 879.64 220.4 879.64 247.89 879.64 275.37 879.64 275.37 852.15 247.89 852.15 220.4 852.15"/>
    <polygon class="cls-5" points="247.89 467.32 247.89 439.84 220.4 439.84 220.4 467.32 220.4 494.81 247.89 494.81 247.89 467.32"/>
    <polygon class="cls-5" points="220.4 522.3 220.4 494.81 192.91 494.81 192.91 522.3 192.91 549.79 220.4 549.79 220.4 522.3"/>
    <polygon class="cls-5" points="192.91 577.27 192.91 549.79 165.42 549.79 165.42 577.27 165.42 604.76 192.91 604.76 192.91 577.27"/>
    <polygon class="cls-5" points="165.42 632.25 165.42 604.76 137.94 604.76 137.94 632.25 137.94 659.74 165.42 659.74 165.42 632.25"/>
    <polygon class="cls-5" points="137.94 687.22 137.94 659.74 110.45 659.74 110.45 687.22 110.45 714.71 137.94 714.71 137.94 687.22"/>
    <polygon class="cls-5" points="110.45 742.2 110.45 714.71 82.96 714.71 82.96 742.2 82.96 769.69 110.45 769.69 110.45 742.2"/>
    <polygon class="cls-5" points="82.96 797.17 82.96 769.69 55.47 769.69 55.47 797.17 55.47 824.66 82.96 824.66 82.96 797.17"/>
    <rect class="cls-5" x="412.81" y="82.5" width="27.49" height="27.49"/>
    <rect class="cls-5" x="385.32" y="137.48" width="27.49" height="27.49"/>
    <rect class="cls-5" x="357.84" y="192.45" width="27.49" height="27.49"/>
    <polygon class="cls-5" points="467.79 219.94 440.3 219.94 440.3 247.42 440.3 274.91 467.79 274.91 467.79 247.42 467.79 219.94"/>
    <rect class="cls-5" x="330.35" y="247.42" width="27.49" height="27.49"/>
    <polygon class="cls-5" points="412.81 302.4 412.81 329.89 440.3 329.89 440.3 302.4 440.3 274.91 412.81 274.91 412.81 302.4"/>
    <polygon class="cls-5" points="495.27 274.91 467.79 274.91 467.79 302.4 467.79 329.89 495.27 329.89 495.27 302.4 495.27 274.91"/>
    <rect class="cls-5" x="302.86" y="302.4" width="27.49" height="27.49"/>
    <rect class="cls-5" x="577.74" y="302.4" width="27.49" height="27.49"/>
    <polygon class="cls-5" points="385.32 357.37 385.32 384.86 412.81 384.86 412.81 357.37 412.81 329.89 385.32 329.89 385.32 357.37"/>
    <polygon class="cls-5" points="522.76 329.89 495.27 329.89 495.27 357.37 495.27 384.86 522.76 384.86 522.76 357.37 522.76 329.89"/>
    <rect class="cls-5" x="275.37" y="357.37" width="27.49" height="27.49"/>
    <rect class="cls-5" x="605.22" y="357.37" width="27.49" height="27.49"/>
    <polygon class="cls-5" points="357.84 412.35 357.84 439.84 385.32 439.84 385.32 412.35 385.32 384.86 357.84 384.86 357.84 412.35"/>
    <polygon class="cls-5" points="550.25 384.86 522.76 384.86 522.76 412.35 522.76 439.84 550.25 439.84 550.25 412.35 550.25 384.86"/>
    <rect class="cls-5" x="247.89" y="412.35" width="27.49" height="27.49"/>
    <rect class="cls-5" x="632.71" y="412.35" width="27.49" height="27.49"/>
    <polygon class="cls-5" points="330.35 467.32 330.35 494.81 357.84 494.81 357.84 467.32 357.84 439.84 330.35 439.84 330.35 467.32"/>
    <polygon class="cls-5" points="577.74 439.84 550.25 439.84 550.25 467.32 550.25 494.81 577.74 494.81 577.74 467.32 577.74 439.84"/>
    <polygon class="cls-5" points="687.69 439.84 660.2 439.84 660.2 467.32 660.2 494.81 687.69 494.81 687.69 467.32 687.69 439.84"/>
    <polygon class="cls-5" points="302.86 522.3 302.86 549.79 330.35 549.79 357.84 549.79 385.32 549.79 412.81 549.79 412.81 522.3 385.32 522.3 357.84 522.3 330.35 522.3 330.35 494.81 302.86 494.81 302.86 522.3"/>
    <polygon class="cls-5" points="715.17 494.81 687.69 494.81 687.69 522.3 687.69 549.79 715.17 549.79 715.17 522.3 715.17 494.81"/>
    <polygon class="cls-5" points="550.25 522.3 522.76 522.3 495.27 522.3 495.27 549.79 522.76 549.79 550.25 549.79 577.74 549.79 605.22 549.79 605.22 522.3 605.22 494.81 577.74 494.81 577.74 522.3 550.25 522.3"/>
    <polygon class="cls-5" points="742.66 549.79 715.17 549.79 715.17 577.27 715.17 604.76 742.66 604.76 742.66 577.27 742.66 549.79"/>
    <polygon class="cls-5" points="770.15 604.76 742.66 604.76 742.66 632.25 742.66 659.74 770.15 659.74 770.15 632.25 770.15 604.76"/>
    <polygon class="cls-5" points="797.64 659.74 770.15 659.74 770.15 687.22 770.15 714.71 797.64 714.71 797.64 687.22 797.64 659.74"/>
    <polygon class="cls-5" points="825.12 714.71 797.64 714.71 797.64 742.2 797.64 769.69 825.12 769.69 825.12 742.2 825.12 714.71"/>
    <polygon class="cls-5" points="852.61 769.69 825.12 769.69 825.12 797.17 825.12 824.66 852.61 824.66 852.61 797.17 852.61 769.69"/>
    <polygon class="cls-5" points="852.61 824.66 852.61 852.15 852.61 852.15 825.12 852.15 797.64 852.15 770.15 852.15 742.66 852.15 715.17 852.15 687.69 852.15 660.2 852.15 632.71 852.15 632.71 879.64 660.2 879.64 687.69 879.64 715.17 879.64 742.66 879.64 770.15 879.64 797.64 879.64 825.12 879.64 852.61 879.64 852.61 879.64 880.1 879.64 880.1 852.15 880.1 824.66 852.61 824.66"/>
    <rect class="cls-5" x="302.86" y="769.69" width="27.49" height="27.49"/>
    <rect class="cls-5" x="577.74" y="769.69" width="27.49" height="27.49"/>
    <rect class="cls-5" x="275.37" y="824.66" width="27.49" height="27.49"/>
    <rect class="cls-5" x="605.22" y="824.66" width="27.49" height="27.49"/>
    <rect class="cls-5" x="440.3" y="27.53" width="27.49" height="27.49"/>
    <rect class="cls-5" x="467.79" y="82.5" width="27.49" height="27.49"/>
    <rect class="cls-5" x="495.27" y="137.48" width="27.49" height="27.49"/>
    <rect class="cls-5" x="522.76" y="192.45" width="27.49" height="27.49"/>
    <rect class="cls-5" x="550.25" y="247.42" width="27.49" height="27.49"/>
  </g>
  <g>
    <rect class="cls-4" x="770.15" y="797.17" width="27.49" height="27.49"/>
    <polygon class="cls-4" points="385.32 164.96 385.32 137.48 357.84 137.48 357.84 164.96 357.84 192.45 385.32 192.45 385.32 164.96"/>
    <polygon class="cls-4" points="357.84 219.94 357.84 192.45 330.35 192.45 330.35 219.94 330.35 247.42 357.84 247.42 357.84 219.94"/>
    <polygon class="cls-4" points="330.35 274.91 330.35 247.42 302.86 247.42 302.86 274.91 302.86 302.4 330.35 302.4 330.35 274.91"/>
    <polygon class="cls-4" points="302.86 329.89 302.86 302.4 275.37 302.4 275.37 329.89 275.37 357.37 302.86 357.37 302.86 329.89"/>
    <polygon class="cls-4" points="275.37 384.86 275.37 357.37 247.89 357.37 247.89 384.86 247.89 412.35 275.37 412.35 275.37 384.86"/>
    <rect class="cls-4" x="220.4" y="412.35" width="27.49" height="27.49"/>
    <polygon class="cls-4" points="220.4 467.32 220.4 439.84 192.91 439.84 192.91 467.32 192.91 494.81 220.4 494.81 220.4 467.32"/>
    <polygon class="cls-4" points="192.91 522.3 192.91 494.81 165.42 494.81 165.42 522.3 165.42 549.79 192.91 549.79 192.91 522.3"/>
    <polygon class="cls-4" points="165.42 577.27 165.42 549.79 137.94 549.79 137.94 577.27 137.94 604.76 165.42 604.76 165.42 577.27"/>
    <polygon class="cls-4" points="137.94 632.25 137.94 604.76 110.45 604.76 110.45 632.25 110.45 659.74 137.94 659.74 137.94 632.25"/>
    <polygon class="cls-4" points="110.45 687.22 110.45 659.74 82.96 659.74 82.96 687.22 82.96 714.71 110.45 714.71 110.45 687.22"/>
    <polygon class="cls-4" points="82.96 742.2 82.96 714.71 55.47 714.71 55.47 742.2 55.47 769.69 82.96 769.69 82.96 742.2"/>
    <polygon class="cls-4" points="412.81 109.99 412.81 82.5 385.32 82.5 385.32 109.99 385.32 137.48 412.81 137.48 412.81 109.99"/>
    <rect class="cls-4" x="440.3" y="109.99" width="27.49" height="27.49"/>
    <rect class="cls-4" x="412.81" y="522.3" width="27.49" height="27.49"/>
    <rect class="cls-4" x="467.79" y="522.3" width="27.49" height="27.49"/>
    <polygon class="cls-4" points="302.86 577.27 330.35 577.27 357.84 577.27 357.84 604.76 357.84 632.25 357.84 659.74 357.84 687.22 385.32 687.22 385.32 659.74 385.32 632.25 385.32 604.76 385.32 577.27 412.81 577.27 412.81 549.79 385.32 549.79 357.84 549.79 330.35 549.79 302.86 549.79 275.37 549.79 275.37 577.27 275.37 604.76 302.86 604.76 302.86 577.27"/>
    <polygon class="cls-4" points="275.37 632.25 275.37 604.76 247.89 604.76 247.89 632.25 247.89 659.74 275.37 659.74 275.37 632.25"/>
    <polygon class="cls-4" points="550.25 632.25 550.25 604.76 550.25 577.27 577.74 577.27 605.22 577.27 605.22 604.76 632.71 604.76 632.71 577.27 632.71 549.79 605.22 549.79 577.74 549.79 550.25 549.79 522.76 549.79 495.27 549.79 495.27 577.27 522.76 577.27 522.76 604.76 522.76 632.25 522.76 659.74 522.76 687.22 550.25 687.22 550.25 659.74 550.25 632.25"/>
    <polygon class="cls-4" points="632.71 659.74 660.2 659.74 660.2 632.25 660.2 604.76 632.71 604.76 632.71 632.25 632.71 659.74"/>
    <polygon class="cls-4" points="247.89 687.22 247.89 659.74 220.4 659.74 220.4 687.22 220.4 714.71 247.89 714.71 247.89 687.22"/>
    <polygon class="cls-4" points="660.2 714.71 687.69 714.71 687.69 687.22 687.69 659.74 660.2 659.74 660.2 687.22 660.2 714.71"/>
    <polygon class="cls-4" points="605.22 769.69 632.71 769.69 660.2 769.69 687.69 769.69 715.17 769.69 715.17 742.2 715.17 714.71 687.69 714.71 687.69 742.2 660.2 742.2 632.71 742.2 605.22 742.2 577.74 742.2 577.74 714.71 577.74 687.22 550.25 687.22 550.25 714.71 550.25 742.2 550.25 769.69 550.25 797.17 577.74 797.17 577.74 769.69 605.22 769.69"/>
    <polygon class="cls-4" points="357.84 769.69 357.84 742.2 357.84 714.71 357.84 687.22 330.35 687.22 330.35 714.71 330.35 742.2 302.86 742.2 275.37 742.2 247.89 742.2 220.4 742.2 220.4 714.71 192.91 714.71 192.91 742.2 192.91 769.69 220.4 769.69 247.89 769.69 275.37 769.69 302.86 769.69 330.35 769.69 330.35 797.17 357.84 797.17 357.84 769.69"/>
    <polygon class="cls-4" points="55.47 797.17 55.47 769.69 27.99 769.69 27.99 797.17 27.99 824.66 55.47 824.66 55.47 797.17"/>
    <rect class="cls-4" x="110.45" y="797.17" width="27.49" height="27.49"/>
    <polygon class="cls-4" points="605.22 797.17 577.74 797.17 577.74 824.66 577.74 852.15 605.22 852.15 605.22 824.66 605.22 797.17"/>
    <polygon class="cls-4" points="27.99 824.66 .5 824.66 .5 852.15 .5 879.64 27.99 879.64 27.99 852.15 27.99 824.66"/>
    <polygon class="cls-4" points="330.35 824.66 330.35 797.17 302.86 797.17 302.86 824.66 302.86 852.15 330.35 852.15 330.35 824.66"/>
    <polygon class="cls-4" points="495.27 137.94 522.76 137.94 522.76 110.45 522.76 82.96 495.27 82.96 495.27 110.45 495.27 137.94"/>
    <polygon class="cls-4" points="522.76 192.91 550.25 192.91 550.25 165.42 550.25 137.94 522.76 137.94 522.76 165.42 522.76 192.91"/>
    <polygon class="cls-4" points="550.25 247.89 577.74 247.89 577.74 220.4 577.74 192.91 550.25 192.91 550.25 220.4 550.25 247.89"/>
    <polygon class="cls-4" points="577.74 302.86 605.22 302.86 605.22 275.37 605.22 247.89 577.74 247.89 577.74 275.37 577.74 302.86"/>
    <polygon class="cls-4" points="605.22 357.84 632.71 357.84 632.71 330.35 632.71 302.86 605.22 302.86 605.22 330.35 605.22 357.84"/>
    <polygon class="cls-4" points="632.71 412.81 660.2 412.81 660.2 385.32 660.2 357.84 632.71 357.84 632.71 385.32 632.71 412.81"/>
    <rect class="cls-4" x="660.2" y="412.81" width="27.49" height="27.49"/>
    <polygon class="cls-4" points="687.69 495.27 715.17 495.27 715.17 467.79 715.17 440.3 687.69 440.3 687.69 467.79 687.69 495.27"/>
    <polygon class="cls-4" points="715.17 550.25 742.66 550.25 742.66 522.76 742.66 495.27 715.17 495.27 715.17 522.76 715.17 550.25"/>
    <polygon class="cls-4" points="742.66 605.22 770.15 605.22 770.15 577.74 770.15 550.25 742.66 550.25 742.66 577.74 742.66 605.22"/>
    <polygon class="cls-4" points="770.15 660.2 797.64 660.2 797.64 632.71 797.64 605.22 770.15 605.22 770.15 632.71 770.15 660.2"/>
    <polygon class="cls-4" points="797.64 715.17 825.12 715.17 825.12 687.69 825.12 660.2 797.64 660.2 797.64 687.69 797.64 715.17"/>
    <polygon class="cls-4" points="825.12 770.15 852.61 770.15 852.61 742.66 852.61 715.17 825.12 715.17 825.12 742.66 825.12 770.15"/>
    <polygon class="cls-4" points="852.61 825.12 880.1 825.12 880.1 797.64 880.1 770.15 852.61 770.15 852.61 797.64 852.61 825.12"/>
    <polygon class="cls-4" points="880.1 825.12 880.1 852.61 880.1 879.64 852.61 879.64 825.12 879.64 797.64 879.64 770.15 879.64 742.66 879.64 715.17 879.64 687.69 879.64 660.2 879.64 632.71 879.64 632.71 852.15 605.22 852.15 605.22 879.64 577.74 879.64 550.25 879.64 522.76 879.64 495.27 879.64 467.79 879.64 440.3 879.64 412.81 879.64 385.32 879.64 357.84 879.64 330.35 879.64 302.86 879.64 302.86 852.15 275.37 852.15 275.37 879.64 247.89 879.64 220.4 879.64 192.91 879.64 165.42 879.64 137.94 879.64 110.45 879.64 82.96 879.64 55.47 879.64 27.99 879.64 27.99 880.1 .5 880.1 .5 907.59 27.99 907.59 27.99 907.12 55.47 907.12 82.96 907.12 110.45 907.12 137.94 907.12 165.42 907.12 192.91 907.12 220.4 907.12 247.89 907.12 275.37 907.12 302.86 907.12 330.35 907.12 357.84 907.12 385.32 907.12 412.81 907.12 440.3 907.12 467.79 907.12 495.27 907.12 522.76 907.12 550.25 907.12 577.74 907.12 605.22 907.12 632.71 907.12 660.2 907.12 687.69 907.12 715.17 907.12 742.66 907.12 770.15 907.12 797.64 907.12 825.12 907.12 852.61 907.12 880.1 907.12 880.1 907.59 907.59 907.59 907.59 880.1 907.59 852.61 907.59 825.12 880.1 825.12"/>
    <polygon class="cls-4" points="440.3 55.01 440.3 27.99 467.79 27.99 467.79 .5 440.3 .5 440.3 27.53 412.81 27.53 412.81 55.01 412.81 82.5 440.3 82.5 440.3 55.01"/>
    <polygon class="cls-4" points="467.79 82.96 495.27 82.96 495.27 55.47 495.27 27.99 467.79 27.99 467.79 55.47 467.79 82.96"/>
  </g>
</svg>