<?xml version="1.0" encoding="UTF-8"?>
<svg id="Calque_1" data-name="Calque 1" xmlns="http://www.w3.org/2000/svg" viewBox="0 0 908.09 908.09">
  <defs>
    <style>
      .cls-1 {
        fill: #fcc142;
        stroke: #fcc143;
      }

      .cls-1, .cls-2, .cls-3, .cls-4, .cls-5, .cls-6 {
        stroke-miterlimit: 10;
      }

      .cls-2 {
        fill: #f3931c;
        stroke: #f3931b;
      }

      .cls-3 {
        fill: #e52822;
        stroke: #e52521;
      }

      .cls-4 {
        fill: #fcf39e;
        stroke: #fcf39e;
      }

      .cls-5 {
        fill: #ec651c;
        stroke: #ec651c;
      }

      .cls-6 {
        fill: #ffec5e;
        stroke: #ffeb5d;
      }
    </style>
  </defs>
  <g>
    <rect class="cls-4" x="55.45" y="110.83" width="27.47" height="27.47"/>
    <rect class="cls-4" x="27.97" y="138.3" width="27.47" height="27.47"/>
    <polygon class="cls-4" points="742.31 358.1 742.31 330.62 714.84 330.62 687.36 330.62 659.89 330.62 632.41 330.62 604.94 330.62 604.94 358.1 632.41 358.1 632.41 385.57 604.94 385.57 604.94 413.05 577.46 413.05 549.99 413.05 549.99 440.52 577.46 440.52 604.94 440.52 604.94 468 632.41 468 632.41 495.47 659.89 495.47 659.89 522.94 687.36 522.94 714.84 522.94 742.31 522.94 742.31 495.47 769.78 495.47 769.78 468 769.78 440.52 769.78 413.05 769.78 385.57 769.78 358.1 742.31 358.1"/>
    <rect class="cls-4" x="55.45" y="605.37" width="27.47" height="27.47"/>
    <rect class="cls-4" x="549.99" y="742.74" width="27.47" height="27.47"/>
    <rect class="cls-4" x=".5" y="880.11" width="27.47" height="27.47"/>
  </g>
  <g>
    <polygon class="cls-6" points="714.84 303.15 687.36 303.15 659.89 303.15 632.41 303.15 632.41 330.62 659.89 330.62 687.36 330.62 714.84 330.62 742.31 330.62 742.31 303.15 714.84 303.15"/>
    <rect class="cls-6" x="577.46" y="330.62" width="27.47" height="27.47"/>
    <rect class="cls-6" x="742.31" y="330.62" width="27.47" height="27.47"/>
    <rect class="cls-6" x="604.94" y="358.1" width="27.47" height="27.47"/>
    <polygon class="cls-6" points="769.78 358.1 769.78 385.57 769.78 413.05 769.78 440.52 769.78 468 769.78 495.47 742.31 495.47 742.31 522.94 714.84 522.94 687.36 522.94 659.89 522.94 659.89 550.42 687.36 550.42 714.84 550.42 742.31 550.42 769.78 550.42 769.78 522.94 797.26 522.94 797.26 495.47 797.26 468 797.26 440.52 797.26 413.05 797.26 385.57 797.26 358.1 769.78 358.1"/>
    <polygon class="cls-6" points="604.94 413.05 604.94 385.57 577.46 385.57 549.99 385.57 549.99 413.05 577.46 413.05 604.94 413.05"/>
    <rect class="cls-6" x="604.94" y="468" width="27.47" height="27.47"/>
    <rect class="cls-6" x="632.41" y="495.47" width="27.47" height="27.47"/>
    <rect class="cls-6" x="27.97" y=".93" width="27.47" height="27.47"/>
    <rect class="cls-6" x="220.3" y="83.35" width="27.47" height="27.47"/>
    <rect class="cls-6" x="82.92" y="110.83" width="27.47" height="27.47"/>
    <rect class="cls-6" x="55.45" y="138.3" width="27.47" height="27.47"/>
    <rect class="cls-6" x="27.97" y="275.67" width="27.47" height="27.47"/>
    <polygon class="cls-6" points="577.46 440.52 549.99 440.52 549.99 413.05 522.51 413.05 495.04 413.05 495.04 440.52 522.51 440.52 522.51 468 549.99 468 577.46 468 604.94 468 604.94 440.52 577.46 440.52"/>
    <rect class="cls-6" x="27.97" y="468" width="27.47" height="27.47"/>
    <rect class="cls-6" x="82.92" y="577.89" width="27.47" height="27.47"/>
    <rect class="cls-6" x="110.4" y="742.74" width="27.47" height="27.47"/>
    <rect class="cls-6" x="577.46" y="742.74" width="27.47" height="27.47"/>
    <rect class="cls-6" x="330.19" y="797.69" width="27.47" height="27.47"/>
    <rect class="cls-6" x="357.67" y="825.16" width="27.47" height="27.47"/>
    <rect class="cls-6" x="27.97" y="852.64" width="27.47" height="27.47"/>
  </g>
  <g>
    <rect class="cls-1" x="55.45" y=".93" width="27.47" height="27.47"/>
    <rect class="cls-1" x="385.14" y="55.88" width="27.47" height="27.47"/>
    <rect class="cls-1" x="247.77" y="83.35" width="27.47" height="27.47"/>
    <rect class="cls-1" x="55.45" y="303.15" width="27.47" height="27.47"/>
    <polygon class="cls-1" points="824.73 357.07 824.73 329.59 797.26 329.59 797.26 303.15 769.78 303.15 742.31 303.15 742.31 330.62 769.78 330.62 769.78 358.1 797.26 358.1 797.26 357.07 824.73 357.07"/>
    <polygon class="cls-1" points="604.94 385.57 604.94 358.1 577.46 358.1 577.46 330.62 549.99 330.62 549.99 358.1 549.99 385.57 577.46 385.57 604.94 385.57"/>
    <polygon class="cls-1" points="495.04 385.57 495.04 412.02 467.57 412.02 440.09 412.02 440.09 439.49 467.57 439.49 467.57 466.96 495.04 466.96 522.51 466.96 522.51 439.49 495.04 439.49 495.04 413.05 522.51 413.05 549.99 413.05 549.99 385.57 522.51 385.57 495.04 385.57"/>
    <polygon class="cls-1" points="797.26 413.05 797.26 440.52 797.26 468 797.26 494.44 797.26 495.47 797.26 521.91 769.78 521.91 769.78 549.39 742.31 549.39 714.84 549.39 687.36 549.39 659.89 549.39 659.89 521.91 632.41 521.91 632.41 549.39 604.94 549.39 604.94 576.86 632.41 576.86 659.89 576.86 687.36 576.86 714.84 576.86 742.31 576.86 769.78 576.86 797.26 576.86 797.26 549.39 824.73 549.39 824.73 521.91 824.73 495.47 824.73 494.44 824.73 468 824.73 440.52 824.73 413.05 824.73 385.57 824.73 358.1 797.26 358.1 797.26 385.57 797.26 413.05"/>
    <rect class="cls-1" x="55.45" y="468" width="27.47" height="27.47"/>
    <polygon class="cls-1" points="769.78 302.12 769.78 274.64 742.31 274.64 742.31 275.67 714.84 275.67 687.36 275.67 659.89 275.67 632.41 275.67 632.41 274.64 604.94 274.64 604.94 302.12 577.46 302.12 577.46 329.59 604.94 329.59 632.41 329.59 632.41 303.15 659.89 303.15 687.36 303.15 714.84 303.15 742.31 303.15 742.31 302.12 769.78 302.12"/>
    <rect class="cls-1" x="577.46" y="466.96" width="27.47" height="27.47"/>
    <rect class="cls-1" x="604.94" y="494.44" width="27.47" height="27.47"/>
    <rect class="cls-1" x="110.4" y="577.89" width="27.47" height="27.47"/>
    <rect class="cls-1" x="165.35" y="715.27" width="27.47" height="27.47"/>
    <rect class="cls-1" x="604.94" y="715.27" width="27.47" height="27.47"/>
    <rect class="cls-1" x="137.87" y="742.74" width="27.47" height="27.47"/>
    <rect class="cls-1" x="357.67" y="797.69" width="27.47" height="27.47"/>
    <rect class="cls-1" x="385.14" y="825.16" width="27.47" height="27.47"/>
  </g>
  <g>
    <rect class="cls-2" x="82.92" y="468" width="27.47" height="27.47"/>
    <rect class="cls-2" x="55.45" y="495.47" width="27.47" height="27.47"/>
    <rect class="cls-2" x="440.09" y="440.52" width="27.47" height="27.47"/>
    <rect class="cls-2" x="549.99" y="468" width="27.47" height="27.47"/>
    <rect class="cls-2" x="577.46" y="495.47" width="27.47" height="27.47"/>
    <rect class="cls-2" x="604.94" y="522.94" width="27.47" height="27.47"/>
    <polygon class="cls-2" points="824.73 303.15 824.73 275.67 797.26 275.67 797.26 248.2 769.78 248.2 742.31 248.2 714.84 248.2 687.36 248.2 659.89 248.2 632.41 248.2 604.94 248.2 577.46 248.2 577.46 275.67 549.99 275.67 549.99 303.15 549.99 330.62 577.46 330.62 577.46 303.15 604.94 303.15 604.94 275.67 632.41 275.67 659.89 275.67 687.36 275.67 714.84 275.67 742.31 275.67 769.78 275.67 769.78 303.15 797.26 303.15 797.26 330.62 824.73 330.62 824.73 358.1 824.73 358.1 824.73 385.57 824.73 413.05 824.73 440.52 824.73 468 824.73 495.47 824.73 495.47 824.73 522.94 824.73 550.42 797.26 550.42 797.26 577.89 769.78 577.89 742.31 577.89 714.84 577.89 687.36 577.89 659.89 577.89 632.41 577.89 604.94 577.89 604.94 605.37 632.41 605.37 659.89 605.37 687.36 605.37 714.84 605.37 742.31 605.37 769.78 605.37 797.26 605.37 824.73 605.37 824.73 577.89 852.21 577.89 852.21 550.42 852.21 522.94 852.21 495.47 852.21 468 852.21 440.52 852.21 413.05 852.21 385.57 852.21 358.1 852.21 330.62 852.21 303.15 824.73 303.15"/>
    <polygon class="cls-2" points="522.51 358.1 495.04 358.1 495.04 385.57 522.51 385.57 549.99 385.57 549.99 358.1 549.99 330.62 522.51 330.62 522.51 358.1"/>
    <polygon class="cls-2" points="440.09 385.57 412.62 385.57 412.62 413.05 385.14 413.05 357.67 413.05 357.67 440.52 385.14 440.52 412.62 440.52 440.09 440.52 440.09 413.05 467.57 413.05 495.04 413.05 495.04 385.57 467.57 385.57 440.09 385.57"/>
    <rect class="cls-2" x="412.62" y="55.88" width="27.47" height="27.47"/>
    <rect class="cls-2" x="275.24" y="83.35" width="27.47" height="27.47"/>
    <rect class="cls-2" x="110.4" y="110.83" width="27.47" height="27.47"/>
    <rect class="cls-2" x="247.77" y="110.83" width="27.47" height="27.47"/>
    <rect class="cls-2" x="82.92" y="138.3" width="27.47" height="27.47"/>
    <rect class="cls-2" x="82.92" y="303.15" width="27.47" height="27.47"/>
    <rect class="cls-2" x="165.35" y="550.42" width="27.47" height="27.47"/>
    <rect class="cls-2" x="577.46" y="550.42" width="27.47" height="27.47"/>
    <rect class="cls-2" x="165.35" y="742.74" width="27.47" height="27.47"/>
    <rect class="cls-2" x="385.14" y="797.69" width="27.47" height="27.47"/>
    <rect class="cls-2" x="55.45" y="852.64" width="27.47" height="27.47"/>
  </g>
  <g>
    <polygon class="cls-5" points="632.41 248.2 659.89 248.2 687.36 248.2 714.84 248.2 742.31 248.2 769.78 248.2 797.26 248.2 797.26 220.73 769.78 220.73 742.31 220.73 714.84 220.73 687.36 220.73 659.89 220.73 632.41 220.73 604.94 220.73 577.46 220.73 577.46 248.2 604.94 248.2 632.41 248.2"/>
    <rect class="cls-5" x="797.26" y="248.2" width="27.47" height="27.47"/>
    <rect class="cls-5" x="824.73" y="275.67" width="27.47" height="27.47"/>
    <polygon class="cls-5" points="852.21 303.15 852.21 330.62 852.21 358.1 852.21 385.57 852.21 413.05 852.21 440.52 852.21 468 852.21 495.47 852.21 522.94 852.21 550.42 852.21 577.89 879.68 577.89 879.68 550.42 879.68 522.94 879.68 495.47 879.68 468 879.68 440.52 879.68 413.05 879.68 385.57 879.68 358.1 879.68 330.62 879.68 303.15 852.21 303.15"/>
    <polygon class="cls-5" points="412.62 440.52 385.14 440.52 357.67 440.52 357.67 468 385.14 468 412.62 468 440.09 468 440.09 440.52 412.62 440.52"/>
    <polygon class="cls-5" points="522.51 468 495.04 468 467.57 468 440.09 468 440.09 495.47 467.57 495.47 495.04 495.47 522.51 495.47 549.99 495.47 549.99 468 522.51 468"/>
    <rect class="cls-5" x="549.99" y="495.47" width="27.47" height="27.47"/>
    <rect class="cls-5" x="577.46" y="522.94" width="27.47" height="27.47"/>
    <rect class="cls-5" x="549.99" y="550.42" width="27.47" height="27.47"/>
    <rect class="cls-5" x="824.73" y="577.89" width="27.47" height="27.47"/>
    <polygon class="cls-5" points="769.78 605.37 742.31 605.37 714.84 605.37 687.36 605.37 659.89 605.37 632.41 605.37 604.94 605.37 604.94 577.89 577.46 577.89 577.46 605.37 549.99 605.37 522.51 605.37 495.04 605.37 467.57 605.37 467.57 632.84 495.04 632.84 522.51 632.84 549.99 632.84 577.46 632.84 604.94 632.84 632.41 632.84 659.89 632.84 687.36 632.84 714.84 632.84 742.31 632.84 769.78 632.84 797.26 632.84 824.73 632.84 824.73 605.37 797.26 605.37 769.78 605.37"/>
    <rect class="cls-5" x="687.36" y="138.3" width="27.47" height="27.47"/>
    <polygon class="cls-5" points="549.99 193.25 522.51 193.25 495.04 193.25 467.57 193.25 440.09 193.25 440.09 220.73 467.57 220.73 495.04 220.73 522.51 220.73 549.99 220.73 577.46 220.73 577.46 193.25 549.99 193.25"/>
    <polygon class="cls-5" points="549.99 303.15 549.99 275.67 577.46 275.67 577.46 248.2 549.99 248.2 522.51 248.2 495.04 248.2 467.57 248.2 440.09 248.2 440.09 275.67 467.57 275.67 495.04 275.67 522.51 275.67 522.51 303.15 522.51 330.62 549.99 330.62 549.99 303.15"/>
    <rect class="cls-5" x="495.04" y="330.62" width="27.47" height="27.47"/>
    <polygon class="cls-5" points="467.57 385.57 495.04 385.57 495.04 358.1 467.57 358.1 440.09 358.1 412.62 358.1 412.62 385.57 440.09 385.57 467.57 385.57"/>
    <polygon class="cls-5" points="385.14 413.05 412.62 413.05 412.62 385.57 385.14 385.57 357.67 385.57 330.19 385.57 302.72 385.57 275.24 385.57 247.77 385.57 220.3 385.57 220.3 413.05 192.82 413.05 192.82 440.52 220.3 440.52 247.77 440.52 275.24 440.52 302.72 440.52 330.19 440.52 357.67 440.52 357.67 413.05 385.14 413.05"/>
    <rect class="cls-5" x="275.24" y="110.83" width="27.47" height="27.47"/>
    <rect class="cls-5" x="110.4" y="138.3" width="27.47" height="27.47"/>
    <rect class="cls-5" x="82.92" y="165.78" width="27.47" height="27.47"/>
    <rect class="cls-5" x="110.4" y="303.15" width="27.47" height="27.47"/>
    <rect class="cls-5" x="82.92" y="495.47" width="27.47" height="27.47"/>
    <rect class="cls-5" x="192.82" y="550.42" width="27.47" height="27.47"/>
    <rect class="cls-5" x="137.87" y="577.89" width="27.47" height="27.47"/>
    <rect class="cls-5" x="192.82" y="715.27" width="27.47" height="27.47"/>
    <rect class="cls-5" x="412.62" y="797.69" width="27.47" height="27.47"/>
    <rect class="cls-5" x="82.92" y="852.64" width="27.47" height="27.47"/>
  </g>
  <g>
    <rect class="cls-3" x="714.84" y="138.3" width="27.47" height="27.47"/>
    <rect class="cls-3" x="302.5" y="110.83" width="27.47" height="27.47"/>
    <polygon class="cls-3" points="494.83 193.25 522.3 193.25 549.77 193.25 577.25 193.25 577.25 165.78 549.77 165.78 522.3 165.78 494.83 165.78 467.35 165.78 439.88 165.78 439.88 193.25 467.35 193.25 494.83 193.25"/>
    <polygon class="cls-3" points="412.4 193.25 384.93 193.25 357.45 193.25 329.98 193.25 302.5 193.25 275.03 193.25 247.56 193.25 247.56 220.73 275.03 220.73 302.5 220.73 329.98 220.73 357.45 220.73 384.93 220.73 412.4 220.73 439.88 220.73 439.88 193.25 412.4 193.25"/>
    <polygon class="cls-3" points="604.72 220.73 632.2 220.73 659.67 220.73 687.15 220.73 714.62 220.73 742.1 220.73 769.57 220.73 797.04 220.73 797.04 193.25 769.57 193.25 742.1 193.25 714.62 193.25 687.15 193.25 659.67 193.25 632.2 193.25 604.72 193.25 577.25 193.25 577.25 220.73 604.72 220.73"/>
    <polygon class="cls-3" points="494.83 248.2 522.3 248.2 549.77 248.2 577.25 248.2 577.25 220.73 549.77 220.73 522.3 220.73 494.83 220.73 467.35 220.73 439.88 220.73 439.88 248.2 467.35 248.2 494.83 248.2"/>
    <rect class="cls-3" x="797.04" y="220.73" width="27.47" height="27.47"/>
    <polygon class="cls-3" points="165.13 275.67 192.61 275.67 220.08 275.67 220.08 303.15 247.56 303.15 275.03 303.15 302.5 303.15 329.98 303.15 357.45 303.15 384.93 303.15 412.4 303.15 439.88 303.15 439.88 275.67 439.88 248.2 412.4 248.2 384.93 248.2 357.45 248.2 329.98 248.2 302.5 248.2 275.03 248.2 247.56 248.2 220.08 248.2 192.61 248.2 165.13 248.2 137.66 248.2 110.18 248.2 110.18 275.67 137.66 275.67 165.13 275.67"/>
    <polygon class="cls-3" points="440.09 330.62 412.62 330.62 385.14 330.62 385.14 358.1 357.67 358.1 330.19 358.1 302.72 358.1 275.24 358.1 247.77 358.1 220.3 358.1 220.3 385.57 247.77 385.57 275.24 385.57 302.72 385.57 330.19 385.57 357.67 385.57 385.14 385.57 412.62 385.57 412.62 358.1 440.09 358.1 467.57 358.1 495.04 358.1 495.04 330.62 522.3 330.62 522.3 303.15 522.3 275.67 494.83 275.67 467.57 275.67 467.35 275.67 440.09 275.67 440.09 303.15 467.35 303.15 467.57 303.15 467.57 330.62 440.09 330.62"/>
    <polygon class="cls-3" points="522.51 495.47 495.04 495.47 467.57 495.47 440.09 495.47 440.09 468 412.62 468 385.14 468 357.67 468 357.67 440.52 330.19 440.52 302.72 440.52 275.24 440.52 247.77 440.52 220.3 440.52 192.82 440.52 192.82 413.05 165.35 413.05 137.87 413.05 137.66 413.05 137.66 413.05 165.13 413.05 192.61 413.05 220.08 413.05 220.08 385.57 220.08 358.1 192.61 358.1 192.61 385.57 165.13 385.57 137.66 385.57 110.18 385.57 82.92 385.57 82.71 385.57 55.45 385.57 55.45 413.05 27.97 413.05 27.97 413.05 .5 413.05 .5 440.52 27.97 440.52 55.45 440.52 82.92 440.52 110.4 440.52 137.87 440.52 165.35 440.52 165.35 468 192.82 468 220.3 468 247.77 468 275.24 468 302.72 468 330.19 468 330.19 495.47 357.67 495.47 385.14 495.47 412.62 495.47 412.62 522.94 440.09 522.94 467.57 522.94 495.04 522.94 522.51 522.94 549.99 522.94 549.99 495.47 522.51 495.47"/>
    <rect class="cls-3" x="549.99" y="522.94" width="27.47" height="27.47"/>
    <polygon class="cls-3" points="879.68 385.57 879.68 413.05 879.68 440.52 879.68 468 879.68 495.47 879.68 522.94 879.68 550.42 879.68 577.89 907.16 577.89 907.16 550.42 907.16 522.94 907.16 495.47 907.16 468 907.16 440.52 907.16 413.05 907.16 385.57 907.16 358.1 879.68 358.1 879.68 385.57"/>
    <rect class="cls-3" x="852.21" y="577.89" width="27.47" height="27.47"/>
    <rect class="cls-3" x="824.73" y="605.37" width="27.47" height="27.47"/>
    <polygon class="cls-3" points="769.78 632.84 742.31 632.84 714.84 632.84 687.36 632.84 659.89 632.84 632.41 632.84 604.94 632.84 577.46 632.84 549.99 632.84 522.51 632.84 495.04 632.84 467.57 632.84 467.57 605.37 495.04 605.37 522.51 605.37 522.51 605.37 549.99 605.37 577.46 605.37 577.46 577.89 549.99 577.89 549.99 550.42 522.51 550.42 522.51 577.89 495.04 577.89 467.57 577.89 440.09 577.89 440.09 605.37 412.62 605.37 385.14 605.37 357.67 605.37 330.19 605.37 330.19 632.84 302.72 632.84 275.24 632.84 247.77 632.84 220.3 632.84 220.3 660.32 247.77 660.32 275.24 660.32 302.72 660.32 330.19 660.32 357.67 660.32 385.14 660.32 412.62 660.32 440.09 660.32 467.57 660.32 495.04 660.32 522.51 660.32 549.99 660.32 577.46 660.32 604.94 660.32 632.41 660.32 659.89 660.32 687.36 660.32 714.84 660.32 742.31 660.32 769.78 660.32 797.26 660.32 824.73 660.32 824.73 632.84 797.26 632.84 769.78 632.84"/>
    <rect class="cls-3" x="137.87" y="138.3" width="27.47" height="27.47"/>
    <rect class="cls-3" x="110.4" y="165.78" width="27.47" height="27.47"/>
    <rect class="cls-3" x="824.73" y="248.2" width="27.47" height="27.47"/>
    <rect class="cls-3" x="852.21" y="275.67" width="27.47" height="27.47"/>
    <polygon class="cls-3" points="879.68 303.15 879.68 330.62 879.68 358.1 907.16 358.1 907.16 330.62 907.16 303.15 879.68 303.15"/>
    <rect class="cls-3" x="110.4" y="495.47" width="27.47" height="27.47"/>
    <rect class="cls-3" x="220.3" y="550.42" width="27.47" height="27.47"/>
    <polygon class="cls-3" points="412.62 770.21 412.62 797.69 440.09 797.69 467.57 797.69 467.57 770.21 440.09 770.21 412.62 770.21"/>
  </g>
</svg>