<?xml version="1.0" encoding="UTF-8"?>
<svg id="Calque_1" data-name="Calque 1" xmlns="http://www.w3.org/2000/svg" viewBox="0 0 908.09 908.09">
  <defs>
    <style>
      .cls-1 {
        fill: #57c2df;
        stroke: #56c2df;
      }

      .cls-1, .cls-2, .cls-3, .cls-4, .cls-5, .cls-6, .cls-7, .cls-8, .cls-9, .cls-10 {
        stroke-miterlimit: 10;
      }

      .cls-2 {
        fill: #78b830;
        stroke: #79b82e;
      }

      .cls-3 {
        fill: #8cd2ef;
        stroke: #8cd2ef;
      }

      .cls-4 {
        fill: #6cb52e;
        stroke: #6db52d;
      }

      .cls-11 {
        fill: #bad0dd;
      }

      .cls-11, .cls-12, .cls-13, .cls-14, .cls-15, .cls-16 {
        stroke-width: 0px;
      }

      .cls-5 {
        fill: #64b331;
        stroke: #64b32e;
      }

      .cls-6 {
        fill: #2ea8bc;
        stroke: #2ea8bc;
      }

      .cls-12 {
        fill: #778993;
      }

      .cls-7 {
        fill: #418b34;
        stroke: #428b34;
      }

      .cls-13 {
        fill: #7fba27;
      }

      .cls-8 {
        fill: #e6f4fb;
        stroke: #e6f4fb;
      }

      .cls-9 {
        fill: #50a533;
        stroke: #50a533;
      }

      .cls-14 {
        fill: #9badb7;
      }

      .cls-10 {
        fill: #3cb5cf;
        stroke: #3cb5cf;
      }

      .cls-15 {
        fill: #6e7579;
      }

      .cls-16 {
        fill: #fdf5b1;
      }
    </style>
  </defs>
  <g>
    <polygon class="cls-8" points="605.22 220.42 605.22 192.94 577.74 192.94 550.25 192.94 550.25 220.42 550.25 247.91 577.74 247.91 605.22 247.91 605.22 220.42"/>
    <rect class="cls-8" x="605.22" y="275.4" width="27.49" height="27.49"/>
  </g>
  <g>
    <polygon class="cls-3" points="577.74 165.45 550.25 165.45 550.25 137.96 522.76 137.96 495.27 137.96 495.27 165.45 522.76 165.45 522.76 192.94 550.25 192.94 577.74 192.94 605.22 192.94 605.22 165.45 577.74 165.45"/>
    <polygon class="cls-3" points="660.2 302.89 660.2 275.4 660.2 247.91 632.71 247.91 632.71 220.42 632.71 192.94 605.22 192.94 605.22 220.42 605.22 247.91 605.22 275.4 632.71 275.4 632.71 302.89 632.71 330.37 660.2 330.37 660.2 357.86 660.2 385.35 687.69 385.35 687.69 357.86 687.69 330.37 687.69 302.89 660.2 302.89"/>
  </g>
  <polygon class="cls-6" points="440.3 330.37 440.3 302.89 440.3 275.4 412.81 275.4 412.81 247.91 385.32 247.91 357.84 247.91 357.84 220.42 330.35 220.42 302.86 220.42 275.37 220.42 275.37 247.91 247.89 247.91 247.89 275.4 247.89 302.89 220.4 302.89 220.4 330.37 220.4 357.86 220.4 385.35 247.89 385.35 275.37 385.35 275.37 412.84 302.86 412.84 330.35 412.84 330.35 440.32 357.84 440.32 385.32 440.32 412.81 440.32 412.81 412.84 440.3 412.84 440.3 385.35 467.79 385.35 467.79 357.86 467.79 330.37 440.3 330.37"/>
  <polygon class="cls-10" points="522.76 330.37 522.76 302.89 522.76 275.4 522.76 247.91 495.27 247.91 495.27 220.42 467.79 220.42 467.79 192.94 440.3 192.94 440.3 165.45 412.81 165.45 385.32 165.45 357.84 165.45 330.35 165.45 302.86 165.45 302.86 192.94 275.37 192.94 275.37 220.42 302.86 220.42 330.35 220.42 357.84 220.42 357.84 247.91 385.32 247.91 412.81 247.91 412.81 275.4 440.3 275.4 440.3 302.89 440.3 330.37 467.79 330.37 467.79 357.86 467.79 385.35 440.3 385.35 440.3 412.84 412.81 412.84 412.81 440.32 440.3 440.32 467.79 440.32 495.27 440.32 522.76 440.32 522.76 412.84 550.25 412.84 550.25 385.35 550.25 357.86 550.25 330.37 522.76 330.37"/>
  <polygon class="cls-1" points="632.71 330.37 632.71 302.89 605.22 302.89 605.22 275.4 605.22 247.91 577.74 247.91 550.25 247.91 550.25 220.42 550.25 192.94 522.76 192.94 522.76 165.45 495.27 165.45 495.27 137.96 467.79 137.96 440.3 137.96 412.81 137.96 385.32 137.96 357.84 137.96 357.84 165.45 385.32 165.45 412.81 165.45 440.3 165.45 440.3 192.94 467.79 192.94 467.79 220.42 495.27 220.42 495.27 247.91 522.76 247.91 522.76 275.4 522.76 302.89 522.76 330.37 550.25 330.37 550.25 357.86 550.25 385.35 550.25 412.84 522.76 412.84 522.76 440.32 550.25 440.32 577.74 440.32 577.74 412.84 605.22 412.84 632.71 412.84 632.71 385.35 660.2 385.35 660.2 357.86 660.2 330.37 632.71 330.37"/>
  <g>
    <rect class="cls-2" x="192.91" y="357.86" width="27.49" height="27.49"/>
    <polygon class="cls-2" points="165.42 385.35 137.94 385.35 137.94 412.84 165.42 412.84 192.91 412.84 192.91 385.35 165.42 385.35"/>
    <rect class="cls-2" x="110.45" y="412.84" width="27.49" height="27.49"/>
    <polygon class="cls-2" points="660.2 412.84 632.71 412.84 632.71 440.32 660.2 440.32 687.69 440.32 715.17 440.32 715.17 412.84 687.69 412.84 660.2 412.84"/>
    <polygon class="cls-2" points="302.86 440.32 275.37 440.32 275.37 412.84 247.89 412.84 220.4 412.84 192.91 412.84 192.91 440.32 220.4 440.32 247.89 440.32 247.89 467.81 275.37 467.81 302.86 467.81 330.35 467.81 330.35 440.32 302.86 440.32"/>
    <polygon class="cls-2" points="577.74 440.32 577.74 467.81 605.22 467.81 632.71 467.81 632.71 440.32 605.22 440.32 577.74 440.32"/>
    <polygon class="cls-2" points="522.76 467.81 495.27 467.81 467.79 467.81 440.3 467.81 412.81 467.81 385.32 467.81 357.84 467.81 330.35 467.81 330.35 495.3 357.84 495.3 385.32 495.3 412.81 495.3 440.3 495.3 467.79 495.3 495.27 495.3 522.76 495.3 550.25 495.3 577.74 495.3 577.74 467.81 550.25 467.81 522.76 467.81"/>
    <rect class="cls-2" x="852.61" y="467.81" width="27.49" height="27.49"/>
  </g>
  <g>
    <polygon class="cls-13" points="247.89 385.35 220.4 385.35 192.91 385.35 192.91 412.84 220.4 412.84 247.89 412.84 275.37 412.84 275.37 385.35 247.89 385.35"/>
    <polygon class="cls-13" points="742.66 385.35 715.17 385.35 715.17 357.86 687.69 357.86 687.69 385.35 660.2 385.35 632.71 385.35 632.71 412.84 660.2 412.84 687.69 412.84 715.17 412.84 715.17 440.32 742.66 440.32 742.66 412.84 770.15 412.84 770.15 385.35 742.66 385.35"/>
    <polygon class="cls-13" points="302.86 412.84 275.37 412.84 275.37 440.32 302.86 440.32 330.35 440.32 330.35 412.84 302.86 412.84"/>
    <polygon class="cls-13" points="577.74 412.84 577.74 440.32 605.22 440.32 632.71 440.32 632.71 412.84 605.22 412.84 577.74 412.84"/>
    <polygon class="cls-13" points="522.76 440.32 495.27 440.32 467.79 440.32 440.3 440.32 412.81 440.32 385.32 440.32 357.84 440.32 330.35 440.32 330.35 467.81 357.84 467.81 385.32 467.81 412.81 467.81 440.3 467.81 467.79 467.81 495.27 467.81 522.76 467.81 550.25 467.81 577.74 467.81 577.74 440.32 550.25 440.32 522.76 440.32"/>
    <polygon class="cls-13" points="852.61 440.32 825.12 440.32 825.12 412.84 797.64 412.84 770.15 412.84 770.15 440.32 797.64 440.32 797.64 467.81 825.12 467.81 852.61 467.81 880.1 467.81 880.1 440.32 852.61 440.32"/>
    <rect class="cls-13" x="880.1" y="467.81" width="27.49" height="27.49"/>
  </g>
  <g>
    <rect class="cls-11" x="137.94" y="412.84" width="27.49" height="27.49"/>
    <rect class="cls-11" x="742.66" y="412.84" width="27.49" height="27.49"/>
    <rect class="cls-11" x="275.37" y="467.81" width="27.49" height="27.49"/>
    <rect class="cls-11" x="605.22" y="467.81" width="27.49" height="27.49"/>
    <rect class="cls-11" x="440.3" y="495.3" width="27.49" height="27.49"/>
  </g>
  <g>
    <rect class="cls-4" x="165.42" y="412.84" width="27.49" height="27.49"/>
    <polygon class="cls-4" points="220.4 440.32 192.91 440.32 192.91 467.81 220.4 467.81 247.89 467.81 247.89 440.32 220.4 440.32"/>
    <rect class="cls-4" x="247.89" y="467.81" width="27.49" height="27.49"/>
    <rect class="cls-4" x="302.86" y="467.81" width="27.49" height="27.49"/>
    <rect class="cls-4" x="577.74" y="467.81" width="27.49" height="27.49"/>
    <polygon class="cls-4" points="715.17 467.81 715.17 440.32 687.69 440.32 660.2 440.32 632.71 440.32 632.71 467.81 632.71 495.3 660.2 495.3 687.69 495.3 715.17 495.3 742.66 495.3 742.66 467.81 715.17 467.81"/>
    <polygon class="cls-4" points="385.32 495.3 357.84 495.3 330.35 495.3 330.35 522.79 357.84 522.79 385.32 522.79 412.81 522.79 440.3 522.79 440.3 495.3 412.81 495.3 385.32 495.3"/>
    <polygon class="cls-4" points="522.76 495.3 495.27 495.3 467.79 495.3 467.79 522.79 495.27 522.79 522.76 522.79 550.25 522.79 577.74 522.79 577.74 495.3 550.25 495.3 522.76 495.3"/>
    <polygon class="cls-4" points="852.61 495.3 852.61 467.81 825.12 467.81 797.64 467.81 770.15 467.81 770.15 495.3 742.66 495.3 742.66 522.79 770.15 522.79 797.64 522.79 825.12 522.79 852.61 522.79 880.1 522.79 880.1 495.3 852.61 495.3"/>
  </g>
  <g>
    <rect class="cls-12" x="110.45" y="440.32" width="27.49" height="27.49"/>
    <rect class="cls-12" x="715.17" y="440.32" width="27.49" height="27.49"/>
    <rect class="cls-12" x="247.89" y="495.3" width="27.49" height="27.49"/>
    <rect class="cls-12" x="577.74" y="495.3" width="27.49" height="27.49"/>
    <rect class="cls-12" x="412.81" y="522.79" width="27.49" height="27.49"/>
  </g>
  <g>
    <rect class="cls-16" x="137.94" y="440.32" width="27.49" height="27.49"/>
    <rect class="cls-16" x="742.66" y="440.32" width="27.49" height="27.49"/>
    <rect class="cls-16" x="275.37" y="495.3" width="27.49" height="27.49"/>
    <rect class="cls-16" x="605.22" y="495.3" width="27.49" height="27.49"/>
    <rect class="cls-16" x="440.3" y="522.79" width="27.49" height="27.49"/>
  </g>
  <g>
    <rect class="cls-14" x="165.42" y="440.32" width="27.49" height="27.49"/>
    <rect class="cls-14" x="770.15" y="440.32" width="27.49" height="27.49"/>
    <rect class="cls-14" x="302.86" y="495.3" width="27.49" height="27.49"/>
    <rect class="cls-14" x="632.71" y="495.3" width="27.49" height="27.49"/>
    <rect class="cls-14" x="467.79" y="522.79" width="27.49" height="27.49"/>
  </g>
  <g>
    <rect class="cls-15" x="137.94" y="467.81" width="27.49" height="27.49"/>
    <rect class="cls-15" x="742.66" y="467.81" width="27.49" height="27.49"/>
    <rect class="cls-15" x="275.37" y="522.79" width="27.49" height="27.49"/>
    <rect class="cls-15" x="605.22" y="522.79" width="27.49" height="27.49"/>
    <rect class="cls-15" x="440.3" y="550.27" width="27.49" height="27.49"/>
  </g>
  <g>
    <polygon class="cls-9" points="55.47 467.81 55.47 440.32 27.99 440.32 27.99 467.81 27.99 495.3 55.47 495.3 82.96 495.3 82.96 467.81 55.47 467.81"/>
    <polygon class="cls-9" points="137.94 495.3 110.45 495.3 82.96 495.3 82.96 522.79 110.45 522.79 137.94 522.79 165.42 522.79 165.42 495.3 137.94 495.3"/>
    <polygon class="cls-9" points="220.4 522.79 192.91 522.79 165.42 522.79 165.42 550.27 192.91 550.27 220.4 550.27 247.89 550.27 247.89 522.79 220.4 522.79"/>
    <polygon class="cls-9" points="550.25 577.76 522.76 577.76 495.27 577.76 467.79 577.76 440.3 577.76 412.81 577.76 385.32 577.76 357.84 577.76 330.35 577.76 330.35 550.27 302.86 550.27 275.37 550.27 247.89 550.27 247.89 577.76 275.37 577.76 275.37 605.25 302.86 605.25 302.86 632.74 330.35 632.74 330.35 605.25 357.84 605.25 357.84 632.74 385.32 632.74 412.81 632.74 440.3 632.74 467.79 632.74 495.27 632.74 522.76 632.74 550.25 632.74 550.25 605.25 577.74 605.25 577.74 577.76 550.25 577.76"/>
    <rect class="cls-9" x="577.74" y="605.25" width="27.49" height="27.49"/>
    <polygon class="cls-9" points="605.22 632.74 605.22 660.22 605.22 687.71 632.71 687.71 632.71 660.22 632.71 632.74 605.22 632.74"/>
    <rect class="cls-9" x="275.37" y="687.71" width="27.49" height="27.49"/>
    <rect class="cls-9" x="247.89" y="715.2" width="27.49" height="27.49"/>
  </g>
  <g>
    <rect class="cls-7" x=".5" y="467.81" width="27.49" height="27.49"/>
    <polygon class="cls-7" points="55.47 495.3 27.99 495.3 27.99 522.79 55.47 522.79 82.96 522.79 82.96 495.3 55.47 495.3"/>
    <polygon class="cls-7" points="137.94 522.79 110.45 522.79 82.96 522.79 82.96 550.27 110.45 550.27 137.94 550.27 165.42 550.27 165.42 522.79 137.94 522.79"/>
    <polygon class="cls-7" points="220.4 550.27 192.91 550.27 165.42 550.27 165.42 577.76 192.91 577.76 220.4 577.76 247.89 577.76 247.89 550.27 220.4 550.27"/>
    <rect class="cls-7" x="247.89" y="577.76" width="27.49" height="27.49"/>
    <polygon class="cls-7" points="302.86 605.25 275.37 605.25 275.37 632.74 275.37 660.22 275.37 687.71 302.86 687.71 302.86 660.22 330.35 660.22 330.35 632.74 302.86 632.74 302.86 605.25"/>
    <rect class="cls-7" x="330.35" y="605.25" width="27.49" height="27.49"/>
    <rect class="cls-7" x="550.25" y="605.25" width="27.49" height="27.49"/>
    <polygon class="cls-7" points="495.27 632.74 467.79 632.74 440.3 632.74 412.81 632.74 385.32 632.74 357.84 632.74 357.84 660.22 385.32 660.22 412.81 660.22 440.3 660.22 467.79 660.22 495.27 660.22 522.76 660.22 550.25 660.22 550.25 632.74 522.76 632.74 495.27 632.74"/>
    <rect class="cls-7" x="577.74" y="632.74" width="27.49" height="27.49"/>
    <rect class="cls-7" x="247.89" y="687.71" width="27.49" height="27.49"/>
    <rect class="cls-7" x="605.22" y="687.71" width="27.49" height="27.49"/>
    <rect class="cls-7" x="220.4" y="715.2" width="27.49" height="27.49"/>
    <rect class="cls-7" x="632.71" y="715.2" width="27.49" height="27.49"/>
  </g>
  <g>
    <polygon class="cls-5" points="110.45 440.32 110.45 412.84 82.96 412.84 82.96 440.32 55.47 440.32 55.47 467.81 82.96 467.81 82.96 495.3 110.45 495.3 137.94 495.3 137.94 467.81 110.45 467.81 110.45 440.32"/>
    <polygon class="cls-5" points="247.89 467.81 220.4 467.81 192.91 467.81 165.42 467.81 165.42 495.3 165.42 522.79 192.91 522.79 220.4 522.79 247.89 522.79 247.89 495.3 247.89 467.81"/>
    <rect class="cls-5" x="247.89" y="522.79" width="27.49" height="27.49"/>
    <polygon class="cls-5" points="412.81 522.79 385.32 522.79 357.84 522.79 330.35 522.79 302.86 522.79 302.86 550.27 330.35 550.27 330.35 577.76 357.84 577.76 385.32 577.76 412.81 577.76 440.3 577.76 440.3 550.27 412.81 550.27 412.81 522.79"/>
    <polygon class="cls-5" points="797.64 522.79 770.15 522.79 742.66 522.79 742.66 495.3 715.17 495.3 687.69 495.3 660.2 495.3 660.2 522.79 632.71 522.79 632.71 550.27 605.22 550.27 605.22 522.79 577.74 522.79 550.25 522.79 522.76 522.79 495.27 522.79 495.27 550.27 467.79 550.27 467.79 577.76 495.27 577.76 522.76 577.76 550.25 577.76 577.74 577.76 577.74 605.25 605.22 605.25 605.22 632.74 632.71 632.74 632.71 605.25 660.2 605.25 660.2 577.76 687.69 577.76 715.17 577.76 742.66 577.76 770.15 577.76 770.15 550.27 797.64 550.27 825.12 550.27 825.12 522.79 797.64 522.79"/>
    <rect class="cls-5" x="632.71" y="687.71" width="27.49" height="27.49"/>
    <rect class="cls-5" x="660.2" y="715.2" width="27.49" height="27.49"/>
  </g>
</svg>