<?xml version="1.0" encoding="UTF-8" ?>
<svg version="1.1" width="1920" height="1920" xmlns="http://www.w3.org/2000/svg" shape-rendering="crispEdges">
<rect x="440" y="16" width="8" height="8" fill="#4D79C7" />
<rect x="160" y="24" width="8" height="8" fill="#E5E5E5" />
<rect x="856" y="48" width="8" height="8" fill="#CF72B2" />
<rect x="208" y="56" width="8" height="8" fill="#E5E5E5" />
<rect x="848" y="56" width="8" height="8" fill="#CF72B2" />
<rect x="864" y="56" width="8" height="8" fill="#CF72B2" />
<rect x="8" y="64" width="8" height="8" fill="#CF72B2" />
<rect x="208" y="64" width="8" height="8" fill="#E5E5E5" />
<rect x="856" y="64" width="8" height="8" fill="#CF72B2" />
<rect x="1448" y="64" width="8" height="8" fill="#CF72B2" />
<rect x="0" y="72" width="8" height="8" fill="#CF72B2" />
<rect x="8" y="72" width="8" height="8" fill="#CF72B2" />
<rect x="16" y="72" width="8" height="8" fill="#CF72B2" />
<rect x="208" y="72" width="8" height="8" fill="#E5E5E5" />
<rect x="8" y="80" width="8" height="8" fill="#CF72B2" />
<rect x="192" y="80" width="8" height="8" fill="#E5E5E5" />
<rect x="200" y="80" width="8" height="8" fill="#E5E5E5" />
<rect x="216" y="80" width="8" height="8" fill="#E5E5E5" />
<rect x="224" y="80" width="8" height="8" fill="#E5E5E5" />
<rect x="208" y="88" width="8" height="8" fill="#E5E5E5" />
<rect x="1720" y="88" width="8" height="8" fill="#E5E5E5" />
<rect x="1728" y="88" width="8" height="8" fill="#E5E5E5" />
<rect x="208" y="96" width="8" height="8" fill="#E5E5E5" />
<rect x="1720" y="96" width="8" height="8" fill="#E5E5E5" />
<rect x="1728" y="96" width="8" height="8" fill="#E5E5E5" />
<rect x="208" y="104" width="8" height="8" fill="#E5E5E5" />
<rect x="1096" y="216" width="8" height="8" fill="#E5E5E5" />
<rect x="1088" y="224" width="8" height="8" fill="#E5E5E5" />
<rect x="1096" y="224" width="8" height="8" fill="#E5E5E5" />
<rect x="1104" y="224" width="8" height="8" fill="#E5E5E5" />
<rect x="1096" y="232" width="8" height="8" fill="#E5E5E5" />
<rect x="664" y="248" width="8" height="8" fill="#E5E5E5" />
<rect x="1584" y="296" width="8" height="8" fill="#CF72B2" />
<rect x="1592" y="296" width="8" height="8" fill="#CF72B2" />
<rect x="224" y="304" width="8" height="8" fill="#CF72B2" />
<rect x="1584" y="304" width="8" height="8" fill="#CF72B2" />
<rect x="1592" y="304" width="8" height="8" fill="#CF72B2" />
<rect x="864" y="344" width="8" height="8" fill="#CF72B2" />
<rect x="1440" y="352" width="8" height="8" fill="#4D79C7" />
<rect x="1432" y="360" width="8" height="8" fill="#4D79C7" />
<rect x="1448" y="360" width="8" height="8" fill="#4D79C7" />
<rect x="1440" y="368" width="8" height="8" fill="#4D79C7" />
<rect x="1720" y="392" width="8" height="8" fill="#E5E5E5" />
<rect x="1704" y="400" width="8" height="8" fill="#E5E5E5" />
<rect x="1720" y="400" width="8" height="8" fill="#E5E5E5" />
<rect x="1736" y="400" width="8" height="8" fill="#E5E5E5" />
<rect x="1720" y="408" width="8" height="8" fill="#E5E5E5" />
<rect x="1704" y="416" width="8" height="8" fill="#E5E5E5" />
<rect x="1712" y="416" width="8" height="8" fill="#E5E5E5" />
<rect x="1728" y="416" width="8" height="8" fill="#E5E5E5" />
<rect x="1736" y="416" width="8" height="8" fill="#E5E5E5" />
<rect x="1720" y="424" width="8" height="8" fill="#E5E5E5" />
<rect x="1704" y="432" width="8" height="8" fill="#E5E5E5" />
<rect x="1720" y="432" width="8" height="8" fill="#E5E5E5" />
<rect x="1736" y="432" width="8" height="8" fill="#E5E5E5" />
<rect x="1720" y="440" width="8" height="8" fill="#E5E5E5" />
<rect x="240" y="448" width="8" height="8" fill="#4D79C7" />
<rect x="232" y="456" width="8" height="8" fill="#4D79C7" />
<rect x="248" y="456" width="8" height="8" fill="#4D79C7" />
<rect x="1368" y="456" width="8" height="8" fill="#E5E5E5" />
<rect x="240" y="464" width="8" height="8" fill="#4D79C7" />
<rect x="48" y="496" width="8" height="8" fill="#E5E5E5" />
<rect x="320" y="504" width="8" height="8" fill="#E5E5E5" />
<rect x="1136" y="512" width="8" height="8" fill="#E5E5E5" />
<rect x="1144" y="512" width="8" height="8" fill="#E5E5E5" />
<rect x="1136" y="520" width="8" height="8" fill="#E5E5E5" />
<rect x="1144" y="520" width="8" height="8" fill="#E5E5E5" />
<rect x="928" y="568" width="8" height="8" fill="#4D79C7" />
<rect x="1192" y="584" width="8" height="8" fill="#E5E5E5" />
<rect x="1192" y="592" width="8" height="8" fill="#E5E5E5" />
<rect x="1176" y="600" width="8" height="8" fill="#E5E5E5" />
<rect x="1184" y="600" width="8" height="8" fill="#E5E5E5" />
<rect x="1200" y="600" width="8" height="8" fill="#E5E5E5" />
<rect x="1208" y="600" width="8" height="8" fill="#E5E5E5" />
<rect x="1192" y="608" width="8" height="8" fill="#E5E5E5" />
<rect x="1192" y="616" width="8" height="8" fill="#E5E5E5" />
<rect x="1864" y="632" width="8" height="8" fill="#CF72B2" />
<rect x="1872" y="632" width="8" height="8" fill="#CF72B2" />
<rect x="1864" y="640" width="8" height="8" fill="#CF72B2" />
<rect x="1872" y="640" width="8" height="8" fill="#CF72B2" />
<rect x="608" y="672" width="8" height="8" fill="#E5E5E5" />
<rect x="1032" y="696" width="8" height="8" fill="#E5E5E5" />
<rect x="584" y="712" width="8" height="8" fill="#E5E5E5" />
<rect x="592" y="712" width="8" height="8" fill="#E5E5E5" />
<rect x="584" y="720" width="8" height="8" fill="#E5E5E5" />
<rect x="592" y="720" width="8" height="8" fill="#E5E5E5" />
<rect x="768" y="744" width="8" height="8" fill="#CF72B2" />
<rect x="144" y="792" width="8" height="8" fill="#E5E5E5" />
<rect x="152" y="792" width="8" height="8" fill="#E5E5E5" />
<rect x="144" y="800" width="8" height="8" fill="#E5E5E5" />
<rect x="152" y="800" width="8" height="8" fill="#E5E5E5" />
<rect x="352" y="808" width="8" height="8" fill="#CF72B2" />
<rect x="360" y="808" width="8" height="8" fill="#CF72B2" />
<rect x="352" y="816" width="8" height="8" fill="#CF72B2" />
<rect x="360" y="816" width="8" height="8" fill="#CF72B2" />
<rect x="1592" y="832" width="8" height="8" fill="#CF72B2" />
<rect x="1504" y="904" width="8" height="8" fill="#E5E5E5" />
<rect x="1512" y="904" width="8" height="8" fill="#E5E5E5" />
<rect x="1504" y="912" width="8" height="8" fill="#E5E5E5" />
<rect x="1512" y="912" width="8" height="8" fill="#E5E5E5" />
<rect x="1312" y="928" width="8" height="8" fill="#CF72B2" />
<rect x="464" y="936" width="8" height="8" fill="#4D79C7" />
<rect x="1304" y="936" width="8" height="8" fill="#CF72B2" />
<rect x="1320" y="936" width="8" height="8" fill="#CF72B2" />
<rect x="456" y="944" width="8" height="8" fill="#4D79C7" />
<rect x="472" y="944" width="8" height="8" fill="#4D79C7" />
<rect x="1312" y="944" width="8" height="8" fill="#CF72B2" />
<rect x="464" y="952" width="8" height="8" fill="#4D79C7" />
<rect x="176" y="960" width="8" height="8" fill="#E5E5E5" />
<rect x="1464" y="960" width="8" height="8" fill="#E5E5E5" />
<rect x="816" y="992" width="8" height="8" fill="#E5E5E5" />
<rect x="1888" y="992" width="8" height="8" fill="#E5E5E5" />
<rect x="208" y="1024" width="8" height="8" fill="#E5E5E5" />
<rect x="1824" y="1064" width="8" height="8" fill="#4D79C7" />
<rect x="1832" y="1064" width="8" height="8" fill="#4D79C7" />
<rect x="1824" y="1072" width="8" height="8" fill="#4D79C7" />
<rect x="1832" y="1072" width="8" height="8" fill="#4D79C7" />
<rect x="48" y="1120" width="8" height="8" fill="#4D79C7" />
<rect x="56" y="1120" width="8" height="8" fill="#4D79C7" />
<rect x="48" y="1128" width="8" height="8" fill="#4D79C7" />
<rect x="56" y="1128" width="8" height="8" fill="#4D79C7" />
<rect x="720" y="1144" width="8" height="8" fill="#E5E5E5" />
<rect x="712" y="1152" width="8" height="8" fill="#E5E5E5" />
<rect x="728" y="1152" width="8" height="8" fill="#E5E5E5" />
<rect x="1352" y="1152" width="8" height="8" fill="#4D79C7" />
<rect x="720" y="1160" width="8" height="8" fill="#E5E5E5" />
<rect x="1208" y="1168" width="8" height="8" fill="#E5E5E5" />
<rect x="472" y="1192" width="8" height="8" fill="#4D79C7" />
<rect x="480" y="1192" width="8" height="8" fill="#4D79C7" />
<rect x="472" y="1200" width="8" height="8" fill="#4D79C7" />
<rect x="480" y="1200" width="8" height="8" fill="#4D79C7" />
<rect x="1720" y="1272" width="8" height="8" fill="#CF72B2" />
<rect x="912" y="1296" width="8" height="8" fill="#E5E5E5" />
<rect x="920" y="1296" width="8" height="8" fill="#E5E5E5" />
<rect x="912" y="1304" width="8" height="8" fill="#E5E5E5" />
<rect x="920" y="1304" width="8" height="8" fill="#E5E5E5" />
<rect x="464" y="1312" width="8" height="8" fill="#E5E5E5" />
<rect x="456" y="1320" width="8" height="8" fill="#E5E5E5" />
<rect x="464" y="1320" width="8" height="8" fill="#E5E5E5" />
<rect x="472" y="1320" width="8" height="8" fill="#E5E5E5" />
<rect x="1680" y="1320" width="8" height="8" fill="#E5E5E5" />
<rect x="1688" y="1320" width="8" height="8" fill="#E5E5E5" />
<rect x="448" y="1328" width="8" height="8" fill="#E5E5E5" />
<rect x="456" y="1328" width="8" height="8" fill="#E5E5E5" />
<rect x="464" y="1328" width="8" height="8" fill="#E5E5E5" />
<rect x="472" y="1328" width="8" height="8" fill="#E5E5E5" />
<rect x="480" y="1328" width="8" height="8" fill="#E5E5E5" />
<rect x="1680" y="1328" width="8" height="8" fill="#E5E5E5" />
<rect x="1688" y="1328" width="8" height="8" fill="#E5E5E5" />
<rect x="456" y="1336" width="8" height="8" fill="#E5E5E5" />
<rect x="464" y="1336" width="8" height="8" fill="#E5E5E5" />
<rect x="472" y="1336" width="8" height="8" fill="#E5E5E5" />
<rect x="464" y="1344" width="8" height="8" fill="#E5E5E5" />
<rect x="848" y="1344" width="8" height="8" fill="#CF72B2" />
<rect x="856" y="1344" width="8" height="8" fill="#CF72B2" />
<rect x="848" y="1352" width="8" height="8" fill="#CF72B2" />
<rect x="856" y="1352" width="8" height="8" fill="#CF72B2" />
<rect x="64" y="1376" width="8" height="8" fill="#E5E5E5" />
<rect x="1472" y="1440" width="8" height="8" fill="#E5E5E5" />
<rect x="1456" y="1448" width="8" height="8" fill="#E5E5E5" />
<rect x="1472" y="1448" width="8" height="8" fill="#E5E5E5" />
<rect x="1488" y="1448" width="8" height="8" fill="#E5E5E5" />
<rect x="1472" y="1456" width="8" height="8" fill="#E5E5E5" />
<rect x="1456" y="1464" width="8" height="8" fill="#E5E5E5" />
<rect x="1464" y="1464" width="8" height="8" fill="#E5E5E5" />
<rect x="1480" y="1464" width="8" height="8" fill="#E5E5E5" />
<rect x="1488" y="1464" width="8" height="8" fill="#E5E5E5" />
<rect x="1472" y="1472" width="8" height="8" fill="#E5E5E5" />
<rect x="1456" y="1480" width="8" height="8" fill="#E5E5E5" />
<rect x="1472" y="1480" width="8" height="8" fill="#E5E5E5" />
<rect x="1488" y="1480" width="8" height="8" fill="#E5E5E5" />
<rect x="1472" y="1488" width="8" height="8" fill="#E5E5E5" />
<rect x="328" y="1544" width="8" height="8" fill="#CF72B2" />
<rect x="336" y="1544" width="8" height="8" fill="#CF72B2" />
<rect x="880" y="1544" width="8" height="8" fill="#E5E5E5" />
<rect x="888" y="1544" width="8" height="8" fill="#E5E5E5" />
<rect x="328" y="1552" width="8" height="8" fill="#CF72B2" />
<rect x="336" y="1552" width="8" height="8" fill="#CF72B2" />
<rect x="880" y="1552" width="8" height="8" fill="#E5E5E5" />
<rect x="888" y="1552" width="8" height="8" fill="#E5E5E5" />
<rect x="1824" y="1568" width="8" height="8" fill="#CF72B2" />
<rect x="1832" y="1568" width="8" height="8" fill="#CF72B2" />
<rect x="1824" y="1576" width="8" height="8" fill="#CF72B2" />
<rect x="1832" y="1576" width="8" height="8" fill="#CF72B2" />
<rect x="648" y="1584" width="8" height="8" fill="#4D79C7" />
<rect x="1368" y="1616" width="8" height="8" fill="#4D79C7" />
<rect x="1376" y="1616" width="8" height="8" fill="#4D79C7" />
<rect x="1368" y="1624" width="8" height="8" fill="#4D79C7" />
<rect x="1376" y="1624" width="8" height="8" fill="#4D79C7" />
<rect x="1584" y="1688" width="8" height="8" fill="#E5E5E5" />
<rect x="1592" y="1688" width="8" height="8" fill="#E5E5E5" />
<rect x="1584" y="1696" width="8" height="8" fill="#E5E5E5" />
<rect x="1592" y="1696" width="8" height="8" fill="#E5E5E5" />
<rect x="1008" y="1720" width="8" height="8" fill="#E5E5E5" />
<rect x="1608" y="1720" width="8" height="8" fill="#E5E5E5" />
<rect x="344" y="1728" width="8" height="8" fill="#E5E5E5" />
<rect x="1000" y="1728" width="8" height="8" fill="#E5E5E5" />
<rect x="1016" y="1728" width="8" height="8" fill="#E5E5E5" />
<rect x="1008" y="1736" width="8" height="8" fill="#E5E5E5" />
<rect x="104" y="1744" width="8" height="8" fill="#E5E5E5" />
<rect x="112" y="1744" width="8" height="8" fill="#E5E5E5" />
<rect x="104" y="1752" width="8" height="8" fill="#E5E5E5" />
<rect x="112" y="1752" width="8" height="8" fill="#E5E5E5" />
<rect x="88" y="1776" width="8" height="8" fill="#CF72B2" />
<rect x="1504" y="1776" width="8" height="8" fill="#CF72B2" />
<rect x="1512" y="1776" width="8" height="8" fill="#CF72B2" />
<rect x="1504" y="1784" width="8" height="8" fill="#CF72B2" />
<rect x="1512" y="1784" width="8" height="8" fill="#CF72B2" />
<rect x="272" y="1808" width="8" height="8" fill="#E5E5E5" />
<rect x="824" y="1808" width="8" height="8" fill="#CF72B2" />
<rect x="1912" y="1824" width="8" height="8" fill="#CF72B2" />
<rect x="776" y="1848" width="8" height="8" fill="#E5E5E5" />
<rect x="808" y="1872" width="8" height="8" fill="#E5E5E5" />
<rect x="816" y="1872" width="8" height="8" fill="#E5E5E5" />
<rect x="808" y="1880" width="8" height="8" fill="#E5E5E5" />
<rect x="816" y="1880" width="8" height="8" fill="#E5E5E5" />
<rect x="1792" y="1904" width="8" height="8" fill="#4D79C7" />
<rect x="560" y="1912" width="8" height="8" fill="#E5E5E5" />
<rect x="1360" y="1912" width="8" height="8" fill="#E5E5E5" />
</svg>