<?xml version="1.0" encoding="UTF-8" ?>
<svg version="1.1" width="132" height="132" xmlns="http://www.w3.org/2000/svg" shape-rendering="crispEdges">
<rect x="4" y="48" width="4" height="4" fill="#FCEE09" />
<rect x="8" y="48" width="4" height="4" fill="#FCEE09" />
<rect x="12" y="48" width="4" height="4" fill="#FCEE09" />
<rect x="16" y="48" width="4" height="4" fill="#FCEE09" />
<rect x="20" y="48" width="4" height="4" fill="#FCEE09" />
<rect x="24" y="48" width="4" height="4" fill="#FCEE09" />
<rect x="104" y="48" width="4" height="4" fill="#FCEE09" />
<rect x="108" y="48" width="4" height="4" fill="#FCEE09" />
<rect x="112" y="48" width="4" height="4" fill="#FCEE09" />
<rect x="116" y="48" width="4" height="4" fill="#FCEE09" />
<rect x="120" y="48" width="4" height="4" fill="#FCEE09" />
<rect x="124" y="48" width="4" height="4" fill="#FCEE09" />
<rect x="4" y="52" width="4" height="4" fill="#FCEE09" />
<rect x="8" y="52" width="4" height="4" fill="#FCEE09" />
<rect x="12" y="52" width="4" height="4" fill="#FCEE09" />
<rect x="16" y="52" width="4" height="4" fill="#FCEE09" />
<rect x="20" y="52" width="4" height="4" fill="#FCEE09" />
<rect x="24" y="52" width="4" height="4" fill="#FCEE09" />
<rect x="28" y="52" width="4" height="4" fill="#FCEE09" />
<rect x="100" y="52" width="4" height="4" fill="#FCEE09" />
<rect x="104" y="52" width="4" height="4" fill="#FCEE09" />
<rect x="108" y="52" width="4" height="4" fill="#FCEE09" />
<rect x="112" y="52" width="4" height="4" fill="#FCEE09" />
<rect x="116" y="52" width="4" height="4" fill="#FCEE09" />
<rect x="120" y="52" width="4" height="4" fill="#FCEE09" />
<rect x="124" y="52" width="4" height="4" fill="#FCEE09" />
<rect x="4" y="56" width="4" height="4" fill="#FCEE09" />
<rect x="8" y="56" width="4" height="4" fill="#FCEE09" />
<rect x="12" y="56" width="4" height="4" fill="#FCEE09" />
<rect x="16" y="56" width="4" height="4" fill="#FCEE09" />
<rect x="20" y="56" width="4" height="4" fill="#FCEE09" />
<rect x="24" y="56" width="4" height="4" fill="#FCEE09" />
<rect x="28" y="56" width="4" height="4" fill="#FCEE09" />
<rect x="32" y="56" width="4" height="4" fill="#FCEE09" />
<rect x="96" y="56" width="4" height="4" fill="#FCEE09" />
<rect x="100" y="56" width="4" height="4" fill="#FCEE09" />
<rect x="104" y="56" width="4" height="4" fill="#FCEE09" />
<rect x="108" y="56" width="4" height="4" fill="#FCEE09" />
<rect x="112" y="56" width="4" height="4" fill="#FCEE09" />
<rect x="116" y="56" width="4" height="4" fill="#FCEE09" />
<rect x="120" y="56" width="4" height="4" fill="#FCEE09" />
<rect x="124" y="56" width="4" height="4" fill="#FCEE09" />
<rect x="4" y="60" width="4" height="4" fill="#FCEE09" />
<rect x="8" y="60" width="4" height="4" fill="#FCEE09" />
<rect x="12" y="60" width="4" height="4" fill="#FCEE09" />
<rect x="16" y="60" width="4" height="4" fill="#FCEE09" />
<rect x="20" y="60" width="4" height="4" fill="#FCEE09" />
<rect x="24" y="60" width="4" height="4" fill="#FCEE09" />
<rect x="28" y="60" width="4" height="4" fill="#FCEE09" />
<rect x="32" y="60" width="4" height="4" fill="#FCEE09" />
<rect x="36" y="60" width="4" height="4" fill="#FCEE09" />
<rect x="92" y="60" width="4" height="4" fill="#FCEE09" />
<rect x="96" y="60" width="4" height="4" fill="#FCEE09" />
<rect x="100" y="60" width="4" height="4" fill="#FCEE09" />
<rect x="104" y="60" width="4" height="4" fill="#FCEE09" />
<rect x="108" y="60" width="4" height="4" fill="#FCEE09" />
<rect x="112" y="60" width="4" height="4" fill="#FCEE09" />
<rect x="116" y="60" width="4" height="4" fill="#FCEE09" />
<rect x="120" y="60" width="4" height="4" fill="#FCEE09" />
<rect x="124" y="60" width="4" height="4" fill="#FCEE09" />
<rect x="8" y="64" width="4" height="4" fill="#FCEE09" />
<rect x="12" y="64" width="4" height="4" fill="#FCEE09" />
<rect x="16" y="64" width="4" height="4" fill="#FCEE09" />
<rect x="20" y="64" width="4" height="4" fill="#FCEE09" />
<rect x="24" y="64" width="4" height="4" fill="#FCEE09" />
<rect x="28" y="64" width="4" height="4" fill="#FCEE09" />
<rect x="32" y="64" width="4" height="4" fill="#FCEE09" />
<rect x="36" y="64" width="4" height="4" fill="#FCEE09" />
<rect x="40" y="64" width="4" height="4" fill="#FCEE09" />
<rect x="88" y="64" width="4" height="4" fill="#FCEE09" />
<rect x="92" y="64" width="4" height="4" fill="#FCEE09" />
<rect x="96" y="64" width="4" height="4" fill="#FCEE09" />
<rect x="100" y="64" width="4" height="4" fill="#FCEE09" />
<rect x="104" y="64" width="4" height="4" fill="#FCEE09" />
<rect x="108" y="64" width="4" height="4" fill="#FCEE09" />
<rect x="112" y="64" width="4" height="4" fill="#FCEE09" />
<rect x="116" y="64" width="4" height="4" fill="#FCEE09" />
<rect x="120" y="64" width="4" height="4" fill="#FCEE09" />
<rect x="12" y="68" width="4" height="4" fill="#FCEE09" />
<rect x="16" y="68" width="4" height="4" fill="#FCEE09" />
<rect x="20" y="68" width="4" height="4" fill="#FCEE09" />
<rect x="24" y="68" width="4" height="4" fill="#FCEE09" />
<rect x="28" y="68" width="4" height="4" fill="#FCEE09" />
<rect x="32" y="68" width="4" height="4" fill="#FCEE09" />
<rect x="36" y="68" width="4" height="4" fill="#FCEE09" />
<rect x="40" y="68" width="4" height="4" fill="#FCEE09" />
<rect x="44" y="68" width="4" height="4" fill="#FCEE09" />
<rect x="84" y="68" width="4" height="4" fill="#FCEE09" />
<rect x="88" y="68" width="4" height="4" fill="#FCEE09" />
<rect x="92" y="68" width="4" height="4" fill="#FCEE09" />
<rect x="96" y="68" width="4" height="4" fill="#FCEE09" />
<rect x="100" y="68" width="4" height="4" fill="#FCEE09" />
<rect x="104" y="68" width="4" height="4" fill="#FCEE09" />
<rect x="108" y="68" width="4" height="4" fill="#FCEE09" />
<rect x="112" y="68" width="4" height="4" fill="#FCEE09" />
<rect x="116" y="68" width="4" height="4" fill="#FCEE09" />
<rect x="16" y="72" width="4" height="4" fill="#FCEE09" />
<rect x="20" y="72" width="4" height="4" fill="#FCEE09" />
<rect x="24" y="72" width="4" height="4" fill="#FCEE09" />
<rect x="28" y="72" width="4" height="4" fill="#FCEE09" />
<rect x="32" y="72" width="4" height="4" fill="#FCEE09" />
<rect x="36" y="72" width="4" height="4" fill="#FCEE09" />
<rect x="40" y="72" width="4" height="4" fill="#FCEE09" />
<rect x="44" y="72" width="4" height="4" fill="#FCEE09" />
<rect x="48" y="72" width="4" height="4" fill="#FCEE09" />
<rect x="80" y="72" width="4" height="4" fill="#FCEE09" />
<rect x="84" y="72" width="4" height="4" fill="#FCEE09" />
<rect x="88" y="72" width="4" height="4" fill="#FCEE09" />
<rect x="92" y="72" width="4" height="4" fill="#FCEE09" />
<rect x="96" y="72" width="4" height="4" fill="#FCEE09" />
<rect x="100" y="72" width="4" height="4" fill="#FCEE09" />
<rect x="104" y="72" width="4" height="4" fill="#FCEE09" />
<rect x="108" y="72" width="4" height="4" fill="#FCEE09" />
<rect x="112" y="72" width="4" height="4" fill="#FCEE09" />
<rect x="20" y="76" width="4" height="4" fill="#FCEE09" />
<rect x="24" y="76" width="4" height="4" fill="#FCEE09" />
<rect x="28" y="76" width="4" height="4" fill="#FCEE09" />
<rect x="32" y="76" width="4" height="4" fill="#FCEE09" />
<rect x="36" y="76" width="4" height="4" fill="#FCEE09" />
<rect x="40" y="76" width="4" height="4" fill="#FCEE09" />
<rect x="44" y="76" width="4" height="4" fill="#FCEE09" />
<rect x="48" y="76" width="4" height="4" fill="#FCEE09" />
<rect x="52" y="76" width="4" height="4" fill="#FCEE09" />
<rect x="76" y="76" width="4" height="4" fill="#FCEE09" />
<rect x="80" y="76" width="4" height="4" fill="#FCEE09" />
<rect x="84" y="76" width="4" height="4" fill="#FCEE09" />
<rect x="88" y="76" width="4" height="4" fill="#FCEE09" />
<rect x="92" y="76" width="4" height="4" fill="#FCEE09" />
<rect x="96" y="76" width="4" height="4" fill="#FCEE09" />
<rect x="100" y="76" width="4" height="4" fill="#FCEE09" />
<rect x="104" y="76" width="4" height="4" fill="#FCEE09" />
<rect x="108" y="76" width="4" height="4" fill="#FCEE09" />
<rect x="24" y="80" width="4" height="4" fill="#FCEE09" />
<rect x="28" y="80" width="4" height="4" fill="#FCEE09" />
<rect x="32" y="80" width="4" height="4" fill="#FCEE09" />
<rect x="36" y="80" width="4" height="4" fill="#FCEE09" />
<rect x="40" y="80" width="4" height="4" fill="#FCEE09" />
<rect x="44" y="80" width="4" height="4" fill="#FCEE09" />
<rect x="48" y="80" width="4" height="4" fill="#FCEE09" />
<rect x="52" y="80" width="4" height="4" fill="#FCEE09" />
<rect x="56" y="80" width="4" height="4" fill="#FCEE09" />
<rect x="72" y="80" width="4" height="4" fill="#FCEE09" />
<rect x="76" y="80" width="4" height="4" fill="#FCEE09" />
<rect x="80" y="80" width="4" height="4" fill="#FCEE09" />
<rect x="84" y="80" width="4" height="4" fill="#FCEE09" />
<rect x="88" y="80" width="4" height="4" fill="#FCEE09" />
<rect x="92" y="80" width="4" height="4" fill="#FCEE09" />
<rect x="96" y="80" width="4" height="4" fill="#FCEE09" />
<rect x="100" y="80" width="4" height="4" fill="#FCEE09" />
<rect x="104" y="80" width="4" height="4" fill="#FCEE09" />
<rect x="28" y="84" width="4" height="4" fill="#FCEE09" />
<rect x="32" y="84" width="4" height="4" fill="#FCEE09" />
<rect x="36" y="84" width="4" height="4" fill="#FCEE09" />
<rect x="40" y="84" width="4" height="4" fill="#FCEE09" />
<rect x="44" y="84" width="4" height="4" fill="#FCEE09" />
<rect x="48" y="84" width="4" height="4" fill="#FCEE09" />
<rect x="52" y="84" width="4" height="4" fill="#FCEE09" />
<rect x="56" y="84" width="4" height="4" fill="#FCEE09" />
<rect x="60" y="84" width="4" height="4" fill="#FCEE09" />
<rect x="68" y="84" width="4" height="4" fill="#FCEE09" />
<rect x="72" y="84" width="4" height="4" fill="#FCEE09" />
<rect x="76" y="84" width="4" height="4" fill="#FCEE09" />
<rect x="80" y="84" width="4" height="4" fill="#FCEE09" />
<rect x="84" y="84" width="4" height="4" fill="#FCEE09" />
<rect x="88" y="84" width="4" height="4" fill="#FCEE09" />
<rect x="92" y="84" width="4" height="4" fill="#FCEE09" />
<rect x="96" y="84" width="4" height="4" fill="#FCEE09" />
<rect x="100" y="84" width="4" height="4" fill="#FCEE09" />
<rect x="32" y="88" width="4" height="4" fill="#FCEE09" />
<rect x="36" y="88" width="4" height="4" fill="#FCEE09" />
<rect x="40" y="88" width="4" height="4" fill="#FCEE09" />
<rect x="44" y="88" width="4" height="4" fill="#FCEE09" />
<rect x="48" y="88" width="4" height="4" fill="#FCEE09" />
<rect x="52" y="88" width="4" height="4" fill="#FCEE09" />
<rect x="56" y="88" width="4" height="4" fill="#FCEE09" />
<rect x="60" y="88" width="4" height="4" fill="#FCEE09" />
<rect x="64" y="88" width="4" height="4" fill="#FCEE09" />
<rect x="68" y="88" width="4" height="4" fill="#FCEE09" />
<rect x="72" y="88" width="4" height="4" fill="#FCEE09" />
<rect x="76" y="88" width="4" height="4" fill="#FCEE09" />
<rect x="80" y="88" width="4" height="4" fill="#FCEE09" />
<rect x="84" y="88" width="4" height="4" fill="#FCEE09" />
<rect x="88" y="88" width="4" height="4" fill="#FCEE09" />
<rect x="92" y="88" width="4" height="4" fill="#FCEE09" />
<rect x="96" y="88" width="4" height="4" fill="#FCEE09" />
<rect x="36" y="92" width="4" height="4" fill="#FCEE09" />
<rect x="40" y="92" width="4" height="4" fill="#FCEE09" />
<rect x="44" y="92" width="4" height="4" fill="#FCEE09" />
<rect x="48" y="92" width="4" height="4" fill="#FCEE09" />
<rect x="52" y="92" width="4" height="4" fill="#FCEE09" />
<rect x="56" y="92" width="4" height="4" fill="#FCEE09" />
<rect x="60" y="92" width="4" height="4" fill="#FCEE09" />
<rect x="64" y="92" width="4" height="4" fill="#FCEE09" />
<rect x="68" y="92" width="4" height="4" fill="#FCEE09" />
<rect x="72" y="92" width="4" height="4" fill="#FCEE09" />
<rect x="76" y="92" width="4" height="4" fill="#FCEE09" />
<rect x="80" y="92" width="4" height="4" fill="#FCEE09" />
<rect x="84" y="92" width="4" height="4" fill="#FCEE09" />
<rect x="88" y="92" width="4" height="4" fill="#FCEE09" />
<rect x="92" y="92" width="4" height="4" fill="#FCEE09" />
<rect x="40" y="96" width="4" height="4" fill="#FCEE09" />
<rect x="44" y="96" width="4" height="4" fill="#FCEE09" />
<rect x="48" y="96" width="4" height="4" fill="#FCEE09" />
<rect x="52" y="96" width="4" height="4" fill="#FCEE09" />
<rect x="56" y="96" width="4" height="4" fill="#FCEE09" />
<rect x="60" y="96" width="4" height="4" fill="#FCEE09" />
<rect x="64" y="96" width="4" height="4" fill="#FCEE09" />
<rect x="68" y="96" width="4" height="4" fill="#FCEE09" />
<rect x="72" y="96" width="4" height="4" fill="#FCEE09" />
<rect x="76" y="96" width="4" height="4" fill="#FCEE09" />
<rect x="80" y="96" width="4" height="4" fill="#FCEE09" />
<rect x="84" y="96" width="4" height="4" fill="#FCEE09" />
<rect x="88" y="96" width="4" height="4" fill="#FCEE09" />
<rect x="44" y="100" width="4" height="4" fill="#FCEE09" />
<rect x="48" y="100" width="4" height="4" fill="#FCEE09" />
<rect x="52" y="100" width="4" height="4" fill="#FCEE09" />
<rect x="56" y="100" width="4" height="4" fill="#FCEE09" />
<rect x="60" y="100" width="4" height="4" fill="#FCEE09" />
<rect x="64" y="100" width="4" height="4" fill="#FCEE09" />
<rect x="68" y="100" width="4" height="4" fill="#FCEE09" />
<rect x="72" y="100" width="4" height="4" fill="#FCEE09" />
<rect x="76" y="100" width="4" height="4" fill="#FCEE09" />
<rect x="80" y="100" width="4" height="4" fill="#FCEE09" />
<rect x="84" y="100" width="4" height="4" fill="#FCEE09" />
<rect x="48" y="104" width="4" height="4" fill="#FCEE09" />
<rect x="52" y="104" width="4" height="4" fill="#FCEE09" />
<rect x="56" y="104" width="4" height="4" fill="#FCEE09" />
<rect x="60" y="104" width="4" height="4" fill="#FCEE09" />
<rect x="64" y="104" width="4" height="4" fill="#FCEE09" />
<rect x="68" y="104" width="4" height="4" fill="#FCEE09" />
<rect x="72" y="104" width="4" height="4" fill="#FCEE09" />
<rect x="76" y="104" width="4" height="4" fill="#FCEE09" />
<rect x="80" y="104" width="4" height="4" fill="#FCEE09" />
<rect x="52" y="108" width="4" height="4" fill="#FCEE09" />
<rect x="56" y="108" width="4" height="4" fill="#FCEE09" />
<rect x="60" y="108" width="4" height="4" fill="#FCEE09" />
<rect x="64" y="108" width="4" height="4" fill="#FCEE09" />
<rect x="68" y="108" width="4" height="4" fill="#FCEE09" />
<rect x="72" y="108" width="4" height="4" fill="#FCEE09" />
<rect x="76" y="108" width="4" height="4" fill="#FCEE09" />
<rect x="56" y="112" width="4" height="4" fill="#FCEE09" />
<rect x="60" y="112" width="4" height="4" fill="#FCEE09" />
<rect x="64" y="112" width="4" height="4" fill="#FCEE09" />
<rect x="68" y="112" width="4" height="4" fill="#FCEE09" />
<rect x="72" y="112" width="4" height="4" fill="#FCEE09" />
<rect x="60" y="116" width="4" height="4" fill="#FCEE09" />
<rect x="64" y="116" width="4" height="4" fill="#FCEE09" />
<rect x="68" y="116" width="4" height="4" fill="#FCEE09" />
</svg>