<?xml version="1.0" encoding="UTF-8" ?>
<svg version="1.1" width="132" height="132" xmlns="http://www.w3.org/2000/svg" shape-rendering="crispEdges">
<rect x="48" y="24" width="4" height="4" fill="#FCEE09" />
<rect x="52" y="24" width="4" height="4" fill="#FCEE09" />
<rect x="44" y="28" width="4" height="4" fill="#FCEE09" />
<rect x="48" y="28" width="4" height="4" fill="#FCEE09" />
<rect x="52" y="28" width="4" height="4" fill="#FCEE09" />
<rect x="40" y="32" width="4" height="4" fill="#FCEE09" />
<rect x="44" y="32" width="4" height="4" fill="#FCEE09" />
<rect x="48" y="32" width="4" height="4" fill="#FCEE09" />
<rect x="52" y="32" width="4" height="4" fill="#FCEE09" />
<rect x="36" y="36" width="4" height="4" fill="#FCEE09" />
<rect x="40" y="36" width="4" height="4" fill="#FCEE09" />
<rect x="44" y="36" width="4" height="4" fill="#FCEE09" />
<rect x="48" y="36" width="4" height="4" fill="#FCEE09" />
<rect x="52" y="36" width="4" height="4" fill="#FCEE09" />
<rect x="32" y="40" width="4" height="4" fill="#FCEE09" />
<rect x="36" y="40" width="4" height="4" fill="#FCEE09" />
<rect x="40" y="40" width="4" height="4" fill="#FCEE09" />
<rect x="44" y="40" width="4" height="4" fill="#FCEE09" />
<rect x="48" y="40" width="4" height="4" fill="#FCEE09" />
<rect x="52" y="40" width="4" height="4" fill="#FCEE09" />
<rect x="56" y="40" width="4" height="4" fill="#FCEE09" />
<rect x="60" y="40" width="4" height="4" fill="#FCEE09" />
<rect x="64" y="40" width="4" height="4" fill="#FCEE09" />
<rect x="68" y="40" width="4" height="4" fill="#FCEE09" />
<rect x="72" y="40" width="4" height="4" fill="#FCEE09" />
<rect x="76" y="40" width="4" height="4" fill="#FCEE09" />
<rect x="80" y="40" width="4" height="4" fill="#FCEE09" />
<rect x="84" y="40" width="4" height="4" fill="#FCEE09" />
<rect x="88" y="40" width="4" height="4" fill="#FCEE09" />
<rect x="92" y="40" width="4" height="4" fill="#FCEE09" />
<rect x="96" y="40" width="4" height="4" fill="#FCEE09" />
<rect x="100" y="40" width="4" height="4" fill="#FCEE09" />
<rect x="104" y="40" width="4" height="4" fill="#FCEE09" />
<rect x="108" y="40" width="4" height="4" fill="#FCEE09" />
<rect x="112" y="40" width="4" height="4" fill="#FCEE09" />
<rect x="116" y="40" width="4" height="4" fill="#FCEE09" />
<rect x="32" y="44" width="4" height="4" fill="#FCEE09" />
<rect x="36" y="44" width="4" height="4" fill="#FCEE09" />
<rect x="40" y="44" width="4" height="4" fill="#FCEE09" />
<rect x="44" y="44" width="4" height="4" fill="#FCEE09" />
<rect x="48" y="44" width="4" height="4" fill="#FCEE09" />
<rect x="52" y="44" width="4" height="4" fill="#FCEE09" />
<rect x="56" y="44" width="4" height="4" fill="#FCEE09" />
<rect x="60" y="44" width="4" height="4" fill="#FCEE09" />
<rect x="64" y="44" width="4" height="4" fill="#FCEE09" />
<rect x="68" y="44" width="4" height="4" fill="#FCEE09" />
<rect x="72" y="44" width="4" height="4" fill="#FCEE09" />
<rect x="76" y="44" width="4" height="4" fill="#FCEE09" />
<rect x="80" y="44" width="4" height="4" fill="#FCEE09" />
<rect x="84" y="44" width="4" height="4" fill="#FCEE09" />
<rect x="88" y="44" width="4" height="4" fill="#FCEE09" />
<rect x="92" y="44" width="4" height="4" fill="#FCEE09" />
<rect x="96" y="44" width="4" height="4" fill="#FCEE09" />
<rect x="100" y="44" width="4" height="4" fill="#FCEE09" />
<rect x="104" y="44" width="4" height="4" fill="#FCEE09" />
<rect x="108" y="44" width="4" height="4" fill="#FCEE09" />
<rect x="112" y="44" width="4" height="4" fill="#FCEE09" />
<rect x="116" y="44" width="4" height="4" fill="#FCEE09" />
<rect x="120" y="44" width="4" height="4" fill="#FCEE09" />
<rect x="36" y="48" width="4" height="4" fill="#FCEE09" />
<rect x="40" y="48" width="4" height="4" fill="#FCEE09" />
<rect x="44" y="48" width="4" height="4" fill="#FCEE09" />
<rect x="48" y="48" width="4" height="4" fill="#FCEE09" />
<rect x="52" y="48" width="4" height="4" fill="#FCEE09" />
<rect x="116" y="48" width="4" height="4" fill="#FCEE09" />
<rect x="120" y="48" width="4" height="4" fill="#FCEE09" />
<rect x="124" y="48" width="4" height="4" fill="#FCEE09" />
<rect x="40" y="52" width="4" height="4" fill="#FCEE09" />
<rect x="44" y="52" width="4" height="4" fill="#FCEE09" />
<rect x="48" y="52" width="4" height="4" fill="#FCEE09" />
<rect x="52" y="52" width="4" height="4" fill="#FCEE09" />
<rect x="120" y="52" width="4" height="4" fill="#FCEE09" />
<rect x="124" y="52" width="4" height="4" fill="#FCEE09" />
<rect x="44" y="56" width="4" height="4" fill="#FCEE09" />
<rect x="48" y="56" width="4" height="4" fill="#FCEE09" />
<rect x="52" y="56" width="4" height="4" fill="#FCEE09" />
<rect x="120" y="56" width="4" height="4" fill="#FCEE09" />
<rect x="124" y="56" width="4" height="4" fill="#FCEE09" />
<rect x="48" y="60" width="4" height="4" fill="#FCEE09" />
<rect x="52" y="60" width="4" height="4" fill="#FCEE09" />
<rect x="120" y="60" width="4" height="4" fill="#FCEE09" />
<rect x="124" y="60" width="4" height="4" fill="#FCEE09" />
<rect x="120" y="64" width="4" height="4" fill="#FCEE09" />
<rect x="124" y="64" width="4" height="4" fill="#FCEE09" />
<rect x="120" y="68" width="4" height="4" fill="#FCEE09" />
<rect x="124" y="68" width="4" height="4" fill="#FCEE09" />
<rect x="120" y="72" width="4" height="4" fill="#FCEE09" />
<rect x="124" y="72" width="4" height="4" fill="#FCEE09" />
<rect x="120" y="76" width="4" height="4" fill="#FCEE09" />
<rect x="124" y="76" width="4" height="4" fill="#FCEE09" />
<rect x="116" y="80" width="4" height="4" fill="#FCEE09" />
<rect x="120" y="80" width="4" height="4" fill="#FCEE09" />
<rect x="124" y="80" width="4" height="4" fill="#FCEE09" />
<rect x="12" y="84" width="4" height="4" fill="#FCEE09" />
<rect x="16" y="84" width="4" height="4" fill="#FCEE09" />
<rect x="20" y="84" width="4" height="4" fill="#FCEE09" />
<rect x="24" y="84" width="4" height="4" fill="#FCEE09" />
<rect x="28" y="84" width="4" height="4" fill="#FCEE09" />
<rect x="32" y="84" width="4" height="4" fill="#FCEE09" />
<rect x="36" y="84" width="4" height="4" fill="#FCEE09" />
<rect x="40" y="84" width="4" height="4" fill="#FCEE09" />
<rect x="44" y="84" width="4" height="4" fill="#FCEE09" />
<rect x="48" y="84" width="4" height="4" fill="#FCEE09" />
<rect x="52" y="84" width="4" height="4" fill="#FCEE09" />
<rect x="56" y="84" width="4" height="4" fill="#FCEE09" />
<rect x="60" y="84" width="4" height="4" fill="#FCEE09" />
<rect x="64" y="84" width="4" height="4" fill="#FCEE09" />
<rect x="68" y="84" width="4" height="4" fill="#FCEE09" />
<rect x="72" y="84" width="4" height="4" fill="#FCEE09" />
<rect x="76" y="84" width="4" height="4" fill="#FCEE09" />
<rect x="80" y="84" width="4" height="4" fill="#FCEE09" />
<rect x="84" y="84" width="4" height="4" fill="#FCEE09" />
<rect x="88" y="84" width="4" height="4" fill="#FCEE09" />
<rect x="92" y="84" width="4" height="4" fill="#FCEE09" />
<rect x="96" y="84" width="4" height="4" fill="#FCEE09" />
<rect x="100" y="84" width="4" height="4" fill="#FCEE09" />
<rect x="104" y="84" width="4" height="4" fill="#FCEE09" />
<rect x="108" y="84" width="4" height="4" fill="#FCEE09" />
<rect x="112" y="84" width="4" height="4" fill="#FCEE09" />
<rect x="116" y="84" width="4" height="4" fill="#FCEE09" />
<rect x="120" y="84" width="4" height="4" fill="#FCEE09" />
<rect x="12" y="88" width="4" height="4" fill="#FCEE09" />
<rect x="16" y="88" width="4" height="4" fill="#FCEE09" />
<rect x="20" y="88" width="4" height="4" fill="#FCEE09" />
<rect x="24" y="88" width="4" height="4" fill="#FCEE09" />
<rect x="28" y="88" width="4" height="4" fill="#FCEE09" />
<rect x="32" y="88" width="4" height="4" fill="#FCEE09" />
<rect x="36" y="88" width="4" height="4" fill="#FCEE09" />
<rect x="40" y="88" width="4" height="4" fill="#FCEE09" />
<rect x="44" y="88" width="4" height="4" fill="#FCEE09" />
<rect x="48" y="88" width="4" height="4" fill="#FCEE09" />
<rect x="52" y="88" width="4" height="4" fill="#FCEE09" />
<rect x="56" y="88" width="4" height="4" fill="#FCEE09" />
<rect x="60" y="88" width="4" height="4" fill="#FCEE09" />
<rect x="64" y="88" width="4" height="4" fill="#FCEE09" />
<rect x="68" y="88" width="4" height="4" fill="#FCEE09" />
<rect x="72" y="88" width="4" height="4" fill="#FCEE09" />
<rect x="76" y="88" width="4" height="4" fill="#FCEE09" />
<rect x="80" y="88" width="4" height="4" fill="#FCEE09" />
<rect x="84" y="88" width="4" height="4" fill="#FCEE09" />
<rect x="88" y="88" width="4" height="4" fill="#FCEE09" />
<rect x="92" y="88" width="4" height="4" fill="#FCEE09" />
<rect x="96" y="88" width="4" height="4" fill="#FCEE09" />
<rect x="100" y="88" width="4" height="4" fill="#FCEE09" />
<rect x="104" y="88" width="4" height="4" fill="#FCEE09" />
<rect x="108" y="88" width="4" height="4" fill="#FCEE09" />
<rect x="112" y="88" width="4" height="4" fill="#FCEE09" />
<rect x="116" y="88" width="4" height="4" fill="#FCEE09" />
</svg>