<?xml version="1.0" encoding="UTF-8" ?>
<svg version="1.1" width="200" height="200" xmlns="http://www.w3.org/2000/svg" shape-rendering="crispEdges">
<rect x="96" y="0" width="4" height="4" fill="#FCEE09" />
<rect x="100" y="0" width="4" height="4" fill="#FCEE09" />
<rect x="96" y="4" width="4" height="4" fill="#FCEE09" />
<rect x="100" y="4" width="4" height="4" fill="#FCEE09" />
<rect x="96" y="8" width="4" height="4" fill="#FCEE09" />
<rect x="100" y="8" width="4" height="4" fill="#FCEE09" />
<rect x="96" y="12" width="4" height="4" fill="#FCEE09" />
<rect x="100" y="12" width="4" height="4" fill="#FCEE09" />
<rect x="96" y="16" width="4" height="4" fill="#FCEE09" />
<rect x="100" y="16" width="4" height="4" fill="#FCEE09" />
<rect x="96" y="20" width="4" height="4" fill="#FCEE09" />
<rect x="100" y="20" width="4" height="4" fill="#FCEE09" />
<rect x="96" y="24" width="4" height="4" fill="#FCEE09" />
<rect x="100" y="24" width="4" height="4" fill="#FCEE09" />
<rect x="96" y="28" width="4" height="4" fill="#FCEE09" />
<rect x="100" y="28" width="4" height="4" fill="#FCEE09" />
<rect x="96" y="32" width="4" height="4" fill="#FCEE09" />
<rect x="100" y="32" width="4" height="4" fill="#FCEE09" />
<rect x="96" y="36" width="4" height="4" fill="#FCEE09" />
<rect x="100" y="36" width="4" height="4" fill="#FCEE09" />
<rect x="96" y="40" width="4" height="4" fill="#FCEE09" />
<rect x="100" y="40" width="4" height="4" fill="#FCEE09" />
<rect x="72" y="44" width="4" height="4" fill="#FCEE09" />
<rect x="76" y="44" width="4" height="4" fill="#FCEE09" />
<rect x="96" y="44" width="4" height="4" fill="#FCEE09" />
<rect x="100" y="44" width="4" height="4" fill="#FCEE09" />
<rect x="120" y="44" width="4" height="4" fill="#FCEE09" />
<rect x="124" y="44" width="4" height="4" fill="#FCEE09" />
<rect x="72" y="48" width="4" height="4" fill="#FCEE09" />
<rect x="76" y="48" width="4" height="4" fill="#FCEE09" />
<rect x="80" y="48" width="4" height="4" fill="#FCEE09" />
<rect x="96" y="48" width="4" height="4" fill="#FCEE09" />
<rect x="100" y="48" width="4" height="4" fill="#FCEE09" />
<rect x="116" y="48" width="4" height="4" fill="#FCEE09" />
<rect x="120" y="48" width="4" height="4" fill="#FCEE09" />
<rect x="124" y="48" width="4" height="4" fill="#FCEE09" />
<rect x="76" y="52" width="4" height="4" fill="#FCEE09" />
<rect x="80" y="52" width="4" height="4" fill="#FCEE09" />
<rect x="84" y="52" width="4" height="4" fill="#FCEE09" />
<rect x="96" y="52" width="4" height="4" fill="#FCEE09" />
<rect x="100" y="52" width="4" height="4" fill="#FCEE09" />
<rect x="112" y="52" width="4" height="4" fill="#FCEE09" />
<rect x="116" y="52" width="4" height="4" fill="#FCEE09" />
<rect x="120" y="52" width="4" height="4" fill="#FCEE09" />
<rect x="80" y="56" width="4" height="4" fill="#FCEE09" />
<rect x="84" y="56" width="4" height="4" fill="#FCEE09" />
<rect x="88" y="56" width="4" height="4" fill="#FCEE09" />
<rect x="96" y="56" width="4" height="4" fill="#FCEE09" />
<rect x="100" y="56" width="4" height="4" fill="#FCEE09" />
<rect x="108" y="56" width="4" height="4" fill="#FCEE09" />
<rect x="112" y="56" width="4" height="4" fill="#FCEE09" />
<rect x="116" y="56" width="4" height="4" fill="#FCEE09" />
<rect x="84" y="60" width="4" height="4" fill="#FCEE09" />
<rect x="88" y="60" width="4" height="4" fill="#FCEE09" />
<rect x="92" y="60" width="4" height="4" fill="#FCEE09" />
<rect x="96" y="60" width="4" height="4" fill="#FCEE09" />
<rect x="100" y="60" width="4" height="4" fill="#FCEE09" />
<rect x="104" y="60" width="4" height="4" fill="#FCEE09" />
<rect x="108" y="60" width="4" height="4" fill="#FCEE09" />
<rect x="112" y="60" width="4" height="4" fill="#FCEE09" />
<rect x="88" y="64" width="4" height="4" fill="#FCEE09" />
<rect x="92" y="64" width="4" height="4" fill="#FCEE09" />
<rect x="96" y="64" width="4" height="4" fill="#FCEE09" />
<rect x="100" y="64" width="4" height="4" fill="#FCEE09" />
<rect x="104" y="64" width="4" height="4" fill="#FCEE09" />
<rect x="108" y="64" width="4" height="4" fill="#FCEE09" />
<rect x="92" y="68" width="4" height="4" fill="#FCEE09" />
<rect x="96" y="68" width="4" height="4" fill="#FCEE09" />
<rect x="100" y="68" width="4" height="4" fill="#FCEE09" />
<rect x="104" y="68" width="4" height="4" fill="#FCEE09" />
<rect x="44" y="72" width="4" height="4" fill="#FCEE09" />
<rect x="48" y="72" width="4" height="4" fill="#FCEE09" />
<rect x="96" y="72" width="4" height="4" fill="#FCEE09" />
<rect x="100" y="72" width="4" height="4" fill="#FCEE09" />
<rect x="148" y="72" width="4" height="4" fill="#FCEE09" />
<rect x="152" y="72" width="4" height="4" fill="#FCEE09" />
<rect x="44" y="76" width="4" height="4" fill="#FCEE09" />
<rect x="48" y="76" width="4" height="4" fill="#FCEE09" />
<rect x="52" y="76" width="4" height="4" fill="#FCEE09" />
<rect x="144" y="76" width="4" height="4" fill="#FCEE09" />
<rect x="148" y="76" width="4" height="4" fill="#FCEE09" />
<rect x="152" y="76" width="4" height="4" fill="#FCEE09" />
<rect x="48" y="80" width="4" height="4" fill="#FCEE09" />
<rect x="52" y="80" width="4" height="4" fill="#FCEE09" />
<rect x="56" y="80" width="4" height="4" fill="#FCEE09" />
<rect x="140" y="80" width="4" height="4" fill="#FCEE09" />
<rect x="144" y="80" width="4" height="4" fill="#FCEE09" />
<rect x="148" y="80" width="4" height="4" fill="#FCEE09" />
<rect x="52" y="84" width="4" height="4" fill="#FCEE09" />
<rect x="56" y="84" width="4" height="4" fill="#FCEE09" />
<rect x="60" y="84" width="4" height="4" fill="#FCEE09" />
<rect x="136" y="84" width="4" height="4" fill="#FCEE09" />
<rect x="140" y="84" width="4" height="4" fill="#FCEE09" />
<rect x="144" y="84" width="4" height="4" fill="#FCEE09" />
<rect x="56" y="88" width="4" height="4" fill="#FCEE09" />
<rect x="60" y="88" width="4" height="4" fill="#FCEE09" />
<rect x="64" y="88" width="4" height="4" fill="#FCEE09" />
<rect x="132" y="88" width="4" height="4" fill="#FCEE09" />
<rect x="136" y="88" width="4" height="4" fill="#FCEE09" />
<rect x="140" y="88" width="4" height="4" fill="#FCEE09" />
<rect x="60" y="92" width="4" height="4" fill="#FCEE09" />
<rect x="64" y="92" width="4" height="4" fill="#FCEE09" />
<rect x="68" y="92" width="4" height="4" fill="#FCEE09" />
<rect x="128" y="92" width="4" height="4" fill="#FCEE09" />
<rect x="132" y="92" width="4" height="4" fill="#FCEE09" />
<rect x="136" y="92" width="4" height="4" fill="#FCEE09" />
<rect x="0" y="96" width="4" height="4" fill="#FCEE09" />
<rect x="4" y="96" width="4" height="4" fill="#FCEE09" />
<rect x="8" y="96" width="4" height="4" fill="#FCEE09" />
<rect x="12" y="96" width="4" height="4" fill="#FCEE09" />
<rect x="16" y="96" width="4" height="4" fill="#FCEE09" />
<rect x="20" y="96" width="4" height="4" fill="#FCEE09" />
<rect x="24" y="96" width="4" height="4" fill="#FCEE09" />
<rect x="28" y="96" width="4" height="4" fill="#FCEE09" />
<rect x="32" y="96" width="4" height="4" fill="#FCEE09" />
<rect x="36" y="96" width="4" height="4" fill="#FCEE09" />
<rect x="40" y="96" width="4" height="4" fill="#FCEE09" />
<rect x="44" y="96" width="4" height="4" fill="#FCEE09" />
<rect x="48" y="96" width="4" height="4" fill="#FCEE09" />
<rect x="52" y="96" width="4" height="4" fill="#FCEE09" />
<rect x="56" y="96" width="4" height="4" fill="#FCEE09" />
<rect x="60" y="96" width="4" height="4" fill="#FCEE09" />
<rect x="64" y="96" width="4" height="4" fill="#FCEE09" />
<rect x="68" y="96" width="4" height="4" fill="#FCEE09" />
<rect x="72" y="96" width="4" height="4" fill="#FCEE09" />
<rect x="96" y="96" width="4" height="4" fill="#FCEE09" />
<rect x="100" y="96" width="4" height="4" fill="#FCEE09" />
<rect x="124" y="96" width="4" height="4" fill="#FCEE09" />
<rect x="128" y="96" width="4" height="4" fill="#FCEE09" />
<rect x="132" y="96" width="4" height="4" fill="#FCEE09" />
<rect x="136" y="96" width="4" height="4" fill="#FCEE09" />
<rect x="140" y="96" width="4" height="4" fill="#FCEE09" />
<rect x="144" y="96" width="4" height="4" fill="#FCEE09" />
<rect x="148" y="96" width="4" height="4" fill="#FCEE09" />
<rect x="152" y="96" width="4" height="4" fill="#FCEE09" />
<rect x="156" y="96" width="4" height="4" fill="#FCEE09" />
<rect x="160" y="96" width="4" height="4" fill="#FCEE09" />
<rect x="164" y="96" width="4" height="4" fill="#FCEE09" />
<rect x="168" y="96" width="4" height="4" fill="#FCEE09" />
<rect x="172" y="96" width="4" height="4" fill="#FCEE09" />
<rect x="176" y="96" width="4" height="4" fill="#FCEE09" />
<rect x="180" y="96" width="4" height="4" fill="#FCEE09" />
<rect x="184" y="96" width="4" height="4" fill="#FCEE09" />
<rect x="188" y="96" width="4" height="4" fill="#FCEE09" />
<rect x="192" y="96" width="4" height="4" fill="#FCEE09" />
<rect x="196" y="96" width="4" height="4" fill="#FCEE09" />
<rect x="0" y="100" width="4" height="4" fill="#FCEE09" />
<rect x="4" y="100" width="4" height="4" fill="#FCEE09" />
<rect x="8" y="100" width="4" height="4" fill="#FCEE09" />
<rect x="12" y="100" width="4" height="4" fill="#FCEE09" />
<rect x="16" y="100" width="4" height="4" fill="#FCEE09" />
<rect x="20" y="100" width="4" height="4" fill="#FCEE09" />
<rect x="24" y="100" width="4" height="4" fill="#FCEE09" />
<rect x="28" y="100" width="4" height="4" fill="#FCEE09" />
<rect x="32" y="100" width="4" height="4" fill="#FCEE09" />
<rect x="36" y="100" width="4" height="4" fill="#FCEE09" />
<rect x="40" y="100" width="4" height="4" fill="#FCEE09" />
<rect x="44" y="100" width="4" height="4" fill="#FCEE09" />
<rect x="48" y="100" width="4" height="4" fill="#FCEE09" />
<rect x="52" y="100" width="4" height="4" fill="#FCEE09" />
<rect x="56" y="100" width="4" height="4" fill="#FCEE09" />
<rect x="60" y="100" width="4" height="4" fill="#FCEE09" />
<rect x="64" y="100" width="4" height="4" fill="#FCEE09" />
<rect x="68" y="100" width="4" height="4" fill="#FCEE09" />
<rect x="72" y="100" width="4" height="4" fill="#FCEE09" />
<rect x="96" y="100" width="4" height="4" fill="#FCEE09" />
<rect x="100" y="100" width="4" height="4" fill="#FCEE09" />
<rect x="124" y="100" width="4" height="4" fill="#FCEE09" />
<rect x="128" y="100" width="4" height="4" fill="#FCEE09" />
<rect x="132" y="100" width="4" height="4" fill="#FCEE09" />
<rect x="136" y="100" width="4" height="4" fill="#FCEE09" />
<rect x="140" y="100" width="4" height="4" fill="#FCEE09" />
<rect x="144" y="100" width="4" height="4" fill="#FCEE09" />
<rect x="148" y="100" width="4" height="4" fill="#FCEE09" />
<rect x="152" y="100" width="4" height="4" fill="#FCEE09" />
<rect x="156" y="100" width="4" height="4" fill="#FCEE09" />
<rect x="160" y="100" width="4" height="4" fill="#FCEE09" />
<rect x="164" y="100" width="4" height="4" fill="#FCEE09" />
<rect x="168" y="100" width="4" height="4" fill="#FCEE09" />
<rect x="172" y="100" width="4" height="4" fill="#FCEE09" />
<rect x="176" y="100" width="4" height="4" fill="#FCEE09" />
<rect x="180" y="100" width="4" height="4" fill="#FCEE09" />
<rect x="184" y="100" width="4" height="4" fill="#FCEE09" />
<rect x="188" y="100" width="4" height="4" fill="#FCEE09" />
<rect x="192" y="100" width="4" height="4" fill="#FCEE09" />
<rect x="196" y="100" width="4" height="4" fill="#FCEE09" />
<rect x="60" y="104" width="4" height="4" fill="#FCEE09" />
<rect x="64" y="104" width="4" height="4" fill="#FCEE09" />
<rect x="68" y="104" width="4" height="4" fill="#FCEE09" />
<rect x="128" y="104" width="4" height="4" fill="#FCEE09" />
<rect x="132" y="104" width="4" height="4" fill="#FCEE09" />
<rect x="136" y="104" width="4" height="4" fill="#FCEE09" />
<rect x="56" y="108" width="4" height="4" fill="#FCEE09" />
<rect x="60" y="108" width="4" height="4" fill="#FCEE09" />
<rect x="64" y="108" width="4" height="4" fill="#FCEE09" />
<rect x="132" y="108" width="4" height="4" fill="#FCEE09" />
<rect x="136" y="108" width="4" height="4" fill="#FCEE09" />
<rect x="140" y="108" width="4" height="4" fill="#FCEE09" />
<rect x="52" y="112" width="4" height="4" fill="#FCEE09" />
<rect x="56" y="112" width="4" height="4" fill="#FCEE09" />
<rect x="60" y="112" width="4" height="4" fill="#FCEE09" />
<rect x="136" y="112" width="4" height="4" fill="#FCEE09" />
<rect x="140" y="112" width="4" height="4" fill="#FCEE09" />
<rect x="144" y="112" width="4" height="4" fill="#FCEE09" />
<rect x="48" y="116" width="4" height="4" fill="#FCEE09" />
<rect x="52" y="116" width="4" height="4" fill="#FCEE09" />
<rect x="56" y="116" width="4" height="4" fill="#FCEE09" />
<rect x="140" y="116" width="4" height="4" fill="#FCEE09" />
<rect x="144" y="116" width="4" height="4" fill="#FCEE09" />
<rect x="148" y="116" width="4" height="4" fill="#FCEE09" />
<rect x="44" y="120" width="4" height="4" fill="#FCEE09" />
<rect x="48" y="120" width="4" height="4" fill="#FCEE09" />
<rect x="52" y="120" width="4" height="4" fill="#FCEE09" />
<rect x="144" y="120" width="4" height="4" fill="#FCEE09" />
<rect x="148" y="120" width="4" height="4" fill="#FCEE09" />
<rect x="152" y="120" width="4" height="4" fill="#FCEE09" />
<rect x="44" y="124" width="4" height="4" fill="#FCEE09" />
<rect x="48" y="124" width="4" height="4" fill="#FCEE09" />
<rect x="96" y="124" width="4" height="4" fill="#FCEE09" />
<rect x="100" y="124" width="4" height="4" fill="#FCEE09" />
<rect x="148" y="124" width="4" height="4" fill="#FCEE09" />
<rect x="152" y="124" width="4" height="4" fill="#FCEE09" />
<rect x="92" y="128" width="4" height="4" fill="#FCEE09" />
<rect x="96" y="128" width="4" height="4" fill="#FCEE09" />
<rect x="100" y="128" width="4" height="4" fill="#FCEE09" />
<rect x="104" y="128" width="4" height="4" fill="#FCEE09" />
<rect x="88" y="132" width="4" height="4" fill="#FCEE09" />
<rect x="92" y="132" width="4" height="4" fill="#FCEE09" />
<rect x="96" y="132" width="4" height="4" fill="#FCEE09" />
<rect x="100" y="132" width="4" height="4" fill="#FCEE09" />
<rect x="104" y="132" width="4" height="4" fill="#FCEE09" />
<rect x="108" y="132" width="4" height="4" fill="#FCEE09" />
<rect x="84" y="136" width="4" height="4" fill="#FCEE09" />
<rect x="88" y="136" width="4" height="4" fill="#FCEE09" />
<rect x="92" y="136" width="4" height="4" fill="#FCEE09" />
<rect x="96" y="136" width="4" height="4" fill="#FCEE09" />
<rect x="100" y="136" width="4" height="4" fill="#FCEE09" />
<rect x="104" y="136" width="4" height="4" fill="#FCEE09" />
<rect x="108" y="136" width="4" height="4" fill="#FCEE09" />
<rect x="112" y="136" width="4" height="4" fill="#FCEE09" />
<rect x="80" y="140" width="4" height="4" fill="#FCEE09" />
<rect x="84" y="140" width="4" height="4" fill="#FCEE09" />
<rect x="88" y="140" width="4" height="4" fill="#FCEE09" />
<rect x="96" y="140" width="4" height="4" fill="#FCEE09" />
<rect x="100" y="140" width="4" height="4" fill="#FCEE09" />
<rect x="108" y="140" width="4" height="4" fill="#FCEE09" />
<rect x="112" y="140" width="4" height="4" fill="#FCEE09" />
<rect x="116" y="140" width="4" height="4" fill="#FCEE09" />
<rect x="76" y="144" width="4" height="4" fill="#FCEE09" />
<rect x="80" y="144" width="4" height="4" fill="#FCEE09" />
<rect x="84" y="144" width="4" height="4" fill="#FCEE09" />
<rect x="96" y="144" width="4" height="4" fill="#FCEE09" />
<rect x="100" y="144" width="4" height="4" fill="#FCEE09" />
<rect x="112" y="144" width="4" height="4" fill="#FCEE09" />
<rect x="116" y="144" width="4" height="4" fill="#FCEE09" />
<rect x="120" y="144" width="4" height="4" fill="#FCEE09" />
<rect x="72" y="148" width="4" height="4" fill="#FCEE09" />
<rect x="76" y="148" width="4" height="4" fill="#FCEE09" />
<rect x="80" y="148" width="4" height="4" fill="#FCEE09" />
<rect x="96" y="148" width="4" height="4" fill="#FCEE09" />
<rect x="100" y="148" width="4" height="4" fill="#FCEE09" />
<rect x="116" y="148" width="4" height="4" fill="#FCEE09" />
<rect x="120" y="148" width="4" height="4" fill="#FCEE09" />
<rect x="124" y="148" width="4" height="4" fill="#FCEE09" />
<rect x="72" y="152" width="4" height="4" fill="#FCEE09" />
<rect x="76" y="152" width="4" height="4" fill="#FCEE09" />
<rect x="96" y="152" width="4" height="4" fill="#FCEE09" />
<rect x="100" y="152" width="4" height="4" fill="#FCEE09" />
<rect x="120" y="152" width="4" height="4" fill="#FCEE09" />
<rect x="124" y="152" width="4" height="4" fill="#FCEE09" />
<rect x="96" y="156" width="4" height="4" fill="#FCEE09" />
<rect x="100" y="156" width="4" height="4" fill="#FCEE09" />
<rect x="96" y="160" width="4" height="4" fill="#FCEE09" />
<rect x="100" y="160" width="4" height="4" fill="#FCEE09" />
<rect x="96" y="164" width="4" height="4" fill="#FCEE09" />
<rect x="100" y="164" width="4" height="4" fill="#FCEE09" />
<rect x="96" y="168" width="4" height="4" fill="#FCEE09" />
<rect x="100" y="168" width="4" height="4" fill="#FCEE09" />
<rect x="96" y="172" width="4" height="4" fill="#FCEE09" />
<rect x="100" y="172" width="4" height="4" fill="#FCEE09" />
<rect x="96" y="176" width="4" height="4" fill="#FCEE09" />
<rect x="100" y="176" width="4" height="4" fill="#FCEE09" />
<rect x="96" y="180" width="4" height="4" fill="#FCEE09" />
<rect x="100" y="180" width="4" height="4" fill="#FCEE09" />
<rect x="96" y="184" width="4" height="4" fill="#FCEE09" />
<rect x="100" y="184" width="4" height="4" fill="#FCEE09" />
<rect x="96" y="188" width="4" height="4" fill="#FCEE09" />
<rect x="100" y="188" width="4" height="4" fill="#FCEE09" />
<rect x="96" y="192" width="4" height="4" fill="#FCEE09" />
<rect x="100" y="192" width="4" height="4" fill="#FCEE09" />
<rect x="96" y="196" width="4" height="4" fill="#FCEE09" />
<rect x="100" y="196" width="4" height="4" fill="#FCEE09" />
</svg>