<?xml version="1.0" encoding="UTF-8" ?>
<svg version="1.1" width="200" height="200" xmlns="http://www.w3.org/2000/svg" shape-rendering="crispEdges">
<rect x="4" y="80" width="4" height="4" fill="#FCEE09" />
<rect x="8" y="80" width="4" height="4" fill="#FCEE09" />
<rect x="12" y="80" width="4" height="4" fill="#FCEE09" />
<rect x="16" y="80" width="4" height="4" fill="#FCEE09" />
<rect x="20" y="80" width="4" height="4" fill="#FCEE09" />
<rect x="24" y="80" width="4" height="4" fill="#FCEE09" />
<rect x="28" y="80" width="4" height="4" fill="#FCEE09" />
<rect x="32" y="80" width="4" height="4" fill="#FCEE09" />
<rect x="36" y="80" width="4" height="4" fill="#FCEE09" />
<rect x="40" y="80" width="4" height="4" fill="#FCEE09" />
<rect x="44" y="80" width="4" height="4" fill="#FCEE09" />
<rect x="48" y="80" width="4" height="4" fill="#FCEE09" />
<rect x="52" y="80" width="4" height="4" fill="#FCEE09" />
<rect x="56" y="80" width="4" height="4" fill="#FCEE09" />
<rect x="60" y="80" width="4" height="4" fill="#FCEE09" />
<rect x="64" y="80" width="4" height="4" fill="#FCEE09" />
<rect x="68" y="80" width="4" height="4" fill="#FCEE09" />
<rect x="72" y="80" width="4" height="4" fill="#FCEE09" />
<rect x="76" y="80" width="4" height="4" fill="#FCEE09" />
<rect x="80" y="80" width="4" height="4" fill="#FCEE09" />
<rect x="84" y="80" width="4" height="4" fill="#FCEE09" />
<rect x="88" y="80" width="4" height="4" fill="#FCEE09" />
<rect x="92" y="80" width="4" height="4" fill="#FCEE09" />
<rect x="96" y="80" width="4" height="4" fill="#FCEE09" />
<rect x="100" y="80" width="4" height="4" fill="#FCEE09" />
<rect x="104" y="80" width="4" height="4" fill="#FCEE09" />
<rect x="108" y="80" width="4" height="4" fill="#FCEE09" />
<rect x="112" y="80" width="4" height="4" fill="#FCEE09" />
<rect x="116" y="80" width="4" height="4" fill="#FCEE09" />
<rect x="120" y="80" width="4" height="4" fill="#FCEE09" />
<rect x="124" y="80" width="4" height="4" fill="#FCEE09" />
<rect x="128" y="80" width="4" height="4" fill="#FCEE09" />
<rect x="132" y="80" width="4" height="4" fill="#FCEE09" />
<rect x="136" y="80" width="4" height="4" fill="#FCEE09" />
<rect x="140" y="80" width="4" height="4" fill="#FCEE09" />
<rect x="144" y="80" width="4" height="4" fill="#FCEE09" />
<rect x="148" y="80" width="4" height="4" fill="#FCEE09" />
<rect x="152" y="80" width="4" height="4" fill="#FCEE09" />
<rect x="156" y="80" width="4" height="4" fill="#FCEE09" />
<rect x="160" y="80" width="4" height="4" fill="#FCEE09" />
<rect x="164" y="80" width="4" height="4" fill="#FCEE09" />
<rect x="168" y="80" width="4" height="4" fill="#FCEE09" />
<rect x="172" y="80" width="4" height="4" fill="#FCEE09" />
<rect x="176" y="80" width="4" height="4" fill="#FCEE09" />
<rect x="180" y="80" width="4" height="4" fill="#FCEE09" />
<rect x="184" y="80" width="4" height="4" fill="#FCEE09" />
<rect x="188" y="80" width="4" height="4" fill="#FCEE09" />
<rect x="192" y="80" width="4" height="4" fill="#FCEE09" />
<rect x="4" y="84" width="4" height="4" fill="#FCEE09" />
<rect x="8" y="84" width="4" height="4" fill="#FCEE09" />
<rect x="12" y="84" width="4" height="4" fill="#FCEE09" />
<rect x="16" y="84" width="4" height="4" fill="#FCEE09" />
<rect x="20" y="84" width="4" height="4" fill="#FCEE09" />
<rect x="24" y="84" width="4" height="4" fill="#FCEE09" />
<rect x="28" y="84" width="4" height="4" fill="#FCEE09" />
<rect x="32" y="84" width="4" height="4" fill="#FCEE09" />
<rect x="36" y="84" width="4" height="4" fill="#FCEE09" />
<rect x="40" y="84" width="4" height="4" fill="#FCEE09" />
<rect x="44" y="84" width="4" height="4" fill="#FCEE09" />
<rect x="48" y="84" width="4" height="4" fill="#FCEE09" />
<rect x="52" y="84" width="4" height="4" fill="#FCEE09" />
<rect x="56" y="84" width="4" height="4" fill="#FCEE09" />
<rect x="60" y="84" width="4" height="4" fill="#FCEE09" />
<rect x="64" y="84" width="4" height="4" fill="#FCEE09" />
<rect x="68" y="84" width="4" height="4" fill="#FCEE09" />
<rect x="72" y="84" width="4" height="4" fill="#FCEE09" />
<rect x="76" y="84" width="4" height="4" fill="#FCEE09" />
<rect x="80" y="84" width="4" height="4" fill="#FCEE09" />
<rect x="84" y="84" width="4" height="4" fill="#FCEE09" />
<rect x="88" y="84" width="4" height="4" fill="#FCEE09" />
<rect x="92" y="84" width="4" height="4" fill="#FCEE09" />
<rect x="96" y="84" width="4" height="4" fill="#FCEE09" />
<rect x="100" y="84" width="4" height="4" fill="#FCEE09" />
<rect x="104" y="84" width="4" height="4" fill="#FCEE09" />
<rect x="108" y="84" width="4" height="4" fill="#FCEE09" />
<rect x="112" y="84" width="4" height="4" fill="#FCEE09" />
<rect x="116" y="84" width="4" height="4" fill="#FCEE09" />
<rect x="120" y="84" width="4" height="4" fill="#FCEE09" />
<rect x="124" y="84" width="4" height="4" fill="#FCEE09" />
<rect x="128" y="84" width="4" height="4" fill="#FCEE09" />
<rect x="132" y="84" width="4" height="4" fill="#FCEE09" />
<rect x="136" y="84" width="4" height="4" fill="#FCEE09" />
<rect x="140" y="84" width="4" height="4" fill="#FCEE09" />
<rect x="144" y="84" width="4" height="4" fill="#FCEE09" />
<rect x="148" y="84" width="4" height="4" fill="#FCEE09" />
<rect x="152" y="84" width="4" height="4" fill="#FCEE09" />
<rect x="156" y="84" width="4" height="4" fill="#FCEE09" />
<rect x="160" y="84" width="4" height="4" fill="#FCEE09" />
<rect x="164" y="84" width="4" height="4" fill="#FCEE09" />
<rect x="168" y="84" width="4" height="4" fill="#FCEE09" />
<rect x="172" y="84" width="4" height="4" fill="#FCEE09" />
<rect x="176" y="84" width="4" height="4" fill="#FCEE09" />
<rect x="180" y="84" width="4" height="4" fill="#FCEE09" />
<rect x="184" y="84" width="4" height="4" fill="#FCEE09" />
<rect x="188" y="84" width="4" height="4" fill="#FCEE09" />
<rect x="192" y="84" width="4" height="4" fill="#FCEE09" />
<rect x="0" y="88" width="4" height="4" fill="#FCEE09" />
<rect x="4" y="88" width="4" height="4" fill="#FCEE09" />
<rect x="8" y="88" width="4" height="4" fill="#FCEE09" />
<rect x="12" y="88" width="4" height="4" fill="#FCEE09" />
<rect x="16" y="88" width="4" height="4" fill="#FCEE09" />
<rect x="20" y="88" width="4" height="4" fill="#FCEE09" />
<rect x="24" y="88" width="4" height="4" fill="#FCEE09" />
<rect x="28" y="88" width="4" height="4" fill="#FCEE09" />
<rect x="32" y="88" width="4" height="4" fill="#FCEE09" />
<rect x="36" y="88" width="4" height="4" fill="#FCEE09" />
<rect x="40" y="88" width="4" height="4" fill="#FCEE09" />
<rect x="44" y="88" width="4" height="4" fill="#FCEE09" />
<rect x="48" y="88" width="4" height="4" fill="#FCEE09" />
<rect x="52" y="88" width="4" height="4" fill="#FCEE09" />
<rect x="56" y="88" width="4" height="4" fill="#FCEE09" />
<rect x="60" y="88" width="4" height="4" fill="#FCEE09" />
<rect x="64" y="88" width="4" height="4" fill="#FCEE09" />
<rect x="68" y="88" width="4" height="4" fill="#FCEE09" />
<rect x="72" y="88" width="4" height="4" fill="#FCEE09" />
<rect x="76" y="88" width="4" height="4" fill="#FCEE09" />
<rect x="80" y="88" width="4" height="4" fill="#FCEE09" />
<rect x="84" y="88" width="4" height="4" fill="#FCEE09" />
<rect x="88" y="88" width="4" height="4" fill="#FCEE09" />
<rect x="92" y="88" width="4" height="4" fill="#FCEE09" />
<rect x="96" y="88" width="4" height="4" fill="#FCEE09" />
<rect x="100" y="88" width="4" height="4" fill="#FCEE09" />
<rect x="104" y="88" width="4" height="4" fill="#FCEE09" />
<rect x="108" y="88" width="4" height="4" fill="#FCEE09" />
<rect x="112" y="88" width="4" height="4" fill="#FCEE09" />
<rect x="116" y="88" width="4" height="4" fill="#FCEE09" />
<rect x="120" y="88" width="4" height="4" fill="#FCEE09" />
<rect x="124" y="88" width="4" height="4" fill="#FCEE09" />
<rect x="128" y="88" width="4" height="4" fill="#FCEE09" />
<rect x="132" y="88" width="4" height="4" fill="#FCEE09" />
<rect x="136" y="88" width="4" height="4" fill="#FCEE09" />
<rect x="140" y="88" width="4" height="4" fill="#FCEE09" />
<rect x="144" y="88" width="4" height="4" fill="#FCEE09" />
<rect x="148" y="88" width="4" height="4" fill="#FCEE09" />
<rect x="152" y="88" width="4" height="4" fill="#FCEE09" />
<rect x="156" y="88" width="4" height="4" fill="#FCEE09" />
<rect x="160" y="88" width="4" height="4" fill="#FCEE09" />
<rect x="164" y="88" width="4" height="4" fill="#FCEE09" />
<rect x="168" y="88" width="4" height="4" fill="#FCEE09" />
<rect x="172" y="88" width="4" height="4" fill="#FCEE09" />
<rect x="176" y="88" width="4" height="4" fill="#FCEE09" />
<rect x="180" y="88" width="4" height="4" fill="#FCEE09" />
<rect x="184" y="88" width="4" height="4" fill="#FCEE09" />
<rect x="188" y="88" width="4" height="4" fill="#FCEE09" />
<rect x="192" y="88" width="4" height="4" fill="#FCEE09" />
<rect x="196" y="88" width="4" height="4" fill="#FCEE09" />
<rect x="0" y="92" width="4" height="4" fill="#FCEE09" />
<rect x="4" y="92" width="4" height="4" fill="#FCEE09" />
<rect x="8" y="92" width="4" height="4" fill="#FCEE09" />
<rect x="12" y="92" width="4" height="4" fill="#FCEE09" />
<rect x="16" y="92" width="4" height="4" fill="#FCEE09" />
<rect x="20" y="92" width="4" height="4" fill="#FCEE09" />
<rect x="24" y="92" width="4" height="4" fill="#FCEE09" />
<rect x="28" y="92" width="4" height="4" fill="#FCEE09" />
<rect x="32" y="92" width="4" height="4" fill="#FCEE09" />
<rect x="36" y="92" width="4" height="4" fill="#FCEE09" />
<rect x="40" y="92" width="4" height="4" fill="#FCEE09" />
<rect x="44" y="92" width="4" height="4" fill="#FCEE09" />
<rect x="48" y="92" width="4" height="4" fill="#FCEE09" />
<rect x="52" y="92" width="4" height="4" fill="#FCEE09" />
<rect x="56" y="92" width="4" height="4" fill="#FCEE09" />
<rect x="60" y="92" width="4" height="4" fill="#FCEE09" />
<rect x="64" y="92" width="4" height="4" fill="#FCEE09" />
<rect x="68" y="92" width="4" height="4" fill="#FCEE09" />
<rect x="72" y="92" width="4" height="4" fill="#FCEE09" />
<rect x="76" y="92" width="4" height="4" fill="#FCEE09" />
<rect x="80" y="92" width="4" height="4" fill="#FCEE09" />
<rect x="84" y="92" width="4" height="4" fill="#FCEE09" />
<rect x="88" y="92" width="4" height="4" fill="#FCEE09" />
<rect x="92" y="92" width="4" height="4" fill="#FCEE09" />
<rect x="96" y="92" width="4" height="4" fill="#FCEE09" />
<rect x="100" y="92" width="4" height="4" fill="#FCEE09" />
<rect x="104" y="92" width="4" height="4" fill="#FCEE09" />
<rect x="108" y="92" width="4" height="4" fill="#FCEE09" />
<rect x="112" y="92" width="4" height="4" fill="#FCEE09" />
<rect x="116" y="92" width="4" height="4" fill="#FCEE09" />
<rect x="120" y="92" width="4" height="4" fill="#FCEE09" />
<rect x="124" y="92" width="4" height="4" fill="#FCEE09" />
<rect x="128" y="92" width="4" height="4" fill="#FCEE09" />
<rect x="132" y="92" width="4" height="4" fill="#FCEE09" />
<rect x="136" y="92" width="4" height="4" fill="#FCEE09" />
<rect x="140" y="92" width="4" height="4" fill="#FCEE09" />
<rect x="144" y="92" width="4" height="4" fill="#FCEE09" />
<rect x="148" y="92" width="4" height="4" fill="#FCEE09" />
<rect x="152" y="92" width="4" height="4" fill="#FCEE09" />
<rect x="156" y="92" width="4" height="4" fill="#FCEE09" />
<rect x="160" y="92" width="4" height="4" fill="#FCEE09" />
<rect x="164" y="92" width="4" height="4" fill="#FCEE09" />
<rect x="168" y="92" width="4" height="4" fill="#FCEE09" />
<rect x="172" y="92" width="4" height="4" fill="#FCEE09" />
<rect x="176" y="92" width="4" height="4" fill="#FCEE09" />
<rect x="180" y="92" width="4" height="4" fill="#FCEE09" />
<rect x="184" y="92" width="4" height="4" fill="#FCEE09" />
<rect x="188" y="92" width="4" height="4" fill="#FCEE09" />
<rect x="192" y="92" width="4" height="4" fill="#FCEE09" />
<rect x="196" y="92" width="4" height="4" fill="#FCEE09" />
<rect x="0" y="96" width="4" height="4" fill="#FCEE09" />
<rect x="4" y="96" width="4" height="4" fill="#FCEE09" />
<rect x="8" y="96" width="4" height="4" fill="#FCEE09" />
<rect x="12" y="96" width="4" height="4" fill="#FCEE09" />
<rect x="16" y="96" width="4" height="4" fill="#FCEE09" />
<rect x="20" y="96" width="4" height="4" fill="#FCEE09" />
<rect x="24" y="96" width="4" height="4" fill="#FCEE09" />
<rect x="28" y="96" width="4" height="4" fill="#FCEE09" />
<rect x="32" y="96" width="4" height="4" fill="#FCEE09" />
<rect x="36" y="96" width="4" height="4" fill="#FCEE09" />
<rect x="40" y="96" width="4" height="4" fill="#FCEE09" />
<rect x="44" y="96" width="4" height="4" fill="#FCEE09" />
<rect x="48" y="96" width="4" height="4" fill="#FCEE09" />
<rect x="52" y="96" width="4" height="4" fill="#FCEE09" />
<rect x="56" y="96" width="4" height="4" fill="#FCEE09" />
<rect x="60" y="96" width="4" height="4" fill="#FCEE09" />
<rect x="64" y="96" width="4" height="4" fill="#FCEE09" />
<rect x="68" y="96" width="4" height="4" fill="#FCEE09" />
<rect x="72" y="96" width="4" height="4" fill="#FCEE09" />
<rect x="76" y="96" width="4" height="4" fill="#FCEE09" />
<rect x="80" y="96" width="4" height="4" fill="#FCEE09" />
<rect x="84" y="96" width="4" height="4" fill="#FCEE09" />
<rect x="88" y="96" width="4" height="4" fill="#FCEE09" />
<rect x="92" y="96" width="4" height="4" fill="#FCEE09" />
<rect x="96" y="96" width="4" height="4" fill="#FCEE09" />
<rect x="100" y="96" width="4" height="4" fill="#FCEE09" />
<rect x="104" y="96" width="4" height="4" fill="#FCEE09" />
<rect x="108" y="96" width="4" height="4" fill="#FCEE09" />
<rect x="112" y="96" width="4" height="4" fill="#FCEE09" />
<rect x="116" y="96" width="4" height="4" fill="#FCEE09" />
<rect x="120" y="96" width="4" height="4" fill="#FCEE09" />
<rect x="124" y="96" width="4" height="4" fill="#FCEE09" />
<rect x="128" y="96" width="4" height="4" fill="#FCEE09" />
<rect x="132" y="96" width="4" height="4" fill="#FCEE09" />
<rect x="136" y="96" width="4" height="4" fill="#FCEE09" />
<rect x="140" y="96" width="4" height="4" fill="#FCEE09" />
<rect x="144" y="96" width="4" height="4" fill="#FCEE09" />
<rect x="148" y="96" width="4" height="4" fill="#FCEE09" />
<rect x="152" y="96" width="4" height="4" fill="#FCEE09" />
<rect x="156" y="96" width="4" height="4" fill="#FCEE09" />
<rect x="160" y="96" width="4" height="4" fill="#FCEE09" />
<rect x="164" y="96" width="4" height="4" fill="#FCEE09" />
<rect x="168" y="96" width="4" height="4" fill="#FCEE09" />
<rect x="172" y="96" width="4" height="4" fill="#FCEE09" />
<rect x="176" y="96" width="4" height="4" fill="#FCEE09" />
<rect x="180" y="96" width="4" height="4" fill="#FCEE09" />
<rect x="184" y="96" width="4" height="4" fill="#FCEE09" />
<rect x="188" y="96" width="4" height="4" fill="#FCEE09" />
<rect x="192" y="96" width="4" height="4" fill="#FCEE09" />
<rect x="196" y="96" width="4" height="4" fill="#FCEE09" />
<rect x="0" y="100" width="4" height="4" fill="#FCEE09" />
<rect x="4" y="100" width="4" height="4" fill="#FCEE09" />
<rect x="8" y="100" width="4" height="4" fill="#FCEE09" />
<rect x="12" y="100" width="4" height="4" fill="#FCEE09" />
<rect x="16" y="100" width="4" height="4" fill="#FCEE09" />
<rect x="20" y="100" width="4" height="4" fill="#FCEE09" />
<rect x="24" y="100" width="4" height="4" fill="#FCEE09" />
<rect x="28" y="100" width="4" height="4" fill="#FCEE09" />
<rect x="32" y="100" width="4" height="4" fill="#FCEE09" />
<rect x="36" y="100" width="4" height="4" fill="#FCEE09" />
<rect x="40" y="100" width="4" height="4" fill="#FCEE09" />
<rect x="44" y="100" width="4" height="4" fill="#FCEE09" />
<rect x="48" y="100" width="4" height="4" fill="#FCEE09" />
<rect x="52" y="100" width="4" height="4" fill="#FCEE09" />
<rect x="56" y="100" width="4" height="4" fill="#FCEE09" />
<rect x="60" y="100" width="4" height="4" fill="#FCEE09" />
<rect x="64" y="100" width="4" height="4" fill="#FCEE09" />
<rect x="68" y="100" width="4" height="4" fill="#FCEE09" />
<rect x="72" y="100" width="4" height="4" fill="#FCEE09" />
<rect x="76" y="100" width="4" height="4" fill="#FCEE09" />
<rect x="80" y="100" width="4" height="4" fill="#FCEE09" />
<rect x="84" y="100" width="4" height="4" fill="#FCEE09" />
<rect x="88" y="100" width="4" height="4" fill="#FCEE09" />
<rect x="92" y="100" width="4" height="4" fill="#FCEE09" />
<rect x="96" y="100" width="4" height="4" fill="#FCEE09" />
<rect x="100" y="100" width="4" height="4" fill="#FCEE09" />
<rect x="104" y="100" width="4" height="4" fill="#FCEE09" />
<rect x="108" y="100" width="4" height="4" fill="#FCEE09" />
<rect x="112" y="100" width="4" height="4" fill="#FCEE09" />
<rect x="116" y="100" width="4" height="4" fill="#FCEE09" />
<rect x="120" y="100" width="4" height="4" fill="#FCEE09" />
<rect x="124" y="100" width="4" height="4" fill="#FCEE09" />
<rect x="128" y="100" width="4" height="4" fill="#FCEE09" />
<rect x="132" y="100" width="4" height="4" fill="#FCEE09" />
<rect x="136" y="100" width="4" height="4" fill="#FCEE09" />
<rect x="140" y="100" width="4" height="4" fill="#FCEE09" />
<rect x="144" y="100" width="4" height="4" fill="#FCEE09" />
<rect x="148" y="100" width="4" height="4" fill="#FCEE09" />
<rect x="152" y="100" width="4" height="4" fill="#FCEE09" />
<rect x="156" y="100" width="4" height="4" fill="#FCEE09" />
<rect x="160" y="100" width="4" height="4" fill="#FCEE09" />
<rect x="164" y="100" width="4" height="4" fill="#FCEE09" />
<rect x="168" y="100" width="4" height="4" fill="#FCEE09" />
<rect x="172" y="100" width="4" height="4" fill="#FCEE09" />
<rect x="176" y="100" width="4" height="4" fill="#FCEE09" />
<rect x="180" y="100" width="4" height="4" fill="#FCEE09" />
<rect x="184" y="100" width="4" height="4" fill="#FCEE09" />
<rect x="188" y="100" width="4" height="4" fill="#FCEE09" />
<rect x="192" y="100" width="4" height="4" fill="#FCEE09" />
<rect x="196" y="100" width="4" height="4" fill="#FCEE09" />
<rect x="0" y="104" width="4" height="4" fill="#FCEE09" />
<rect x="4" y="104" width="4" height="4" fill="#FCEE09" />
<rect x="8" y="104" width="4" height="4" fill="#FCEE09" />
<rect x="12" y="104" width="4" height="4" fill="#FCEE09" />
<rect x="16" y="104" width="4" height="4" fill="#FCEE09" />
<rect x="20" y="104" width="4" height="4" fill="#FCEE09" />
<rect x="24" y="104" width="4" height="4" fill="#FCEE09" />
<rect x="28" y="104" width="4" height="4" fill="#FCEE09" />
<rect x="32" y="104" width="4" height="4" fill="#FCEE09" />
<rect x="36" y="104" width="4" height="4" fill="#FCEE09" />
<rect x="40" y="104" width="4" height="4" fill="#FCEE09" />
<rect x="44" y="104" width="4" height="4" fill="#FCEE09" />
<rect x="48" y="104" width="4" height="4" fill="#FCEE09" />
<rect x="52" y="104" width="4" height="4" fill="#FCEE09" />
<rect x="56" y="104" width="4" height="4" fill="#FCEE09" />
<rect x="60" y="104" width="4" height="4" fill="#FCEE09" />
<rect x="64" y="104" width="4" height="4" fill="#FCEE09" />
<rect x="68" y="104" width="4" height="4" fill="#FCEE09" />
<rect x="72" y="104" width="4" height="4" fill="#FCEE09" />
<rect x="76" y="104" width="4" height="4" fill="#FCEE09" />
<rect x="80" y="104" width="4" height="4" fill="#FCEE09" />
<rect x="84" y="104" width="4" height="4" fill="#FCEE09" />
<rect x="88" y="104" width="4" height="4" fill="#FCEE09" />
<rect x="92" y="104" width="4" height="4" fill="#FCEE09" />
<rect x="96" y="104" width="4" height="4" fill="#FCEE09" />
<rect x="100" y="104" width="4" height="4" fill="#FCEE09" />
<rect x="104" y="104" width="4" height="4" fill="#FCEE09" />
<rect x="108" y="104" width="4" height="4" fill="#FCEE09" />
<rect x="112" y="104" width="4" height="4" fill="#FCEE09" />
<rect x="116" y="104" width="4" height="4" fill="#FCEE09" />
<rect x="120" y="104" width="4" height="4" fill="#FCEE09" />
<rect x="124" y="104" width="4" height="4" fill="#FCEE09" />
<rect x="128" y="104" width="4" height="4" fill="#FCEE09" />
<rect x="132" y="104" width="4" height="4" fill="#FCEE09" />
<rect x="136" y="104" width="4" height="4" fill="#FCEE09" />
<rect x="140" y="104" width="4" height="4" fill="#FCEE09" />
<rect x="144" y="104" width="4" height="4" fill="#FCEE09" />
<rect x="148" y="104" width="4" height="4" fill="#FCEE09" />
<rect x="152" y="104" width="4" height="4" fill="#FCEE09" />
<rect x="156" y="104" width="4" height="4" fill="#FCEE09" />
<rect x="160" y="104" width="4" height="4" fill="#FCEE09" />
<rect x="164" y="104" width="4" height="4" fill="#FCEE09" />
<rect x="168" y="104" width="4" height="4" fill="#FCEE09" />
<rect x="172" y="104" width="4" height="4" fill="#FCEE09" />
<rect x="176" y="104" width="4" height="4" fill="#FCEE09" />
<rect x="180" y="104" width="4" height="4" fill="#FCEE09" />
<rect x="184" y="104" width="4" height="4" fill="#FCEE09" />
<rect x="188" y="104" width="4" height="4" fill="#FCEE09" />
<rect x="192" y="104" width="4" height="4" fill="#FCEE09" />
<rect x="196" y="104" width="4" height="4" fill="#FCEE09" />
<rect x="0" y="108" width="4" height="4" fill="#FCEE09" />
<rect x="4" y="108" width="4" height="4" fill="#FCEE09" />
<rect x="8" y="108" width="4" height="4" fill="#FCEE09" />
<rect x="12" y="108" width="4" height="4" fill="#FCEE09" />
<rect x="16" y="108" width="4" height="4" fill="#FCEE09" />
<rect x="20" y="108" width="4" height="4" fill="#FCEE09" />
<rect x="24" y="108" width="4" height="4" fill="#FCEE09" />
<rect x="28" y="108" width="4" height="4" fill="#FCEE09" />
<rect x="32" y="108" width="4" height="4" fill="#FCEE09" />
<rect x="36" y="108" width="4" height="4" fill="#FCEE09" />
<rect x="40" y="108" width="4" height="4" fill="#FCEE09" />
<rect x="44" y="108" width="4" height="4" fill="#FCEE09" />
<rect x="48" y="108" width="4" height="4" fill="#FCEE09" />
<rect x="52" y="108" width="4" height="4" fill="#FCEE09" />
<rect x="56" y="108" width="4" height="4" fill="#FCEE09" />
<rect x="60" y="108" width="4" height="4" fill="#FCEE09" />
<rect x="64" y="108" width="4" height="4" fill="#FCEE09" />
<rect x="68" y="108" width="4" height="4" fill="#FCEE09" />
<rect x="72" y="108" width="4" height="4" fill="#FCEE09" />
<rect x="76" y="108" width="4" height="4" fill="#FCEE09" />
<rect x="80" y="108" width="4" height="4" fill="#FCEE09" />
<rect x="84" y="108" width="4" height="4" fill="#FCEE09" />
<rect x="88" y="108" width="4" height="4" fill="#FCEE09" />
<rect x="92" y="108" width="4" height="4" fill="#FCEE09" />
<rect x="96" y="108" width="4" height="4" fill="#FCEE09" />
<rect x="100" y="108" width="4" height="4" fill="#FCEE09" />
<rect x="104" y="108" width="4" height="4" fill="#FCEE09" />
<rect x="108" y="108" width="4" height="4" fill="#FCEE09" />
<rect x="112" y="108" width="4" height="4" fill="#FCEE09" />
<rect x="116" y="108" width="4" height="4" fill="#FCEE09" />
<rect x="120" y="108" width="4" height="4" fill="#FCEE09" />
<rect x="124" y="108" width="4" height="4" fill="#FCEE09" />
<rect x="128" y="108" width="4" height="4" fill="#FCEE09" />
<rect x="132" y="108" width="4" height="4" fill="#FCEE09" />
<rect x="136" y="108" width="4" height="4" fill="#FCEE09" />
<rect x="140" y="108" width="4" height="4" fill="#FCEE09" />
<rect x="144" y="108" width="4" height="4" fill="#FCEE09" />
<rect x="148" y="108" width="4" height="4" fill="#FCEE09" />
<rect x="152" y="108" width="4" height="4" fill="#FCEE09" />
<rect x="156" y="108" width="4" height="4" fill="#FCEE09" />
<rect x="160" y="108" width="4" height="4" fill="#FCEE09" />
<rect x="164" y="108" width="4" height="4" fill="#FCEE09" />
<rect x="168" y="108" width="4" height="4" fill="#FCEE09" />
<rect x="172" y="108" width="4" height="4" fill="#FCEE09" />
<rect x="176" y="108" width="4" height="4" fill="#FCEE09" />
<rect x="180" y="108" width="4" height="4" fill="#FCEE09" />
<rect x="184" y="108" width="4" height="4" fill="#FCEE09" />
<rect x="188" y="108" width="4" height="4" fill="#FCEE09" />
<rect x="192" y="108" width="4" height="4" fill="#FCEE09" />
<rect x="196" y="108" width="4" height="4" fill="#FCEE09" />
<rect x="4" y="112" width="4" height="4" fill="#FCEE09" />
<rect x="8" y="112" width="4" height="4" fill="#FCEE09" />
<rect x="12" y="112" width="4" height="4" fill="#FCEE09" />
<rect x="16" y="112" width="4" height="4" fill="#FCEE09" />
<rect x="20" y="112" width="4" height="4" fill="#FCEE09" />
<rect x="24" y="112" width="4" height="4" fill="#FCEE09" />
<rect x="28" y="112" width="4" height="4" fill="#FCEE09" />
<rect x="32" y="112" width="4" height="4" fill="#FCEE09" />
<rect x="36" y="112" width="4" height="4" fill="#FCEE09" />
<rect x="40" y="112" width="4" height="4" fill="#FCEE09" />
<rect x="44" y="112" width="4" height="4" fill="#FCEE09" />
<rect x="48" y="112" width="4" height="4" fill="#FCEE09" />
<rect x="52" y="112" width="4" height="4" fill="#FCEE09" />
<rect x="56" y="112" width="4" height="4" fill="#FCEE09" />
<rect x="60" y="112" width="4" height="4" fill="#FCEE09" />
<rect x="64" y="112" width="4" height="4" fill="#FCEE09" />
<rect x="68" y="112" width="4" height="4" fill="#FCEE09" />
<rect x="72" y="112" width="4" height="4" fill="#FCEE09" />
<rect x="76" y="112" width="4" height="4" fill="#FCEE09" />
<rect x="80" y="112" width="4" height="4" fill="#FCEE09" />
<rect x="84" y="112" width="4" height="4" fill="#FCEE09" />
<rect x="88" y="112" width="4" height="4" fill="#FCEE09" />
<rect x="92" y="112" width="4" height="4" fill="#FCEE09" />
<rect x="96" y="112" width="4" height="4" fill="#FCEE09" />
<rect x="100" y="112" width="4" height="4" fill="#FCEE09" />
<rect x="104" y="112" width="4" height="4" fill="#FCEE09" />
<rect x="108" y="112" width="4" height="4" fill="#FCEE09" />
<rect x="112" y="112" width="4" height="4" fill="#FCEE09" />
<rect x="116" y="112" width="4" height="4" fill="#FCEE09" />
<rect x="120" y="112" width="4" height="4" fill="#FCEE09" />
<rect x="124" y="112" width="4" height="4" fill="#FCEE09" />
<rect x="128" y="112" width="4" height="4" fill="#FCEE09" />
<rect x="132" y="112" width="4" height="4" fill="#FCEE09" />
<rect x="136" y="112" width="4" height="4" fill="#FCEE09" />
<rect x="140" y="112" width="4" height="4" fill="#FCEE09" />
<rect x="144" y="112" width="4" height="4" fill="#FCEE09" />
<rect x="148" y="112" width="4" height="4" fill="#FCEE09" />
<rect x="152" y="112" width="4" height="4" fill="#FCEE09" />
<rect x="156" y="112" width="4" height="4" fill="#FCEE09" />
<rect x="160" y="112" width="4" height="4" fill="#FCEE09" />
<rect x="164" y="112" width="4" height="4" fill="#FCEE09" />
<rect x="168" y="112" width="4" height="4" fill="#FCEE09" />
<rect x="172" y="112" width="4" height="4" fill="#FCEE09" />
<rect x="176" y="112" width="4" height="4" fill="#FCEE09" />
<rect x="180" y="112" width="4" height="4" fill="#FCEE09" />
<rect x="184" y="112" width="4" height="4" fill="#FCEE09" />
<rect x="188" y="112" width="4" height="4" fill="#FCEE09" />
<rect x="192" y="112" width="4" height="4" fill="#FCEE09" />
<rect x="4" y="116" width="4" height="4" fill="#FCEE09" />
<rect x="8" y="116" width="4" height="4" fill="#FCEE09" />
<rect x="12" y="116" width="4" height="4" fill="#FCEE09" />
<rect x="16" y="116" width="4" height="4" fill="#FCEE09" />
<rect x="20" y="116" width="4" height="4" fill="#FCEE09" />
<rect x="24" y="116" width="4" height="4" fill="#FCEE09" />
<rect x="28" y="116" width="4" height="4" fill="#FCEE09" />
<rect x="32" y="116" width="4" height="4" fill="#FCEE09" />
<rect x="36" y="116" width="4" height="4" fill="#FCEE09" />
<rect x="40" y="116" width="4" height="4" fill="#FCEE09" />
<rect x="44" y="116" width="4" height="4" fill="#FCEE09" />
<rect x="48" y="116" width="4" height="4" fill="#FCEE09" />
<rect x="52" y="116" width="4" height="4" fill="#FCEE09" />
<rect x="56" y="116" width="4" height="4" fill="#FCEE09" />
<rect x="60" y="116" width="4" height="4" fill="#FCEE09" />
<rect x="64" y="116" width="4" height="4" fill="#FCEE09" />
<rect x="68" y="116" width="4" height="4" fill="#FCEE09" />
<rect x="72" y="116" width="4" height="4" fill="#FCEE09" />
<rect x="76" y="116" width="4" height="4" fill="#FCEE09" />
<rect x="80" y="116" width="4" height="4" fill="#FCEE09" />
<rect x="84" y="116" width="4" height="4" fill="#FCEE09" />
<rect x="88" y="116" width="4" height="4" fill="#FCEE09" />
<rect x="92" y="116" width="4" height="4" fill="#FCEE09" />
<rect x="96" y="116" width="4" height="4" fill="#FCEE09" />
<rect x="100" y="116" width="4" height="4" fill="#FCEE09" />
<rect x="104" y="116" width="4" height="4" fill="#FCEE09" />
<rect x="108" y="116" width="4" height="4" fill="#FCEE09" />
<rect x="112" y="116" width="4" height="4" fill="#FCEE09" />
<rect x="116" y="116" width="4" height="4" fill="#FCEE09" />
<rect x="120" y="116" width="4" height="4" fill="#FCEE09" />
<rect x="124" y="116" width="4" height="4" fill="#FCEE09" />
<rect x="128" y="116" width="4" height="4" fill="#FCEE09" />
<rect x="132" y="116" width="4" height="4" fill="#FCEE09" />
<rect x="136" y="116" width="4" height="4" fill="#FCEE09" />
<rect x="140" y="116" width="4" height="4" fill="#FCEE09" />
<rect x="144" y="116" width="4" height="4" fill="#FCEE09" />
<rect x="148" y="116" width="4" height="4" fill="#FCEE09" />
<rect x="152" y="116" width="4" height="4" fill="#FCEE09" />
<rect x="156" y="116" width="4" height="4" fill="#FCEE09" />
<rect x="160" y="116" width="4" height="4" fill="#FCEE09" />
<rect x="164" y="116" width="4" height="4" fill="#FCEE09" />
<rect x="168" y="116" width="4" height="4" fill="#FCEE09" />
<rect x="172" y="116" width="4" height="4" fill="#FCEE09" />
<rect x="176" y="116" width="4" height="4" fill="#FCEE09" />
<rect x="180" y="116" width="4" height="4" fill="#FCEE09" />
<rect x="184" y="116" width="4" height="4" fill="#FCEE09" />
<rect x="188" y="116" width="4" height="4" fill="#FCEE09" />
<rect x="192" y="116" width="4" height="4" fill="#FCEE09" />
</svg>