<?xml version="1.0" encoding="UTF-8" ?>
<svg version="1.1" width="200" height="200" xmlns="http://www.w3.org/2000/svg" shape-rendering="crispEdges">
<rect x="168" y="32" width="4" height="4" fill="#FCEE09" />
<rect x="168" y="36" width="4" height="4" fill="#FCEE09" />
<rect x="172" y="36" width="4" height="4" fill="#FCEE09" />
<rect x="168" y="40" width="4" height="4" fill="#FCEE09" />
<rect x="172" y="40" width="4" height="4" fill="#FCEE09" />
<rect x="176" y="40" width="4" height="4" fill="#FCEE09" />
<rect x="168" y="44" width="4" height="4" fill="#FCEE09" />
<rect x="172" y="44" width="4" height="4" fill="#FCEE09" />
<rect x="176" y="44" width="4" height="4" fill="#FCEE09" />
<rect x="180" y="44" width="4" height="4" fill="#FCEE09" />
<rect x="168" y="48" width="4" height="4" fill="#FCEE09" />
<rect x="172" y="48" width="4" height="4" fill="#FCEE09" />
<rect x="176" y="48" width="4" height="4" fill="#FCEE09" />
<rect x="180" y="48" width="4" height="4" fill="#FCEE09" />
<rect x="184" y="48" width="4" height="4" fill="#FCEE09" />
<rect x="8" y="52" width="4" height="4" fill="#FCEE09" />
<rect x="12" y="52" width="4" height="4" fill="#FCEE09" />
<rect x="16" y="52" width="4" height="4" fill="#FCEE09" />
<rect x="20" y="52" width="4" height="4" fill="#FCEE09" />
<rect x="24" y="52" width="4" height="4" fill="#FCEE09" />
<rect x="28" y="52" width="4" height="4" fill="#FCEE09" />
<rect x="32" y="52" width="4" height="4" fill="#FCEE09" />
<rect x="36" y="52" width="4" height="4" fill="#FCEE09" />
<rect x="40" y="52" width="4" height="4" fill="#FCEE09" />
<rect x="44" y="52" width="4" height="4" fill="#FCEE09" />
<rect x="48" y="52" width="4" height="4" fill="#FCEE09" />
<rect x="52" y="52" width="4" height="4" fill="#FCEE09" />
<rect x="128" y="52" width="4" height="4" fill="#FCEE09" />
<rect x="132" y="52" width="4" height="4" fill="#FCEE09" />
<rect x="136" y="52" width="4" height="4" fill="#FCEE09" />
<rect x="140" y="52" width="4" height="4" fill="#FCEE09" />
<rect x="144" y="52" width="4" height="4" fill="#FCEE09" />
<rect x="148" y="52" width="4" height="4" fill="#FCEE09" />
<rect x="152" y="52" width="4" height="4" fill="#FCEE09" />
<rect x="156" y="52" width="4" height="4" fill="#FCEE09" />
<rect x="160" y="52" width="4" height="4" fill="#FCEE09" />
<rect x="164" y="52" width="4" height="4" fill="#FCEE09" />
<rect x="168" y="52" width="4" height="4" fill="#FCEE09" />
<rect x="172" y="52" width="4" height="4" fill="#FCEE09" />
<rect x="176" y="52" width="4" height="4" fill="#FCEE09" />
<rect x="180" y="52" width="4" height="4" fill="#FCEE09" />
<rect x="184" y="52" width="4" height="4" fill="#FCEE09" />
<rect x="188" y="52" width="4" height="4" fill="#FCEE09" />
<rect x="8" y="56" width="4" height="4" fill="#FCEE09" />
<rect x="12" y="56" width="4" height="4" fill="#FCEE09" />
<rect x="16" y="56" width="4" height="4" fill="#FCEE09" />
<rect x="20" y="56" width="4" height="4" fill="#FCEE09" />
<rect x="24" y="56" width="4" height="4" fill="#FCEE09" />
<rect x="28" y="56" width="4" height="4" fill="#FCEE09" />
<rect x="32" y="56" width="4" height="4" fill="#FCEE09" />
<rect x="36" y="56" width="4" height="4" fill="#FCEE09" />
<rect x="40" y="56" width="4" height="4" fill="#FCEE09" />
<rect x="44" y="56" width="4" height="4" fill="#FCEE09" />
<rect x="48" y="56" width="4" height="4" fill="#FCEE09" />
<rect x="52" y="56" width="4" height="4" fill="#FCEE09" />
<rect x="56" y="56" width="4" height="4" fill="#FCEE09" />
<rect x="124" y="56" width="4" height="4" fill="#FCEE09" />
<rect x="128" y="56" width="4" height="4" fill="#FCEE09" />
<rect x="132" y="56" width="4" height="4" fill="#FCEE09" />
<rect x="136" y="56" width="4" height="4" fill="#FCEE09" />
<rect x="140" y="56" width="4" height="4" fill="#FCEE09" />
<rect x="144" y="56" width="4" height="4" fill="#FCEE09" />
<rect x="148" y="56" width="4" height="4" fill="#FCEE09" />
<rect x="152" y="56" width="4" height="4" fill="#FCEE09" />
<rect x="156" y="56" width="4" height="4" fill="#FCEE09" />
<rect x="160" y="56" width="4" height="4" fill="#FCEE09" />
<rect x="164" y="56" width="4" height="4" fill="#FCEE09" />
<rect x="168" y="56" width="4" height="4" fill="#FCEE09" />
<rect x="172" y="56" width="4" height="4" fill="#FCEE09" />
<rect x="176" y="56" width="4" height="4" fill="#FCEE09" />
<rect x="180" y="56" width="4" height="4" fill="#FCEE09" />
<rect x="184" y="56" width="4" height="4" fill="#FCEE09" />
<rect x="188" y="56" width="4" height="4" fill="#FCEE09" />
<rect x="192" y="56" width="4" height="4" fill="#FCEE09" />
<rect x="8" y="60" width="4" height="4" fill="#FCEE09" />
<rect x="12" y="60" width="4" height="4" fill="#FCEE09" />
<rect x="16" y="60" width="4" height="4" fill="#FCEE09" />
<rect x="20" y="60" width="4" height="4" fill="#FCEE09" />
<rect x="24" y="60" width="4" height="4" fill="#FCEE09" />
<rect x="28" y="60" width="4" height="4" fill="#FCEE09" />
<rect x="32" y="60" width="4" height="4" fill="#FCEE09" />
<rect x="36" y="60" width="4" height="4" fill="#FCEE09" />
<rect x="40" y="60" width="4" height="4" fill="#FCEE09" />
<rect x="44" y="60" width="4" height="4" fill="#FCEE09" />
<rect x="48" y="60" width="4" height="4" fill="#FCEE09" />
<rect x="52" y="60" width="4" height="4" fill="#FCEE09" />
<rect x="56" y="60" width="4" height="4" fill="#FCEE09" />
<rect x="60" y="60" width="4" height="4" fill="#FCEE09" />
<rect x="120" y="60" width="4" height="4" fill="#FCEE09" />
<rect x="124" y="60" width="4" height="4" fill="#FCEE09" />
<rect x="128" y="60" width="4" height="4" fill="#FCEE09" />
<rect x="132" y="60" width="4" height="4" fill="#FCEE09" />
<rect x="136" y="60" width="4" height="4" fill="#FCEE09" />
<rect x="140" y="60" width="4" height="4" fill="#FCEE09" />
<rect x="144" y="60" width="4" height="4" fill="#FCEE09" />
<rect x="148" y="60" width="4" height="4" fill="#FCEE09" />
<rect x="152" y="60" width="4" height="4" fill="#FCEE09" />
<rect x="156" y="60" width="4" height="4" fill="#FCEE09" />
<rect x="160" y="60" width="4" height="4" fill="#FCEE09" />
<rect x="164" y="60" width="4" height="4" fill="#FCEE09" />
<rect x="168" y="60" width="4" height="4" fill="#FCEE09" />
<rect x="172" y="60" width="4" height="4" fill="#FCEE09" />
<rect x="176" y="60" width="4" height="4" fill="#FCEE09" />
<rect x="180" y="60" width="4" height="4" fill="#FCEE09" />
<rect x="184" y="60" width="4" height="4" fill="#FCEE09" />
<rect x="188" y="60" width="4" height="4" fill="#FCEE09" />
<rect x="192" y="60" width="4" height="4" fill="#FCEE09" />
<rect x="8" y="64" width="4" height="4" fill="#FCEE09" />
<rect x="12" y="64" width="4" height="4" fill="#FCEE09" />
<rect x="16" y="64" width="4" height="4" fill="#FCEE09" />
<rect x="20" y="64" width="4" height="4" fill="#FCEE09" />
<rect x="24" y="64" width="4" height="4" fill="#FCEE09" />
<rect x="28" y="64" width="4" height="4" fill="#FCEE09" />
<rect x="32" y="64" width="4" height="4" fill="#FCEE09" />
<rect x="36" y="64" width="4" height="4" fill="#FCEE09" />
<rect x="40" y="64" width="4" height="4" fill="#FCEE09" />
<rect x="44" y="64" width="4" height="4" fill="#FCEE09" />
<rect x="48" y="64" width="4" height="4" fill="#FCEE09" />
<rect x="52" y="64" width="4" height="4" fill="#FCEE09" />
<rect x="56" y="64" width="4" height="4" fill="#FCEE09" />
<rect x="60" y="64" width="4" height="4" fill="#FCEE09" />
<rect x="64" y="64" width="4" height="4" fill="#FCEE09" />
<rect x="116" y="64" width="4" height="4" fill="#FCEE09" />
<rect x="120" y="64" width="4" height="4" fill="#FCEE09" />
<rect x="124" y="64" width="4" height="4" fill="#FCEE09" />
<rect x="128" y="64" width="4" height="4" fill="#FCEE09" />
<rect x="132" y="64" width="4" height="4" fill="#FCEE09" />
<rect x="136" y="64" width="4" height="4" fill="#FCEE09" />
<rect x="140" y="64" width="4" height="4" fill="#FCEE09" />
<rect x="144" y="64" width="4" height="4" fill="#FCEE09" />
<rect x="148" y="64" width="4" height="4" fill="#FCEE09" />
<rect x="152" y="64" width="4" height="4" fill="#FCEE09" />
<rect x="156" y="64" width="4" height="4" fill="#FCEE09" />
<rect x="160" y="64" width="4" height="4" fill="#FCEE09" />
<rect x="164" y="64" width="4" height="4" fill="#FCEE09" />
<rect x="168" y="64" width="4" height="4" fill="#FCEE09" />
<rect x="172" y="64" width="4" height="4" fill="#FCEE09" />
<rect x="176" y="64" width="4" height="4" fill="#FCEE09" />
<rect x="180" y="64" width="4" height="4" fill="#FCEE09" />
<rect x="184" y="64" width="4" height="4" fill="#FCEE09" />
<rect x="188" y="64" width="4" height="4" fill="#FCEE09" />
<rect x="52" y="68" width="4" height="4" fill="#FCEE09" />
<rect x="56" y="68" width="4" height="4" fill="#FCEE09" />
<rect x="60" y="68" width="4" height="4" fill="#FCEE09" />
<rect x="64" y="68" width="4" height="4" fill="#FCEE09" />
<rect x="68" y="68" width="4" height="4" fill="#FCEE09" />
<rect x="112" y="68" width="4" height="4" fill="#FCEE09" />
<rect x="116" y="68" width="4" height="4" fill="#FCEE09" />
<rect x="120" y="68" width="4" height="4" fill="#FCEE09" />
<rect x="124" y="68" width="4" height="4" fill="#FCEE09" />
<rect x="128" y="68" width="4" height="4" fill="#FCEE09" />
<rect x="168" y="68" width="4" height="4" fill="#FCEE09" />
<rect x="172" y="68" width="4" height="4" fill="#FCEE09" />
<rect x="176" y="68" width="4" height="4" fill="#FCEE09" />
<rect x="180" y="68" width="4" height="4" fill="#FCEE09" />
<rect x="184" y="68" width="4" height="4" fill="#FCEE09" />
<rect x="56" y="72" width="4" height="4" fill="#FCEE09" />
<rect x="60" y="72" width="4" height="4" fill="#FCEE09" />
<rect x="64" y="72" width="4" height="4" fill="#FCEE09" />
<rect x="68" y="72" width="4" height="4" fill="#FCEE09" />
<rect x="72" y="72" width="4" height="4" fill="#FCEE09" />
<rect x="108" y="72" width="4" height="4" fill="#FCEE09" />
<rect x="112" y="72" width="4" height="4" fill="#FCEE09" />
<rect x="116" y="72" width="4" height="4" fill="#FCEE09" />
<rect x="120" y="72" width="4" height="4" fill="#FCEE09" />
<rect x="124" y="72" width="4" height="4" fill="#FCEE09" />
<rect x="168" y="72" width="4" height="4" fill="#FCEE09" />
<rect x="172" y="72" width="4" height="4" fill="#FCEE09" />
<rect x="176" y="72" width="4" height="4" fill="#FCEE09" />
<rect x="180" y="72" width="4" height="4" fill="#FCEE09" />
<rect x="60" y="76" width="4" height="4" fill="#FCEE09" />
<rect x="64" y="76" width="4" height="4" fill="#FCEE09" />
<rect x="68" y="76" width="4" height="4" fill="#FCEE09" />
<rect x="72" y="76" width="4" height="4" fill="#FCEE09" />
<rect x="76" y="76" width="4" height="4" fill="#FCEE09" />
<rect x="104" y="76" width="4" height="4" fill="#FCEE09" />
<rect x="108" y="76" width="4" height="4" fill="#FCEE09" />
<rect x="112" y="76" width="4" height="4" fill="#FCEE09" />
<rect x="116" y="76" width="4" height="4" fill="#FCEE09" />
<rect x="120" y="76" width="4" height="4" fill="#FCEE09" />
<rect x="168" y="76" width="4" height="4" fill="#FCEE09" />
<rect x="172" y="76" width="4" height="4" fill="#FCEE09" />
<rect x="176" y="76" width="4" height="4" fill="#FCEE09" />
<rect x="64" y="80" width="4" height="4" fill="#FCEE09" />
<rect x="68" y="80" width="4" height="4" fill="#FCEE09" />
<rect x="72" y="80" width="4" height="4" fill="#FCEE09" />
<rect x="76" y="80" width="4" height="4" fill="#FCEE09" />
<rect x="80" y="80" width="4" height="4" fill="#FCEE09" />
<rect x="100" y="80" width="4" height="4" fill="#FCEE09" />
<rect x="104" y="80" width="4" height="4" fill="#FCEE09" />
<rect x="108" y="80" width="4" height="4" fill="#FCEE09" />
<rect x="112" y="80" width="4" height="4" fill="#FCEE09" />
<rect x="116" y="80" width="4" height="4" fill="#FCEE09" />
<rect x="168" y="80" width="4" height="4" fill="#FCEE09" />
<rect x="172" y="80" width="4" height="4" fill="#FCEE09" />
<rect x="68" y="84" width="4" height="4" fill="#FCEE09" />
<rect x="72" y="84" width="4" height="4" fill="#FCEE09" />
<rect x="76" y="84" width="4" height="4" fill="#FCEE09" />
<rect x="80" y="84" width="4" height="4" fill="#FCEE09" />
<rect x="84" y="84" width="4" height="4" fill="#FCEE09" />
<rect x="96" y="84" width="4" height="4" fill="#FCEE09" />
<rect x="100" y="84" width="4" height="4" fill="#FCEE09" />
<rect x="104" y="84" width="4" height="4" fill="#FCEE09" />
<rect x="108" y="84" width="4" height="4" fill="#FCEE09" />
<rect x="112" y="84" width="4" height="4" fill="#FCEE09" />
<rect x="168" y="84" width="4" height="4" fill="#FCEE09" />
<rect x="72" y="88" width="4" height="4" fill="#FCEE09" />
<rect x="76" y="88" width="4" height="4" fill="#FCEE09" />
<rect x="80" y="88" width="4" height="4" fill="#FCEE09" />
<rect x="92" y="88" width="4" height="4" fill="#FCEE09" />
<rect x="96" y="88" width="4" height="4" fill="#FCEE09" />
<rect x="100" y="88" width="4" height="4" fill="#FCEE09" />
<rect x="104" y="88" width="4" height="4" fill="#FCEE09" />
<rect x="108" y="88" width="4" height="4" fill="#FCEE09" />
<rect x="76" y="92" width="4" height="4" fill="#FCEE09" />
<rect x="88" y="92" width="4" height="4" fill="#FCEE09" />
<rect x="92" y="92" width="4" height="4" fill="#FCEE09" />
<rect x="96" y="92" width="4" height="4" fill="#FCEE09" />
<rect x="100" y="92" width="4" height="4" fill="#FCEE09" />
<rect x="104" y="92" width="4" height="4" fill="#FCEE09" />
<rect x="84" y="96" width="4" height="4" fill="#FCEE09" />
<rect x="88" y="96" width="4" height="4" fill="#FCEE09" />
<rect x="92" y="96" width="4" height="4" fill="#FCEE09" />
<rect x="96" y="96" width="4" height="4" fill="#FCEE09" />
<rect x="100" y="96" width="4" height="4" fill="#FCEE09" />
<rect x="80" y="100" width="4" height="4" fill="#FCEE09" />
<rect x="84" y="100" width="4" height="4" fill="#FCEE09" />
<rect x="88" y="100" width="4" height="4" fill="#FCEE09" />
<rect x="92" y="100" width="4" height="4" fill="#FCEE09" />
<rect x="96" y="100" width="4" height="4" fill="#FCEE09" />
<rect x="76" y="104" width="4" height="4" fill="#FCEE09" />
<rect x="80" y="104" width="4" height="4" fill="#FCEE09" />
<rect x="84" y="104" width="4" height="4" fill="#FCEE09" />
<rect x="88" y="104" width="4" height="4" fill="#FCEE09" />
<rect x="92" y="104" width="4" height="4" fill="#FCEE09" />
<rect x="104" y="104" width="4" height="4" fill="#FCEE09" />
<rect x="72" y="108" width="4" height="4" fill="#FCEE09" />
<rect x="76" y="108" width="4" height="4" fill="#FCEE09" />
<rect x="80" y="108" width="4" height="4" fill="#FCEE09" />
<rect x="84" y="108" width="4" height="4" fill="#FCEE09" />
<rect x="88" y="108" width="4" height="4" fill="#FCEE09" />
<rect x="100" y="108" width="4" height="4" fill="#FCEE09" />
<rect x="104" y="108" width="4" height="4" fill="#FCEE09" />
<rect x="108" y="108" width="4" height="4" fill="#FCEE09" />
<rect x="68" y="112" width="4" height="4" fill="#FCEE09" />
<rect x="72" y="112" width="4" height="4" fill="#FCEE09" />
<rect x="76" y="112" width="4" height="4" fill="#FCEE09" />
<rect x="80" y="112" width="4" height="4" fill="#FCEE09" />
<rect x="84" y="112" width="4" height="4" fill="#FCEE09" />
<rect x="96" y="112" width="4" height="4" fill="#FCEE09" />
<rect x="100" y="112" width="4" height="4" fill="#FCEE09" />
<rect x="104" y="112" width="4" height="4" fill="#FCEE09" />
<rect x="108" y="112" width="4" height="4" fill="#FCEE09" />
<rect x="112" y="112" width="4" height="4" fill="#FCEE09" />
<rect x="168" y="112" width="4" height="4" fill="#FCEE09" />
<rect x="64" y="116" width="4" height="4" fill="#FCEE09" />
<rect x="68" y="116" width="4" height="4" fill="#FCEE09" />
<rect x="72" y="116" width="4" height="4" fill="#FCEE09" />
<rect x="76" y="116" width="4" height="4" fill="#FCEE09" />
<rect x="80" y="116" width="4" height="4" fill="#FCEE09" />
<rect x="100" y="116" width="4" height="4" fill="#FCEE09" />
<rect x="104" y="116" width="4" height="4" fill="#FCEE09" />
<rect x="108" y="116" width="4" height="4" fill="#FCEE09" />
<rect x="112" y="116" width="4" height="4" fill="#FCEE09" />
<rect x="116" y="116" width="4" height="4" fill="#FCEE09" />
<rect x="168" y="116" width="4" height="4" fill="#FCEE09" />
<rect x="172" y="116" width="4" height="4" fill="#FCEE09" />
<rect x="60" y="120" width="4" height="4" fill="#FCEE09" />
<rect x="64" y="120" width="4" height="4" fill="#FCEE09" />
<rect x="68" y="120" width="4" height="4" fill="#FCEE09" />
<rect x="72" y="120" width="4" height="4" fill="#FCEE09" />
<rect x="76" y="120" width="4" height="4" fill="#FCEE09" />
<rect x="104" y="120" width="4" height="4" fill="#FCEE09" />
<rect x="108" y="120" width="4" height="4" fill="#FCEE09" />
<rect x="112" y="120" width="4" height="4" fill="#FCEE09" />
<rect x="116" y="120" width="4" height="4" fill="#FCEE09" />
<rect x="120" y="120" width="4" height="4" fill="#FCEE09" />
<rect x="168" y="120" width="4" height="4" fill="#FCEE09" />
<rect x="172" y="120" width="4" height="4" fill="#FCEE09" />
<rect x="176" y="120" width="4" height="4" fill="#FCEE09" />
<rect x="56" y="124" width="4" height="4" fill="#FCEE09" />
<rect x="60" y="124" width="4" height="4" fill="#FCEE09" />
<rect x="64" y="124" width="4" height="4" fill="#FCEE09" />
<rect x="68" y="124" width="4" height="4" fill="#FCEE09" />
<rect x="72" y="124" width="4" height="4" fill="#FCEE09" />
<rect x="108" y="124" width="4" height="4" fill="#FCEE09" />
<rect x="112" y="124" width="4" height="4" fill="#FCEE09" />
<rect x="116" y="124" width="4" height="4" fill="#FCEE09" />
<rect x="120" y="124" width="4" height="4" fill="#FCEE09" />
<rect x="124" y="124" width="4" height="4" fill="#FCEE09" />
<rect x="168" y="124" width="4" height="4" fill="#FCEE09" />
<rect x="172" y="124" width="4" height="4" fill="#FCEE09" />
<rect x="176" y="124" width="4" height="4" fill="#FCEE09" />
<rect x="180" y="124" width="4" height="4" fill="#FCEE09" />
<rect x="52" y="128" width="4" height="4" fill="#FCEE09" />
<rect x="56" y="128" width="4" height="4" fill="#FCEE09" />
<rect x="60" y="128" width="4" height="4" fill="#FCEE09" />
<rect x="64" y="128" width="4" height="4" fill="#FCEE09" />
<rect x="68" y="128" width="4" height="4" fill="#FCEE09" />
<rect x="112" y="128" width="4" height="4" fill="#FCEE09" />
<rect x="116" y="128" width="4" height="4" fill="#FCEE09" />
<rect x="120" y="128" width="4" height="4" fill="#FCEE09" />
<rect x="124" y="128" width="4" height="4" fill="#FCEE09" />
<rect x="128" y="128" width="4" height="4" fill="#FCEE09" />
<rect x="168" y="128" width="4" height="4" fill="#FCEE09" />
<rect x="172" y="128" width="4" height="4" fill="#FCEE09" />
<rect x="176" y="128" width="4" height="4" fill="#FCEE09" />
<rect x="180" y="128" width="4" height="4" fill="#FCEE09" />
<rect x="184" y="128" width="4" height="4" fill="#FCEE09" />
<rect x="8" y="132" width="4" height="4" fill="#FCEE09" />
<rect x="12" y="132" width="4" height="4" fill="#FCEE09" />
<rect x="16" y="132" width="4" height="4" fill="#FCEE09" />
<rect x="20" y="132" width="4" height="4" fill="#FCEE09" />
<rect x="24" y="132" width="4" height="4" fill="#FCEE09" />
<rect x="28" y="132" width="4" height="4" fill="#FCEE09" />
<rect x="32" y="132" width="4" height="4" fill="#FCEE09" />
<rect x="36" y="132" width="4" height="4" fill="#FCEE09" />
<rect x="40" y="132" width="4" height="4" fill="#FCEE09" />
<rect x="44" y="132" width="4" height="4" fill="#FCEE09" />
<rect x="48" y="132" width="4" height="4" fill="#FCEE09" />
<rect x="52" y="132" width="4" height="4" fill="#FCEE09" />
<rect x="56" y="132" width="4" height="4" fill="#FCEE09" />
<rect x="60" y="132" width="4" height="4" fill="#FCEE09" />
<rect x="64" y="132" width="4" height="4" fill="#FCEE09" />
<rect x="116" y="132" width="4" height="4" fill="#FCEE09" />
<rect x="120" y="132" width="4" height="4" fill="#FCEE09" />
<rect x="124" y="132" width="4" height="4" fill="#FCEE09" />
<rect x="128" y="132" width="4" height="4" fill="#FCEE09" />
<rect x="132" y="132" width="4" height="4" fill="#FCEE09" />
<rect x="136" y="132" width="4" height="4" fill="#FCEE09" />
<rect x="140" y="132" width="4" height="4" fill="#FCEE09" />
<rect x="144" y="132" width="4" height="4" fill="#FCEE09" />
<rect x="148" y="132" width="4" height="4" fill="#FCEE09" />
<rect x="152" y="132" width="4" height="4" fill="#FCEE09" />
<rect x="156" y="132" width="4" height="4" fill="#FCEE09" />
<rect x="160" y="132" width="4" height="4" fill="#FCEE09" />
<rect x="164" y="132" width="4" height="4" fill="#FCEE09" />
<rect x="168" y="132" width="4" height="4" fill="#FCEE09" />
<rect x="172" y="132" width="4" height="4" fill="#FCEE09" />
<rect x="176" y="132" width="4" height="4" fill="#FCEE09" />
<rect x="180" y="132" width="4" height="4" fill="#FCEE09" />
<rect x="184" y="132" width="4" height="4" fill="#FCEE09" />
<rect x="188" y="132" width="4" height="4" fill="#FCEE09" />
<rect x="8" y="136" width="4" height="4" fill="#FCEE09" />
<rect x="12" y="136" width="4" height="4" fill="#FCEE09" />
<rect x="16" y="136" width="4" height="4" fill="#FCEE09" />
<rect x="20" y="136" width="4" height="4" fill="#FCEE09" />
<rect x="24" y="136" width="4" height="4" fill="#FCEE09" />
<rect x="28" y="136" width="4" height="4" fill="#FCEE09" />
<rect x="32" y="136" width="4" height="4" fill="#FCEE09" />
<rect x="36" y="136" width="4" height="4" fill="#FCEE09" />
<rect x="40" y="136" width="4" height="4" fill="#FCEE09" />
<rect x="44" y="136" width="4" height="4" fill="#FCEE09" />
<rect x="48" y="136" width="4" height="4" fill="#FCEE09" />
<rect x="52" y="136" width="4" height="4" fill="#FCEE09" />
<rect x="56" y="136" width="4" height="4" fill="#FCEE09" />
<rect x="60" y="136" width="4" height="4" fill="#FCEE09" />
<rect x="120" y="136" width="4" height="4" fill="#FCEE09" />
<rect x="124" y="136" width="4" height="4" fill="#FCEE09" />
<rect x="128" y="136" width="4" height="4" fill="#FCEE09" />
<rect x="132" y="136" width="4" height="4" fill="#FCEE09" />
<rect x="136" y="136" width="4" height="4" fill="#FCEE09" />
<rect x="140" y="136" width="4" height="4" fill="#FCEE09" />
<rect x="144" y="136" width="4" height="4" fill="#FCEE09" />
<rect x="148" y="136" width="4" height="4" fill="#FCEE09" />
<rect x="152" y="136" width="4" height="4" fill="#FCEE09" />
<rect x="156" y="136" width="4" height="4" fill="#FCEE09" />
<rect x="160" y="136" width="4" height="4" fill="#FCEE09" />
<rect x="164" y="136" width="4" height="4" fill="#FCEE09" />
<rect x="168" y="136" width="4" height="4" fill="#FCEE09" />
<rect x="172" y="136" width="4" height="4" fill="#FCEE09" />
<rect x="176" y="136" width="4" height="4" fill="#FCEE09" />
<rect x="180" y="136" width="4" height="4" fill="#FCEE09" />
<rect x="184" y="136" width="4" height="4" fill="#FCEE09" />
<rect x="188" y="136" width="4" height="4" fill="#FCEE09" />
<rect x="192" y="136" width="4" height="4" fill="#FCEE09" />
<rect x="8" y="140" width="4" height="4" fill="#FCEE09" />
<rect x="12" y="140" width="4" height="4" fill="#FCEE09" />
<rect x="16" y="140" width="4" height="4" fill="#FCEE09" />
<rect x="20" y="140" width="4" height="4" fill="#FCEE09" />
<rect x="24" y="140" width="4" height="4" fill="#FCEE09" />
<rect x="28" y="140" width="4" height="4" fill="#FCEE09" />
<rect x="32" y="140" width="4" height="4" fill="#FCEE09" />
<rect x="36" y="140" width="4" height="4" fill="#FCEE09" />
<rect x="40" y="140" width="4" height="4" fill="#FCEE09" />
<rect x="44" y="140" width="4" height="4" fill="#FCEE09" />
<rect x="48" y="140" width="4" height="4" fill="#FCEE09" />
<rect x="52" y="140" width="4" height="4" fill="#FCEE09" />
<rect x="56" y="140" width="4" height="4" fill="#FCEE09" />
<rect x="124" y="140" width="4" height="4" fill="#FCEE09" />
<rect x="128" y="140" width="4" height="4" fill="#FCEE09" />
<rect x="132" y="140" width="4" height="4" fill="#FCEE09" />
<rect x="136" y="140" width="4" height="4" fill="#FCEE09" />
<rect x="140" y="140" width="4" height="4" fill="#FCEE09" />
<rect x="144" y="140" width="4" height="4" fill="#FCEE09" />
<rect x="148" y="140" width="4" height="4" fill="#FCEE09" />
<rect x="152" y="140" width="4" height="4" fill="#FCEE09" />
<rect x="156" y="140" width="4" height="4" fill="#FCEE09" />
<rect x="160" y="140" width="4" height="4" fill="#FCEE09" />
<rect x="164" y="140" width="4" height="4" fill="#FCEE09" />
<rect x="168" y="140" width="4" height="4" fill="#FCEE09" />
<rect x="172" y="140" width="4" height="4" fill="#FCEE09" />
<rect x="176" y="140" width="4" height="4" fill="#FCEE09" />
<rect x="180" y="140" width="4" height="4" fill="#FCEE09" />
<rect x="184" y="140" width="4" height="4" fill="#FCEE09" />
<rect x="188" y="140" width="4" height="4" fill="#FCEE09" />
<rect x="192" y="140" width="4" height="4" fill="#FCEE09" />
<rect x="8" y="144" width="4" height="4" fill="#FCEE09" />
<rect x="12" y="144" width="4" height="4" fill="#FCEE09" />
<rect x="16" y="144" width="4" height="4" fill="#FCEE09" />
<rect x="20" y="144" width="4" height="4" fill="#FCEE09" />
<rect x="24" y="144" width="4" height="4" fill="#FCEE09" />
<rect x="28" y="144" width="4" height="4" fill="#FCEE09" />
<rect x="32" y="144" width="4" height="4" fill="#FCEE09" />
<rect x="36" y="144" width="4" height="4" fill="#FCEE09" />
<rect x="40" y="144" width="4" height="4" fill="#FCEE09" />
<rect x="44" y="144" width="4" height="4" fill="#FCEE09" />
<rect x="48" y="144" width="4" height="4" fill="#FCEE09" />
<rect x="52" y="144" width="4" height="4" fill="#FCEE09" />
<rect x="128" y="144" width="4" height="4" fill="#FCEE09" />
<rect x="132" y="144" width="4" height="4" fill="#FCEE09" />
<rect x="136" y="144" width="4" height="4" fill="#FCEE09" />
<rect x="140" y="144" width="4" height="4" fill="#FCEE09" />
<rect x="144" y="144" width="4" height="4" fill="#FCEE09" />
<rect x="148" y="144" width="4" height="4" fill="#FCEE09" />
<rect x="152" y="144" width="4" height="4" fill="#FCEE09" />
<rect x="156" y="144" width="4" height="4" fill="#FCEE09" />
<rect x="160" y="144" width="4" height="4" fill="#FCEE09" />
<rect x="164" y="144" width="4" height="4" fill="#FCEE09" />
<rect x="168" y="144" width="4" height="4" fill="#FCEE09" />
<rect x="172" y="144" width="4" height="4" fill="#FCEE09" />
<rect x="176" y="144" width="4" height="4" fill="#FCEE09" />
<rect x="180" y="144" width="4" height="4" fill="#FCEE09" />
<rect x="184" y="144" width="4" height="4" fill="#FCEE09" />
<rect x="188" y="144" width="4" height="4" fill="#FCEE09" />
<rect x="168" y="148" width="4" height="4" fill="#FCEE09" />
<rect x="172" y="148" width="4" height="4" fill="#FCEE09" />
<rect x="176" y="148" width="4" height="4" fill="#FCEE09" />
<rect x="180" y="148" width="4" height="4" fill="#FCEE09" />
<rect x="184" y="148" width="4" height="4" fill="#FCEE09" />
<rect x="168" y="152" width="4" height="4" fill="#FCEE09" />
<rect x="172" y="152" width="4" height="4" fill="#FCEE09" />
<rect x="176" y="152" width="4" height="4" fill="#FCEE09" />
<rect x="180" y="152" width="4" height="4" fill="#FCEE09" />
<rect x="168" y="156" width="4" height="4" fill="#FCEE09" />
<rect x="172" y="156" width="4" height="4" fill="#FCEE09" />
<rect x="176" y="156" width="4" height="4" fill="#FCEE09" />
<rect x="168" y="160" width="4" height="4" fill="#FCEE09" />
<rect x="172" y="160" width="4" height="4" fill="#FCEE09" />
<rect x="168" y="164" width="4" height="4" fill="#FCEE09" />
</svg>